<svg xmlns="http://www.w3.org/2000/svg" viewBox="0 0 575 1050" width="575" height="1050">
  <!--
    TIDEBREAKER — table 2 of Pinball Reverie. An abyssal salvage dive: the
    playfield is a trench, surface rig at the top, wreck at the bottom.
    Master units: 1 SVG unit = 1 mm (style guide §3). Design truth:
    design/tables/tidebreaker/BRIEF.md; layout clearance-solved against the
    STYLE-GUIDE §4 ball-gap rules.

    This file is the single source of truth for table shape (§5e):
    collision-/sensor-/anchor-/height-profile- prefixed elements are parsed
    into physics by src/table/SvgCollision.ts. The collision strokes ARE the
    drawn walls. Layers (M10, §4 "Layers & height"): data-layer="1" walls
    are the winch ramp + habitrail (elevated, chrome wireform art);
    data-layer="-1" profiles are the trench/gutter subways. Art may use any
    SVG features; collision paths are polylines only.
  -->
  <defs>
    <linearGradient id="abyssGrad" x1="0" y1="0" x2="0" y2="1">
      <stop offset="0" stop-color="#1c4356"/>
      <stop offset="0.42" stop-color="#143240"/>
      <stop offset="1" stop-color="#0b1e27"/>
    </linearGradient>
    <radialGradient id="vignette" cx="0.5" cy="0.45" r="0.8">
      <stop offset="0.6" stop-color="#07080d" stop-opacity="0"/>
      <stop offset="1" stop-color="#07080d" stop-opacity="0.34"/>
    </radialGradient>
    <linearGradient id="chromeText" x1="0" y1="0" x2="0" y2="1">
      <stop offset="0" stop-color="#ffffff"/>
      <stop offset="0.46" stop-color="#d7dce8"/>
      <stop offset="0.52" stop-color="#565d6e"/>
      <stop offset="0.60" stop-color="#aeb6c8"/>
      <stop offset="1" stop-color="#ffffff"/>
    </linearGradient>
    <radialGradient id="bioGlow" cx="0.5" cy="0.5" r="0.5">
      <stop offset="0" stop-color="#2fc9d6" stop-opacity="0.3"/>
      <stop offset="1" stop-color="#2fc9d6" stop-opacity="0"/>
    </radialGradient>
    <radialGradient id="lureGlow" cx="0.5" cy="0.5" r="0.5">
      <stop offset="0" stop-color="#ff3e9a" stop-opacity="0.35"/>
      <stop offset="1" stop-color="#ff3e9a" stop-opacity="0"/>
    </radialGradient>
    <filter id="glowSoft" x="-60%" y="-60%" width="220%" height="220%">
      <feGaussianBlur stdDeviation="6" result="b"/>
      <feMerge><feMergeNode in="b"/><feMergeNode in="SourceGraphic"/></feMerge>
    </filter>
  </defs>

  <!-- ═══════════════ art: the water column ═══════════════ -->
  <g id="art-field">
    <rect x="0" y="0" width="575" height="1050" fill="url(#abyssGrad)"/>

    <!-- moonlight shafts from the surface (banded, era-authentic) -->
    <g fill="#2fc9d6">
      <polygon points="150,20 90,420 130,430 175,24" opacity="0.07"/>
      <polygon points="260,10 235,460 275,460 290,12" opacity="0.08"/>
      <polygon points="380,24 400,420 440,405 405,30" opacity="0.065"/>
    </g>
    <!-- surface swell + the same moon Moondial watches -->
    <g opacity="0.85">
      <circle cx="453" cy="40" r="15" fill="#aeb6c8" stroke="#07080d" stroke-width="1.5"/>
      <path d="M 453 25 a 15 15 0 0 0 0 30 a 11 15 0 0 1 0 -30 Z" fill="#d7dce8" opacity="0.8"/>
      <g stroke="#7f8fc9" stroke-width="2" fill="none" opacity="0.5">
        <path d="M 415 68 q 10 -6 20 0 q 10 6 20 0 q 10 -6 20 0"/>
        <path d="M 425 80 q 10 -6 20 0 q 10 6 20 0"/>
      </g>
    </g>

    <!-- depth banding: the field darkens in visible steps -->
    <g fill="#0b1e27">
      <rect x="0" y="560" width="575" height="490" opacity="0.09"/>
      <rect x="0" y="740" width="575" height="310" opacity="0.11"/>
      <rect x="0" y="900" width="575" height="150" opacity="0.13"/>
    </g>

    <!-- marine snow: three magnitudes, steel-toned, denser with depth -->
    <g fill="#7f8fc9">
      <circle cx="110" cy="210" r="1" opacity="0.3"/><circle cx="330" cy="180" r="1.1" opacity="0.3"/>
      <circle cx="470" cy="240" r="1" opacity="0.25"/><circle cx="220" cy="300" r="1" opacity="0.3"/>
      <circle cx="140" cy="420" r="1.2" opacity="0.35"/><circle cx="390" cy="330" r="1" opacity="0.3"/>
      <circle cx="300" cy="500" r="1.1" opacity="0.35"/><circle cx="90" cy="620" r="1.3" opacity="0.4"/>
      <circle cx="210" cy="600" r="1" opacity="0.35"/><circle cx="420" cy="560" r="1.2" opacity="0.4"/>
      <circle cx="160" cy="680" r="1.1" opacity="0.4"/><circle cx="350" cy="660" r="1.3" opacity="0.4"/>
      <circle cx="250" cy="810" r="1.2" opacity="0.45"/><circle cx="450" cy="700" r="1" opacity="0.35"/>
      <circle cx="60" cy="760" r="1.2" opacity="0.4"/><circle cx="310" cy="860" r="1.1" opacity="0.45"/>
      <circle cx="180" cy="880" r="1.3" opacity="0.45"/><circle cx="410" cy="880" r="1" opacity="0.4"/>
      <circle cx="120" cy="960" r="1" opacity="0.4"/><circle cx="480" cy="820" r="1.2" opacity="0.4"/>
      <circle cx="545" cy="420" r="1.1" opacity="0.3"/><circle cx="548" cy="640" r="1" opacity="0.3"/>
      <circle cx="545" cy="860" r="1.2" opacity="0.35"/>
    </g>
    <!-- bioluminescent plankton (the ≤10% neon lives here) -->
    <g fill="#2fc9d6">
      <circle cx="80" cy="480" r="1.6" opacity="0.55"/><circle cx="240" cy="545" r="1.4" opacity="0.5"/>
      <circle cx="430" cy="620" r="1.6" opacity="0.55"/><circle cx="140" cy="760" r="1.4" opacity="0.5"/>
      <circle cx="330" cy="770" r="1.5" opacity="0.5"/><circle cx="220" cy="920" r="1.6" opacity="0.55"/>
      <circle cx="390" cy="940" r="1.4" opacity="0.5"/>
    </g>
    <g fill="#ff3e9a">
      <circle cx="470" cy="750" r="1.5" opacity="0.4"/><circle cx="100" cy="880" r="1.4" opacity="0.4"/>
    </g>
    <!-- bubble trails -->
    <g fill="none" stroke="#7f8fc9" opacity="0.35">
      <g stroke-width="1.4">
        <circle cx="248" cy="640" r="2.4"/><circle cx="252" cy="612" r="3"/>
        <circle cx="246" cy="580" r="3.6"/><circle cx="253" cy="544" r="4.2"/>
      </g>
      <g stroke-width="1.2">
        <circle cx="448" cy="880" r="2.2"/><circle cx="452" cy="856" r="2.8"/><circle cx="446" cy="828" r="3.4"/>
      </g>
    </g>
  </g>

  <!-- ═══════════════ art: creatures + features ═══════════════ -->
  <g id="art-motifs">
    <!-- jellyfish drifting mid-left (violet — the Reverie signature) -->
    <g transform="translate(120 620)" stroke="#07080d" stroke-width="1.5">
      <circle r="30" fill="url(#bioGlow)" stroke="none"/>
      <path d="M -16 0 A 16 16 0 0 1 16 0 L 12 4 L -12 4 Z" fill="#4e37a8" opacity="0.85"/>
      <path d="M -16 0 A 16 16 0 0 1 16 0" fill="#8c6bff" opacity="0.6"/>
      <g stroke="#8c6bff" stroke-width="1.6" fill="none" opacity="0.7">
        <path d="M -10 5 q -3 14 2 26"/>
        <path d="M -2 6 q 2 12 -2 28"/>
        <path d="M 7 5 q 4 12 0 24"/>
      </g>
    </g>

    <!-- anglerfish silhouette by the trench mouth, magenta lure -->
    <g transform="translate(150 460)">
      <circle cx="30" cy="-12" r="16" fill="url(#lureGlow)" stroke="none"/>
      <circle cx="30" cy="-12" r="2.6" fill="#ff3e9a"/>
      <path d="M 26 -10 q -6 -12 -14 -8" fill="none" stroke="#23262f" stroke-width="2"/>
      <path d="M 12 -16 q 22 -10 34 6 q 6 10 -2 16 q -18 10 -34 0 q -8 -10 2 -22 Z"
            fill="#12141f" stroke="#07080d" stroke-width="1.5" transform="translate(-14 8)"/>
      <circle cx="8" cy="-2" r="1.8" fill="#2fc9d6"/>
    </g>

    <!-- kelp fronds along the left field edge -->
    <g fill="none" stroke="#147986" stroke-width="3" opacity="0.55" stroke-linecap="round">
      <path d="M 96 700 q 8 -26 -2 -50 q -8 -22 4 -44"/>
      <path d="M 112 706 q -8 -24 2 -46 q 8 -22 -2 -44"/>
    </g>

    <!-- D·I·V·E lane inserts (rollovers light these) -->
    <g stroke="#07080d" stroke-width="1.5">
      <circle cx="162" cy="88" r="11" fill="#143240"/>
      <circle cx="225" cy="88" r="11" fill="#143240"/>
      <circle cx="295" cy="88" r="11" fill="#143240"/>
      <circle cx="358" cy="88" r="11" fill="#143240"/>
    </g>
    <g font-family="ui-monospace, monospace" font-size="13" font-weight="700"
       fill="#2fc9d6" text-anchor="middle" opacity="0.85">
      <text x="162" y="93">D</text><text x="225" y="93">I</text>
      <text x="295" y="93">V</text><text x="358" y="93">E</text>
    </g>

    <!-- sonar rings around the buoy bumpers -->
    <g fill="none" stroke="#2fc9d6" opacity="0.3" stroke-width="1.5">
      <circle cx="150" cy="240" r="40" stroke-dasharray="4 6"/>
      <circle cx="272" cy="232" r="40" stroke-dasharray="4 6"/>
      <circle cx="200" cy="345" r="40" stroke-dasharray="4 6"/>
      <circle cx="150" cy="240" r="54" stroke-dasharray="2 9" opacity="0.6"/>
    </g>

    <!-- the dive bell: brass-ringed pressure sphere, mouth down-left.
         The kicker holds the ball here during the haul reveal. -->
    <g id="art-divebell">
      <circle cx="272" cy="446" r="40" fill="#07080d"/>
      <circle cx="272" cy="446" r="34" fill="#143240"/>
      <circle cx="272" cy="446" r="34" fill="none" stroke="#2c3352" stroke-width="3"/>
      <circle cx="272" cy="446" r="38" fill="none" stroke="#9c7c2c" stroke-width="4"/>
      <circle cx="272" cy="446" r="38" fill="none" stroke="#e0b64e" stroke-width="1.5" stroke-dasharray="5 6"/>
      <!-- porthole glint toward the key light -->
      <path d="M 254 430 a 24 24 0 0 1 11 -7" stroke="#7f8fc9" stroke-width="2.5" fill="none" stroke-linecap="round"/>
      <!-- rivets -->
      <g fill="#e0b64e">
        <circle cx="272" cy="412" r="1.8"/><circle cx="296" cy="422" r="1.8"/>
        <circle cx="306" cy="446" r="1.8"/><circle cx="248" cy="422" r="1.8"/>
      </g>
      <!-- approach chevrons from the left flipper -->
      <g stroke="#2fc9d6" stroke-width="2.5" fill="none" stroke-linecap="round" stroke-linejoin="round" opacity="0.75">
        <path d="M 252 499.5 L 259 490.5 L 266 499.5" transform="rotate(11 259 495)"/>
        <path d="M 245 536.5 L 252 527.5 L 259 536.5" transform="rotate(11 252 532)"/>
      </g>
      <text x="318" y="512" text-anchor="middle" font-family="ui-monospace, monospace"
            font-size="11" letter-spacing="2" fill="#9c7c2c" transform="rotate(-70 318 512)">DIVE BELL</text>
    </g>

    <!-- trench mouth: the hole in the field. Ball drops to the subway. -->
    <g id="art-trench">
      <rect x="180" y="498" width="46" height="58" rx="8" fill="#07080d"/>
      <rect x="184" y="502" width="38" height="50" rx="6" fill="#0b1e27"/>
      <g stroke="#e0b64e" stroke-width="3" fill="none" opacity="0.8">
        <path d="M 181 498 L 191 490"/><path d="M 197 498 L 207 490"/><path d="M 213 498 L 223 490"/>
      </g>
      <g stroke="#2fc9d6" stroke-width="2.5" fill="none" stroke-linecap="round" stroke-linejoin="round" opacity="0.75">
        <path d="M 196 602.5 L 203 593.5 L 210 602.5"/>
        <path d="M 196 638.5 L 203 629.5 L 210 638.5"/>
      </g>
      <text x="160" y="590" text-anchor="middle" font-family="ui-monospace, monospace"
            font-size="10" letter-spacing="2" fill="#147986" transform="rotate(-90 160 590)">TRENCH</text>
      <!-- the subway, glimpsed: dashed run + two porthole grates -->
      <path d="M 203 520 L 209.3 528.8 L 218.7 541.2 L 230 552 L 243.7 560 L 259.5 566.4 L 275 570 L 290.2 569.9 L 305.1 566.8 L 318 562 L 332.5 551.3 L 342 538 L 345.8 523.8 L 345 510 L 340.1 498.8 L 332 490 L 321.6 484.3 L 310 482 L 297.6 485.5 L 288 490"
            fill="none" stroke="#2fc9d6" stroke-width="4" stroke-dasharray="3 9" opacity="0.3"/>
      <g stroke="#2c3352" stroke-width="2">
        <circle cx="252" cy="561" r="7" fill="#0b1e27"/>
        <circle cx="330" cy="546" r="7" fill="#0b1e27"/>
        <line x1="247" y1="558" x2="257" y2="564"/><line x1="325" y1="543" x2="335" y2="549"/>
      </g>
    </g>

    <!-- airlock bank recess (targets render live; art carries the housing) -->
    <g id="art-airlock">
      <path d="M 65 373 L 82 381 L 82 547 L 65 555" fill="none" stroke="#262a3e" stroke-width="18"/>
      <g fill="#e0b64e" opacity="0.8">
        <circle cx="78" cy="390" r="1.6"/><circle cx="78" cy="432" r="1.6"/><circle cx="78" cy="485" r="1.6"/><circle cx="78" cy="538" r="1.6"/>
      </g>
      <text x="72" y="487" text-anchor="middle" font-family="ui-monospace, monospace"
            font-size="10" letter-spacing="3" fill="#9c7c2c" transform="rotate(-90 72 487)">AIRLOCK</text>
      <!-- approach chevrons from the right flipper -->
      <g stroke="#e0b64e" stroke-width="2.5" fill="none" stroke-linecap="round" stroke-linejoin="round" opacity="0.7">
        <path d="M 161 624.5 L 168 615.5 L 175 624.5" transform="rotate(-29 168 620)"/>
        <path d="M 183 664.5 L 190 655.5 L 197 664.5" transform="rotate(-29 190 660)"/>
      </g>
    </g>

    <!-- winch ramp mouth + reel: shot arrow up the right flipper lane -->
    <g id="art-winch">
      <g stroke="#2fc9d6" stroke-width="2.5" fill="none" stroke-linecap="round" stroke-linejoin="round" opacity="0.75">
        <path d="M 342 777.5 L 349 768.5 L 356 777.5"/>
        <path d="M 342 745.5 L 349 736.5 L 356 745.5"/>
      </g>
      <text x="404" y="668" text-anchor="middle" font-family="ui-monospace, monospace"
            font-size="10" letter-spacing="2" fill="#147986" transform="rotate(-84 404 668)">WINCH</text>
      <!-- reel brackets beside the spinner -->
      <g fill="#262a3e" stroke="#07080d" stroke-width="1.5">
        <rect x="326" y="610" width="8" height="20" rx="2"/>
        <rect x="378" y="610" width="8" height="20" rx="2"/>
      </g>
    </g>

    <!-- depth gauge inserts down the centreline (lamps light these) -->
    <g id="art-gauge">
      <line x1="255" y1="612" x2="255" y2="778" stroke="#2c3352" stroke-width="2"/>
      <g stroke="#07080d" stroke-width="1.5" fill="#143240">
        <circle cx="255" cy="625" r="9"/><circle cx="255" cy="660" r="9"/>
        <circle cx="255" cy="695" r="9"/><circle cx="255" cy="730" r="9"/>
        <circle cx="255" cy="765" r="9"/>
      </g>
      <g font-family="ui-monospace, monospace" font-size="8" fill="#147986">
        <text x="270" y="628">100M</text><text x="270" y="663">300M</text>
        <text x="270" y="698">600M</text><text x="270" y="733">1000M</text>
        <text x="270" y="768">FLOOR</text>
      </g>
    </g>

    <!-- escape hatch (kickback) + gutter labels. Each save carries a
         lit-when-armed insert lamp (TableGeometry.lamps drive the glow) so
         the player can read the outlane BEFORE the ball drops -->
    <g id="art-outlanes">
      <rect x="12" y="948" width="28" height="20" rx="4" fill="#262a3e" stroke="#07080d" stroke-width="1.5"/>
      <path d="M 26 944 L 20 934 L 32 934 Z" fill="#2fc9d6" opacity="0.8"/>
      <circle cx="26" cy="868" r="7" fill="#12141f" stroke="#07080d" stroke-width="1.5"/>
      <circle cx="26" cy="868" r="7" fill="none" stroke="#52e0e8" stroke-width="1.8" opacity="0.9"/>
      <text x="30" y="905" text-anchor="middle" font-family="ui-monospace, monospace"
            font-size="9" letter-spacing="1" fill="#147986" transform="rotate(-90 30 905)">HATCH</text>
      <circle cx="494" cy="838" r="7" fill="#12141f" stroke="#07080d" stroke-width="1.5"/>
      <circle cx="494" cy="838" r="7" fill="none" stroke="#52e0e8" stroke-width="1.8" opacity="0.9"/>
      <text x="492" y="880" text-anchor="middle" font-family="ui-monospace, monospace"
            font-size="9" letter-spacing="1" fill="#147986" transform="rotate(-90 492 880)">GUTTER</text>
      <!-- gutter subway, glimpsed under the apron -->
      <path d="M 496 920 L 492.8 930.2 L 488.6 945.1 L 483.4 961.9 L 477.2 977.8 L 470 990 L 460.1 999.7 L 449 1006.1 L 435.9 1010.6 L 420 1015 L 407.4 1018 L 393.3 1020.7 L 378.1 1023.1 L 362.2 1025.1 L 346 1026.7 L 330 1028 L 316.2 1028.8 L 302.2 1029.5 L 287.8 1029.9 L 273.4 1029.9 L 258.9 1029.7 L 244.4 1029.1 L 230 1028 L 215.5 1026.4 L 200.6 1024.4 L 185.6 1021.9 L 170.8 1019.1 L 156.4 1016.2 L 142.7 1013.1 L 130 1010 L 113.5 1005.6 L 98.1 1001 L 84 996.1 L 71.2 990.8 L 60 985 L 44.7 973.9 L 33.5 961.7 L 26 950 L 23.9 932.8 L 26 920"
            fill="none" stroke="#2fc9d6" stroke-width="4" stroke-dasharray="3 9" opacity="0.22"/>
    </g>

    <!-- the wreck on the trench floor, behind the flipper area -->
    <g id="art-wreck" opacity="0.9">
      <path d="M 150 900 Q 200 872 262 868 L 356 872 Q 408 882 440 902 L 430 918 Q 380 900 300 896 L 200 900 Q 168 906 158 914 Z"
            fill="#12141f" stroke="#07080d" stroke-width="2"/>
      <path d="M 236 868 L 232 830 L 240 828 L 246 867 Z" fill="#12141f" stroke="#07080d" stroke-width="1.5"/>
      <path d="M 232 832 L 206 846 L 232 848 Z" fill="#143240" stroke="#07080d" stroke-width="1.2"/>
      <g fill="#2fc9d6" opacity="0.5">
        <circle cx="286" cy="884" r="2"/><circle cx="312" cy="886" r="2"/><circle cx="338" cy="890" r="2"/>
      </g>
    </g>

    <!-- wordmark -->
    <g id="art-wordmark">
      <path d="M 96 586 L 99 595 L 108 598 L 99 601 L 96 610 L 93 601 L 84 598 L 93 595 Z" fill="#2fc9d6" opacity="0.8"/>
      <path d="M 424 586 L 427 595 L 436 598 L 427 601 L 424 610 L 421 601 L 412 598 L 421 595 Z" fill="#2fc9d6" opacity="0.8"/>
      <text x="260" y="600" text-anchor="middle" font-family="ui-monospace, monospace"
            font-size="34" font-weight="800" letter-spacing="4"
            fill="#4e37a8" opacity="0.5" filter="url(#glowSoft)">TIDEBREAKER</text>
      <text x="260" y="596" text-anchor="middle" font-family="ui-monospace, monospace"
            font-size="34" font-weight="800" letter-spacing="4"
            fill="url(#chromeText)" stroke="#07080d" stroke-width="2" paint-order="stroke">TIDEBREAKER</text>
      <text x="260" y="596" text-anchor="middle" font-family="ui-monospace, monospace"
            font-size="34" font-weight="800" letter-spacing="4"
            fill="none" stroke="#2fc9d6" stroke-width="0.8" opacity="0.9">TIDEBREAKER</text>
      <text x="260" y="620" text-anchor="middle" font-family="ui-monospace, monospace"
            font-size="10" letter-spacing="5" fill="#7f8fc9">AN · ABYSSAL · SALVAGE</text>
    </g>

    <!-- apron band along the drain -->
    <rect x="0" y="1036" width="575" height="14" fill="#262a3e" stroke="#07080d" stroke-width="1.5"/>
    <line x1="0" y1="1039" x2="575" y2="1039" stroke="#9c7c2c" stroke-width="1.5"/>
  </g>

  <!-- ═══════════════ art: plunger lane (the descent shaft) ═══════════════ -->
  <g id="art-lane">
    <g fill="none" stroke="#7f8fc9" opacity="0.4" stroke-width="1.2">
      <circle cx="547.5" cy="420" r="2.2"/><circle cx="544" cy="460" r="2.8"/>
      <circle cx="550" cy="500" r="2.2"/><circle cx="546" cy="545" r="3"/>
      <circle cx="549" cy="590" r="2.4"/>
    </g>
    <g stroke="#e0b64e" stroke-width="2.5" fill="none" stroke-linecap="round" stroke-linejoin="round" opacity="0.7">
      <path d="M 540.5 704.5 L 547.5 695.5 L 554.5 704.5"/>
      <path d="M 540.5 668.5 L 547.5 659.5 L 554.5 668.5"/>
    </g>
    <g font-family="ui-monospace, monospace" font-size="13" font-weight="700" fill="#9c7c2c" text-anchor="middle">
      <text x="547.5" y="760">D</text><text x="547.5" y="780">E</text>
      <text x="547.5" y="800">S</text><text x="547.5" y="820">C</text>
      <text x="547.5" y="840">E</text><text x="547.5" y="860">N</text>
      <text x="547.5" y="880">T</text>
    </g>
  </g>

  <g id="art-vignette">
    <rect x="0" y="0" width="575" height="1050" fill="url(#vignette)"/>
  </g>

  <!-- ═══════════════ art polish (2026-07-17): the abyss dressed ═══════════════
       Kelp on the port side, bubble streams, depth ticks down the dive lane,
       sonar rings around the buoys, a fish school, one anglerfish in the
       dark, the wreck on the trench floor, portholes and hull rivets. -->
  <defs>
    <radialGradient id="tpPort" cx="0.5" cy="0.5" r="0.5">
      <stop offset="0" stop-color="#ffdf9e" stop-opacity="0.25"/>
      <stop offset="1" stop-color="#ffdf9e" stop-opacity="0"/>
    </radialGradient>
  </defs>
  <g id="art-polish">
      <circle cx="46" cy="852" r="1.2" fill="none" stroke="#37707e" stroke-width="1" opacity="0.55"/>
      <circle cx="53" cy="821" r="1.6" fill="none" stroke="#37707e" stroke-width="1" opacity="0.49"/>
      <circle cx="50" cy="788" r="2.1" fill="none" stroke="#37707e" stroke-width="1" opacity="0.43"/>
      <circle cx="41" cy="756" r="2.5" fill="none" stroke="#37707e" stroke-width="1" opacity="0.37"/>
      <circle cx="40" cy="720" r="3.0" fill="none" stroke="#37707e" stroke-width="1" opacity="0.31"/>
      <circle cx="48" cy="681" r="3.5" fill="none" stroke="#37707e" stroke-width="1" opacity="0.25"/>
      <circle cx="53" cy="646" r="3.9" fill="none" stroke="#37707e" stroke-width="1" opacity="0.19"/>
      <circle cx="348" cy="694" r="1.2" fill="none" stroke="#37707e" stroke-width="1" opacity="0.55"/>
      <circle cx="355" cy="657" r="1.6" fill="none" stroke="#37707e" stroke-width="1" opacity="0.49"/>
      <circle cx="352" cy="622" r="2.1" fill="none" stroke="#37707e" stroke-width="1" opacity="0.43"/>
      <circle cx="343" cy="596" r="2.5" fill="none" stroke="#37707e" stroke-width="1" opacity="0.37"/>
      <circle cx="342" cy="564" r="3.0" fill="none" stroke="#37707e" stroke-width="1" opacity="0.31"/>
      <circle cx="350" cy="526" r="3.5" fill="none" stroke="#37707e" stroke-width="1" opacity="0.25"/>
      <circle cx="355" cy="495" r="3.9" fill="none" stroke="#37707e" stroke-width="1" opacity="0.19"/>
      <circle cx="498" cy="635" r="1.2" fill="none" stroke="#37707e" stroke-width="1" opacity="0.55"/>
      <circle cx="505" cy="594" r="1.6" fill="none" stroke="#37707e" stroke-width="1" opacity="0.49"/>
      <circle cx="502" cy="565" r="2.1" fill="none" stroke="#37707e" stroke-width="1" opacity="0.43"/>
      <circle cx="493" cy="537" r="2.5" fill="none" stroke="#37707e" stroke-width="1" opacity="0.37"/>
      <circle cx="492" cy="494" r="3.0" fill="none" stroke="#37707e" stroke-width="1" opacity="0.31"/>
      <circle cx="500" cy="468" r="3.5" fill="none" stroke="#37707e" stroke-width="1" opacity="0.25"/>
      <circle cx="505" cy="426" r="3.9" fill="none" stroke="#37707e" stroke-width="1" opacity="0.19"/>
      <path d="M 20 902 C 11 839.0 31 776.0 16 690" fill="none" stroke="#1c5c50" stroke-width="4" stroke-linecap="round" opacity="0.7"/>
      <path d="M 20 850 q 12 -5 17 -14" fill="none" stroke="#1c5c50" stroke-width="2.4" stroke-linecap="round" opacity="0.6"/>
      <path d="M 20 808 q 12 -5 17 -14" fill="none" stroke="#1c5c50" stroke-width="2.4" stroke-linecap="round" opacity="0.6"/>
      <path d="M 20 766 q 12 -5 17 -14" fill="none" stroke="#1c5c50" stroke-width="2.4" stroke-linecap="round" opacity="0.6"/>
      <path d="M 20 724 q 12 -5 17 -14" fill="none" stroke="#1c5c50" stroke-width="2.4" stroke-linecap="round" opacity="0.6"/>
      <path d="M 34 902 C 25 854.0 45 806.0 30 740" fill="none" stroke="#1c5c50" stroke-width="4" stroke-linecap="round" opacity="0.7"/>
      <path d="M 34 862 q 12 -5 17 -14" fill="none" stroke="#1c5c50" stroke-width="2.4" stroke-linecap="round" opacity="0.6"/>
      <path d="M 34 830 q 12 -5 17 -14" fill="none" stroke="#1c5c50" stroke-width="2.4" stroke-linecap="round" opacity="0.6"/>
      <path d="M 34 798 q 12 -5 17 -14" fill="none" stroke="#1c5c50" stroke-width="2.4" stroke-linecap="round" opacity="0.6"/>
      <path d="M 34 766 q 12 -5 17 -14" fill="none" stroke="#1c5c50" stroke-width="2.4" stroke-linecap="round" opacity="0.6"/>
      <path d="M 48 902 C 39 846.5 59 791.0 44 715" fill="none" stroke="#1c5c50" stroke-width="4" stroke-linecap="round" opacity="0.7"/>
      <path d="M 48 856 q 12 -5 17 -14" fill="none" stroke="#1c5c50" stroke-width="2.4" stroke-linecap="round" opacity="0.6"/>
      <path d="M 48 819 q 12 -5 17 -14" fill="none" stroke="#1c5c50" stroke-width="2.4" stroke-linecap="round" opacity="0.6"/>
      <path d="M 48 782 q 12 -5 17 -14" fill="none" stroke="#1c5c50" stroke-width="2.4" stroke-linecap="round" opacity="0.6"/>
      <path d="M 48 745 q 12 -5 17 -14" fill="none" stroke="#1c5c50" stroke-width="2.4" stroke-linecap="round" opacity="0.6"/>
      <line x1="70" y1="300" x2="82" y2="300" stroke="#2fc9d6" stroke-width="1.6" opacity="0.55"/>
      <text x="87" y="303" font-family="ui-monospace, monospace" font-size="8" fill="#2fc9d6" opacity="0.6">100M</text>
      <line x1="70" y1="382" x2="82" y2="382" stroke="#2fc9d6" stroke-width="1.6" opacity="0.55"/>
      <text x="87" y="385" font-family="ui-monospace, monospace" font-size="8" fill="#2fc9d6" opacity="0.6">200M</text>
      <line x1="70" y1="464" x2="82" y2="464" stroke="#2fc9d6" stroke-width="1.6" opacity="0.55"/>
      <text x="87" y="467" font-family="ui-monospace, monospace" font-size="8" fill="#2fc9d6" opacity="0.6">300M</text>
      <line x1="70" y1="546" x2="82" y2="546" stroke="#2fc9d6" stroke-width="1.6" opacity="0.55"/>
      <text x="87" y="549" font-family="ui-monospace, monospace" font-size="8" fill="#2fc9d6" opacity="0.6">400M</text>
      <circle cx="207" cy="272" r="52" fill="none" stroke="#2fc9d6" stroke-width="1.2" stroke-dasharray="4 9" opacity="0.26"/>
      <circle cx="207" cy="272" r="78" fill="none" stroke="#2fc9d6" stroke-width="1.2" stroke-dasharray="4 9" opacity="0.22"/>
      <circle cx="207" cy="272" r="104" fill="none" stroke="#2fc9d6" stroke-width="1.2" stroke-dasharray="4 9" opacity="0.17"/>
      <path d="M 322 836 q 5 -3 9 0 q -4 3 -9 0 M 331 836 l 4 -3 l 0 6 Z" fill="#37707e" opacity="0.7"/>
      <path d="M 339 762 q 5 -3 9 0 q -4 3 -9 0 M 348 762 l 4 -3 l 0 6 Z" fill="#37707e" opacity="0.7"/>
      <path d="M 404 784 q 5 -3 9 0 q -4 3 -9 0 M 413 784 l 4 -3 l 0 6 Z" fill="#37707e" opacity="0.7"/>
      <path d="M 343 785 q 5 -3 9 0 q -4 3 -9 0 M 352 785 l 4 -3 l 0 6 Z" fill="#37707e" opacity="0.7"/>
      <path d="M 419 768 q 5 -3 9 0 q -4 3 -9 0 M 428 768 l 4 -3 l 0 6 Z" fill="#37707e" opacity="0.7"/>
      <path d="M 397 771 q 5 -3 9 0 q -4 3 -9 0 M 406 771 l 4 -3 l 0 6 Z" fill="#37707e" opacity="0.7"/>
      <path d="M 358 840 q 5 -3 9 0 q -4 3 -9 0 M 367 840 l 4 -3 l 0 6 Z" fill="#37707e" opacity="0.7"/>
      <g opacity="0.9" transform="translate(108,838)">
        <path d="M 0 0 q 16 -12 34 -3 q 8 4 6 10 q -14 10 -32 4 q -8 -4 -8 -11" fill="#0b1e27" stroke="#143641" stroke-width="1.6"/>
        <path d="M 6 -4 q 6 -14 16 -16" fill="none" stroke="#143641" stroke-width="1.6"/>
        <circle cx="22" cy="-20" r="3" fill="#e8ff6a" opacity="0.9"/>
        <circle cx="22" cy="-20" r="7" fill="#e8ff6a" opacity="0.2"/>
        <circle cx="10" cy="1" r="1.6" fill="#e8ff6a" opacity="0.8"/>
        <path d="M 34 2 l 9 -5 l 0 11 Z" fill="#0b1e27" stroke="#143641" stroke-width="1.2"/>
      </g>
      <g opacity="0.9">
        <path d="M 140 1050 L 168 992 L 196 1050" fill="none" stroke="#0b1e27" stroke-width="7"/>
        <path d="M 208 1050 L 232 984 L 258 1050" fill="none" stroke="#0b1e27" stroke-width="7"/>
        <path d="M 272 1050 L 292 996 L 314 1050" fill="none" stroke="#0b1e27" stroke-width="7"/>
        <path d="M 120 1034 Q 240 962 372 1030" fill="none" stroke="#143641" stroke-width="4"/>
        <rect x="330" y="1006" width="34" height="20" rx="3" fill="#0b1e27" stroke="#143641" stroke-width="1.6" transform="rotate(-12 347 1016)"/>
        <circle cx="344" cy="1012" r="3.4" fill="none" stroke="#37707e" stroke-width="1.2"/>
      </g>
      <circle cx="58" cy="668" r="9" fill="#241a08" stroke="#9c7c2c" stroke-width="2.4"/>
      <circle cx="58" cy="668" r="5" fill="#ffdf9e" opacity="0.55"/>
      <circle cx="58" cy="668" r="16" fill="url(#tpPort)"/>
      <circle cx="462" cy="668" r="9" fill="#241a08" stroke="#9c7c2c" stroke-width="2.4"/>
      <circle cx="462" cy="668" r="5" fill="#ffdf9e" opacity="0.55"/>
      <circle cx="462" cy="668" r="16" fill="url(#tpPort)"/>
      <circle cx="18" cy="214" r="1.6" fill="#37707e" opacity="0.6"/>
      <circle cx="30" cy="172" r="1.6" fill="#37707e" opacity="0.6"/>
      <circle cx="49" cy="133" r="1.6" fill="#37707e" opacity="0.6"/>
      <circle cx="74" cy="98" r="1.6" fill="#37707e" opacity="0.6"/>
      <circle cx="106" cy="68" r="1.6" fill="#37707e" opacity="0.6"/>
      <circle cx="141" cy="44" r="1.6" fill="#37707e" opacity="0.6"/>
      <circle cx="181" cy="27" r="1.6" fill="#37707e" opacity="0.6"/>
      <circle cx="223" cy="17" r="1.6" fill="#37707e" opacity="0.6"/>
      <circle cx="266" cy="14" r="1.6" fill="#37707e" opacity="0.6"/>
      <circle cx="309" cy="19" r="1.6" fill="#37707e" opacity="0.6"/>
      <circle cx="351" cy="31" r="1.6" fill="#37707e" opacity="0.6"/>
      <circle cx="389" cy="51" r="1.6" fill="#37707e" opacity="0.6"/>
      <circle cx="424" cy="76" r="1.6" fill="#37707e" opacity="0.6"/>
      <circle cx="453" cy="108" r="1.6" fill="#37707e" opacity="0.6"/>
      <circle cx="477" cy="144" r="1.6" fill="#37707e" opacity="0.6"/>
      <circle cx="494" cy="184" r="1.6" fill="#37707e" opacity="0.6"/>
  </g>

  <!-- ═══════════════ collision (rendered as layered steel rails) ═══════════════
       One set of paths = both physics and art. data-width feeds the physics
       radius (width/2); data-layer="1" walls are the elevated winch ramp +
       habitrail (chrome wireform restroke below, drawn above everything). -->
  <defs>
    <g id="collision-paths" fill="none">
      <!-- outer shell: identical envelope to Moondial (centred per §3) -->
      <path data-width="12" data-z="all" id="collision-loop-shell" d="M 0 1050 L 0 260 L 1.3 234.5 L 5 209.3 L 11.2 184.5 L 19.8 160.5 L 30.7 137.4 L 43.8 115.6 L 59 95.1 L 76.2 76.2 L 95.1 59 L 115.6 43.8 L 137.4 30.7 L 160.5 19.8 L 184.5 11.2 L 209.3 5 L 234.5 1.3 L 260 0 L 290.9 1.5 L 321.5 6.1 L 351.4 13.6 L 380.5 24 L 408.5 37.2 L 435 53.1 L 459.8 71.5 L 482.7 92.3 L 503.5 115.2 L 521.9 140 L 537.8 166.5 L 551 194.5 L 561.4 223.6 L 568.9 253.5 L 573.5 284.1 L 575 315 L 575 1050 Z"/>
      <!-- plunger lane inner wall -->
      <path data-width="12" data-z="all" id="collision-wall-lane" d="M 520 300 L 520 1050"/>
      <!-- the Current: orbit inner wall, launch rides it around the arch -->
      <path data-width="12" id="collision-wall-orbit" d="M 65 550 L 65 260 L 66.5 236.2 L 70.8 212.8 L 78 190.1 L 87.8 168.5 L 100.3 148.2 L 115.1 129.5 L 132.1 112.8 L 151 98.3 L 171.5 86.3 L 193.3 76.8 L 216.1 70 L 239.6 66.1 L 263.4 65 L 287.1 66.9 L 310.5 71.6 L 333 79.2 L 354.5 89.4 L 374.6 102.2 L 393 117.4 L 409.4 134.7 L 520 300"/>
      <!-- D-I-V-E lane dividers, starting 4 mm below the orbit arc line -->
      <path data-width="12" id="collision-wall-divider-1" d="M 190 82 L 190 150"/>
      <path data-width="12" id="collision-wall-divider-2" d="M 260 69 L 260 150"/>
      <path data-width="12" id="collision-wall-divider-3" d="M 330 82 L 330 150"/>
      <!-- deflector chevron: the top face still sheds orbit-exit balls right,
           away from the outlane mouth; the underside mirrors the launcher
           run-out angle (the orbit wall's 409→520 segment, slope ~1.5) so the
           hatch kickback grazes it at ~12° and runs OUT up-field instead of
           being blocked flat (a single segment can't do both jobs — the two
           faces need opposite slopes) -->
      <path data-width="12" id="collision-wall-deflector" d="M 0 598 L 34 619 L 0 670"/>
      <!-- inlane guides: outlane channel outside, inlane inside, each ending
           tangent to its flipper base circle past the apex -->
      <path data-width="12" id="collision-wall-guide-left" d="M 52 690 L 52 905 L 174.2 938.4"/>
      <path data-width="12" id="collision-wall-guide-right" d="M 470 690 L 470 905 L 345.9 938.4"/>
      <!-- trench mouth pocket (opens down; the subway sensor sits inside —
           gravity alone always rolls an uncaptured ball back out) -->
      <path data-width="12" id="collision-wall-trench-pocket" d="M 177 560 L 177 495 L 229 495 L 229 560"/>
      <!-- dive bell hood: mouth opens down-left, never traps -->
      <path data-width="12" id="collision-wall-bell-hood" d="M 316 460 L 314.3 453.7 L 311.8 444.9 L 308 437 L 302.6 431.3 L 296 426.6 L 289 423 L 281.9 420.5 L 274.4 419.1 L 267 419 L 259.3 420.5 L 251.7 423.3 L 245 427 L 239.5 432.3 L 235 438.6 L 232 443"/>
      <!-- airlock housing: recess brackets off the orbit wall -->
      <path data-width="12" id="collision-wall-bank-housing" d="M 65 373 L 82 381 L 82 547 L 65 555"/>
      <!-- plunger saddle: the ball rests here, above the animated spring -->
      <path data-width="12" id="collision-wall-plunger-saddle" d="M 526 1000 L 569 1000"/>
    </g>
    <g id="collision-paths-elevated" fill="none">
      <!-- winch ramp channel (layer 1): entered via the layer sensors at the
           mouth; climbs over the field to the crest, then the habitrail -->
      <path data-width="12" data-surface="winch" id="collision-wall-ramp-inner" d="M 320 700 L 320.3 694.2 L 320.6 686.9 L 320.9 678.4 L 321.2 668.7 L 321.6 658.3 L 322 647.2 L 322.5 635.6 L 323 623.8 L 323.6 612 L 324.3 600.4 L 325.1 589.2 L 325.9 578.6 L 326.9 568.8 L 328 560 L 329.9 547.7 L 332.2 536.3 L 334.7 525.6 L 337.3 515.5 L 340.2 505.9 L 343.1 496.7 L 346.1 487.7 L 349.1 478.8 L 352 470 L 355.4 460.2 L 359 450.9 L 362.7 441.9 L 366.5 433.3 L 370.2 424.8 L 373.8 416.5 L 377 408.2 L 380 400 L 383.6 389.2 L 387 378.7 L 390 368.4 L 392.6 358.2 L 394.6 348.1 L 396 338 L 396.7 327.6 L 396.9 317 L 396.5 306.5 L 395.6 296.3 L 394.1 286.7 L 392 278 L 387.7 266.6 L 382 256.7 L 375.3 248 L 368 240 L 359.1 232.5 L 348.7 225.7 L 339.1 220.1 L 332.4 216.2"/>
      <path data-width="12" data-surface="winch" id="collision-wall-ramp-outer" d="M 378 700 L 378.4 694.2 L 378.9 687 L 379.5 678.5 L 380.1 669 L 380.7 658.6 L 381.5 647.6 L 382.3 636.1 L 383.1 624.4 L 384 612.6 L 385.1 601 L 386.2 589.7 L 387.3 579 L 388.6 569 L 390 560 L 392.1 548.4 L 394.5 537.5 L 397 527 L 399.8 517 L 402.6 507.4 L 405.6 498 L 408.7 488.9 L 411.8 479.9 L 414.9 471 L 418 462 L 421.7 452.2 L 425.7 442.8 L 429.9 433.6 L 434.2 424.6 L 438.5 415.8 L 442.5 407 L 446.2 398.1 L 449.4 389.2 L 452 380 L 454 370.5 L 455.7 360.8 L 457 350.9 L 457.9 340.9 L 458.5 331 L 458.8 321.4 L 458.8 312.1 L 458.5 303.2 L 458 295 L 456.5 283.7 L 454.2 273.4 L 451.3 263.9 L 447.8 254.9 L 444 246.4 L 440 238 L 435.1 228.2 L 429.8 218.8 L 424 210.1 L 417.5 202.1 L 410 195 L 402.2 189.7 L 392.8 184.9 L 382.9 180.7 L 373.4 177.1 L 365.3 174.1 L 359.6 171.8"/>
      <!-- habitrail (layer 1): crest → over the lanes → down the left wall →
           drops into the left inlane -->
      <path data-width="12" data-surface="winch" id="collision-wall-rail-upper" d="M 359.6 171.8 L 353.6 168.1 L 344.8 162.6 L 333.9 156 L 321.9 149.4 L 309.6 143.8 L 297.8 139.8 L 286.3 136.8 L 274.8 134.5 L 263.2 132.9 L 251.3 132 L 240.9 131.8 L 230.3 132.1 L 219.8 132.9 L 209.4 134.1 L 199.4 135.7 L 189.3 137.6 L 178.1 140.4 L 167.2 143.7 L 156.4 147.6 L 146 152.1 L 136 157 L 126.3 162.4 L 116.7 168.2 L 107.4 174.6 L 98.4 181.7 L 90 189.2 L 82.2 197.2 L 75.1 205.6 L 68.7 214.1 L 62.5 223.2 L 57 232.9 L 52.2 242.8 L 48 253 L 44.3 263.4 L 41.3 273.8 L 38.7 283.8 L 36.7 292.6 L 35 300.9 L 33.6 310.7 L 32.7 322.7 L 32 339 L 31.8 346.9 L 31.7 355.6 L 31.6 365.3 L 31.6 375.6 L 31.6 386.4 L 31.6 397.6 L 31.6 409.2 L 31.7 420.7 L 31.8 431.9 L 31.8 442.9 L 31.9 453.4 L 31.9 463.2 L 32 472.3 L 32 480 L 32 493.3 L 31.9 504.4 L 31.8 513.9 L 31.7 522.3 L 31.7 530.3 L 31.8 537.9 L 32 546"/>
      <path data-width="12" data-surface="winch" id="collision-wall-rail-lower" d="M 332.4 216.2 L 326 212.3 L 317.4 206.8 L 307.9 201 L 298.5 195.8 L 290.4 192.2 L 282.8 189.6 L 274.7 187.4 L 266.4 185.9 L 257.6 184.7 L 248.7 184 L 241.1 183.8 L 233.1 184.1 L 224.8 184.7 L 216.4 185.7 L 208.2 186.9 L 200.7 188.4 L 191.9 190.6 L 183.4 193.1 L 175.4 196 L 167.6 199.3 L 160 203 L 152.5 207.2 L 145.1 211.8 L 138.2 216.6 L 131.8 221.5 L 126 226.8 L 120.6 232.2 L 115.7 238 L 110.9 244.3 L 106.7 250.6 L 103 257.1 L 99.6 264 L 96.6 271.4 L 93.9 279.2 L 91.5 287.4 L 89.3 296.2 L 87.5 303.8 L 86.2 309.7 L 85.4 315.9 L 84.7 325.7 L 84 341 L 83.8 347.9 L 83.7 356.2 L 83.6 365.5 L 83.6 375.6 L 83.6 386.4 L 83.6 397.6 L 83.6 409 L 83.7 420.3 L 83.8 431.7 L 83.8 442.7 L 83.9 453.2 L 83.9 463 L 84 471.9 L 84 480 L 84 493.5 L 83.9 504.8 L 83.8 514.5 L 83.7 522.7 L 83.7 529.9 L 83.8 536.9 L 84 544"/>
    </g>
  </defs>
  <!-- field walls: layered VERDIGRIS rails, kept dark so the lit ball and
       the chrome upper level pop against them (abyss-500/300 per
       STYLE-GUIDE §2; 12 mm body is the physical width) -->
  <!-- ramp BACK (M11): the winch bed's solid underside, drawn as shadowed
       understructure so it doesn't read as a gate. Riders pass above. -->
  <defs>
    <g id="collision-backs" fill="none">
      <path data-width="12" data-z-max="22" id="collision-wall-winch-back" d="M 329.9 559.6 L 387.3 567.8"/>
    </g>
  </defs>
  <g id="art-ramp-backs" fill="none" stroke-linecap="round">
    <g stroke="#07080d" stroke-width="12" opacity="0.85"><use href="#collision-backs"/></g>
    <g stroke="#143641" stroke-width="6.5"><use href="#collision-backs"/></g>
    <g stroke="#aeb6c8" stroke-width="2" opacity="0.85"><use href="#collision-backs"/></g>
  </g>
  <g id="art-rails" fill="none" stroke-linecap="round" stroke-linejoin="round">
    <g stroke="#07080d" stroke-width="16"><use href="#collision-paths"/></g>
    <g stroke="#143641" stroke-width="12"><use href="#collision-paths"/></g>
    <g stroke="#37707e" stroke-width="6.5"><use href="#collision-paths"/></g>
    <g stroke="#d7dce8" stroke-width="2.2" opacity="0.55"><use href="#collision-paths"/></g>
  </g>
  <!-- elevated ramp + habitrail: SEMI-TRANSPARENT chrome, like translucent
       ramp plastic — the 2D renderer strips this group from the base raster
       and composites it over/under the ball by layer, so a ball running
       beneath shows through it (STYLE-GUIDE §2) -->
  <g id="art-rails-elevated" fill="none" stroke-linecap="round" stroke-linejoin="round">
    <!-- the glass bed: a translucent abyssal-cyan surface spanning the
         channel (cyan-400 + chrome-50 washes; per-table glass tint,
         STYLE-GUIDE §2 — matches TableSpec.theme.rampGlass3d) — this is
         what sells the ramp as see-through plastic; the field art tints
         through it -->
    <g stroke="#2fc9d6" stroke-width="46" opacity="0.14">
      <path d="M 349.0 712 L 349.0 700.0 L 350.1 680.5 L 351.1 660.0 L 352.3 637.7 L 353.6 614.3 L 355.4 592.1 L 357.3 572.7 L 360.1 553.2 L 364.5 532.2 L 369.3 514.0 L 374.6 496.8 L 380.3 479.6 L 387.1 460.6 L 393.8 443.6 L 400.2 428.6 L 406.8 412.8 L 415.7 390.6 L 420.2 376.9 L 423.4 363.6 L 426.8 340.8 L 427.6 328.6 L 427.5 305.5 L 426.3 292.2 L 423.4 277.7 L 419.6 265.7 L 414.6 253.8 L 400.9 230.9 L 381.7 213.1 L 369.2 205.9 L 358.1 200.3 L 346.0 194.0"/>
      <path d="M 346 194 L 326.1 181.6 L 300 168 L 275.6 161.1 L 250 158 L 222.3 158.8 L 195 163 L 170.6 170.1 L 148 180 L 126.8 192.8 L 108 208 L 92.5 225.4 L 80 245 L 70.6 266.7 L 64 290 L 60 309.1 L 58 340 L 57.7 359 L 57.6 382.8 L 57.6 409.1 L 57.8 435.6 L 57.9 460 L 58 480 L 57.9 508 L 57.7 527.6 L 58 545 L 58 545"/>
    </g>
    <g stroke="#ffffff" stroke-width="46" opacity="0.04">
      <path d="M 349.0 712 L 349.0 700.0 L 350.1 680.5 L 351.1 660.0 L 352.3 637.7 L 353.6 614.3 L 355.4 592.1 L 357.3 572.7 L 360.1 553.2 L 364.5 532.2 L 369.3 514.0 L 374.6 496.8 L 380.3 479.6 L 387.1 460.6 L 393.8 443.6 L 400.2 428.6 L 406.8 412.8 L 415.7 390.6 L 420.2 376.9 L 423.4 363.6 L 426.8 340.8 L 427.6 328.6 L 427.5 305.5 L 426.3 292.2 L 423.4 277.7 L 419.6 265.7 L 414.6 253.8 L 400.9 230.9 L 381.7 213.1 L 369.2 205.9 L 358.1 200.3 L 346.0 194.0"/>
      <path d="M 346 194 L 326.1 181.6 L 300 168 L 275.6 161.1 L 250 158 L 222.3 158.8 L 195 163 L 170.6 170.1 L 148 180 L 126.8 192.8 L 108 208 L 92.5 225.4 L 80 245 L 70.6 266.7 L 64 290 L 60 309.1 L 58 340 L 57.7 359 L 57.6 382.8 L 57.6 409.1 L 57.8 435.6 L 57.9 460 L 58 480 L 57.9 508 L 57.7 527.6 L 58 545 L 58 545"/>
    </g>
    <!-- rail edges: OPAQUE bright chrome wire — only the bed is glass -->
    <g stroke="#07080d" stroke-width="15"><use href="#collision-paths-elevated"/></g>
    <g stroke="#aeb6c8" stroke-width="11"><use href="#collision-paths-elevated"/></g>
    <g stroke="#d7dce8" stroke-width="5.5"><use href="#collision-paths-elevated"/></g>
    <g stroke="#ffffff" stroke-width="2"><use href="#collision-paths-elevated"/></g>
  </g>

  <!-- ═══════════════ height profiles (render height / subway guides) ═══════════════ -->
  <g fill="none" stroke="none">
    <path id="height-profile-winch-up-a" data-layer="1" data-surface="winch" data-surface-width="58" data-height-from="0" data-height-to="30"
          d="M 349.0 712 L 349.0 700.0 L 350.1 680.5 L 351.1 660.0 L 352.3 637.7 L 353.6 614.3 L 355.4 592.1 L 357.3 572.7 L 360.1 553.2"/>
    <path id="height-profile-winch-up-b" data-layer="1" data-surface="winch" data-surface-width="58" data-height-from="30" data-height-to="34"
          d="M 360.1 553.2 L 364.5 532.2 L 369.3 514.0 L 374.6 496.8 L 380.3 479.6 L 387.1 460.6 L 393.8 443.6 L 400.2 428.6 L 406.8 412.8 L 415.7 390.6 L 420.2 376.9 L 423.4 363.6 L 426.8 340.8 L 427.6 328.6 L 427.5 305.5 L 426.3 292.2 L 423.4 277.7 L 419.6 265.7 L 414.6 253.8 L 400.9 230.9 L 381.7 213.1 L 369.2 205.9 L 358.1 200.3 L 346.0 194.0"/>
    <path id="height-profile-winch-rail" data-layer="1" data-surface="winch" data-surface-width="58" data-height-from="34" data-height-to="34"
          d="M 346 194 L 326.1 181.6 L 300 168 L 275.6 161.1 L 250 158 L 222.3 158.8 L 195 163 L 170.6 170.1 L 148 180 L 126.8 192.8 L 108 208 L 92.5 225.4 L 80 245 L 70.6 266.7 L 64 290 L 60 309.1 L 58 340 L 57.7 359 L 57.6 382.8 L 57.6 409.1 L 57.8 435.6 L 57.9 460 L 58 480 L 57.9 508 L 57.7 527.6 L 58 545"/>
    <path id="height-profile-trench" data-layer="-1" data-height-from="-8" data-height-to="-8"
          d="M 203 520 L 209.3 528.8 L 218.7 541.2 L 230 552 L 243.7 560 L 259.5 566.4 L 275 570 L 290.2 569.9 L 305.1 566.8 L 318 562 L 332.5 551.3 L 342 538 L 345.8 523.8 L 345 510 L 340.1 498.8 L 332 490 L 321.6 484.3 L 310 482 L 297.6 485.5 L 288 490"/>
    <path id="height-profile-gutter" data-layer="-1" data-height-from="-8" data-height-to="-8"
          d="M 496 920 L 492.8 930.2 L 488.6 945.1 L 483.4 961.9 L 477.2 977.8 L 470 990 L 460.1 999.7 L 449 1006.1 L 435.9 1010.6 L 420 1015 L 407.4 1018 L 393.3 1020.7 L 378.1 1023.1 L 362.2 1025.1 L 346 1026.7 L 330 1028 L 316.2 1028.8 L 302.2 1029.5 L 287.8 1029.9 L 273.4 1029.9 L 258.9 1029.7 L 244.4 1029.1 L 230 1028 L 215.5 1026.4 L 200.6 1024.4 L 185.6 1021.9 L 170.8 1019.1 L 156.4 1016.2 L 142.7 1013.1 L 130 1010 L 113.5 1005.6 L 98.1 1001 L 84 996.1 L 71.2 990.8 L 60 985 L 44.7 973.9 L 33.5 961.7 L 26 950 L 23.9 932.8 L 26 920"/>
  </g>

  <!-- ═══════════════ sensors (invisible; zones only) ═══════════════ -->
  <g fill="none" stroke="none">
    <rect id="sensor-skill-sounding" x="526" y="440" width="43" height="60"/>
    <rect id="sensor-drain" x="0" y="1005" width="520" height="30"/>
    <rect id="sensor-rollover-1" x="147" y="105" width="30" height="20"/>
    <rect id="sensor-rollover-2" x="210" y="105" width="30" height="20"/>
    <rect id="sensor-rollover-3" x="280" y="105" width="30" height="20"/>
    <rect id="sensor-rollover-4" x="343" y="105" width="30" height="20"/>
    <rect id="sensor-ramp-entry" x="2.5" y="492" width="60" height="16"/>
    <rect id="sensor-ramp-exit" x="442" y="117" width="36" height="36"/>
    <rect id="sensor-spinner" data-z-min="4" x="332" y="614" width="48" height="12"/>
    <rect id="sensor-kicker-divebell" x="252" y="430" width="40" height="40"/>
    <rect id="sensor-kicker-hatch" x="8" y="940" width="36" height="35"/>
    <rect id="sensor-subway-trench" x="183" y="500" width="40" height="18"/>
    <rect id="sensor-subway-gutter" x="478" y="900" width="36" height="35"/>
  </g>

  <!-- ═══════════════ anchors (invisible placement points) ═══════════════ -->
  <g fill="none" stroke="none">
    <circle id="anchor-flipper-left" cx="171" cy="950" r="5"/>
    <circle id="anchor-flipper-right" cx="349" cy="950" r="5"/>
    <circle id="anchor-spawn" cx="547.5" cy="980" r="5"/>
    <circle id="anchor-bumper-1" cx="150" cy="240" r="5"/>
    <circle id="anchor-bumper-2" cx="272" cy="232" r="5"/>
    <circle id="anchor-bumper-3" cx="200" cy="345" r="5"/>
    <circle id="anchor-kicker-divebell" cx="272" cy="450" r="5"/>
    <circle id="anchor-kicker-hatch" cx="44" cy="680" r="5"/>
  </g>
</svg>
