<svg xmlns="http://www.w3.org/2000/svg" viewBox="0 0 575 1050" width="575" height="1050">
  <!--
    MOONDIAL — table 1 of Pinball Reverie. A Victorian night observatory:
    orrery constellation bumpers, moon-phase lanes, a comet target bank and
    the meridian orbit. Master units: 1 SVG unit = 1 mm (style guide §3).

    This file is the single source of truth for table shape (§5e):
    collision-/sensor-/anchor- prefixed elements are parsed into physics by
    src/table/SvgCollision.ts. The collision strokes ARE the drawn walls.
    Art may use any SVG features; collision paths are polylines only.
  -->
  <defs>
    <linearGradient id="fieldGrad" x1="0" y1="0" x2="0" y2="1">
      <stop offset="0" stop-color="#12141f"/>
      <stop offset="0.45" stop-color="#1b1e2c"/>
      <stop offset="1" stop-color="#171a27"/>
    </linearGradient>
    <radialGradient id="vignette" cx="0.5" cy="0.45" r="0.8">
      <stop offset="0.6" stop-color="#07080d" stop-opacity="0"/>
      <stop offset="1" stop-color="#07080d" stop-opacity="0.42"/>
    </radialGradient>
    <linearGradient id="chromeText" x1="0" y1="0" x2="0" y2="1">
      <stop offset="0" stop-color="#ffffff"/>
      <stop offset="0.46" stop-color="#d7dce8"/>
      <stop offset="0.52" stop-color="#565d6e"/>
      <stop offset="0.60" stop-color="#aeb6c8"/>
      <stop offset="1" stop-color="#ffffff"/>
    </linearGradient>
    <linearGradient id="brassBar" x1="0" y1="0" x2="1" y2="0.4">
      <stop offset="0" stop-color="#f4d27a"/>
      <stop offset="0.55" stop-color="#e0b64e"/>
      <stop offset="1" stop-color="#9c7c2c"/>
    </linearGradient>
    <radialGradient id="milky" cx="0.5" cy="0.5" r="0.5">
      <stop offset="0" stop-color="#d7dce8" stop-opacity="0.07"/>
      <stop offset="1" stop-color="#d7dce8" stop-opacity="0"/>
    </radialGradient>
    <radialGradient id="moonGlow" cx="0.5" cy="0.5" r="0.5">
      <stop offset="0" stop-color="#8c6bff" stop-opacity="0.28"/>
      <stop offset="1" stop-color="#8c6bff" stop-opacity="0"/>
    </radialGradient>
    <linearGradient id="cometTail" x1="1" y1="1" x2="0" y2="0">
      <stop offset="0" stop-color="#2fc9d6" stop-opacity="0.5"/>
      <stop offset="1" stop-color="#2fc9d6" stop-opacity="0"/>
    </linearGradient>
    <filter id="glowSoft" x="-60%" y="-60%" width="220%" height="220%">
      <feGaussianBlur stdDeviation="6" result="b"/>
      <feMerge><feMergeNode in="b"/><feMergeNode in="SourceGraphic"/></feMerge>
    </filter>
  </defs>

  <!-- ═══════════════ art: sky ═══════════════ -->
  <g id="art-field">
    <rect x="0" y="0" width="575" height="1050" fill="url(#fieldGrad)"/>

    <!-- deco ray fan from the apex — classic playfield sunburst, moon-toned -->
    <g fill="#8c6bff">
      <polygon points="260,62 20,600 92,620" opacity="0.05"/>
      <polygon points="260,62 148,630 208,638" opacity="0.075"/>
      <polygon points="260,62 244,642 276,642" opacity="0.05"/>
      <polygon points="260,62 312,638 372,630" opacity="0.075"/>
      <polygon points="260,62 428,620 500,600" opacity="0.05"/>
    </g>

    <!-- banded airbrush nebulae (visible stepping is era-authentic) -->
    <g>
      <ellipse cx="170" cy="290" rx="210" ry="165" fill="#4e37a8" opacity="0.06"/>
      <ellipse cx="170" cy="290" rx="150" ry="118" fill="#4e37a8" opacity="0.09"/>
      <ellipse cx="170" cy="290" rx="92" ry="72" fill="#4e37a8" opacity="0.11"/>
      <ellipse cx="405" cy="565" rx="190" ry="150" fill="#b01860" opacity="0.05"/>
      <ellipse cx="405" cy="565" rx="132" ry="104" fill="#b01860" opacity="0.08"/>
      <ellipse cx="405" cy="565" rx="76" ry="60" fill="#b01860" opacity="0.10"/>
      <ellipse cx="250" cy="860" rx="230" ry="130" fill="#4e37a8" opacity="0.07"/>
      <ellipse cx="250" cy="860" rx="140" ry="80" fill="#4e37a8" opacity="0.08"/>
    </g>

    <!-- milky way band -->
    <ellipse cx="300" cy="400" rx="340" ry="80" fill="url(#milky)" transform="rotate(-28 300 400)"/>

    <!-- starfield: three magnitudes + tinted giants -->
    <g fill="#d7dce8">
      <circle cx="38" cy="620" r="1.4" opacity="0.55"/><circle cx="92" cy="480" r="1.0" opacity="0.4"/>
      <circle cx="140" cy="560" r="1.7" opacity="0.6"/><circle cx="205" cy="500" r="1.1" opacity="0.45"/>
      <circle cx="255" cy="545" r="1.5" opacity="0.5"/><circle cx="315" cy="470" r="1.0" opacity="0.4"/>
      <circle cx="368" cy="520" r="1.6" opacity="0.6"/><circle cx="428" cy="470" r="1.2" opacity="0.45"/>
      <circle cx="470" cy="560" r="1.5" opacity="0.5"/><circle cx="118" cy="655" r="1.2" opacity="0.5"/>
      <circle cx="180" cy="690" r="1.0" opacity="0.4"/><circle cx="330" cy="675" r="1.4" opacity="0.55"/>
      <circle cx="415" cy="650" r="1.1" opacity="0.4"/><circle cx="90" cy="760" r="1.5" opacity="0.5"/>
      <circle cx="240" cy="756" r="1.1" opacity="0.4"/><circle cx="390" cy="755" r="1.6" opacity="0.55"/>
      <circle cx="160" cy="850" r="1.2" opacity="0.45"/><circle cx="352" cy="860" r="1.3" opacity="0.5"/>
      <circle cx="262" cy="912" r="1.0" opacity="0.35"/><circle cx="60" cy="900" r="1.1" opacity="0.4"/>
      <circle cx="455" cy="840" r="1.2" opacity="0.45"/><circle cx="110" cy="205" r="1.3" opacity="0.5"/>
      <circle cx="205" cy="175" r="1.0" opacity="0.4"/><circle cx="320" cy="185" r="1.4" opacity="0.55"/>
      <circle cx="405" cy="215" r="1.1" opacity="0.45"/><circle cx="455" cy="165" r="1.3" opacity="0.5"/>
      <circle cx="150" cy="255" r="1.0" opacity="0.35"/><circle cx="372" cy="262" r="1.2" opacity="0.45"/>
      <circle cx="90" cy="345" r="1.1" opacity="0.4"/><circle cx="435" cy="345" r="1.4" opacity="0.5"/>
      <circle cx="130" cy="415" r="1.0" opacity="0.35"/><circle cx="392" cy="408" r="1.1" opacity="0.4"/>
      <circle cx="228" cy="640" r="1.8" opacity="0.65"/><circle cx="300" cy="600" r="1.2" opacity="0.45"/>
      <circle cx="48" cy="530" r="1.2" opacity="0.45"/><circle cx="496" cy="700" r="1.3" opacity="0.5"/>
      <circle cx="72" cy="592" r="0.9" opacity="0.35"/><circle cx="188" cy="612" r="1.0" opacity="0.4"/>
      <circle cx="340" cy="585" r="0.9" opacity="0.35"/><circle cx="452" cy="615" r="1.1" opacity="0.4"/>
      <circle cx="30" cy="700" r="1.0" opacity="0.4"/><circle cx="490" cy="770" r="1.0" opacity="0.4"/>
      <circle cx="205" cy="800" r="0.9" opacity="0.3"/><circle cx="318" cy="808" r="1.0" opacity="0.35"/>
      <circle cx="120" cy="925" r="1.1" opacity="0.4"/><circle cx="400" cy="918" r="1.2" opacity="0.4"/>
      <circle cx="35" cy="985" r="1.0" opacity="0.35"/><circle cx="483" cy="965" r="1.0" opacity="0.35"/>
      <circle cx="98" cy="130" r="1.0" opacity="0.4"/><circle cx="420" cy="118" r="1.0" opacity="0.4"/>
      <circle cx="262" cy="330" r="0.9" opacity="0.3"/><circle cx="180" cy="382" r="0.9" opacity="0.3"/>
      <circle cx="345" cy="392" r="0.9" opacity="0.3"/><circle cx="60" cy="440" r="1.2" opacity="0.45"/>
      <circle cx="500" cy="430" r="1.2" opacity="0.45"/><circle cx="545" cy="500" r="1.0" opacity="0.4"/>
      <circle cx="548" cy="590" r="1.2" opacity="0.45"/><circle cx="545" cy="930" r="1.0" opacity="0.4"/>
    </g>
    <g fill="#2fc9d6"><circle cx="440" cy="590" r="1.8" opacity="0.55"/><circle cx="84" cy="672" r="1.6" opacity="0.5"/></g>
    <g fill="#f4d27a"><circle cx="152" cy="480" r="1.8" opacity="0.5"/><circle cx="378" cy="700" r="1.6" opacity="0.45"/></g>

    <!-- sparkle crosses -->
    <g fill="#d7dce8">
      <path d="M 108 588 L 110.5 596 L 118 598 L 110.5 600 L 108 608 L 105.5 600 L 98 598 L 105.5 596 Z" opacity="0.7"/>
      <path d="M 424 528 L 426 534 L 432 536 L 426 538 L 424 544 L 422 538 L 416 536 L 422 534 Z" opacity="0.6"/>
      <path d="M 200 720 L 202 726 L 208 728 L 202 730 L 200 736 L 198 730 L 192 728 L 198 726 Z" opacity="0.55"/>
      <path d="M 470 890 L 472 896 L 478 898 L 472 900 L 470 906 L 468 900 L 462 898 L 468 896 Z" opacity="0.5"/>
      <path d="M 66 802 L 68 808 L 74 810 L 68 812 L 66 818 L 64 812 L 58 810 L 64 808 Z" opacity="0.5"/>
      <path d="M 348 156 L 350 162 L 356 164 L 350 166 L 348 172 L 346 166 L 340 164 L 346 162 Z" opacity="0.55"/>
    </g>
  </g>

  <!-- ═══════════════ art: celestial motifs ═══════════════ -->
  <g id="art-motifs">
    <!-- large waning moon, mid-left field -->
    <g>
      <circle cx="142" cy="505" r="58" fill="url(#moonGlow)"/>
      <circle cx="142" cy="505" r="41" fill="#565d6e" stroke="#07080d" stroke-width="2"/>
      <path d="M 142 464 a 41 41 0 0 0 0 82 a 30 41 0 0 1 0 -82 Z" fill="#aeb6c8" opacity="0.85"/>
      <!-- craters: steel-toned on the lit crescent, ink-toned on the shadow side -->
      <g fill="#565d6e">
        <circle cx="122" cy="486" r="5" opacity="0.7"/>
        <circle cx="115" cy="504" r="2.6" opacity="0.55"/>
        <circle cx="127" cy="521" r="3.6" opacity="0.6"/>
        <circle cx="132" cy="472" r="2.2" opacity="0.5"/>
        <circle cx="120" cy="533" r="2" opacity="0.45"/>
      </g>
      <g fill="#23262f">
        <circle cx="158" cy="488" r="6" opacity="0.55"/>
        <circle cx="166" cy="516" r="4" opacity="0.5"/>
        <circle cx="150" cy="534" r="3" opacity="0.45"/>
        <circle cx="152" cy="472" r="2.6" opacity="0.4"/>
        <circle cx="171" cy="500" r="2.4" opacity="0.45"/>
      </g>
      <!-- crater rim highlights on the lit side -->
      <g fill="none" stroke="#d7dce8" stroke-width="1" opacity="0.35">
        <path d="M 117.5 483.5 a 5 5 0 0 1 7 1"/>
        <path d="M 124 518.5 a 3.6 3.6 0 0 1 5 0.8"/>
      </g>
    </g>

    <!-- ringed planet, mid-right field -->
    <g transform="rotate(-18 396 478)">
      <ellipse cx="396" cy="478" rx="33" ry="9" fill="none" stroke="#9c7c2c" stroke-width="3"/>
      <circle cx="396" cy="478" r="18" fill="#147986" stroke="#07080d" stroke-width="2"/>
      <path d="M 378 478 a 18 18 0 0 1 36 0 Z" fill="#2fc9d6" opacity="0.5"/>
      <ellipse cx="396" cy="478" rx="33" ry="9" fill="none" stroke="#e0b64e" stroke-width="1.2" stroke-dasharray="4 3"/>
    </g>

    <!-- comet streaking the top-right channel -->
    <g>
      <path d="M 452 138 Q 415 100 352 60 L 368 52 Q 428 92 460 126 Z" fill="url(#cometTail)"/>
      <circle cx="456" cy="132" r="6.5" fill="#2fc9d6" filter="url(#glowSoft)"/>
      <circle cx="454" cy="130" r="2.6" fill="#ffffff"/>
    </g>

    <!-- protractor arc over the orrery: observatory instrument graticule -->
    <g fill="none" stroke="#4a5680">
      <path d="M 92.7 320.9 A 178 178 0 0 1 427.3 320.9" stroke-width="1.6"/>
      <g stroke-width="1.6">
        <line x1="92.7" y1="320.9" x2="101.1" y2="317.9"/>
        <line x1="107.5" y1="286.3" x2="115.4" y2="290.4"/>
        <line x1="129.9" y1="255.7" x2="136.8" y2="261.4"/>
        <line x1="158.4" y1="231.1" x2="164.0" y2="238.1"/>
        <line x1="191.6" y1="213.9" x2="195.6" y2="221.9"/>
        <line x1="227.9" y1="204.9" x2="229.9" y2="213.6"/>
        <line x1="292.1" y1="204.9" x2="290.1" y2="213.6"/>
        <line x1="328.4" y1="213.9" x2="324.4" y2="221.9"/>
        <line x1="361.6" y1="231.1" x2="356.0" y2="238.1"/>
        <line x1="390.1" y1="255.7" x2="383.2" y2="261.4"/>
        <line x1="412.5" y1="286.3" x2="404.6" y2="290.4"/>
        <line x1="427.3" y1="320.9" x2="418.9" y2="317.9"/>
      </g>
      <line x1="260" y1="82" x2="260" y2="94" stroke="#9c7c2c" stroke-width="2"/>
    </g>

    <!-- orrery rings with planets riding them -->
    <g fill="none" stroke="#2c3352" stroke-width="1.5">
      <circle cx="260" cy="362" r="66" stroke-dasharray="3 8"/>
      <circle cx="260" cy="362" r="98" stroke-dasharray="5 7"/>
      <circle cx="260" cy="362" r="132" stroke-dasharray="2 9"/>
    </g>
    <g stroke="#07080d" stroke-width="1.2">
      <circle cx="175" cy="410" r="5" fill="#e0b64e"/>
      <circle cx="368" cy="285" r="6" fill="#b01860"/>
      <circle cx="150" cy="300" r="4.5" fill="#2fc9d6"/>
      <circle cx="326" cy="466" r="4" fill="#8c6bff"/>
    </g>
    <!-- constellation lines between the bumper stars -->
    <g stroke="#7f8fc9" stroke-width="1.4" opacity="0.5">
      <line x1="190" y1="330" x2="330" y2="330"/>
      <line x1="190" y1="330" x2="260" y2="425"/>
      <line x1="330" y1="330" x2="260" y2="425"/>
      <line x1="190" y1="330" x2="150" y2="300"/>
      <line x1="330" y1="330" x2="368" y2="285"/>
      <line x1="260" y1="425" x2="326" y2="466"/>
    </g>

    <!-- the moondial: brass half-dial with gnomon, crowned by a phase arc -->
    <g id="art-moondial">
      <g stroke="#07080d" stroke-width="1.2">
        <circle cx="201" cy="194" r="6.5" fill="#2f2547"/>
        <path d="M 216 169.5 a 6.5 6.5 0 0 0 0 13 a 4.8 6.5 0 0 1 0 -13 Z" fill="#aeb6c8" opacity="0.7"/>
        <circle cx="216" cy="176" r="6.5" fill="none"/>
        <path d="M 237 157.5 a 6.5 6.5 0 0 0 0 13 Z" fill="#aeb6c8" opacity="0.7"/>
        <circle cx="237" cy="164" r="6.5" fill="none" stroke="#07080d"/>
        <circle cx="260" cy="160" r="6.5" fill="#aeb6c8" opacity="0.85"/>
        <path d="M 283 157.5 a 6.5 6.5 0 0 1 0 13 Z" fill="#aeb6c8" opacity="0.7"/>
        <circle cx="283" cy="164" r="6.5" fill="none"/>
        <path d="M 304 169.5 a 6.5 6.5 0 0 1 0 13 a 4.8 6.5 0 0 0 0 -13 Z" fill="#aeb6c8" opacity="0.7"/>
        <circle cx="304" cy="176" r="6.5" fill="none"/>
        <circle cx="319" cy="194" r="6.5" fill="#2f2547"/>
      </g>
      <path d="M 205 228 A 55 55 0 0 1 315 228 Z" fill="#262a3e" stroke="#07080d" stroke-width="2"/>
      <path d="M 213 228 A 47 47 0 0 1 307 228" fill="none" stroke="#9c7c2c" stroke-width="3"/>
      <path d="M 220 228 A 40 40 0 0 1 300 228" fill="none" stroke="#4a5680" stroke-width="1" stroke-dasharray="2 4"/>
      <g stroke="#e0b64e" stroke-width="2">
        <line x1="260" y1="181" x2="260" y2="192"/>
        <line x1="227" y1="195" x2="234" y2="203"/>
        <line x1="293" y1="195" x2="286" y2="203"/>
        <line x1="215" y1="223" x2="225" y2="225"/>
        <line x1="305" y1="223" x2="295" y2="225"/>
      </g>
      <line x1="260" y1="228" x2="283" y2="196" stroke="#f4d27a" stroke-width="3" stroke-linecap="round"/>
      <circle cx="260" cy="228" r="5" fill="#e0b64e" stroke="#07080d" stroke-width="1.5"/>
    </g>

    <!-- moon-phase inserts in the top lanes (rollovers light these) -->
    <g id="art-inserts-moons" stroke="#07080d" stroke-width="1.5">
      <circle cx="160" cy="88" r="11" fill="#2f2547"/>
      <path d="M 160 77 a 11 11 0 0 0 0 22 a 8.5 11 0 0 1 0 -22 Z" fill="#8c6bff" opacity="0.35"/>
      <circle cx="260" cy="88" r="11" fill="#2f2547"/>
      <path d="M 260 77 a 11 11 0 0 0 0 22 Z" fill="#8c6bff" opacity="0.35"/>
      <circle cx="360" cy="88" r="11" fill="#2f2547"/>
      <circle cx="360" cy="88" r="8" fill="#8c6bff" opacity="0.35"/>
    </g>
    <!-- lane gleams -->
    <g fill="#d7dce8" opacity="0.04">
      <rect x="142" y="74" width="36" height="72" rx="10"/>
      <rect x="242" y="74" width="36" height="72" rx="10"/>
      <rect x="342" y="74" width="36" height="72" rx="10"/>
    </g>

    <!-- mini-comets streaking into the target bank: tapered two-tone tails
         behind specular heads, echoing the big comet at the top-right -->
    <g id="art-comets">
      <g transform="translate(473 518) rotate(8)">
        <path d="M 0 0 L -27 -6 L -21 3 Z" fill="#147986" opacity="0.85"/>
        <path d="M 0 0 L -17 -3 L -13 2 Z" fill="#2fc9d6" opacity="0.9"/>
        <circle r="4" fill="#2fc9d6" stroke="#07080d" stroke-width="1"/>
        <circle cx="-1" cy="-1.2" r="1.4" fill="#d7dce8"/>
      </g>
      <g transform="translate(473 560)">
        <path d="M 0 0 L -27 -6 L -21 3 Z" fill="#147986" opacity="0.85"/>
        <path d="M 0 0 L -17 -3 L -13 2 Z" fill="#2fc9d6" opacity="0.9"/>
        <circle r="4" fill="#2fc9d6" stroke="#07080d" stroke-width="1"/>
        <circle cx="-1" cy="-1.2" r="1.4" fill="#d7dce8"/>
      </g>
      <g transform="translate(473 602) rotate(-8)">
        <path d="M 0 0 L -27 -6 L -21 3 Z" fill="#147986" opacity="0.85"/>
        <path d="M 0 0 L -17 -3 L -13 2 Z" fill="#2fc9d6" opacity="0.9"/>
        <circle r="4" fill="#2fc9d6" stroke="#07080d" stroke-width="1"/>
        <circle cx="-1" cy="-1.2" r="1.4" fill="#d7dce8"/>
      </g>
    </g>

    <!-- telescope scoop: brass eyepiece set into the field under the orbit
         tail; the kicker holds the ball here during the DMD observation.
         Brass bezel per style guide §2 — the ball physically rests on it. -->
    <g id="art-scoop">
      <circle cx="487" cy="368" r="34" fill="#07080d"/>
      <circle cx="487" cy="368" r="29" fill="#12141f"/>
      <circle cx="487" cy="368" r="29" fill="none" stroke="#2c3352" stroke-width="3"/>
      <circle cx="487" cy="368" r="32" fill="none" stroke="#9c7c2c" stroke-width="4"/>
      <circle cx="487" cy="368" r="32" fill="none" stroke="#e0b64e" stroke-width="1.5" stroke-dasharray="5 6"/>
      <!-- graticule ticks -->
      <g stroke="#4a5680" stroke-width="1.5">
        <line x1="487" y1="343" x2="487" y2="350"/>
        <line x1="487" y1="386" x2="487" y2="393"/>
        <line x1="462" y1="368" x2="469" y2="368"/>
        <line x1="505" y1="368" x2="512" y2="368"/>
      </g>
      <!-- lens glint toward the key light (top-left, §7) -->
      <path d="M 470 353 a 22 22 0 0 1 10 -6" stroke="#7f8fc9" stroke-width="2.5" fill="none" stroke-linecap="round"/>
      <!-- approach chevrons on the shot line from the left flipper -->
      <g stroke="#8c6bff" stroke-width="3" fill="none" stroke-linecap="round" stroke-linejoin="round" opacity="0.75">
        <path d="M 424 502 L 437 490 L 442 507"/>
        <path d="M 402 538 L 415 526 L 420 543"/>
      </g>
      <text x="452" y="446" text-anchor="middle" font-family="ui-monospace, monospace"
            font-size="11" letter-spacing="2" fill="#9c7c2c" transform="rotate(-60 452 446)">OBSERVE</text>
    </g>

    <!-- orbit lane arrows (shot direction: up the left lane) -->
    <g stroke="#8c6bff" stroke-width="3" fill="none" stroke-linecap="round" stroke-linejoin="round" opacity="0.75">
      <path d="M 24 476 L 32.5 462 L 41 476"/>
      <path d="M 24 446 L 32.5 432 L 41 446"/>
    </g>
    <!-- left lane star trail -->
    <g fill="#4a5680">
      <circle cx="32.5" cy="300" r="1.6"/><circle cx="32.5" cy="330" r="1.6"/>
      <circle cx="32.5" cy="360" r="1.6"/><circle cx="32.5" cy="520" r="1.6"/>
    </g>
  </g>

  <!-- ═══════════════ art: observatory + wordmark + chrome ═══════════════ -->
  <g id="art-lower">
    <!-- wordmark -->
    <g id="art-wordmark">
      <path d="M 148 590 L 151 599 L 160 602 L 151 605 L 148 614 L 145 605 L 136 602 L 145 599 Z" fill="#8c6bff" opacity="0.8"/>
      <path d="M 372 590 L 375 599 L 384 602 L 375 605 L 372 614 L 369 605 L 360 602 L 369 599 Z" fill="#8c6bff" opacity="0.8"/>
      <text x="260" y="600" text-anchor="middle" font-family="ui-monospace, monospace"
            font-size="40" font-weight="800" letter-spacing="6"
            fill="#4e37a8" opacity="0.5" filter="url(#glowSoft)">MOONDIAL</text>
      <text x="260" y="596" text-anchor="middle" font-family="ui-monospace, monospace"
            font-size="40" font-weight="800" letter-spacing="6"
            fill="url(#chromeText)" stroke="#07080d" stroke-width="2" paint-order="stroke">MOONDIAL</text>
      <text x="260" y="596" text-anchor="middle" font-family="ui-monospace, monospace"
            font-size="40" font-weight="800" letter-spacing="6"
            fill="none" stroke="#ff3e9a" stroke-width="0.8" opacity="0.9">MOONDIAL</text>
      <text x="260" y="622" text-anchor="middle" font-family="ui-monospace, monospace"
            font-size="11" letter-spacing="5" fill="#7f8fc9">A · NIGHT · OBSERVATORY</text>
    </g>

    <!-- observatory dome silhouette on a hill, telescope to the stars -->
    <g id="art-observatory">
      <path d="M 148 796 Q 196 772 214 769 L 306 769 Q 328 773 372 796 Z"
            fill="#12141f" stroke="#07080d" stroke-width="2"/>
      <rect x="212" y="722" width="96" height="48" fill="#12141f" stroke="#07080d" stroke-width="2"/>
      <path d="M 212 722 A 48 48 0 0 1 308 722 Z" fill="#12141f" stroke="#07080d" stroke-width="2"/>
      <path d="M 215 706 A 45 45 0 0 1 258 674" fill="none" stroke="#7f8fc9" stroke-width="2" opacity="0.8"/>
      <rect x="252" y="678" width="14" height="44" fill="#07080d"/>
      <!-- telescope barrel: pivot at its BASE, inside the slit, so it
           emerges through the opening rather than floating above it -->
      <!-- barrel stays silhouette-dark: bright brass is the color of
           physical obstacles (flippers/slings/targets) and reads as one -->
      <g transform="rotate(-28 259 698)">
        <rect x="251.5" y="646" width="15" height="52" rx="3" fill="#23262f" stroke="#07080d" stroke-width="1.5"/>
        <line x1="254.5" y1="649" x2="254.5" y2="695" stroke="#9c7c2c" stroke-width="1.6" opacity="0.6"/>
        <rect x="249.5" y="641" width="19" height="9" rx="3.5" fill="#2c3352" stroke="#07080d" stroke-width="1.5"/>
      </g>
      <!-- warm light spilling from the open slit below the barrel -->
      <rect x="254.5" y="702" width="9" height="18" fill="#e0b64e" opacity="0.45"/>
      <g fill="#f4d27a">
        <rect x="222" y="742" width="7" height="9" rx="1" opacity="0.85"/>
        <rect x="290" y="742" width="7" height="9" rx="1" opacity="0.85"/>
      </g>
      <g fill="#4a5680">
        <circle cx="220" cy="720" r="1.5"/><circle cx="240" cy="720" r="1.5"/>
        <circle cx="280" cy="720" r="1.5"/><circle cx="300" cy="720" r="1.5"/>
      </g>
    </g>

    <!-- outlane star inserts -->
    <g stroke="#07080d" stroke-width="1">
      <path d="M 100 862 L 103.5 872.5 L 114 876 L 103.5 879.5 L 100 890 L 96.5 879.5 L 86 876 L 96.5 872.5 Z" fill="#4e37a8"/>
      <path d="M 420 862 L 423.5 872.5 L 434 876 L 423.5 879.5 L 420 890 L 416.5 879.5 L 406 876 L 416.5 872.5 Z" fill="#4e37a8"/>
    </g>

    <!-- apron band along the drain -->
    <rect x="0" y="1036" width="575" height="14" fill="#262a3e" stroke="#07080d" stroke-width="1.5"/>
    <line x1="0" y1="1039" x2="575" y2="1039" stroke="#9c7c2c" stroke-width="1.5"/>
  </g>

  <!-- ═══════════════ art: plunger lane ═══════════════ -->
  <g id="art-lane">
    <g fill="#4a5680">
      <circle cx="547.5" cy="380" r="1.6"/><circle cx="547.5" cy="420" r="1.6"/>
      <circle cx="547.5" cy="460" r="1.6"/><circle cx="547.5" cy="500" r="1.6"/>
      <circle cx="547.5" cy="540" r="1.6"/><circle cx="547.5" cy="580" r="1.6"/>
    </g>
    <g stroke="#e0b64e" stroke-width="3" fill="none" stroke-linecap="round" stroke-linejoin="round" opacity="0.7">
      <path d="M 539 706 L 547.5 692 L 556 706"/>
      <path d="M 539 666 L 547.5 652 L 556 666"/>
    </g>
    <g font-family="ui-monospace, monospace" font-size="13" font-weight="700" fill="#9c7c2c" text-anchor="middle">
      <text x="547.5" y="760">L</text><text x="547.5" y="780">A</text>
      <text x="547.5" y="800">U</text><text x="547.5" y="820">N</text>
      <text x="547.5" y="840">C</text><text x="547.5" y="860">H</text>
    </g>
  </g>

  <g id="art-vignette">
    <rect x="0" y="0" width="575" height="1050" fill="url(#vignette)"/>
  </g>

  <!-- ═══════════════ art polish (2026-07-17): the observatory dressed ═══════════════
       Static print only — the SVG rasterizes once at load, so detail here is
       frame-time free. Star chart + constellations, the phase calendar row,
       crater rings under the pops, an astrolabe engraving mid-field, meteor
       streaks, the observatory on the horizon, and the gnomon's sundial fan. -->
  <defs>
    <linearGradient id="mpMeteor" x1="0" y1="0" x2="1" y2="0">
      <stop offset="0" stop-color="#d7dce8" stop-opacity="0"/>
      <stop offset="1" stop-color="#ffffff" stop-opacity="0.8"/>
    </linearGradient>
  </defs>
  <g id="art-polish">
    <g>
            <circle cx="341" cy="176" r="1.1" fill="#d7dce8" opacity="0.60"/>
      <circle cx="561" cy="66" r="1.8" fill="#d7dce8" opacity="0.74"/>
      <circle cx="145" cy="195" r="1.1" fill="#d7dce8" opacity="0.64"/>
      <circle cx="512" cy="450" r="0.7" fill="#d7dce8" opacity="0.25"/>
      <circle cx="250" cy="412" r="1.3" fill="#d7dce8" opacity="0.36"/>
      <circle cx="14" cy="324" r="0.9" fill="#d7dce8" opacity="0.70"/>
      <circle cx="316" cy="258" r="1.8" fill="#d7dce8" opacity="0.53"/>
      <circle cx="458" cy="266" r="1.2" fill="#d7dce8" opacity="0.45"/>
      <circle cx="464" cy="85" r="1.6" fill="#d7dce8" opacity="0.62"/>
      <circle cx="362" cy="67" r="1.0" fill="#d7dce8" opacity="0.71"/>
      <circle cx="350" cy="240" r="0.7" fill="#d7dce8" opacity="0.69"/>
      <circle cx="92" cy="277" r="1.2" fill="#d7dce8" opacity="0.36"/>
      <circle cx="102" cy="67" r="1.0" fill="#d7dce8" opacity="0.66"/>
      <circle cx="142" cy="337" r="1.4" fill="#d7dce8" opacity="0.69"/>
      <circle cx="369" cy="193" r="0.7" fill="#d7dce8" opacity="0.51"/>
      <circle cx="160" cy="552" r="1.2" fill="#d7dce8" opacity="0.58"/>
      <circle cx="342" cy="271" r="1.3" fill="#d7dce8" opacity="0.45"/>
      <circle cx="420" cy="76" r="1.0" fill="#d7dce8" opacity="0.61"/>
      <circle cx="438" cy="9" r="1.3" fill="#d7dce8" opacity="0.51"/>
      <circle cx="157" cy="428" r="1.7" fill="#d7dce8" opacity="0.67"/>
      <circle cx="188" cy="132" r="0.8" fill="#d7dce8" opacity="0.56"/>
      <circle cx="558" cy="535" r="1.7" fill="#d7dce8" opacity="0.40"/>
      <circle cx="218" cy="472" r="1.5" fill="#d7dce8" opacity="0.28"/>
      <circle cx="193" cy="111" r="0.7" fill="#d7dce8" opacity="0.66"/>
      <circle cx="563" cy="225" r="1.3" fill="#d7dce8" opacity="0.59"/>
      <circle cx="83" cy="161" r="1.7" fill="#d7dce8" opacity="0.38"/>
      <circle cx="283" cy="387" r="1.4" fill="#d7dce8" opacity="0.43"/>
      <circle cx="99" cy="55" r="1.4" fill="#d7dce8" opacity="0.41"/>
      <circle cx="79" cy="509" r="0.9" fill="#d7dce8" opacity="0.62"/>
      <circle cx="565" cy="134" r="1.7" fill="#d7dce8" opacity="0.71"/>
      <circle cx="109" cy="431" r="1.3" fill="#d7dce8" opacity="0.50"/>
      <circle cx="183" cy="326" r="1.2" fill="#d7dce8" opacity="0.59"/>
      <circle cx="240" cy="261" r="0.8" fill="#d7dce8" opacity="0.63"/>
      <circle cx="273" cy="371" r="1.8" fill="#d7dce8" opacity="0.31"/>
      <circle cx="503" cy="284" r="1.0" fill="#d7dce8" opacity="0.40"/>
      <circle cx="335" cy="534" r="1.1" fill="#d7dce8" opacity="0.63"/>
      <circle cx="97" cy="243" r="1.5" fill="#d7dce8" opacity="0.49"/>
      <circle cx="488" cy="16" r="0.8" fill="#d7dce8" opacity="0.32"/>
      <circle cx="479" cy="233" r="1.5" fill="#d7dce8" opacity="0.39"/>
      <circle cx="228" cy="323" r="1.5" fill="#d7dce8" opacity="0.62"/>
      <circle cx="343" cy="395" r="1.1" fill="#d7dce8" opacity="0.30"/>
      <circle cx="163" cy="176" r="1.5" fill="#d7dce8" opacity="0.54"/>
      <circle cx="242" cy="551" r="0.9" fill="#d7dce8" opacity="0.47"/>
      <circle cx="85" cy="422" r="1.0" fill="#d7dce8" opacity="0.26"/>
      <circle cx="194" cy="323" r="0.9" fill="#d7dce8" opacity="0.44"/>
      <circle cx="12" cy="483" r="1.4" fill="#d7dce8" opacity="0.32"/>
      <circle cx="288" cy="300" r="1.5" fill="#d7dce8" opacity="0.32"/>
      <circle cx="335" cy="331" r="1.3" fill="#d7dce8" opacity="0.33"/>
      <circle cx="368" cy="347" r="1.6" fill="#d7dce8" opacity="0.41"/>
      <circle cx="504" cy="151" r="1.7" fill="#d7dce8" opacity="0.58"/>
      <circle cx="499" cy="64" r="1.3" fill="#d7dce8" opacity="0.29"/>
      <circle cx="148" cy="497" r="1.0" fill="#d7dce8" opacity="0.59"/>
      <circle cx="518" cy="316" r="1.7" fill="#d7dce8" opacity="0.35"/>
      <circle cx="399" cy="141" r="0.8" fill="#d7dce8" opacity="0.65"/>
      <circle cx="355" cy="198" r="1.0" fill="#d7dce8" opacity="0.27"/>
      <circle cx="427" cy="560" r="1.8" fill="#d7dce8" opacity="0.71"/>
      <circle cx="555" cy="96" r="1.8" fill="#d7dce8" opacity="0.40"/>
      <circle cx="294" cy="293" r="0.9" fill="#d7dce8" opacity="0.29"/>
      <circle cx="246" cy="199" r="1.2" fill="#d7dce8" opacity="0.65"/>
      <circle cx="125" cy="404" r="1.7" fill="#d7dce8" opacity="0.26"/>
    </g>
      <path d="M 120 180 L 150 150 L 185 165 L 210 140 L 238 158" fill="none" stroke="#8c6bff" stroke-width="0.8" opacity="0.35"/>
      <circle cx="120" cy="180" r="1.6" fill="#d7dce8" opacity="0.85"/>
      <circle cx="150" cy="150" r="1.6" fill="#d7dce8" opacity="0.85"/>
      <circle cx="185" cy="165" r="1.6" fill="#d7dce8" opacity="0.85"/>
      <circle cx="210" cy="140" r="1.6" fill="#d7dce8" opacity="0.85"/>
      <circle cx="238" cy="158" r="1.6" fill="#d7dce8" opacity="0.85"/>
      <path d="M 360 480 L 392 455 L 420 470 L 446 440" fill="none" stroke="#8c6bff" stroke-width="0.8" opacity="0.35"/>
      <circle cx="360" cy="480" r="1.6" fill="#d7dce8" opacity="0.85"/>
      <circle cx="392" cy="455" r="1.6" fill="#d7dce8" opacity="0.85"/>
      <circle cx="420" cy="470" r="1.6" fill="#d7dce8" opacity="0.85"/>
      <circle cx="446" cy="440" r="1.6" fill="#d7dce8" opacity="0.85"/>
      <g transform="translate(96,196)">
        <circle r="9" fill="#101426" stroke="#07080d" stroke-width="1.5"/>
        <path d="M 0 -9 A 9 9 0 1 1 0 9 A 9.0 9 0 0 1 0 -9 Z" fill="#c9d2ea" opacity="0.8"/>
      </g>
      <g transform="translate(143,196)">
        <circle r="9" fill="#101426" stroke="#07080d" stroke-width="1.5"/>
        <path d="M 0 -9 A 9 9 0 1 1 0 9 A 6.8 9 0 0 1 0 -9 Z" fill="#c9d2ea" opacity="0.8"/>
      </g>
      <g transform="translate(190,196)">
        <circle r="9" fill="#101426" stroke="#07080d" stroke-width="1.5"/>
        <path d="M 0 -9 A 9 9 0 1 1 0 9 A 4.5 9 0 0 0 0 -9 Z" fill="#c9d2ea" opacity="0.8"/>
      </g>
      <g transform="translate(237,196)">
        <circle r="9" fill="#101426" stroke="#07080d" stroke-width="1.5"/>
        <path d="M 0 -9 A 9 9 0 1 1 0 9 A 2.2 9 0 0 0 0 -9 Z" fill="#c9d2ea" opacity="0.8"/>
      </g>
      <g transform="translate(284,196)">
        <circle r="9" fill="#101426" stroke="#07080d" stroke-width="1.5"/>
        <path d="M 0 -9 A 9 9 0 0 1 0 9 A 9.0 9 0 0 1 0 -9 Z" fill="#c9d2ea" opacity="0.8"/>
      </g>
      <g transform="translate(331,196)">
        <circle r="9" fill="#101426" stroke="#07080d" stroke-width="1.5"/>
        <path d="M 0 -9 A 9 9 0 0 1 0 9 A 6.8 9 0 0 1 0 -9 Z" fill="#c9d2ea" opacity="0.8"/>
      </g>
      <g transform="translate(378,196)">
        <circle r="9" fill="#101426" stroke="#07080d" stroke-width="1.5"/>
        <path d="M 0 -9 A 9 9 0 0 1 0 9 A 4.5 9 0 0 0 0 -9 Z" fill="#c9d2ea" opacity="0.8"/>
      </g>
      <g transform="translate(425,196)">
        <circle r="9" fill="#101426" stroke="#07080d" stroke-width="1.5"/>
        <path d="M 0 -9 A 9 9 0 0 1 0 9 A 2.2 9 0 0 0 0 -9 Z" fill="#c9d2ea" opacity="0.8"/>
      </g>
      <circle cx="260" cy="628" r="105" fill="none" stroke="#4a5680" stroke-width="1.4" stroke-dasharray="3 7" opacity="0.3"/>
      <circle cx="260" cy="628" r="84" fill="none" stroke="#4a5680" stroke-width="1.4" stroke-dasharray="2 5" opacity="0.24"/>
      <circle cx="260" cy="628" r="58" fill="none" stroke="#4a5680" stroke-width="1.4" stroke-dasharray="1 4" opacity="0.2"/>
      <line x1="365.0" y1="628.0" x2="356.0" y2="628.0" stroke="#4a5680" stroke-width="1.4" opacity="0.35"/>
      <line x1="350.9" y1="680.5" x2="343.1" y2="676.0" stroke="#4a5680" stroke-width="1.4" opacity="0.35"/>
      <line x1="312.5" y1="718.9" x2="308.0" y2="711.1" stroke="#4a5680" stroke-width="1.4" opacity="0.35"/>
      <line x1="260.0" y1="733.0" x2="260.0" y2="724.0" stroke="#4a5680" stroke-width="1.4" opacity="0.35"/>
      <line x1="207.5" y1="718.9" x2="212.0" y2="711.1" stroke="#4a5680" stroke-width="1.4" opacity="0.35"/>
      <line x1="169.1" y1="680.5" x2="176.9" y2="676.0" stroke="#4a5680" stroke-width="1.4" opacity="0.35"/>
      <line x1="155.0" y1="628.0" x2="164.0" y2="628.0" stroke="#4a5680" stroke-width="1.4" opacity="0.35"/>
      <line x1="169.1" y1="575.5" x2="176.9" y2="580.0" stroke="#4a5680" stroke-width="1.4" opacity="0.35"/>
      <line x1="207.5" y1="537.1" x2="212.0" y2="544.9" stroke="#4a5680" stroke-width="1.4" opacity="0.35"/>
      <line x1="260.0" y1="523.0" x2="260.0" y2="532.0" stroke="#4a5680" stroke-width="1.4" opacity="0.35"/>
      <line x1="312.5" y1="537.1" x2="308.0" y2="544.9" stroke="#4a5680" stroke-width="1.4" opacity="0.35"/>
      <line x1="350.9" y1="575.5" x2="343.1" y2="580.0" stroke="#4a5680" stroke-width="1.4" opacity="0.35"/>
      <path d="M 260 545 L 266 560 L 260 556 L 254 560 Z" fill="#8c6bff" opacity="0.5"/>
      <circle cx="190" cy="330" r="38" fill="none" stroke="#4a5680" stroke-width="1.6" stroke-dasharray="5 6" opacity="0.4"/>
      <circle cx="202" cy="356" r="5" fill="none" stroke="#4a5680" stroke-width="1.2" opacity="0.3"/>
      <circle cx="170" cy="344" r="3" fill="none" stroke="#4a5680" stroke-width="1" opacity="0.3"/>
      <circle cx="330" cy="330" r="38" fill="none" stroke="#4a5680" stroke-width="1.6" stroke-dasharray="5 6" opacity="0.4"/>
      <circle cx="342" cy="356" r="5" fill="none" stroke="#4a5680" stroke-width="1.2" opacity="0.3"/>
      <circle cx="310" cy="344" r="3" fill="none" stroke="#4a5680" stroke-width="1" opacity="0.3"/>
      <circle cx="260" cy="425" r="38" fill="none" stroke="#4a5680" stroke-width="1.6" stroke-dasharray="5 6" opacity="0.4"/>
      <circle cx="272" cy="451" r="5" fill="none" stroke="#4a5680" stroke-width="1.2" opacity="0.3"/>
      <circle cx="240" cy="439" r="3" fill="none" stroke="#4a5680" stroke-width="1" opacity="0.3"/>
      <line x1="430" y1="60" x2="482" y2="86" stroke="url(#mpMeteor)" stroke-width="1.8"/>
      <circle cx="482" cy="86" r="1.8" fill="#ffffff" opacity="0.9"/>
      <line x1="80" y1="420" x2="120" y2="450" stroke="url(#mpMeteor)" stroke-width="1.8"/>
      <circle cx="120" cy="450" r="1.8" fill="#ffffff" opacity="0.9"/>
      <line x1="500" y1="470" x2="534" y2="492" stroke="url(#mpMeteor)" stroke-width="1.8"/>
      <circle cx="534" cy="492" r="1.8" fill="#ffffff" opacity="0.9"/>
      <g opacity="0.85">
        <path d="M 150 1006 L 370 1006 L 370 1050 L 150 1050 Z" fill="#0b0e1c"/>
        <path d="M 214 1006 A 46 46 0 0 1 306 1006 Z" fill="#151a30" stroke="#07080d" stroke-width="1.6"/>
        <rect x="252" y="962" width="10" height="26" fill="#151a30" stroke="#07080d" stroke-width="1.4" transform="rotate(24 257 975)"/>
        <rect x="234" y="984" width="52" height="8" rx="2" fill="#0b0e1c" stroke="#07080d" stroke-width="1.2"/>
        <rect x="292" y="998" width="6" height="6" fill="#ffdf9e" opacity="0.75"/>
        <rect x="222" y="998" width="6" height="6" fill="#ffdf9e" opacity="0.55"/>
        <path d="M 130 1012 l 8 -14 l 8 14 Z" fill="#0b0e1c"/>
        <path d="M 384 1012 l 9 -16 l 9 16 Z" fill="#0b0e1c"/>
      </g>
      <line x1="260" y1="998" x2="226.9" y2="967.2" stroke="#8c6bff" stroke-width="1.2" opacity="0.3"/>
      <line x1="260" y1="998" x2="236.9" y2="962.2" stroke="#8c6bff" stroke-width="1.2" opacity="0.3"/>
      <line x1="260" y1="998" x2="248.1" y2="959.1" stroke="#8c6bff" stroke-width="1.2" opacity="0.3"/>
      <line x1="260" y1="998" x2="260.0" y2="958.0" stroke="#8c6bff" stroke-width="1.2" opacity="0.5"/>
      <line x1="260" y1="998" x2="271.9" y2="959.1" stroke="#8c6bff" stroke-width="1.2" opacity="0.3"/>
      <line x1="260" y1="998" x2="283.1" y2="962.2" stroke="#8c6bff" stroke-width="1.2" opacity="0.3"/>
      <line x1="260" y1="998" x2="293.1" y2="967.2" stroke="#8c6bff" stroke-width="1.2" opacity="0.3"/>
      <path d="M 232 976 A 40 40 0 0 1 288 976" fill="none" stroke="#8c6bff" stroke-width="1.2" opacity="0.4" stroke-dasharray="2 4"/>
  </g>

  <!-- ═══════════════ collision (rendered as layered steel rails) ═══════════════
       One set of paths = both physics and art. data-width feeds the physics
       radius (width/2) without being a presentation attribute, so the rail
       layers below can restroke the same paths at different widths. -->
  <defs>
    <g id="collision-paths" fill="none">
      <!-- outer shell: left wall, r260 arc to apex (260,0), r315 arc over the
           plunger lane, right wall; Z closes the floor -->
      <path data-width="12" id="collision-loop-shell" d="M 0 1050 L 0 260 L 1.3 234.5 L 5 209.3 L 11.2 184.5 L 19.8 160.5 L 30.7 137.4 L 43.8 115.6 L 59 95.1 L 76.2 76.2 L 95.1 59 L 115.6 43.8 L 137.4 30.7 L 160.5 19.8 L 184.5 11.2 L 209.3 5 L 234.5 1.3 L 260 0 L 290.9 1.5 L 321.5 6.1 L 351.4 13.6 L 380.5 24 L 408.5 37.2 L 435 53.1 L 459.8 71.5 L 482.7 92.3 L 503.5 115.2 L 521.9 140 L 537.8 166.5 L 551 194.5 L 561.4 223.6 L 568.9 253.5 L 573.5 284.1 L 575 315 L 575 1050 Z"/>
      <!-- inlane funnels, each ending tangent to its flipper base circle -->
      <path data-width="12" id="collision-wall-funnel-left" d="M 0 800 L 178.4 940.6 L 157 955 L 157 1050"/>
      <path data-width="12" id="collision-wall-funnel-right" d="M 520 800 L 341.6 940.6 L 363 955 L 363 1050"/>
      <!-- plunger lane inner wall -->
      <path data-width="12" id="collision-wall-lane" d="M 520 300 L 520 1050"/>
      <!-- orbit inner wall: left lane, arc under the arch, tail to the lane wall top -->
      <path data-width="12" id="collision-wall-orbit" d="M 65 550 L 65 260 L 66.5 236.2 L 70.8 212.8 L 78 190.1 L 87.8 168.5 L 100.3 148.2 L 115.1 129.5 L 132.1 112.8 L 151 98.3 L 171.5 86.3 L 193.3 76.8 L 216.1 70 L 239.6 66.1 L 263.4 65 L 287.1 66.9 L 310.5 71.6 L 333 79.2 L 354.5 89.4 L 374.6 102.2 L 393 117.4 L 409.4 134.7 L 520 300"/>
      <!-- top-lane dividers, ending 4 mm below the orbit arc line -->
      <path data-width="12" id="collision-wall-divider-left" d="M 215 74.3 L 215 150"/>
      <path data-width="12" id="collision-wall-divider-right" d="M 305 74.3 L 305 150"/>
      <!-- drop-target bank housing -->
      <path data-width="12" id="collision-wall-bank-housing" d="M 520 490 L 503 498 L 503 622 L 520 630"/>
      <!-- telescope scoop hood: hangs off the lane wall below the orbit tail.
           The mouth opens down-left (68 mm to the lane wall, > 38 mm rule) so
           gravity alone always rolls an uncaptured ball back out — only the
           kicker sensor+hold logic ever keeps a ball here, never geometry.
           Top face slopes down-left so a ball riding the lane wall down from
           the orbit tail rolls off the hood instead of seating on it. -->
      <path data-width="12" id="collision-wall-scoop" d="M 520 330 L 486 338 L 464 350 L 450 370 L 447 392"/>
      <!-- plunger saddle: the ball rests here, above the animated spring -->
      <path data-width="12" id="collision-wall-plunger-saddle" d="M 526 1000 L 569 1000"/>
    </g>
    <!-- THE GNOMON (differentiation pass 2026-07-17): retractable centre post
         between the flipper tips — the sundial's gnomon, risen when its
         shadow matters (ball-saver live, LUNAR ECLIPSE running). A diverter
         with an inert "down" blade (a sliver parked in the sealed void under
         the plunger saddle — unreachable by any ball). Post edges sit 15 mm
         off the resting flipper tips: the ball can't pass beside it and
         rests ON it between the tips, always recoverable by a flip (the
         wedge rule is for static geometry; the tips sweep this pocket). -->
    <g id="diverter-paths" fill="none">
      <path data-width="9" id="collision-diverter-gnomon-up" d="M 260 990 L 260 1004"/>
      <path data-width="4" id="collision-diverter-gnomon-down" d="M 545 1025 L 549 1025"/>
    </g>
  </defs>
  <g id="art-rails" fill="none" stroke-linecap="round" stroke-linejoin="round">
    <g stroke="#07080d" stroke-width="16"><use href="#collision-paths"/></g>
    <g stroke="#4a5680" stroke-width="12"><use href="#collision-paths"/></g>
    <g stroke="#7f8fc9" stroke-width="6.5"><use href="#collision-paths"/></g>
    <g stroke="#d7dce8" stroke-width="2.2" opacity="0.8"><use href="#collision-paths"/></g>
  </g>

  <!-- ═══════════════ sensors (invisible; zones only) ═══════════════ -->
  <g fill="none" stroke="none">
    <rect id="sensor-drain" x="0" y="1005" width="520" height="30"/>
    <rect id="sensor-rollover-1" x="145" y="105" width="30" height="20"/>
    <rect id="sensor-rollover-2" x="245" y="105" width="30" height="20"/>
    <rect id="sensor-rollover-3" x="345" y="105" width="30" height="20"/>
    <rect id="sensor-spinner" x="0" y="394" width="65" height="12"/>
    <rect id="sensor-ramp-entry" x="2.5" y="492" width="60" height="16"/>
    <rect id="sensor-ramp-exit" x="442" y="117" width="36" height="36"/>
    <rect id="sensor-kicker-telescope" x="464" y="344" width="42" height="42"/>
    <!-- FIRST LIGHT skill band (STYLE-GUIDE §4): a soft plunge peaking here
         arrives slow (probe: crossings at y500 run 0.25-0.71 m/s for
         roll-back plunges, >=0.88 for lane-exiting ones; threshold 0.75 in
         rules.skill.maxSpeed) -->
    <rect id="sensor-skill-firstlight" x="526" y="440" width="43" height="60"/>
  </g>

  <!-- ═══════════════ anchors (invisible placement points) ═══════════════ -->
  <g fill="none" stroke="none">
    <circle id="anchor-flipper-left" cx="171" cy="950" r="5"/>
    <circle id="anchor-flipper-right" cx="349" cy="950" r="5"/>
    <circle id="anchor-spawn" cx="547.5" cy="980" r="5"/>
    <circle id="anchor-bumper-1" cx="190" cy="330" r="5"/>
    <circle id="anchor-bumper-2" cx="330" cy="330" r="5"/>
    <circle id="anchor-bumper-3" cx="260" cy="425" r="5"/>
    <circle id="anchor-kicker-telescope" cx="487" cy="368" r="5"/>
  </g>
</svg>
