<svg xmlns="http://www.w3.org/2000/svg" viewBox="0 0 1024 32" width="1024" height="32">
  <!-- TIDEBREAKER DMD scene: AIRLOCK — the recessed bank cycles: the valve
       wheel spins, the dogs bite the rim, and the hatch seals with a flash
       (Tidebreaker's bank-complete fanfare). 8 frames of 128x32 (style guide
       §6): #fff=3, #888=2, #666=1, black=0. Art rows 0..22; caption row 24. -->
  <rect width="1024" height="32" fill="#000"/>

  <g transform="translate(0,0)">
    <circle cx="64" cy="12" r="10" fill="none" stroke="#666" stroke-width="1.4"/>
    <g transform="rotate(0 64 12)" stroke="#666" stroke-width="1.2"><line x1="56" y1="12" x2="72" y2="12"/><line x1="64" y1="4" x2="64" y2="20"/></g>
    <circle cx="64" cy="12" r="1.8" fill="#666"/>
  </g>
  <g transform="translate(128,0)">
    <circle cx="64" cy="12" r="10" fill="none" stroke="#888" stroke-width="1.4"/>
    <g transform="rotate(22 64 12)" stroke="#888" stroke-width="1.2"><line x1="56" y1="12" x2="72" y2="12"/><line x1="64" y1="4" x2="64" y2="20"/></g>
    <circle cx="64" cy="12" r="1.8" fill="#888"/>
    <line x1="64" y1="0.5" x2="64" y2="2.5" stroke="#888" stroke-width="1.4"/>
  </g>
  <g transform="translate(256,0)">
    <circle cx="64" cy="12" r="10" fill="none" stroke="#888" stroke-width="1.4"/>
    <g transform="rotate(45 64 12)" stroke="#888" stroke-width="1.2"><line x1="56" y1="12" x2="72" y2="12"/><line x1="64" y1="4" x2="64" y2="20"/></g>
    <circle cx="64" cy="12" r="1.8" fill="#888"/>
    <line x1="64" y1="0.5" x2="64" y2="2.5" stroke="#888" stroke-width="1.4"/>
    <line x1="74.5" y1="12" x2="76.5" y2="12" stroke="#888" stroke-width="1.4"/>
  </g>
  <g transform="translate(384,0)">
    <circle cx="64" cy="12" r="10" fill="none" stroke="#888" stroke-width="1.4"/>
    <g transform="rotate(68 64 12)" stroke="#888" stroke-width="1.2"><line x1="56" y1="12" x2="72" y2="12"/><line x1="64" y1="4" x2="64" y2="20"/></g>
    <circle cx="64" cy="12" r="1.8" fill="#888"/>
    <line x1="64" y1="0.5" x2="64" y2="2.5" stroke="#888" stroke-width="1.4"/>
    <line x1="74.5" y1="12" x2="76.5" y2="12" stroke="#888" stroke-width="1.4"/>
    <line x1="64" y1="21.5" x2="64" y2="23" stroke="#888" stroke-width="1.4"/>
  </g>
  <g transform="translate(512,0)">
    <circle cx="64" cy="12" r="10" fill="none" stroke="#888" stroke-width="1.4"/>
    <g transform="rotate(90 64 12)" stroke="#888" stroke-width="1.2"><line x1="56" y1="12" x2="72" y2="12"/><line x1="64" y1="4" x2="64" y2="20"/></g>
    <circle cx="64" cy="12" r="1.8" fill="#888"/>
    <line x1="64" y1="0.5" x2="64" y2="2.5" stroke="#888" stroke-width="1.4"/>
    <line x1="74.5" y1="12" x2="76.5" y2="12" stroke="#888" stroke-width="1.4"/>
    <line x1="64" y1="21.5" x2="64" y2="23" stroke="#888" stroke-width="1.4"/>
    <line x1="51.5" y1="12" x2="53.5" y2="12" stroke="#888" stroke-width="1.4"/>
  </g>
  <!-- f5: sealed, lock flash -->
  <g transform="translate(640,0)">
    <circle cx="64" cy="12" r="10" fill="none" stroke="#fff" stroke-width="1.6"/>
    <g transform="rotate(90 64 12)" stroke="#fff" stroke-width="1.2"><line x1="56" y1="12" x2="72" y2="12"/><line x1="64" y1="4" x2="64" y2="20"/></g>
    <circle cx="64" cy="12" r="1.8" fill="#fff"/>
    <line x1="64" y1="0" x2="64" y2="3" stroke="#fff" stroke-width="1.6"/>
    <line x1="74" y1="12" x2="77" y2="12" stroke="#fff" stroke-width="1.6"/>
    <line x1="64" y1="21" x2="64" y2="23" stroke="#fff" stroke-width="1.6"/>
    <line x1="51" y1="12" x2="54" y2="12" stroke="#fff" stroke-width="1.6"/>
  </g>
  <g transform="translate(768,0)">
    <circle cx="64" cy="12" r="10" fill="none" stroke="#888" stroke-width="1.4"/>
    <g transform="rotate(90 64 12)" stroke="#666" stroke-width="1.2"><line x1="56" y1="12" x2="72" y2="12"/><line x1="64" y1="4" x2="64" y2="20"/></g>
    <circle cx="64" cy="12" r="2.2" fill="#fff"/>
  </g>
  <g transform="translate(896,0)">
    <circle cx="64" cy="12" r="10" fill="none" stroke="#666" stroke-width="1.4"/>
    <g transform="rotate(90 64 12)" stroke="#666" stroke-width="1.2"><line x1="56" y1="12" x2="72" y2="12"/><line x1="64" y1="4" x2="64" y2="20"/></g>
    <circle cx="64" cy="12" r="1.8" fill="#888"/>
  </g>
</svg>
