<svg xmlns="http://www.w3.org/2000/svg" viewBox="0 0 1024 32" width="1024" height="32">
  <!-- MOONDIAL DMD scene: ALIGN THE SCOPE — reticle drifts onto the star and locks — 8 frames of 128x32, baked to 4-level dot frames at load.
       Levels by luminance: #fff=3, #888=2, #666=1. -->
  <rect width="1024" height="32" fill="#000"/>
  <g transform="translate(0,0)"><circle cx="18" cy="7" r="0.9" fill="#666"/><circle cx="108" cy="6" r="0.9" fill="#666"/><circle cx="34" cy="25" r="0.9" fill="#666"/><circle cx="98" cy="26" r="0.9" fill="#666"/><circle cx="64" cy="16" r="1.6" fill="#fff"/><line x1="58" y1="16" x2="70" y2="16" stroke="#888" stroke-width="0.8"/><line x1="64" y1="10" x2="64" y2="22" stroke="#888" stroke-width="0.8"/><path d="M 80.0 8 h -4 v 4" fill="none" stroke="#888" stroke-width="1.4"/><path d="M 100.0 8 h 4 v 4" fill="none" stroke="#888" stroke-width="1.4"/><path d="M 80.0 24 h -4 v -4" fill="none" stroke="#888" stroke-width="1.4"/><path d="M 100.0 24 h 4 v -4" fill="none" stroke="#888" stroke-width="1.4"/></g>
  <g transform="translate(128,0)"><circle cx="18" cy="7" r="0.9" fill="#666"/><circle cx="108" cy="6" r="0.9" fill="#666"/><circle cx="34" cy="25" r="0.9" fill="#666"/><circle cx="98" cy="26" r="0.9" fill="#666"/><circle cx="64" cy="16" r="1.6" fill="#fff"/><line x1="58" y1="16" x2="70" y2="16" stroke="#888" stroke-width="0.8"/><line x1="64" y1="10" x2="64" y2="22" stroke="#888" stroke-width="0.8"/><path d="M 76.28571428571429 8 h -4 v 4" fill="none" stroke="#888" stroke-width="1.4"/><path d="M 96.28571428571429 8 h 4 v 4" fill="none" stroke="#888" stroke-width="1.4"/><path d="M 76.28571428571429 24 h -4 v -4" fill="none" stroke="#888" stroke-width="1.4"/><path d="M 96.28571428571429 24 h 4 v -4" fill="none" stroke="#888" stroke-width="1.4"/></g>
  <g transform="translate(256,0)"><circle cx="18" cy="7" r="0.9" fill="#666"/><circle cx="108" cy="6" r="0.9" fill="#666"/><circle cx="34" cy="25" r="0.9" fill="#666"/><circle cx="98" cy="26" r="0.9" fill="#666"/><circle cx="64" cy="16" r="1.6" fill="#fff"/><line x1="58" y1="16" x2="70" y2="16" stroke="#888" stroke-width="0.8"/><line x1="64" y1="10" x2="64" y2="22" stroke="#888" stroke-width="0.8"/><path d="M 72.57142857142857 8 h -4 v 4" fill="none" stroke="#888" stroke-width="1.4"/><path d="M 92.57142857142857 8 h 4 v 4" fill="none" stroke="#888" stroke-width="1.4"/><path d="M 72.57142857142857 24 h -4 v -4" fill="none" stroke="#888" stroke-width="1.4"/><path d="M 92.57142857142857 24 h 4 v -4" fill="none" stroke="#888" stroke-width="1.4"/></g>
  <g transform="translate(384,0)"><circle cx="18" cy="7" r="0.9" fill="#666"/><circle cx="108" cy="6" r="0.9" fill="#666"/><circle cx="34" cy="25" r="0.9" fill="#666"/><circle cx="98" cy="26" r="0.9" fill="#666"/><circle cx="64" cy="16" r="1.6" fill="#fff"/><line x1="58" y1="16" x2="70" y2="16" stroke="#888" stroke-width="0.8"/><line x1="64" y1="10" x2="64" y2="22" stroke="#888" stroke-width="0.8"/><path d="M 68.85714285714286 8 h -4 v 4" fill="none" stroke="#888" stroke-width="1.4"/><path d="M 88.85714285714286 8 h 4 v 4" fill="none" stroke="#888" stroke-width="1.4"/><path d="M 68.85714285714286 24 h -4 v -4" fill="none" stroke="#888" stroke-width="1.4"/><path d="M 88.85714285714286 24 h 4 v -4" fill="none" stroke="#888" stroke-width="1.4"/></g>
  <g transform="translate(512,0)"><circle cx="18" cy="7" r="0.9" fill="#666"/><circle cx="108" cy="6" r="0.9" fill="#666"/><circle cx="34" cy="25" r="0.9" fill="#666"/><circle cx="98" cy="26" r="0.9" fill="#666"/><circle cx="64" cy="16" r="1.6" fill="#fff"/><line x1="58" y1="16" x2="70" y2="16" stroke="#888" stroke-width="0.8"/><line x1="64" y1="10" x2="64" y2="22" stroke="#888" stroke-width="0.8"/><path d="M 65.14285714285714 8 h -4 v 4" fill="none" stroke="#888" stroke-width="1.4"/><path d="M 85.14285714285714 8 h 4 v 4" fill="none" stroke="#888" stroke-width="1.4"/><path d="M 65.14285714285714 24 h -4 v -4" fill="none" stroke="#888" stroke-width="1.4"/><path d="M 85.14285714285714 24 h 4 v -4" fill="none" stroke="#888" stroke-width="1.4"/></g>
  <g transform="translate(640,0)"><circle cx="18" cy="7" r="0.9" fill="#666"/><circle cx="108" cy="6" r="0.9" fill="#666"/><circle cx="34" cy="25" r="0.9" fill="#666"/><circle cx="98" cy="26" r="0.9" fill="#666"/><circle cx="64" cy="16" r="1.6" fill="#fff"/><line x1="58" y1="16" x2="70" y2="16" stroke="#888" stroke-width="0.8"/><line x1="64" y1="10" x2="64" y2="22" stroke="#888" stroke-width="0.8"/><path d="M 61.42857142857143 8 h -4 v 4" fill="none" stroke="#888" stroke-width="1.4"/><path d="M 81.42857142857143 8 h 4 v 4" fill="none" stroke="#888" stroke-width="1.4"/><path d="M 61.42857142857143 24 h -4 v -4" fill="none" stroke="#888" stroke-width="1.4"/><path d="M 81.42857142857143 24 h 4 v -4" fill="none" stroke="#888" stroke-width="1.4"/></g>
  <g transform="translate(768,0)"><circle cx="18" cy="7" r="0.9" fill="#666"/><circle cx="108" cy="6" r="0.9" fill="#666"/><circle cx="34" cy="25" r="0.9" fill="#666"/><circle cx="98" cy="26" r="0.9" fill="#666"/><circle cx="64" cy="16" r="1.6" fill="#fff"/><line x1="58" y1="16" x2="70" y2="16" stroke="#888" stroke-width="0.8"/><line x1="64" y1="10" x2="64" y2="22" stroke="#888" stroke-width="0.8"/><path d="M 57.71428571428572 8 h -4 v 4" fill="none" stroke="#888" stroke-width="1.4"/><path d="M 77.71428571428572 8 h 4 v 4" fill="none" stroke="#888" stroke-width="1.4"/><path d="M 57.71428571428572 24 h -4 v -4" fill="none" stroke="#888" stroke-width="1.4"/><path d="M 77.71428571428572 24 h 4 v -4" fill="none" stroke="#888" stroke-width="1.4"/></g>
  <g transform="translate(896,0)"><circle cx="18" cy="7" r="0.9" fill="#666"/><circle cx="108" cy="6" r="0.9" fill="#666"/><circle cx="34" cy="25" r="0.9" fill="#666"/><circle cx="98" cy="26" r="0.9" fill="#666"/><circle cx="64" cy="16" r="1.6" fill="#fff"/><line x1="58" y1="16" x2="70" y2="16" stroke="#888" stroke-width="0.8"/><line x1="64" y1="10" x2="64" y2="22" stroke="#888" stroke-width="0.8"/><path d="M 54.0 8 h -4 v 4" fill="none" stroke="#fff" stroke-width="1.4"/><path d="M 74.0 8 h 4 v 4" fill="none" stroke="#fff" stroke-width="1.4"/><path d="M 54.0 24 h -4 v -4" fill="none" stroke="#fff" stroke-width="1.4"/><path d="M 74.0 24 h 4 v -4" fill="none" stroke="#fff" stroke-width="1.4"/><circle cx="64" cy="16" r="9" fill="none" stroke="#fff" stroke-width="1.2"/></g>
</svg>
