<svg xmlns="http://www.w3.org/2000/svg" viewBox="0 0 1024 32" width="1024" height="32">
  <!-- SUMMIT DMD scene: AVALANCHE - the cornice line cracks and the slab runs the frame. Bank completion.
       8 frames of 128x32: #fff=3, #888=2, #666=1, black=0. -->
  <rect width="1024" height="32" fill="#000"/>

  <g transform="translate(0,0)">
    <path d="M 0 26 L 60 8 L 128 20" fill="none" stroke="#666" stroke-width="1.2"/>
    <line x1="128" y1="4" x2="114" y2="10" stroke="#888" stroke-width="1.6"/>
    <line x1="146" y1="7" x2="132" y2="13" stroke="#888" stroke-width="1.6"/>
    <line x1="164" y1="10" x2="150" y2="16" stroke="#888" stroke-width="1.6"/>
    <line x1="182" y1="13" x2="168" y2="19" stroke="#888" stroke-width="1.6"/>
    <circle cx="20" cy="24" r="2" fill="#fff"/>
  </g>
  <g transform="translate(128,0)">
    <path d="M 0 26 L 60 8 L 128 20" fill="none" stroke="#666" stroke-width="1.2"/>
    <line x1="110" y1="4" x2="96" y2="10" stroke="#888" stroke-width="1.6"/>
    <line x1="128" y1="7" x2="114" y2="13" stroke="#888" stroke-width="1.6"/>
    <line x1="146" y1="10" x2="132" y2="16" stroke="#888" stroke-width="1.6"/>
    <line x1="164" y1="13" x2="150" y2="19" stroke="#888" stroke-width="1.6"/>
    <circle cx="33" cy="24" r="2" fill="#fff"/>
  </g>
  <g transform="translate(256,0)">
    <path d="M 0 26 L 60 8 L 128 20" fill="none" stroke="#666" stroke-width="1.2"/>
    <line x1="91" y1="4" x2="77" y2="10" stroke="#888" stroke-width="1.6"/>
    <line x1="109" y1="7" x2="95" y2="13" stroke="#888" stroke-width="1.6"/>
    <line x1="127" y1="10" x2="113" y2="16" stroke="#888" stroke-width="1.6"/>
    <line x1="145" y1="13" x2="131" y2="19" stroke="#888" stroke-width="1.6"/>
    <circle cx="46" cy="24" r="2" fill="#fff"/>
  </g>
  <g transform="translate(384,0)">
    <path d="M 0 26 L 60 8 L 128 20" fill="none" stroke="#666" stroke-width="1.2"/>
    <line x1="73" y1="4" x2="59" y2="10" stroke="#888" stroke-width="1.6"/>
    <line x1="91" y1="7" x2="77" y2="13" stroke="#888" stroke-width="1.6"/>
    <line x1="109" y1="10" x2="95" y2="16" stroke="#888" stroke-width="1.6"/>
    <line x1="127" y1="13" x2="113" y2="19" stroke="#888" stroke-width="1.6"/>
    <circle cx="59" cy="24" r="2" fill="#fff"/>
  </g>
  <g transform="translate(512,0)">
    <path d="M 0 26 L 60 8 L 128 20" fill="none" stroke="#666" stroke-width="1.2"/>
    <line x1="55" y1="4" x2="41" y2="10" stroke="#888" stroke-width="1.6"/>
    <line x1="73" y1="7" x2="59" y2="13" stroke="#888" stroke-width="1.6"/>
    <line x1="91" y1="10" x2="77" y2="16" stroke="#888" stroke-width="1.6"/>
    <line x1="109" y1="13" x2="95" y2="19" stroke="#888" stroke-width="1.6"/>
    <circle cx="71" cy="24" r="2" fill="#fff"/>
  </g>
  <g transform="translate(640,0)">
    <path d="M 0 26 L 60 8 L 128 20" fill="none" stroke="#666" stroke-width="1.2"/>
    <line x1="37" y1="4" x2="23" y2="10" stroke="#888" stroke-width="1.6"/>
    <line x1="55" y1="7" x2="41" y2="13" stroke="#888" stroke-width="1.6"/>
    <line x1="73" y1="10" x2="59" y2="16" stroke="#888" stroke-width="1.6"/>
    <line x1="91" y1="13" x2="77" y2="19" stroke="#888" stroke-width="1.6"/>
    <circle cx="84" cy="24" r="2" fill="#fff"/>
  </g>
  <g transform="translate(768,0)">
    <path d="M 0 26 L 60 8 L 128 20" fill="none" stroke="#666" stroke-width="1.2"/>
    <line x1="18" y1="4" x2="4" y2="10" stroke="#888" stroke-width="1.6"/>
    <line x1="36" y1="7" x2="22" y2="13" stroke="#888" stroke-width="1.6"/>
    <line x1="54" y1="10" x2="40" y2="16" stroke="#888" stroke-width="1.6"/>
    <line x1="72" y1="13" x2="58" y2="19" stroke="#888" stroke-width="1.6"/>
    <circle cx="97" cy="24" r="2" fill="#fff"/>
  </g>
  <g transform="translate(896,0)">
    <path d="M 0 26 L 60 8 L 128 20" fill="none" stroke="#666" stroke-width="1.2"/>
    <line x1="0" y1="4" x2="-14" y2="10" stroke="#888" stroke-width="1.6"/>
    <line x1="18" y1="7" x2="4" y2="13" stroke="#888" stroke-width="1.6"/>
    <line x1="36" y1="10" x2="22" y2="16" stroke="#888" stroke-width="1.6"/>
    <line x1="54" y1="13" x2="40" y2="19" stroke="#888" stroke-width="1.6"/>
    <circle cx="110" cy="24" r="2" fill="#fff"/>
  </g>
</svg>
