<svg xmlns="http://www.w3.org/2000/svg" viewBox="0 0 896 32" width="896" height="32">
  <!-- MOONDIAL DMD scene: BANK BONUS — comet impact burst — 7 frames of 128x32, baked to 4-level
       dot frames at load. Levels by luminance: #fff=3, #888=2, #666=1. -->
  <rect width="896" height="32" fill="#000"/>
  <g transform="translate(0,0)"><circle cx="100" cy="6" r="0.9" fill="#666"/><circle cx="24" cy="24" r="0.9" fill="#666"/><circle cx="20" cy="4" r="2.8" fill="#fff"/></g>
  <g transform="translate(128,0)"><circle cx="100" cy="6" r="0.9" fill="#666"/><circle cx="24" cy="24" r="0.9" fill="#666"/><polygon points="38,10 12,0 15,6" fill="#888"/><circle cx="38" cy="10" r="2.8" fill="#fff"/></g>
  <g transform="translate(256,0)"><circle cx="100" cy="6" r="0.9" fill="#666"/><circle cx="24" cy="24" r="0.9" fill="#666"/><polygon points="54,15 30,6 33,12" fill="#888"/><circle cx="54" cy="15" r="2.8" fill="#fff"/></g>
  <g transform="translate(384,0)"><circle cx="100" cy="6" r="0.9" fill="#666"/><circle cx="24" cy="24" r="0.9" fill="#666"/><circle cx="64" cy="18" r="3.0" fill="none" stroke="#fff" stroke-width="1.8"/><line x1="69.0" y1="18.0" x2="72.0" y2="18.0" stroke="#fff" stroke-width="1.3"/><line x1="67.5" y1="16.1" x2="69.7" y2="14.9" stroke="#fff" stroke-width="1.3"/><line x1="64.0" y1="15.2" x2="64.0" y2="13.6" stroke="#fff" stroke-width="1.3"/><line x1="60.5" y1="16.1" x2="58.3" y2="14.9" stroke="#fff" stroke-width="1.3"/><line x1="59.0" y1="18.0" x2="56.0" y2="18.0" stroke="#fff" stroke-width="1.3"/><line x1="60.5" y1="19.9" x2="58.3" y2="21.1" stroke="#fff" stroke-width="1.3"/><line x1="64.0" y1="20.8" x2="64.0" y2="22.4" stroke="#fff" stroke-width="1.3"/><line x1="67.5" y1="19.9" x2="69.7" y2="21.1" stroke="#fff" stroke-width="1.3"/></g>
  <g transform="translate(512,0)"><circle cx="100" cy="6" r="0.9" fill="#666"/><circle cx="24" cy="24" r="0.9" fill="#666"/><circle cx="64" cy="18" r="6.4" fill="none" stroke="#fff" stroke-width="1.8"/><circle cx="64" cy="18" r="2.4" fill="none" stroke="#666" stroke-width="1.2"/><line x1="72.3" y1="17.2" x2="76.2" y2="16.8" stroke="#fff" stroke-width="1.3"/><line x1="68.8" y1="14.2" x2="71.1" y2="12.4" stroke="#fff" stroke-width="1.3"/><line x1="62.5" y1="13.5" x2="61.8" y2="11.3" stroke="#fff" stroke-width="1.3"/><line x1="57.1" y1="15.4" x2="53.8" y2="14.1" stroke="#fff" stroke-width="1.3"/><line x1="55.7" y1="18.8" x2="51.8" y2="19.2" stroke="#fff" stroke-width="1.3"/><line x1="59.2" y1="21.8" x2="56.9" y2="23.6" stroke="#fff" stroke-width="1.3"/><line x1="65.5" y1="22.5" x2="66.2" y2="24.7" stroke="#fff" stroke-width="1.3"/><line x1="70.9" y1="20.6" x2="74.2" y2="21.9" stroke="#fff" stroke-width="1.3"/></g>
  <g transform="translate(640,0)"><circle cx="100" cy="6" r="0.9" fill="#666"/><circle cx="24" cy="24" r="0.9" fill="#666"/><circle cx="64" cy="18" r="9.8" fill="none" stroke="#888" stroke-width="1.8"/><circle cx="64" cy="18" r="5.8" fill="none" stroke="#666" stroke-width="1.2"/><line x1="75.1" y1="15.8" x2="79.8" y2="14.8" stroke="#888" stroke-width="1.3"/><line x1="69.0" y1="12.1" x2="71.1" y2="9.6" stroke="#888" stroke-width="1.3"/><line x1="60.0" y1="11.9" x2="58.3" y2="9.3" stroke="#888" stroke-width="1.3"/><line x1="53.3" y1="15.3" x2="48.8" y2="14.1" stroke="#888" stroke-width="1.3"/><line x1="52.9" y1="20.2" x2="48.2" y2="21.2" stroke="#888" stroke-width="1.3"/><line x1="59.0" y1="23.9" x2="56.9" y2="26.4" stroke="#888" stroke-width="1.3"/><line x1="68.0" y1="24.1" x2="69.7" y2="26.7" stroke="#888" stroke-width="1.3"/><line x1="74.7" y1="20.7" x2="79.2" y2="21.9" stroke="#888" stroke-width="1.3"/></g>
  <g transform="translate(768,0)"><circle cx="100" cy="6" r="0.9" fill="#666"/><circle cx="24" cy="24" r="0.9" fill="#666"/><circle cx="64" cy="18" r="13.2" fill="none" stroke="#666" stroke-width="1.8"/><circle cx="64" cy="18" r="9.2" fill="none" stroke="#666" stroke-width="1.2"/><line x1="77.2" y1="13.8" x2="82.4" y2="12.2" stroke="#666" stroke-width="1.3"/><line x1="67.9" y1="9.9" x2="69.5" y2="6.7" stroke="#666" stroke-width="1.3"/><line x1="56.4" y1="10.8" x2="53.4" y2="7.9" stroke="#666" stroke-width="1.3"/><line x1="49.3" y1="15.8" x2="43.5" y2="15.0" stroke="#666" stroke-width="1.3"/><line x1="50.8" y1="22.2" x2="45.6" y2="23.8" stroke="#666" stroke-width="1.3"/><line x1="60.1" y1="26.1" x2="58.5" y2="29.3" stroke="#666" stroke-width="1.3"/><line x1="71.6" y1="25.2" x2="74.6" y2="28.1" stroke="#666" stroke-width="1.3"/><line x1="78.7" y1="20.2" x2="84.5" y2="21.0" stroke="#666" stroke-width="1.3"/></g>
</svg>
