<svg xmlns="http://www.w3.org/2000/svg" viewBox="0 0 1024 32" width="1024" height="32">
  <!-- THUNDERHEAD DMD scene: BAROGRAPH — the needle jags, the glass falls — 8 frames of 128x32, baked to 4-level dot frames at load.
       Levels by luminance: #fff=3, #888=2, #666=1. -->
  <rect width="1024" height="32" fill="#000"/>
  <g transform="translate(0,0)"><rect x="10" y="4" width="108" height="24" fill="none" stroke="#666" stroke-width="1"/><line x1="23.5" y1="4" x2="23.5" y2="28" stroke="#666" stroke-width="0.5"/><line x1="37.0" y1="4" x2="37.0" y2="28" stroke="#666" stroke-width="0.5"/><line x1="50.5" y1="4" x2="50.5" y2="28" stroke="#666" stroke-width="0.5"/><line x1="64.0" y1="4" x2="64.0" y2="28" stroke="#666" stroke-width="0.5"/><line x1="77.5" y1="4" x2="77.5" y2="28" stroke="#666" stroke-width="0.5"/><line x1="91.0" y1="4" x2="91.0" y2="28" stroke="#666" stroke-width="0.5"/><line x1="104.5" y1="4" x2="104.5" y2="28" stroke="#666" stroke-width="0.5"/><circle cx="10.0" cy="19.6" r="1.8" fill="#fff"/></g>
  <g transform="translate(128,0)"><rect x="10" y="4" width="108" height="24" fill="none" stroke="#666" stroke-width="1"/><line x1="23.5" y1="4" x2="23.5" y2="28" stroke="#666" stroke-width="0.5"/><line x1="37.0" y1="4" x2="37.0" y2="28" stroke="#666" stroke-width="0.5"/><line x1="50.5" y1="4" x2="50.5" y2="28" stroke="#666" stroke-width="0.5"/><line x1="64.0" y1="4" x2="64.0" y2="28" stroke="#666" stroke-width="0.5"/><line x1="77.5" y1="4" x2="77.5" y2="28" stroke="#666" stroke-width="0.5"/><line x1="91.0" y1="4" x2="91.0" y2="28" stroke="#666" stroke-width="0.5"/><line x1="104.5" y1="4" x2="104.5" y2="28" stroke="#666" stroke-width="0.5"/><polyline points="10.0 19.6 15.4 18.6 20.8 17.0 26.2 18.9" fill="none" stroke="#fff" stroke-width="1.4"/><circle cx="26.2" cy="18.9" r="1.8" fill="#fff"/></g>
  <g transform="translate(256,0)"><rect x="10" y="4" width="108" height="24" fill="none" stroke="#666" stroke-width="1"/><line x1="23.5" y1="4" x2="23.5" y2="28" stroke="#666" stroke-width="0.5"/><line x1="37.0" y1="4" x2="37.0" y2="28" stroke="#666" stroke-width="0.5"/><line x1="50.5" y1="4" x2="50.5" y2="28" stroke="#666" stroke-width="0.5"/><line x1="64.0" y1="4" x2="64.0" y2="28" stroke="#666" stroke-width="0.5"/><line x1="77.5" y1="4" x2="77.5" y2="28" stroke="#666" stroke-width="0.5"/><line x1="91.0" y1="4" x2="91.0" y2="28" stroke="#666" stroke-width="0.5"/><line x1="104.5" y1="4" x2="104.5" y2="28" stroke="#666" stroke-width="0.5"/><polyline points="10.0 19.6 15.4 18.6 20.8 17.0 26.2 18.9 31.6 23.1 37.0 24.6 42.4 20.6" fill="none" stroke="#fff" stroke-width="1.4"/><circle cx="42.4" cy="20.6" r="1.8" fill="#fff"/></g>
  <g transform="translate(384,0)"><rect x="10" y="4" width="108" height="24" fill="none" stroke="#666" stroke-width="1"/><line x1="23.5" y1="4" x2="23.5" y2="28" stroke="#666" stroke-width="0.5"/><line x1="37.0" y1="4" x2="37.0" y2="28" stroke="#666" stroke-width="0.5"/><line x1="50.5" y1="4" x2="50.5" y2="28" stroke="#666" stroke-width="0.5"/><line x1="64.0" y1="4" x2="64.0" y2="28" stroke="#666" stroke-width="0.5"/><line x1="77.5" y1="4" x2="77.5" y2="28" stroke="#666" stroke-width="0.5"/><line x1="91.0" y1="4" x2="91.0" y2="28" stroke="#666" stroke-width="0.5"/><line x1="104.5" y1="4" x2="104.5" y2="28" stroke="#666" stroke-width="0.5"/><polyline points="10.0 19.6 15.4 18.6 20.8 17.0 26.2 18.9 31.6 23.1 37.0 24.6 42.4 20.6 47.8 13.6 53.2 9.4" fill="none" stroke="#fff" stroke-width="1.4"/><circle cx="53.2" cy="9.4" r="1.8" fill="#fff"/></g>
  <g transform="translate(512,0)"><rect x="10" y="4" width="108" height="24" fill="none" stroke="#666" stroke-width="1"/><line x1="23.5" y1="4" x2="23.5" y2="28" stroke="#666" stroke-width="0.5"/><line x1="37.0" y1="4" x2="37.0" y2="28" stroke="#666" stroke-width="0.5"/><line x1="50.5" y1="4" x2="50.5" y2="28" stroke="#666" stroke-width="0.5"/><line x1="64.0" y1="4" x2="64.0" y2="28" stroke="#666" stroke-width="0.5"/><line x1="77.5" y1="4" x2="77.5" y2="28" stroke="#666" stroke-width="0.5"/><line x1="91.0" y1="4" x2="91.0" y2="28" stroke="#666" stroke-width="0.5"/><line x1="104.5" y1="4" x2="104.5" y2="28" stroke="#666" stroke-width="0.5"/><polyline points="10.0 19.6 15.4 18.6 20.8 17.0 26.2 18.9 31.6 23.1 37.0 24.6 42.4 20.6 47.8 13.6 53.2 9.4 58.6 10.4 64.0 13.3 69.4 13.7" fill="none" stroke="#fff" stroke-width="1.4"/><circle cx="69.4" cy="13.7" r="1.8" fill="#fff"/></g>
  <g transform="translate(640,0)"><rect x="10" y="4" width="108" height="24" fill="none" stroke="#666" stroke-width="1"/><line x1="23.5" y1="4" x2="23.5" y2="28" stroke="#666" stroke-width="0.5"/><line x1="37.0" y1="4" x2="37.0" y2="28" stroke="#666" stroke-width="0.5"/><line x1="50.5" y1="4" x2="50.5" y2="28" stroke="#666" stroke-width="0.5"/><line x1="64.0" y1="4" x2="64.0" y2="28" stroke="#666" stroke-width="0.5"/><line x1="77.5" y1="4" x2="77.5" y2="28" stroke="#666" stroke-width="0.5"/><line x1="91.0" y1="4" x2="91.0" y2="28" stroke="#666" stroke-width="0.5"/><line x1="104.5" y1="4" x2="104.5" y2="28" stroke="#666" stroke-width="0.5"/><polyline points="10.0 19.6 15.4 18.6 20.8 17.0 26.2 18.9 31.6 23.1 37.0 24.6 42.4 20.6 47.8 13.6 53.2 9.4 58.6 10.4 64.0 13.3 69.4 13.7 74.8 11.0 80.2 9.3 85.6 12.6" fill="none" stroke="#fff" stroke-width="1.4"/><circle cx="85.6" cy="12.6" r="1.8" fill="#fff"/></g>
  <g transform="translate(768,0)"><rect x="10" y="4" width="108" height="24" fill="none" stroke="#666" stroke-width="1"/><line x1="23.5" y1="4" x2="23.5" y2="28" stroke="#666" stroke-width="0.5"/><line x1="37.0" y1="4" x2="37.0" y2="28" stroke="#666" stroke-width="0.5"/><line x1="50.5" y1="4" x2="50.5" y2="28" stroke="#666" stroke-width="0.5"/><line x1="64.0" y1="4" x2="64.0" y2="28" stroke="#666" stroke-width="0.5"/><line x1="77.5" y1="4" x2="77.5" y2="28" stroke="#666" stroke-width="0.5"/><line x1="91.0" y1="4" x2="91.0" y2="28" stroke="#666" stroke-width="0.5"/><line x1="104.5" y1="4" x2="104.5" y2="28" stroke="#666" stroke-width="0.5"/><polyline points="10.0 19.6 15.4 18.6 20.8 17.0 26.2 18.9 31.6 23.1 37.0 24.6 42.4 20.6 47.8 13.6 53.2 9.4 58.6 10.4 64.0 13.3 69.4 13.7 74.8 11.0 80.2 9.3 85.6 12.6 91.0 19.1 96.4 23.2 101.8 21.6" fill="none" stroke="#fff" stroke-width="1.4"/><circle cx="101.8" cy="21.6" r="1.8" fill="#fff"/></g>
  <g transform="translate(896,0)"><rect x="10" y="4" width="108" height="24" fill="none" stroke="#666" stroke-width="1"/><line x1="23.5" y1="4" x2="23.5" y2="28" stroke="#666" stroke-width="0.5"/><line x1="37.0" y1="4" x2="37.0" y2="28" stroke="#666" stroke-width="0.5"/><line x1="50.5" y1="4" x2="50.5" y2="28" stroke="#666" stroke-width="0.5"/><line x1="64.0" y1="4" x2="64.0" y2="28" stroke="#666" stroke-width="0.5"/><line x1="77.5" y1="4" x2="77.5" y2="28" stroke="#666" stroke-width="0.5"/><line x1="91.0" y1="4" x2="91.0" y2="28" stroke="#666" stroke-width="0.5"/><line x1="104.5" y1="4" x2="104.5" y2="28" stroke="#666" stroke-width="0.5"/><polyline points="10.0 19.6 15.4 18.6 20.8 17.0 26.2 18.9 31.6 23.1 37.0 24.6 42.4 20.6 47.8 13.6 53.2 9.4 58.6 10.4 64.0 13.3 69.4 13.7 74.8 11.0 80.2 9.3 85.6 12.6 91.0 19.1 96.4 23.2 101.8 21.6 107.2 16.8 112.6 14.0 118.0 14.7" fill="none" stroke="#fff" stroke-width="1.4"/><circle cx="118.0" cy="14.7" r="1.8" fill="#fff"/></g>
</svg>
