<svg xmlns="http://www.w3.org/2000/svg" viewBox="0 0 1024 32" width="1024" height="32">
  <!-- MIDWAY DMD scene: RING THE BELL — the puck climbs the striker tower to the bell — 8 frames of 128x32, baked to 4-level dot frames at load.
       Levels by luminance: #fff=3, #888=2, #666=1. -->
  <rect width="1024" height="32" fill="#000"/>
  <g transform="translate(0,0)"><line x1="64" y1="4" x2="64" y2="29" stroke="#666" stroke-width="1"/><line x1="60" y1="29" x2="68" y2="29" stroke="#666" stroke-width="0.8"/><line x1="60" y1="25" x2="68" y2="25" stroke="#666" stroke-width="0.8"/><line x1="60" y1="21" x2="68" y2="21" stroke="#666" stroke-width="0.8"/><line x1="60" y1="17" x2="68" y2="17" stroke="#666" stroke-width="0.8"/><line x1="60" y1="13" x2="68" y2="13" stroke="#666" stroke-width="0.8"/><line x1="60" y1="9" x2="68" y2="9" stroke="#666" stroke-width="0.8"/><path d="M 60 6 Q 64 1 68 6 Z" fill="#888"/><rect x="60" y="27.5" width="8" height="3" fill="#fff"/><circle cx="30" cy="28" r="2" fill="#666"/><circle cx="40" cy="29" r="2" fill="#666"/><circle cx="90" cy="29" r="2" fill="#666"/><circle cx="100" cy="28" r="2" fill="#666"/></g>
  <g transform="translate(128,0)"><line x1="64" y1="4" x2="64" y2="29" stroke="#666" stroke-width="1"/><line x1="60" y1="29" x2="68" y2="29" stroke="#666" stroke-width="0.8"/><line x1="60" y1="25" x2="68" y2="25" stroke="#666" stroke-width="0.8"/><line x1="60" y1="21" x2="68" y2="21" stroke="#666" stroke-width="0.8"/><line x1="60" y1="17" x2="68" y2="17" stroke="#666" stroke-width="0.8"/><line x1="60" y1="13" x2="68" y2="13" stroke="#666" stroke-width="0.8"/><line x1="60" y1="9" x2="68" y2="9" stroke="#666" stroke-width="0.8"/><path d="M 60 6 Q 64 1 68 6 Z" fill="#888"/><rect x="60" y="23.7" width="8" height="3" fill="#fff"/><circle cx="30" cy="28" r="2" fill="#666"/><circle cx="40" cy="29" r="2" fill="#666"/><circle cx="90" cy="29" r="2" fill="#666"/><circle cx="100" cy="28" r="2" fill="#666"/></g>
  <g transform="translate(256,0)"><line x1="64" y1="4" x2="64" y2="29" stroke="#666" stroke-width="1"/><line x1="60" y1="29" x2="68" y2="29" stroke="#666" stroke-width="0.8"/><line x1="60" y1="25" x2="68" y2="25" stroke="#666" stroke-width="0.8"/><line x1="60" y1="21" x2="68" y2="21" stroke="#666" stroke-width="0.8"/><line x1="60" y1="17" x2="68" y2="17" stroke="#666" stroke-width="0.8"/><line x1="60" y1="13" x2="68" y2="13" stroke="#666" stroke-width="0.8"/><line x1="60" y1="9" x2="68" y2="9" stroke="#666" stroke-width="0.8"/><path d="M 60 6 Q 64 1 68 6 Z" fill="#888"/><rect x="60" y="19.9" width="8" height="3" fill="#fff"/><circle cx="30" cy="28" r="2" fill="#666"/><circle cx="40" cy="29" r="2" fill="#666"/><circle cx="90" cy="29" r="2" fill="#666"/><circle cx="100" cy="28" r="2" fill="#666"/></g>
  <g transform="translate(384,0)"><line x1="64" y1="4" x2="64" y2="29" stroke="#666" stroke-width="1"/><line x1="60" y1="29" x2="68" y2="29" stroke="#666" stroke-width="0.8"/><line x1="60" y1="25" x2="68" y2="25" stroke="#666" stroke-width="0.8"/><line x1="60" y1="21" x2="68" y2="21" stroke="#666" stroke-width="0.8"/><line x1="60" y1="17" x2="68" y2="17" stroke="#666" stroke-width="0.8"/><line x1="60" y1="13" x2="68" y2="13" stroke="#666" stroke-width="0.8"/><line x1="60" y1="9" x2="68" y2="9" stroke="#666" stroke-width="0.8"/><path d="M 60 6 Q 64 1 68 6 Z" fill="#888"/><rect x="60" y="16.2" width="8" height="3" fill="#fff"/><circle cx="30" cy="28" r="2" fill="#666"/><circle cx="40" cy="29" r="2" fill="#666"/><circle cx="90" cy="29" r="2" fill="#666"/><circle cx="100" cy="28" r="2" fill="#666"/></g>
  <g transform="translate(512,0)"><line x1="64" y1="4" x2="64" y2="29" stroke="#666" stroke-width="1"/><line x1="60" y1="29" x2="68" y2="29" stroke="#666" stroke-width="0.8"/><line x1="60" y1="25" x2="68" y2="25" stroke="#666" stroke-width="0.8"/><line x1="60" y1="21" x2="68" y2="21" stroke="#666" stroke-width="0.8"/><line x1="60" y1="17" x2="68" y2="17" stroke="#666" stroke-width="0.8"/><line x1="60" y1="13" x2="68" y2="13" stroke="#666" stroke-width="0.8"/><line x1="60" y1="9" x2="68" y2="9" stroke="#666" stroke-width="0.8"/><path d="M 60 6 Q 64 1 68 6 Z" fill="#888"/><rect x="60" y="12.4" width="8" height="3" fill="#fff"/><circle cx="30" cy="28" r="2" fill="#666"/><circle cx="40" cy="29" r="2" fill="#666"/><circle cx="90" cy="29" r="2" fill="#666"/><circle cx="100" cy="28" r="2" fill="#666"/></g>
  <g transform="translate(640,0)"><line x1="64" y1="4" x2="64" y2="29" stroke="#666" stroke-width="1"/><line x1="60" y1="29" x2="68" y2="29" stroke="#666" stroke-width="0.8"/><line x1="60" y1="25" x2="68" y2="25" stroke="#666" stroke-width="0.8"/><line x1="60" y1="21" x2="68" y2="21" stroke="#666" stroke-width="0.8"/><line x1="60" y1="17" x2="68" y2="17" stroke="#666" stroke-width="0.8"/><line x1="60" y1="13" x2="68" y2="13" stroke="#666" stroke-width="0.8"/><line x1="60" y1="9" x2="68" y2="9" stroke="#666" stroke-width="0.8"/><path d="M 60 6 Q 64 1 68 6 Z" fill="#888"/><rect x="60" y="8.6" width="8" height="3" fill="#fff"/><circle cx="30" cy="28" r="2" fill="#666"/><circle cx="40" cy="29" r="2" fill="#666"/><circle cx="90" cy="29" r="2" fill="#666"/><circle cx="100" cy="28" r="2" fill="#666"/></g>
  <g transform="translate(768,0)"><line x1="64" y1="4" x2="64" y2="29" stroke="#666" stroke-width="1"/><line x1="60" y1="29" x2="68" y2="29" stroke="#666" stroke-width="0.8"/><line x1="60" y1="25" x2="68" y2="25" stroke="#666" stroke-width="0.8"/><line x1="60" y1="21" x2="68" y2="21" stroke="#666" stroke-width="0.8"/><line x1="60" y1="17" x2="68" y2="17" stroke="#666" stroke-width="0.8"/><line x1="60" y1="13" x2="68" y2="13" stroke="#666" stroke-width="0.8"/><line x1="60" y1="9" x2="68" y2="9" stroke="#666" stroke-width="0.8"/><path d="M 60 6 Q 64 1 68 6 Z" fill="#fff"/><rect x="60" y="4.8" width="8" height="3" fill="#fff"/><line x1="57.9" y1="1.5" x2="53.6" y2="-1.0" stroke="#fff" stroke-width="1.4"/><line x1="61.6" y1="-1.6" x2="59.9" y2="-6.3" stroke="#fff" stroke-width="1.4"/><line x1="66.4" y1="-1.6" x2="68.1" y2="-6.3" stroke="#fff" stroke-width="1.4"/><line x1="70.1" y1="1.5" x2="74.4" y2="-1.0" stroke="#fff" stroke-width="1.4"/><circle cx="30" cy="28" r="2" fill="#666"/><circle cx="40" cy="29" r="2" fill="#666"/><circle cx="90" cy="29" r="2" fill="#666"/><circle cx="100" cy="28" r="2" fill="#666"/></g>
  <g transform="translate(896,0)"><line x1="64" y1="4" x2="64" y2="29" stroke="#666" stroke-width="1"/><line x1="60" y1="29" x2="68" y2="29" stroke="#666" stroke-width="0.8"/><line x1="60" y1="25" x2="68" y2="25" stroke="#666" stroke-width="0.8"/><line x1="60" y1="21" x2="68" y2="21" stroke="#666" stroke-width="0.8"/><line x1="60" y1="17" x2="68" y2="17" stroke="#666" stroke-width="0.8"/><line x1="60" y1="13" x2="68" y2="13" stroke="#666" stroke-width="0.8"/><line x1="60" y1="9" x2="68" y2="9" stroke="#666" stroke-width="0.8"/><path d="M 60 6 Q 64 1 68 6 Z" fill="#fff"/><rect x="60" y="4.5" width="8" height="3" fill="#fff"/><line x1="57.9" y1="1.5" x2="53.6" y2="-1.0" stroke="#fff" stroke-width="1.4"/><line x1="61.6" y1="-1.6" x2="59.9" y2="-6.3" stroke="#fff" stroke-width="1.4"/><line x1="66.4" y1="-1.6" x2="68.1" y2="-6.3" stroke="#fff" stroke-width="1.4"/><line x1="70.1" y1="1.5" x2="74.4" y2="-1.0" stroke="#fff" stroke-width="1.4"/><circle cx="30" cy="28" r="2" fill="#666"/><circle cx="40" cy="29" r="2" fill="#666"/><circle cx="90" cy="29" r="2" fill="#666"/><circle cx="100" cy="28" r="2" fill="#666"/></g>
</svg>
