<svg xmlns="http://www.w3.org/2000/svg" viewBox="0 0 1024 32" width="1024" height="32">
  <!-- THE NIGHT MAIL DMD scene: BOARD — the split-flap departure board clatters
       through three rows of tiles, settling left to right until every flap
       reads steady and bright. Timetable station advances. 8 frames of
       128x32 (style guide §6): #fff=3, #888=2, #666=1, black=0.
       Art rows 0..22; caption renders from row 24. -->
  <rect width="1024" height="32" fill="#000"/>
  <g transform="translate(0,0)">
    <rect x="4" y="2" width="10" height="2.5" fill="#666"/>
    <line x1="4" y1="4.5" x2="14" y2="4.5" stroke="#888" stroke-width="1"/>
    <rect x="16" y="2" width="10" height="5" fill="#666"/>
    <line x1="16" y1="4.5" x2="26" y2="4.5" stroke="#fff" stroke-width="1"/>
    <rect x="28" y="4.5" width="10" height="2.5" fill="#666"/>
    <line x1="28" y1="4.5" x2="38" y2="4.5" stroke="#888" stroke-width="1"/>
    <rect x="40" y="2" width="10" height="2.5" fill="#666"/>
    <line x1="40" y1="4.5" x2="50" y2="4.5" stroke="#888" stroke-width="1"/>
    <rect x="52" y="2" width="10" height="5" fill="#666"/>
    <line x1="52" y1="4.5" x2="62" y2="4.5" stroke="#fff" stroke-width="1"/>
    <rect x="64" y="4.5" width="10" height="2.5" fill="#666"/>
    <line x1="64" y1="4.5" x2="74" y2="4.5" stroke="#888" stroke-width="1"/>
    <rect x="76" y="2" width="10" height="2.5" fill="#666"/>
    <line x1="76" y1="4.5" x2="86" y2="4.5" stroke="#888" stroke-width="1"/>
    <rect x="88" y="2" width="10" height="5" fill="#666"/>
    <line x1="88" y1="4.5" x2="98" y2="4.5" stroke="#fff" stroke-width="1"/>
    <rect x="100" y="4.5" width="10" height="2.5" fill="#666"/>
    <line x1="100" y1="4.5" x2="110" y2="4.5" stroke="#888" stroke-width="1"/>
    <rect x="112" y="2" width="10" height="2.5" fill="#666"/>
    <line x1="112" y1="4.5" x2="122" y2="4.5" stroke="#888" stroke-width="1"/>
    <rect x="4" y="9" width="10" height="5" fill="#666"/>
    <line x1="4" y1="11.5" x2="14" y2="11.5" stroke="#fff" stroke-width="1"/>
    <rect x="16" y="11.5" width="10" height="2.5" fill="#666"/>
    <line x1="16" y1="11.5" x2="26" y2="11.5" stroke="#888" stroke-width="1"/>
    <rect x="28" y="9" width="10" height="2.5" fill="#666"/>
    <line x1="28" y1="11.5" x2="38" y2="11.5" stroke="#888" stroke-width="1"/>
    <rect x="40" y="9" width="10" height="5" fill="#666"/>
    <line x1="40" y1="11.5" x2="50" y2="11.5" stroke="#fff" stroke-width="1"/>
    <rect x="52" y="11.5" width="10" height="2.5" fill="#666"/>
    <line x1="52" y1="11.5" x2="62" y2="11.5" stroke="#888" stroke-width="1"/>
    <rect x="64" y="9" width="10" height="2.5" fill="#666"/>
    <line x1="64" y1="11.5" x2="74" y2="11.5" stroke="#888" stroke-width="1"/>
    <rect x="76" y="9" width="10" height="5" fill="#666"/>
    <line x1="76" y1="11.5" x2="86" y2="11.5" stroke="#fff" stroke-width="1"/>
    <rect x="88" y="11.5" width="10" height="2.5" fill="#666"/>
    <line x1="88" y1="11.5" x2="98" y2="11.5" stroke="#888" stroke-width="1"/>
    <rect x="100" y="9" width="10" height="2.5" fill="#666"/>
    <line x1="100" y1="11.5" x2="110" y2="11.5" stroke="#888" stroke-width="1"/>
    <rect x="112" y="9" width="10" height="5" fill="#666"/>
    <line x1="112" y1="11.5" x2="122" y2="11.5" stroke="#fff" stroke-width="1"/>
    <rect x="4" y="18.5" width="10" height="2.5" fill="#666"/>
    <line x1="4" y1="18.5" x2="14" y2="18.5" stroke="#888" stroke-width="1"/>
    <rect x="16" y="16" width="10" height="2.5" fill="#666"/>
    <line x1="16" y1="18.5" x2="26" y2="18.5" stroke="#888" stroke-width="1"/>
    <rect x="28" y="16" width="10" height="5" fill="#666"/>
    <line x1="28" y1="18.5" x2="38" y2="18.5" stroke="#fff" stroke-width="1"/>
    <rect x="40" y="18.5" width="10" height="2.5" fill="#666"/>
    <line x1="40" y1="18.5" x2="50" y2="18.5" stroke="#888" stroke-width="1"/>
    <rect x="52" y="16" width="10" height="2.5" fill="#666"/>
    <line x1="52" y1="18.5" x2="62" y2="18.5" stroke="#888" stroke-width="1"/>
    <rect x="64" y="16" width="10" height="5" fill="#666"/>
    <line x1="64" y1="18.5" x2="74" y2="18.5" stroke="#fff" stroke-width="1"/>
    <rect x="76" y="18.5" width="10" height="2.5" fill="#666"/>
    <line x1="76" y1="18.5" x2="86" y2="18.5" stroke="#888" stroke-width="1"/>
    <rect x="88" y="16" width="10" height="2.5" fill="#666"/>
    <line x1="88" y1="18.5" x2="98" y2="18.5" stroke="#888" stroke-width="1"/>
    <rect x="100" y="16" width="10" height="5" fill="#666"/>
    <line x1="100" y1="18.5" x2="110" y2="18.5" stroke="#fff" stroke-width="1"/>
    <rect x="112" y="18.5" width="10" height="2.5" fill="#666"/>
    <line x1="112" y1="18.5" x2="122" y2="18.5" stroke="#888" stroke-width="1"/>
  </g>
  <g transform="translate(128,0)">
    <rect x="4" y="2" width="10" height="5" fill="#fff"/>
    <line x1="4" y1="4.5" x2="14" y2="4.5" stroke="#000" stroke-width="0.8"/>
    <rect x="16" y="2" width="10" height="5" fill="#fff"/>
    <line x1="16" y1="4.5" x2="26" y2="4.5" stroke="#000" stroke-width="0.8"/>
    <rect x="28" y="2" width="10" height="2.5" fill="#666"/>
    <line x1="28" y1="4.5" x2="38" y2="4.5" stroke="#888" stroke-width="1"/>
    <rect x="40" y="2" width="10" height="5" fill="#666"/>
    <line x1="40" y1="4.5" x2="50" y2="4.5" stroke="#fff" stroke-width="1"/>
    <rect x="52" y="4.5" width="10" height="2.5" fill="#666"/>
    <line x1="52" y1="4.5" x2="62" y2="4.5" stroke="#888" stroke-width="1"/>
    <rect x="64" y="2" width="10" height="2.5" fill="#666"/>
    <line x1="64" y1="4.5" x2="74" y2="4.5" stroke="#888" stroke-width="1"/>
    <rect x="76" y="2" width="10" height="5" fill="#666"/>
    <line x1="76" y1="4.5" x2="86" y2="4.5" stroke="#fff" stroke-width="1"/>
    <rect x="88" y="4.5" width="10" height="2.5" fill="#666"/>
    <line x1="88" y1="4.5" x2="98" y2="4.5" stroke="#888" stroke-width="1"/>
    <rect x="100" y="2" width="10" height="2.5" fill="#666"/>
    <line x1="100" y1="4.5" x2="110" y2="4.5" stroke="#888" stroke-width="1"/>
    <rect x="112" y="2" width="10" height="5" fill="#666"/>
    <line x1="112" y1="4.5" x2="122" y2="4.5" stroke="#fff" stroke-width="1"/>
    <rect x="4" y="9" width="10" height="5" fill="#fff"/>
    <line x1="4" y1="11.5" x2="14" y2="11.5" stroke="#000" stroke-width="0.8"/>
    <rect x="16" y="9" width="10" height="2.5" fill="#666"/>
    <line x1="16" y1="11.5" x2="26" y2="11.5" stroke="#888" stroke-width="1"/>
    <rect x="28" y="9" width="10" height="5" fill="#666"/>
    <line x1="28" y1="11.5" x2="38" y2="11.5" stroke="#fff" stroke-width="1"/>
    <rect x="40" y="11.5" width="10" height="2.5" fill="#666"/>
    <line x1="40" y1="11.5" x2="50" y2="11.5" stroke="#888" stroke-width="1"/>
    <rect x="52" y="9" width="10" height="2.5" fill="#666"/>
    <line x1="52" y1="11.5" x2="62" y2="11.5" stroke="#888" stroke-width="1"/>
    <rect x="64" y="9" width="10" height="5" fill="#666"/>
    <line x1="64" y1="11.5" x2="74" y2="11.5" stroke="#fff" stroke-width="1"/>
    <rect x="76" y="11.5" width="10" height="2.5" fill="#666"/>
    <line x1="76" y1="11.5" x2="86" y2="11.5" stroke="#888" stroke-width="1"/>
    <rect x="88" y="9" width="10" height="2.5" fill="#666"/>
    <line x1="88" y1="11.5" x2="98" y2="11.5" stroke="#888" stroke-width="1"/>
    <rect x="100" y="9" width="10" height="5" fill="#666"/>
    <line x1="100" y1="11.5" x2="110" y2="11.5" stroke="#fff" stroke-width="1"/>
    <rect x="112" y="11.5" width="10" height="2.5" fill="#666"/>
    <line x1="112" y1="11.5" x2="122" y2="11.5" stroke="#888" stroke-width="1"/>
    <rect x="4" y="16" width="10" height="2.5" fill="#666"/>
    <line x1="4" y1="18.5" x2="14" y2="18.5" stroke="#888" stroke-width="1"/>
    <rect x="16" y="16" width="10" height="5" fill="#666"/>
    <line x1="16" y1="18.5" x2="26" y2="18.5" stroke="#fff" stroke-width="1"/>
    <rect x="28" y="18.5" width="10" height="2.5" fill="#666"/>
    <line x1="28" y1="18.5" x2="38" y2="18.5" stroke="#888" stroke-width="1"/>
    <rect x="40" y="16" width="10" height="2.5" fill="#666"/>
    <line x1="40" y1="18.5" x2="50" y2="18.5" stroke="#888" stroke-width="1"/>
    <rect x="52" y="16" width="10" height="5" fill="#666"/>
    <line x1="52" y1="18.5" x2="62" y2="18.5" stroke="#fff" stroke-width="1"/>
    <rect x="64" y="18.5" width="10" height="2.5" fill="#666"/>
    <line x1="64" y1="18.5" x2="74" y2="18.5" stroke="#888" stroke-width="1"/>
    <rect x="76" y="16" width="10" height="2.5" fill="#666"/>
    <line x1="76" y1="18.5" x2="86" y2="18.5" stroke="#888" stroke-width="1"/>
    <rect x="88" y="16" width="10" height="5" fill="#666"/>
    <line x1="88" y1="18.5" x2="98" y2="18.5" stroke="#fff" stroke-width="1"/>
    <rect x="100" y="18.5" width="10" height="2.5" fill="#666"/>
    <line x1="100" y1="18.5" x2="110" y2="18.5" stroke="#888" stroke-width="1"/>
    <rect x="112" y="16" width="10" height="2.5" fill="#666"/>
    <line x1="112" y1="18.5" x2="122" y2="18.5" stroke="#888" stroke-width="1"/>
  </g>
  <g transform="translate(256,0)">
    <rect x="4" y="2" width="10" height="5" fill="#fff"/>
    <line x1="4" y1="4.5" x2="14" y2="4.5" stroke="#000" stroke-width="0.8"/>
    <rect x="16" y="2" width="10" height="5" fill="#fff"/>
    <line x1="16" y1="4.5" x2="26" y2="4.5" stroke="#000" stroke-width="0.8"/>
    <rect x="28" y="2" width="10" height="5" fill="#fff"/>
    <line x1="28" y1="4.5" x2="38" y2="4.5" stroke="#000" stroke-width="0.8"/>
    <rect x="40" y="2" width="10" height="5" fill="#fff"/>
    <line x1="40" y1="4.5" x2="50" y2="4.5" stroke="#000" stroke-width="0.8"/>
    <rect x="52" y="2" width="10" height="2.5" fill="#666"/>
    <line x1="52" y1="4.5" x2="62" y2="4.5" stroke="#888" stroke-width="1"/>
    <rect x="64" y="2" width="10" height="5" fill="#666"/>
    <line x1="64" y1="4.5" x2="74" y2="4.5" stroke="#fff" stroke-width="1"/>
    <rect x="76" y="4.5" width="10" height="2.5" fill="#666"/>
    <line x1="76" y1="4.5" x2="86" y2="4.5" stroke="#888" stroke-width="1"/>
    <rect x="88" y="2" width="10" height="2.5" fill="#666"/>
    <line x1="88" y1="4.5" x2="98" y2="4.5" stroke="#888" stroke-width="1"/>
    <rect x="100" y="2" width="10" height="5" fill="#666"/>
    <line x1="100" y1="4.5" x2="110" y2="4.5" stroke="#fff" stroke-width="1"/>
    <rect x="112" y="4.5" width="10" height="2.5" fill="#666"/>
    <line x1="112" y1="4.5" x2="122" y2="4.5" stroke="#888" stroke-width="1"/>
    <rect x="4" y="9" width="10" height="5" fill="#fff"/>
    <line x1="4" y1="11.5" x2="14" y2="11.5" stroke="#000" stroke-width="0.8"/>
    <rect x="16" y="9" width="10" height="5" fill="#fff"/>
    <line x1="16" y1="11.5" x2="26" y2="11.5" stroke="#000" stroke-width="0.8"/>
    <rect x="28" y="9" width="10" height="5" fill="#fff"/>
    <line x1="28" y1="11.5" x2="38" y2="11.5" stroke="#000" stroke-width="0.8"/>
    <rect x="40" y="9" width="10" height="2.5" fill="#666"/>
    <line x1="40" y1="11.5" x2="50" y2="11.5" stroke="#888" stroke-width="1"/>
    <rect x="52" y="9" width="10" height="5" fill="#666"/>
    <line x1="52" y1="11.5" x2="62" y2="11.5" stroke="#fff" stroke-width="1"/>
    <rect x="64" y="11.5" width="10" height="2.5" fill="#666"/>
    <line x1="64" y1="11.5" x2="74" y2="11.5" stroke="#888" stroke-width="1"/>
    <rect x="76" y="9" width="10" height="2.5" fill="#666"/>
    <line x1="76" y1="11.5" x2="86" y2="11.5" stroke="#888" stroke-width="1"/>
    <rect x="88" y="9" width="10" height="5" fill="#666"/>
    <line x1="88" y1="11.5" x2="98" y2="11.5" stroke="#fff" stroke-width="1"/>
    <rect x="100" y="11.5" width="10" height="2.5" fill="#666"/>
    <line x1="100" y1="11.5" x2="110" y2="11.5" stroke="#888" stroke-width="1"/>
    <rect x="112" y="9" width="10" height="2.5" fill="#666"/>
    <line x1="112" y1="11.5" x2="122" y2="11.5" stroke="#888" stroke-width="1"/>
    <rect x="4" y="16" width="10" height="5" fill="#fff"/>
    <line x1="4" y1="18.5" x2="14" y2="18.5" stroke="#000" stroke-width="0.8"/>
    <rect x="16" y="16" width="10" height="5" fill="#fff"/>
    <line x1="16" y1="18.5" x2="26" y2="18.5" stroke="#000" stroke-width="0.8"/>
    <rect x="28" y="16" width="10" height="2.5" fill="#666"/>
    <line x1="28" y1="18.5" x2="38" y2="18.5" stroke="#888" stroke-width="1"/>
    <rect x="40" y="16" width="10" height="5" fill="#666"/>
    <line x1="40" y1="18.5" x2="50" y2="18.5" stroke="#fff" stroke-width="1"/>
    <rect x="52" y="18.5" width="10" height="2.5" fill="#666"/>
    <line x1="52" y1="18.5" x2="62" y2="18.5" stroke="#888" stroke-width="1"/>
    <rect x="64" y="16" width="10" height="2.5" fill="#666"/>
    <line x1="64" y1="18.5" x2="74" y2="18.5" stroke="#888" stroke-width="1"/>
    <rect x="76" y="16" width="10" height="5" fill="#666"/>
    <line x1="76" y1="18.5" x2="86" y2="18.5" stroke="#fff" stroke-width="1"/>
    <rect x="88" y="18.5" width="10" height="2.5" fill="#666"/>
    <line x1="88" y1="18.5" x2="98" y2="18.5" stroke="#888" stroke-width="1"/>
    <rect x="100" y="16" width="10" height="2.5" fill="#666"/>
    <line x1="100" y1="18.5" x2="110" y2="18.5" stroke="#888" stroke-width="1"/>
    <rect x="112" y="16" width="10" height="5" fill="#666"/>
    <line x1="112" y1="18.5" x2="122" y2="18.5" stroke="#fff" stroke-width="1"/>
  </g>
  <g transform="translate(384,0)">
    <rect x="4" y="2" width="10" height="5" fill="#fff"/>
    <line x1="4" y1="4.5" x2="14" y2="4.5" stroke="#000" stroke-width="0.8"/>
    <rect x="16" y="2" width="10" height="5" fill="#fff"/>
    <line x1="16" y1="4.5" x2="26" y2="4.5" stroke="#000" stroke-width="0.8"/>
    <rect x="28" y="2" width="10" height="5" fill="#fff"/>
    <line x1="28" y1="4.5" x2="38" y2="4.5" stroke="#000" stroke-width="0.8"/>
    <rect x="40" y="2" width="10" height="5" fill="#fff"/>
    <line x1="40" y1="4.5" x2="50" y2="4.5" stroke="#000" stroke-width="0.8"/>
    <rect x="52" y="2" width="10" height="5" fill="#fff"/>
    <line x1="52" y1="4.5" x2="62" y2="4.5" stroke="#000" stroke-width="0.8"/>
    <rect x="64" y="2" width="10" height="5" fill="#fff"/>
    <line x1="64" y1="4.5" x2="74" y2="4.5" stroke="#000" stroke-width="0.8"/>
    <rect x="76" y="2" width="10" height="2.5" fill="#666"/>
    <line x1="76" y1="4.5" x2="86" y2="4.5" stroke="#888" stroke-width="1"/>
    <rect x="88" y="2" width="10" height="5" fill="#666"/>
    <line x1="88" y1="4.5" x2="98" y2="4.5" stroke="#fff" stroke-width="1"/>
    <rect x="100" y="4.5" width="10" height="2.5" fill="#666"/>
    <line x1="100" y1="4.5" x2="110" y2="4.5" stroke="#888" stroke-width="1"/>
    <rect x="112" y="2" width="10" height="2.5" fill="#666"/>
    <line x1="112" y1="4.5" x2="122" y2="4.5" stroke="#888" stroke-width="1"/>
    <rect x="4" y="9" width="10" height="5" fill="#fff"/>
    <line x1="4" y1="11.5" x2="14" y2="11.5" stroke="#000" stroke-width="0.8"/>
    <rect x="16" y="9" width="10" height="5" fill="#fff"/>
    <line x1="16" y1="11.5" x2="26" y2="11.5" stroke="#000" stroke-width="0.8"/>
    <rect x="28" y="9" width="10" height="5" fill="#fff"/>
    <line x1="28" y1="11.5" x2="38" y2="11.5" stroke="#000" stroke-width="0.8"/>
    <rect x="40" y="9" width="10" height="5" fill="#fff"/>
    <line x1="40" y1="11.5" x2="50" y2="11.5" stroke="#000" stroke-width="0.8"/>
    <rect x="52" y="9" width="10" height="5" fill="#fff"/>
    <line x1="52" y1="11.5" x2="62" y2="11.5" stroke="#000" stroke-width="0.8"/>
    <rect x="64" y="9" width="10" height="2.5" fill="#666"/>
    <line x1="64" y1="11.5" x2="74" y2="11.5" stroke="#888" stroke-width="1"/>
    <rect x="76" y="9" width="10" height="5" fill="#666"/>
    <line x1="76" y1="11.5" x2="86" y2="11.5" stroke="#fff" stroke-width="1"/>
    <rect x="88" y="11.5" width="10" height="2.5" fill="#666"/>
    <line x1="88" y1="11.5" x2="98" y2="11.5" stroke="#888" stroke-width="1"/>
    <rect x="100" y="9" width="10" height="2.5" fill="#666"/>
    <line x1="100" y1="11.5" x2="110" y2="11.5" stroke="#888" stroke-width="1"/>
    <rect x="112" y="9" width="10" height="5" fill="#666"/>
    <line x1="112" y1="11.5" x2="122" y2="11.5" stroke="#fff" stroke-width="1"/>
    <rect x="4" y="16" width="10" height="5" fill="#fff"/>
    <line x1="4" y1="18.5" x2="14" y2="18.5" stroke="#000" stroke-width="0.8"/>
    <rect x="16" y="16" width="10" height="5" fill="#fff"/>
    <line x1="16" y1="18.5" x2="26" y2="18.5" stroke="#000" stroke-width="0.8"/>
    <rect x="28" y="16" width="10" height="5" fill="#fff"/>
    <line x1="28" y1="18.5" x2="38" y2="18.5" stroke="#000" stroke-width="0.8"/>
    <rect x="40" y="16" width="10" height="5" fill="#fff"/>
    <line x1="40" y1="18.5" x2="50" y2="18.5" stroke="#000" stroke-width="0.8"/>
    <rect x="52" y="16" width="10" height="2.5" fill="#666"/>
    <line x1="52" y1="18.5" x2="62" y2="18.5" stroke="#888" stroke-width="1"/>
    <rect x="64" y="16" width="10" height="5" fill="#666"/>
    <line x1="64" y1="18.5" x2="74" y2="18.5" stroke="#fff" stroke-width="1"/>
    <rect x="76" y="18.5" width="10" height="2.5" fill="#666"/>
    <line x1="76" y1="18.5" x2="86" y2="18.5" stroke="#888" stroke-width="1"/>
    <rect x="88" y="16" width="10" height="2.5" fill="#666"/>
    <line x1="88" y1="18.5" x2="98" y2="18.5" stroke="#888" stroke-width="1"/>
    <rect x="100" y="16" width="10" height="5" fill="#666"/>
    <line x1="100" y1="18.5" x2="110" y2="18.5" stroke="#fff" stroke-width="1"/>
    <rect x="112" y="18.5" width="10" height="2.5" fill="#666"/>
    <line x1="112" y1="18.5" x2="122" y2="18.5" stroke="#888" stroke-width="1"/>
  </g>
  <g transform="translate(512,0)">
    <rect x="4" y="2" width="10" height="5" fill="#fff"/>
    <line x1="4" y1="4.5" x2="14" y2="4.5" stroke="#000" stroke-width="0.8"/>
    <rect x="16" y="2" width="10" height="5" fill="#fff"/>
    <line x1="16" y1="4.5" x2="26" y2="4.5" stroke="#000" stroke-width="0.8"/>
    <rect x="28" y="2" width="10" height="5" fill="#fff"/>
    <line x1="28" y1="4.5" x2="38" y2="4.5" stroke="#000" stroke-width="0.8"/>
    <rect x="40" y="2" width="10" height="5" fill="#fff"/>
    <line x1="40" y1="4.5" x2="50" y2="4.5" stroke="#000" stroke-width="0.8"/>
    <rect x="52" y="2" width="10" height="5" fill="#fff"/>
    <line x1="52" y1="4.5" x2="62" y2="4.5" stroke="#000" stroke-width="0.8"/>
    <rect x="64" y="2" width="10" height="5" fill="#fff"/>
    <line x1="64" y1="4.5" x2="74" y2="4.5" stroke="#000" stroke-width="0.8"/>
    <rect x="76" y="2" width="10" height="5" fill="#fff"/>
    <line x1="76" y1="4.5" x2="86" y2="4.5" stroke="#000" stroke-width="0.8"/>
    <rect x="88" y="4.5" width="10" height="2.5" fill="#666"/>
    <line x1="88" y1="4.5" x2="98" y2="4.5" stroke="#888" stroke-width="1"/>
    <rect x="100" y="2" width="10" height="2.5" fill="#666"/>
    <line x1="100" y1="4.5" x2="110" y2="4.5" stroke="#888" stroke-width="1"/>
    <rect x="112" y="2" width="10" height="5" fill="#666"/>
    <line x1="112" y1="4.5" x2="122" y2="4.5" stroke="#fff" stroke-width="1"/>
    <rect x="4" y="9" width="10" height="5" fill="#fff"/>
    <line x1="4" y1="11.5" x2="14" y2="11.5" stroke="#000" stroke-width="0.8"/>
    <rect x="16" y="9" width="10" height="5" fill="#fff"/>
    <line x1="16" y1="11.5" x2="26" y2="11.5" stroke="#000" stroke-width="0.8"/>
    <rect x="28" y="9" width="10" height="5" fill="#fff"/>
    <line x1="28" y1="11.5" x2="38" y2="11.5" stroke="#000" stroke-width="0.8"/>
    <rect x="40" y="9" width="10" height="5" fill="#fff"/>
    <line x1="40" y1="11.5" x2="50" y2="11.5" stroke="#000" stroke-width="0.8"/>
    <rect x="52" y="9" width="10" height="5" fill="#fff"/>
    <line x1="52" y1="11.5" x2="62" y2="11.5" stroke="#000" stroke-width="0.8"/>
    <rect x="64" y="9" width="10" height="5" fill="#fff"/>
    <line x1="64" y1="11.5" x2="74" y2="11.5" stroke="#000" stroke-width="0.8"/>
    <rect x="76" y="11.5" width="10" height="2.5" fill="#666"/>
    <line x1="76" y1="11.5" x2="86" y2="11.5" stroke="#888" stroke-width="1"/>
    <rect x="88" y="9" width="10" height="2.5" fill="#666"/>
    <line x1="88" y1="11.5" x2="98" y2="11.5" stroke="#888" stroke-width="1"/>
    <rect x="100" y="9" width="10" height="5" fill="#666"/>
    <line x1="100" y1="11.5" x2="110" y2="11.5" stroke="#fff" stroke-width="1"/>
    <rect x="112" y="11.5" width="10" height="2.5" fill="#666"/>
    <line x1="112" y1="11.5" x2="122" y2="11.5" stroke="#888" stroke-width="1"/>
    <rect x="4" y="16" width="10" height="5" fill="#fff"/>
    <line x1="4" y1="18.5" x2="14" y2="18.5" stroke="#000" stroke-width="0.8"/>
    <rect x="16" y="16" width="10" height="5" fill="#fff"/>
    <line x1="16" y1="18.5" x2="26" y2="18.5" stroke="#000" stroke-width="0.8"/>
    <rect x="28" y="16" width="10" height="5" fill="#fff"/>
    <line x1="28" y1="18.5" x2="38" y2="18.5" stroke="#000" stroke-width="0.8"/>
    <rect x="40" y="16" width="10" height="5" fill="#fff"/>
    <line x1="40" y1="18.5" x2="50" y2="18.5" stroke="#000" stroke-width="0.8"/>
    <rect x="52" y="16" width="10" height="5" fill="#fff"/>
    <line x1="52" y1="18.5" x2="62" y2="18.5" stroke="#000" stroke-width="0.8"/>
    <rect x="64" y="18.5" width="10" height="2.5" fill="#666"/>
    <line x1="64" y1="18.5" x2="74" y2="18.5" stroke="#888" stroke-width="1"/>
    <rect x="76" y="16" width="10" height="2.5" fill="#666"/>
    <line x1="76" y1="18.5" x2="86" y2="18.5" stroke="#888" stroke-width="1"/>
    <rect x="88" y="16" width="10" height="5" fill="#666"/>
    <line x1="88" y1="18.5" x2="98" y2="18.5" stroke="#fff" stroke-width="1"/>
    <rect x="100" y="18.5" width="10" height="2.5" fill="#666"/>
    <line x1="100" y1="18.5" x2="110" y2="18.5" stroke="#888" stroke-width="1"/>
    <rect x="112" y="16" width="10" height="2.5" fill="#666"/>
    <line x1="112" y1="18.5" x2="122" y2="18.5" stroke="#888" stroke-width="1"/>
  </g>
  <g transform="translate(640,0)">
    <rect x="4" y="2" width="10" height="5" fill="#fff"/>
    <line x1="4" y1="4.5" x2="14" y2="4.5" stroke="#000" stroke-width="0.8"/>
    <rect x="16" y="2" width="10" height="5" fill="#fff"/>
    <line x1="16" y1="4.5" x2="26" y2="4.5" stroke="#000" stroke-width="0.8"/>
    <rect x="28" y="2" width="10" height="5" fill="#fff"/>
    <line x1="28" y1="4.5" x2="38" y2="4.5" stroke="#000" stroke-width="0.8"/>
    <rect x="40" y="2" width="10" height="5" fill="#fff"/>
    <line x1="40" y1="4.5" x2="50" y2="4.5" stroke="#000" stroke-width="0.8"/>
    <rect x="52" y="2" width="10" height="5" fill="#fff"/>
    <line x1="52" y1="4.5" x2="62" y2="4.5" stroke="#000" stroke-width="0.8"/>
    <rect x="64" y="2" width="10" height="5" fill="#fff"/>
    <line x1="64" y1="4.5" x2="74" y2="4.5" stroke="#000" stroke-width="0.8"/>
    <rect x="76" y="2" width="10" height="5" fill="#fff"/>
    <line x1="76" y1="4.5" x2="86" y2="4.5" stroke="#000" stroke-width="0.8"/>
    <rect x="88" y="2" width="10" height="5" fill="#fff"/>
    <line x1="88" y1="4.5" x2="98" y2="4.5" stroke="#000" stroke-width="0.8"/>
    <rect x="100" y="2" width="10" height="5" fill="#fff"/>
    <line x1="100" y1="4.5" x2="110" y2="4.5" stroke="#000" stroke-width="0.8"/>
    <rect x="112" y="4.5" width="10" height="2.5" fill="#666"/>
    <line x1="112" y1="4.5" x2="122" y2="4.5" stroke="#888" stroke-width="1"/>
    <rect x="4" y="9" width="10" height="5" fill="#fff"/>
    <line x1="4" y1="11.5" x2="14" y2="11.5" stroke="#000" stroke-width="0.8"/>
    <rect x="16" y="9" width="10" height="5" fill="#fff"/>
    <line x1="16" y1="11.5" x2="26" y2="11.5" stroke="#000" stroke-width="0.8"/>
    <rect x="28" y="9" width="10" height="5" fill="#fff"/>
    <line x1="28" y1="11.5" x2="38" y2="11.5" stroke="#000" stroke-width="0.8"/>
    <rect x="40" y="9" width="10" height="5" fill="#fff"/>
    <line x1="40" y1="11.5" x2="50" y2="11.5" stroke="#000" stroke-width="0.8"/>
    <rect x="52" y="9" width="10" height="5" fill="#fff"/>
    <line x1="52" y1="11.5" x2="62" y2="11.5" stroke="#000" stroke-width="0.8"/>
    <rect x="64" y="9" width="10" height="5" fill="#fff"/>
    <line x1="64" y1="11.5" x2="74" y2="11.5" stroke="#000" stroke-width="0.8"/>
    <rect x="76" y="9" width="10" height="5" fill="#fff"/>
    <line x1="76" y1="11.5" x2="86" y2="11.5" stroke="#000" stroke-width="0.8"/>
    <rect x="88" y="9" width="10" height="5" fill="#fff"/>
    <line x1="88" y1="11.5" x2="98" y2="11.5" stroke="#000" stroke-width="0.8"/>
    <rect x="100" y="11.5" width="10" height="2.5" fill="#666"/>
    <line x1="100" y1="11.5" x2="110" y2="11.5" stroke="#888" stroke-width="1"/>
    <rect x="112" y="9" width="10" height="2.5" fill="#666"/>
    <line x1="112" y1="11.5" x2="122" y2="11.5" stroke="#888" stroke-width="1"/>
    <rect x="4" y="16" width="10" height="5" fill="#fff"/>
    <line x1="4" y1="18.5" x2="14" y2="18.5" stroke="#000" stroke-width="0.8"/>
    <rect x="16" y="16" width="10" height="5" fill="#fff"/>
    <line x1="16" y1="18.5" x2="26" y2="18.5" stroke="#000" stroke-width="0.8"/>
    <rect x="28" y="16" width="10" height="5" fill="#fff"/>
    <line x1="28" y1="18.5" x2="38" y2="18.5" stroke="#000" stroke-width="0.8"/>
    <rect x="40" y="16" width="10" height="5" fill="#fff"/>
    <line x1="40" y1="18.5" x2="50" y2="18.5" stroke="#000" stroke-width="0.8"/>
    <rect x="52" y="16" width="10" height="5" fill="#fff"/>
    <line x1="52" y1="18.5" x2="62" y2="18.5" stroke="#000" stroke-width="0.8"/>
    <rect x="64" y="16" width="10" height="5" fill="#fff"/>
    <line x1="64" y1="18.5" x2="74" y2="18.5" stroke="#000" stroke-width="0.8"/>
    <rect x="76" y="16" width="10" height="5" fill="#fff"/>
    <line x1="76" y1="18.5" x2="86" y2="18.5" stroke="#000" stroke-width="0.8"/>
    <rect x="88" y="18.5" width="10" height="2.5" fill="#666"/>
    <line x1="88" y1="18.5" x2="98" y2="18.5" stroke="#888" stroke-width="1"/>
    <rect x="100" y="16" width="10" height="2.5" fill="#666"/>
    <line x1="100" y1="18.5" x2="110" y2="18.5" stroke="#888" stroke-width="1"/>
    <rect x="112" y="16" width="10" height="5" fill="#666"/>
    <line x1="112" y1="18.5" x2="122" y2="18.5" stroke="#fff" stroke-width="1"/>
  </g>
  <g transform="translate(768,0)">
    <rect x="4" y="2" width="10" height="5" fill="#fff"/>
    <line x1="4" y1="4.5" x2="14" y2="4.5" stroke="#000" stroke-width="0.8"/>
    <rect x="16" y="2" width="10" height="5" fill="#fff"/>
    <line x1="16" y1="4.5" x2="26" y2="4.5" stroke="#000" stroke-width="0.8"/>
    <rect x="28" y="2" width="10" height="5" fill="#fff"/>
    <line x1="28" y1="4.5" x2="38" y2="4.5" stroke="#000" stroke-width="0.8"/>
    <rect x="40" y="2" width="10" height="5" fill="#fff"/>
    <line x1="40" y1="4.5" x2="50" y2="4.5" stroke="#000" stroke-width="0.8"/>
    <rect x="52" y="2" width="10" height="5" fill="#fff"/>
    <line x1="52" y1="4.5" x2="62" y2="4.5" stroke="#000" stroke-width="0.8"/>
    <rect x="64" y="2" width="10" height="5" fill="#fff"/>
    <line x1="64" y1="4.5" x2="74" y2="4.5" stroke="#000" stroke-width="0.8"/>
    <rect x="76" y="2" width="10" height="5" fill="#fff"/>
    <line x1="76" y1="4.5" x2="86" y2="4.5" stroke="#000" stroke-width="0.8"/>
    <rect x="88" y="2" width="10" height="5" fill="#fff"/>
    <line x1="88" y1="4.5" x2="98" y2="4.5" stroke="#000" stroke-width="0.8"/>
    <rect x="100" y="2" width="10" height="5" fill="#fff"/>
    <line x1="100" y1="4.5" x2="110" y2="4.5" stroke="#000" stroke-width="0.8"/>
    <rect x="112" y="2" width="10" height="5" fill="#fff"/>
    <line x1="112" y1="4.5" x2="122" y2="4.5" stroke="#000" stroke-width="0.8"/>
    <rect x="4" y="9" width="10" height="5" fill="#fff"/>
    <line x1="4" y1="11.5" x2="14" y2="11.5" stroke="#000" stroke-width="0.8"/>
    <rect x="16" y="9" width="10" height="5" fill="#fff"/>
    <line x1="16" y1="11.5" x2="26" y2="11.5" stroke="#000" stroke-width="0.8"/>
    <rect x="28" y="9" width="10" height="5" fill="#fff"/>
    <line x1="28" y1="11.5" x2="38" y2="11.5" stroke="#000" stroke-width="0.8"/>
    <rect x="40" y="9" width="10" height="5" fill="#fff"/>
    <line x1="40" y1="11.5" x2="50" y2="11.5" stroke="#000" stroke-width="0.8"/>
    <rect x="52" y="9" width="10" height="5" fill="#fff"/>
    <line x1="52" y1="11.5" x2="62" y2="11.5" stroke="#000" stroke-width="0.8"/>
    <rect x="64" y="9" width="10" height="5" fill="#fff"/>
    <line x1="64" y1="11.5" x2="74" y2="11.5" stroke="#000" stroke-width="0.8"/>
    <rect x="76" y="9" width="10" height="5" fill="#fff"/>
    <line x1="76" y1="11.5" x2="86" y2="11.5" stroke="#000" stroke-width="0.8"/>
    <rect x="88" y="9" width="10" height="5" fill="#fff"/>
    <line x1="88" y1="11.5" x2="98" y2="11.5" stroke="#000" stroke-width="0.8"/>
    <rect x="100" y="9" width="10" height="5" fill="#fff"/>
    <line x1="100" y1="11.5" x2="110" y2="11.5" stroke="#000" stroke-width="0.8"/>
    <rect x="112" y="9" width="10" height="5" fill="#fff"/>
    <line x1="112" y1="11.5" x2="122" y2="11.5" stroke="#000" stroke-width="0.8"/>
    <rect x="4" y="16" width="10" height="5" fill="#fff"/>
    <line x1="4" y1="18.5" x2="14" y2="18.5" stroke="#000" stroke-width="0.8"/>
    <rect x="16" y="16" width="10" height="5" fill="#fff"/>
    <line x1="16" y1="18.5" x2="26" y2="18.5" stroke="#000" stroke-width="0.8"/>
    <rect x="28" y="16" width="10" height="5" fill="#fff"/>
    <line x1="28" y1="18.5" x2="38" y2="18.5" stroke="#000" stroke-width="0.8"/>
    <rect x="40" y="16" width="10" height="5" fill="#fff"/>
    <line x1="40" y1="18.5" x2="50" y2="18.5" stroke="#000" stroke-width="0.8"/>
    <rect x="52" y="16" width="10" height="5" fill="#fff"/>
    <line x1="52" y1="18.5" x2="62" y2="18.5" stroke="#000" stroke-width="0.8"/>
    <rect x="64" y="16" width="10" height="5" fill="#fff"/>
    <line x1="64" y1="18.5" x2="74" y2="18.5" stroke="#000" stroke-width="0.8"/>
    <rect x="76" y="16" width="10" height="5" fill="#fff"/>
    <line x1="76" y1="18.5" x2="86" y2="18.5" stroke="#000" stroke-width="0.8"/>
    <rect x="88" y="16" width="10" height="5" fill="#fff"/>
    <line x1="88" y1="18.5" x2="98" y2="18.5" stroke="#000" stroke-width="0.8"/>
    <rect x="100" y="16" width="10" height="5" fill="#fff"/>
    <line x1="100" y1="18.5" x2="110" y2="18.5" stroke="#000" stroke-width="0.8"/>
    <rect x="112" y="18.5" width="10" height="2.5" fill="#666"/>
    <line x1="112" y1="18.5" x2="122" y2="18.5" stroke="#888" stroke-width="1"/>
  </g>
  <g transform="translate(896,0)">
    <rect x="4" y="2" width="10" height="5" fill="#fff"/>
    <line x1="4" y1="4.5" x2="14" y2="4.5" stroke="#000" stroke-width="0.8"/>
    <rect x="16" y="2" width="10" height="5" fill="#fff"/>
    <line x1="16" y1="4.5" x2="26" y2="4.5" stroke="#000" stroke-width="0.8"/>
    <rect x="28" y="2" width="10" height="5" fill="#fff"/>
    <line x1="28" y1="4.5" x2="38" y2="4.5" stroke="#000" stroke-width="0.8"/>
    <rect x="40" y="2" width="10" height="5" fill="#fff"/>
    <line x1="40" y1="4.5" x2="50" y2="4.5" stroke="#000" stroke-width="0.8"/>
    <rect x="52" y="2" width="10" height="5" fill="#fff"/>
    <line x1="52" y1="4.5" x2="62" y2="4.5" stroke="#000" stroke-width="0.8"/>
    <rect x="64" y="2" width="10" height="5" fill="#fff"/>
    <line x1="64" y1="4.5" x2="74" y2="4.5" stroke="#000" stroke-width="0.8"/>
    <rect x="76" y="2" width="10" height="5" fill="#fff"/>
    <line x1="76" y1="4.5" x2="86" y2="4.5" stroke="#000" stroke-width="0.8"/>
    <rect x="88" y="2" width="10" height="5" fill="#fff"/>
    <line x1="88" y1="4.5" x2="98" y2="4.5" stroke="#000" stroke-width="0.8"/>
    <rect x="100" y="2" width="10" height="5" fill="#fff"/>
    <line x1="100" y1="4.5" x2="110" y2="4.5" stroke="#000" stroke-width="0.8"/>
    <rect x="112" y="2" width="10" height="5" fill="#fff"/>
    <line x1="112" y1="4.5" x2="122" y2="4.5" stroke="#000" stroke-width="0.8"/>
    <rect x="4" y="9" width="10" height="5" fill="#fff"/>
    <line x1="4" y1="11.5" x2="14" y2="11.5" stroke="#000" stroke-width="0.8"/>
    <rect x="16" y="9" width="10" height="5" fill="#fff"/>
    <line x1="16" y1="11.5" x2="26" y2="11.5" stroke="#000" stroke-width="0.8"/>
    <rect x="28" y="9" width="10" height="5" fill="#fff"/>
    <line x1="28" y1="11.5" x2="38" y2="11.5" stroke="#000" stroke-width="0.8"/>
    <rect x="40" y="9" width="10" height="5" fill="#fff"/>
    <line x1="40" y1="11.5" x2="50" y2="11.5" stroke="#000" stroke-width="0.8"/>
    <rect x="52" y="9" width="10" height="5" fill="#fff"/>
    <line x1="52" y1="11.5" x2="62" y2="11.5" stroke="#000" stroke-width="0.8"/>
    <rect x="64" y="9" width="10" height="5" fill="#fff"/>
    <line x1="64" y1="11.5" x2="74" y2="11.5" stroke="#000" stroke-width="0.8"/>
    <rect x="76" y="9" width="10" height="5" fill="#fff"/>
    <line x1="76" y1="11.5" x2="86" y2="11.5" stroke="#000" stroke-width="0.8"/>
    <rect x="88" y="9" width="10" height="5" fill="#fff"/>
    <line x1="88" y1="11.5" x2="98" y2="11.5" stroke="#000" stroke-width="0.8"/>
    <rect x="100" y="9" width="10" height="5" fill="#fff"/>
    <line x1="100" y1="11.5" x2="110" y2="11.5" stroke="#000" stroke-width="0.8"/>
    <rect x="112" y="9" width="10" height="5" fill="#fff"/>
    <line x1="112" y1="11.5" x2="122" y2="11.5" stroke="#000" stroke-width="0.8"/>
    <rect x="4" y="16" width="10" height="5" fill="#fff"/>
    <line x1="4" y1="18.5" x2="14" y2="18.5" stroke="#000" stroke-width="0.8"/>
    <rect x="16" y="16" width="10" height="5" fill="#fff"/>
    <line x1="16" y1="18.5" x2="26" y2="18.5" stroke="#000" stroke-width="0.8"/>
    <rect x="28" y="16" width="10" height="5" fill="#fff"/>
    <line x1="28" y1="18.5" x2="38" y2="18.5" stroke="#000" stroke-width="0.8"/>
    <rect x="40" y="16" width="10" height="5" fill="#fff"/>
    <line x1="40" y1="18.5" x2="50" y2="18.5" stroke="#000" stroke-width="0.8"/>
    <rect x="52" y="16" width="10" height="5" fill="#fff"/>
    <line x1="52" y1="18.5" x2="62" y2="18.5" stroke="#000" stroke-width="0.8"/>
    <rect x="64" y="16" width="10" height="5" fill="#fff"/>
    <line x1="64" y1="18.5" x2="74" y2="18.5" stroke="#000" stroke-width="0.8"/>
    <rect x="76" y="16" width="10" height="5" fill="#fff"/>
    <line x1="76" y1="18.5" x2="86" y2="18.5" stroke="#000" stroke-width="0.8"/>
    <rect x="88" y="16" width="10" height="5" fill="#fff"/>
    <line x1="88" y1="18.5" x2="98" y2="18.5" stroke="#000" stroke-width="0.8"/>
    <rect x="100" y="16" width="10" height="5" fill="#fff"/>
    <line x1="100" y1="18.5" x2="110" y2="18.5" stroke="#000" stroke-width="0.8"/>
    <rect x="112" y="16" width="10" height="5" fill="#fff"/>
    <line x1="112" y1="18.5" x2="122" y2="18.5" stroke="#000" stroke-width="0.8"/>
  </g>
</svg>
