<svg xmlns="http://www.w3.org/2000/svg" viewBox="0 0 1024 32" width="1024" height="32">
  <!-- SUMMIT DMD scene: HOLD THE CABLE — the car sways on the line while gusts cross — 8 frames of 128x32, baked to 4-level dot frames at load.
       Levels by luminance: #fff=3, #888=2, #666=1. -->
  <rect width="1024" height="32" fill="#000"/>
  <g transform="translate(0,0)"><path d="M 0 8 Q 64 14 128 8" fill="none" stroke="#666" stroke-width="1"/><line x1="64.0" y1="11" x2="64.0" y2="15" stroke="#888" stroke-width="1.2"/><rect x="57.0" y="15" width="14" height="9" rx="1.5" fill="#fff"/><rect x="59.0" y="17" width="4" height="3" fill="#000"/><rect x="65.0" y="17" width="4" height="3" fill="#000"/><path d="M 0 32 L 18 22 L 34 32 Z" fill="#666"/><path d="M 96 32 L 114 20 L 128 30 L 128 32 Z" fill="#666"/><path d="M -22 26 l 6 3 l -6 3" fill="none" stroke="#888" stroke-width="1.2"/><path d="M 22 26 l 6 3 l -6 3" fill="none" stroke="#888" stroke-width="1.2"/><path d="M 66 26 l 6 3 l -6 3" fill="none" stroke="#888" stroke-width="1.2"/></g>
  <g transform="translate(128,0)"><path d="M 0 8 Q 64 14 128 8" fill="none" stroke="#666" stroke-width="1"/><line x1="68.7" y1="11" x2="68.7" y2="15" stroke="#888" stroke-width="1.2"/><rect x="61.7" y="15" width="14" height="9" rx="1.5" fill="#fff"/><rect x="63.7" y="17" width="4" height="3" fill="#000"/><rect x="69.7" y="17" width="4" height="3" fill="#000"/><path d="M 0 32 L 18 22 L 34 32 Z" fill="#666"/><path d="M 96 32 L 114 20 L 128 30 L 128 32 Z" fill="#666"/><path d="M 1 26 l 6 3 l -6 3" fill="none" stroke="#888" stroke-width="1.2"/><path d="M 45 26 l 6 3 l -6 3" fill="none" stroke="#888" stroke-width="1.2"/><path d="M 89 26 l 6 3 l -6 3" fill="none" stroke="#888" stroke-width="1.2"/></g>
  <g transform="translate(256,0)"><path d="M 0 8 Q 64 14 128 8" fill="none" stroke="#666" stroke-width="1"/><line x1="69.8" y1="11" x2="69.8" y2="15" stroke="#888" stroke-width="1.2"/><rect x="62.8" y="15" width="14" height="9" rx="1.5" fill="#fff"/><rect x="64.8" y="17" width="4" height="3" fill="#000"/><rect x="70.8" y="17" width="4" height="3" fill="#000"/><path d="M 0 32 L 18 22 L 34 32 Z" fill="#666"/><path d="M 96 32 L 114 20 L 128 30 L 128 32 Z" fill="#666"/><path d="M 24 26 l 6 3 l -6 3" fill="none" stroke="#888" stroke-width="1.2"/><path d="M 68 26 l 6 3 l -6 3" fill="none" stroke="#888" stroke-width="1.2"/><path d="M 112 26 l 6 3 l -6 3" fill="none" stroke="#888" stroke-width="1.2"/></g>
  <g transform="translate(384,0)"><path d="M 0 8 Q 64 14 128 8" fill="none" stroke="#666" stroke-width="1"/><line x1="66.6" y1="11" x2="66.6" y2="15" stroke="#888" stroke-width="1.2"/><rect x="59.6" y="15" width="14" height="9" rx="1.5" fill="#fff"/><rect x="61.6" y="17" width="4" height="3" fill="#000"/><rect x="67.6" y="17" width="4" height="3" fill="#000"/><path d="M 0 32 L 18 22 L 34 32 Z" fill="#666"/><path d="M 96 32 L 114 20 L 128 30 L 128 32 Z" fill="#666"/><path d="M 47 26 l 6 3 l -6 3" fill="none" stroke="#888" stroke-width="1.2"/><path d="M 91 26 l 6 3 l -6 3" fill="none" stroke="#888" stroke-width="1.2"/><path d="M 135 26 l 6 3 l -6 3" fill="none" stroke="#888" stroke-width="1.2"/></g>
  <g transform="translate(512,0)"><path d="M 0 8 Q 64 14 128 8" fill="none" stroke="#666" stroke-width="1"/><line x1="61.4" y1="11" x2="61.4" y2="15" stroke="#888" stroke-width="1.2"/><rect x="54.4" y="15" width="14" height="9" rx="1.5" fill="#fff"/><rect x="56.4" y="17" width="4" height="3" fill="#000"/><rect x="62.4" y="17" width="4" height="3" fill="#000"/><path d="M 0 32 L 18 22 L 34 32 Z" fill="#666"/><path d="M 96 32 L 114 20 L 128 30 L 128 32 Z" fill="#666"/><path d="M 69 26 l 6 3 l -6 3" fill="none" stroke="#888" stroke-width="1.2"/><path d="M 113 26 l 6 3 l -6 3" fill="none" stroke="#888" stroke-width="1.2"/><path d="M -15 26 l 6 3 l -6 3" fill="none" stroke="#888" stroke-width="1.2"/></g>
  <g transform="translate(640,0)"><path d="M 0 8 Q 64 14 128 8" fill="none" stroke="#666" stroke-width="1"/><line x1="58.2" y1="11" x2="58.2" y2="15" stroke="#888" stroke-width="1.2"/><rect x="51.2" y="15" width="14" height="9" rx="1.5" fill="#fff"/><rect x="53.2" y="17" width="4" height="3" fill="#000"/><rect x="59.2" y="17" width="4" height="3" fill="#000"/><path d="M 0 32 L 18 22 L 34 32 Z" fill="#666"/><path d="M 96 32 L 114 20 L 128 30 L 128 32 Z" fill="#666"/><path d="M 92 26 l 6 3 l -6 3" fill="none" stroke="#888" stroke-width="1.2"/><path d="M 136 26 l 6 3 l -6 3" fill="none" stroke="#888" stroke-width="1.2"/><path d="M 8 26 l 6 3 l -6 3" fill="none" stroke="#888" stroke-width="1.2"/></g>
  <g transform="translate(768,0)"><path d="M 0 8 Q 64 14 128 8" fill="none" stroke="#666" stroke-width="1"/><line x1="59.3" y1="11" x2="59.3" y2="15" stroke="#888" stroke-width="1.2"/><rect x="52.3" y="15" width="14" height="9" rx="1.5" fill="#fff"/><rect x="54.3" y="17" width="4" height="3" fill="#000"/><rect x="60.3" y="17" width="4" height="3" fill="#000"/><path d="M 0 32 L 18 22 L 34 32 Z" fill="#666"/><path d="M 96 32 L 114 20 L 128 30 L 128 32 Z" fill="#666"/><path d="M 115 26 l 6 3 l -6 3" fill="none" stroke="#888" stroke-width="1.2"/><path d="M -13 26 l 6 3 l -6 3" fill="none" stroke="#888" stroke-width="1.2"/><path d="M 31 26 l 6 3 l -6 3" fill="none" stroke="#888" stroke-width="1.2"/></g>
  <g transform="translate(896,0)"><path d="M 0 8 Q 64 14 128 8" fill="none" stroke="#666" stroke-width="1"/><line x1="64.0" y1="11" x2="64.0" y2="15" stroke="#888" stroke-width="1.2"/><rect x="57.0" y="15" width="14" height="9" rx="1.5" fill="#fff"/><rect x="59.0" y="17" width="4" height="3" fill="#000"/><rect x="65.0" y="17" width="4" height="3" fill="#000"/><path d="M 0 32 L 18 22 L 34 32 Z" fill="#666"/><path d="M 96 32 L 114 20 L 128 30 L 128 32 Z" fill="#666"/><path d="M 138 26 l 6 3 l -6 3" fill="none" stroke="#888" stroke-width="1.2"/><path d="M 10 26 l 6 3 l -6 3" fill="none" stroke="#888" stroke-width="1.2"/><path d="M 54 26 l 6 3 l -6 3" fill="none" stroke="#888" stroke-width="1.2"/></g>
</svg>
