<svg xmlns="http://www.w3.org/2000/svg" viewBox="0 0 1024 32" width="1024" height="32">
  <!-- SUMMIT DMD scene: CABLE CAR - the gondola crosses on its cable, dipping at the towers. Rides / LAST CAR UP.
       8 frames of 128x32: #fff=3, #888=2, #666=1, black=0. -->
  <rect width="1024" height="32" fill="#000"/>

  <g transform="translate(0,0)">
    <path d="M 4 24 Q 64 10 124 6" fill="none" stroke="#666" stroke-width="1"/>
    <line x1="40" y1="26" x2="40" y2="18" stroke="#888" stroke-width="1.2"/>
    <line x1="92" y1="26" x2="92" y2="11" stroke="#888" stroke-width="1.2"/>
    <rect x="6.0" y="22.0" width="8" height="6" fill="#fff"/>
    <line x1="10.0" y1="22.0" x2="10.0" y2="19.0" stroke="#fff" stroke-width="1"/>
  </g>
  <g transform="translate(128,0)">
    <path d="M 4 24 Q 64 10 124 6" fill="none" stroke="#666" stroke-width="1"/>
    <line x1="40" y1="26" x2="40" y2="18" stroke="#888" stroke-width="1.2"/>
    <line x1="92" y1="26" x2="92" y2="11" stroke="#888" stroke-width="1.2"/>
    <rect x="20.3" y="18.4" width="8" height="6" fill="#fff"/>
    <line x1="24.3" y1="18.4" x2="24.3" y2="15.4" stroke="#fff" stroke-width="1"/>
  </g>
  <g transform="translate(256,0)">
    <path d="M 4 24 Q 64 10 124 6" fill="none" stroke="#666" stroke-width="1"/>
    <line x1="40" y1="26" x2="40" y2="18" stroke="#888" stroke-width="1.2"/>
    <line x1="92" y1="26" x2="92" y2="11" stroke="#888" stroke-width="1.2"/>
    <rect x="34.6" y="15.4" width="8" height="6" fill="#fff"/>
    <line x1="38.6" y1="15.4" x2="38.6" y2="12.4" stroke="#fff" stroke-width="1"/>
  </g>
  <g transform="translate(384,0)">
    <path d="M 4 24 Q 64 10 124 6" fill="none" stroke="#666" stroke-width="1"/>
    <line x1="40" y1="26" x2="40" y2="18" stroke="#888" stroke-width="1.2"/>
    <line x1="92" y1="26" x2="92" y2="11" stroke="#888" stroke-width="1.2"/>
    <rect x="48.9" y="13.5" width="8" height="6" fill="#fff"/>
    <line x1="52.9" y1="13.5" x2="52.9" y2="10.5" stroke="#fff" stroke-width="1"/>
  </g>
  <g transform="translate(512,0)">
    <path d="M 4 24 Q 64 10 124 6" fill="none" stroke="#666" stroke-width="1"/>
    <line x1="40" y1="26" x2="40" y2="18" stroke="#888" stroke-width="1.2"/>
    <line x1="92" y1="26" x2="92" y2="11" stroke="#888" stroke-width="1.2"/>
    <rect x="63.1" y="12.9" width="8" height="6" fill="#fff"/>
    <line x1="67.1" y1="12.9" x2="67.1" y2="9.9" stroke="#fff" stroke-width="1"/>
  </g>
  <g transform="translate(640,0)">
    <path d="M 4 24 Q 64 10 124 6" fill="none" stroke="#666" stroke-width="1"/>
    <line x1="40" y1="26" x2="40" y2="18" stroke="#888" stroke-width="1.2"/>
    <line x1="92" y1="26" x2="92" y2="11" stroke="#888" stroke-width="1.2"/>
    <rect x="77.4" y="13.7" width="8" height="6" fill="#fff"/>
    <line x1="81.4" y1="13.7" x2="81.4" y2="10.7" stroke="#fff" stroke-width="1"/>
  </g>
  <g transform="translate(768,0)">
    <path d="M 4 24 Q 64 10 124 6" fill="none" stroke="#666" stroke-width="1"/>
    <line x1="40" y1="26" x2="40" y2="18" stroke="#888" stroke-width="1.2"/>
    <line x1="92" y1="26" x2="92" y2="11" stroke="#888" stroke-width="1.2"/>
    <rect x="91.7" y="15.5" width="8" height="6" fill="#fff"/>
    <line x1="95.7" y1="15.5" x2="95.7" y2="12.5" stroke="#fff" stroke-width="1"/>
  </g>
  <g transform="translate(896,0)">
    <path d="M 4 24 Q 64 10 124 6" fill="none" stroke="#666" stroke-width="1"/>
    <line x1="40" y1="26" x2="40" y2="18" stroke="#888" stroke-width="1.2"/>
    <line x1="92" y1="26" x2="92" y2="11" stroke="#888" stroke-width="1.2"/>
    <rect x="106.0" y="18.0" width="8" height="6" fill="#fff"/>
    <line x1="110.0" y1="18.0" x2="110.0" y2="15.0" stroke="#fff" stroke-width="1"/>
  </g>
</svg>
