<svg xmlns="http://www.w3.org/2000/svg" viewBox="0 0 1024 32" width="1024" height="32">
  <!-- GLASSHOUSE DMD scene: CENTURY - the century plant's spike climbs the frame and detonates into flower. Wizard; attract closer.
       8 frames of 128x32: #fff=3, #888=2, #666=1, black=0. -->
  <rect width="1024" height="32" fill="#000"/>

  <g transform="translate(0,0)">
    <line x1="64" y1="30" x2="64" y2="26" stroke="#888" stroke-width="2"/>
    <line x1="30" y1="30" x2="98" y2="30" stroke="#666" stroke-width="1.4"/>
  </g>
  <g transform="translate(128,0)">
    <line x1="64" y1="30" x2="64" y2="23" stroke="#888" stroke-width="2"/>
    <line x1="30" y1="30" x2="98" y2="30" stroke="#666" stroke-width="1.4"/>
  </g>
  <g transform="translate(256,0)">
    <line x1="64" y1="30" x2="64" y2="20" stroke="#888" stroke-width="2"/>
    <line x1="30" y1="30" x2="98" y2="30" stroke="#666" stroke-width="1.4"/>
  </g>
  <g transform="translate(384,0)">
    <line x1="64" y1="30" x2="64" y2="17" stroke="#888" stroke-width="2"/>
    <line x1="30" y1="30" x2="98" y2="30" stroke="#666" stroke-width="1.4"/>
  </g>
  <g transform="translate(512,0)">
    <line x1="64" y1="30" x2="64" y2="13" stroke="#888" stroke-width="2"/>
    <line x1="30" y1="30" x2="98" y2="30" stroke="#666" stroke-width="1.4"/>
  </g>
  <g transform="translate(640,0)">
    <line x1="64" y1="30" x2="64" y2="10" stroke="#888" stroke-width="2"/>
    <line x1="30" y1="30" x2="98" y2="30" stroke="#666" stroke-width="1.4"/>
  </g>
  <g transform="translate(768,0)">
    <line x1="64" y1="30" x2="64" y2="7" stroke="#888" stroke-width="2"/>
    <ellipse cx="58.7" cy="1.5" rx="4" ry="8" fill="#fff"/>
    <ellipse cx="63.7" cy="0.1" rx="4" ry="8" fill="#fff"/>
    <ellipse cx="69.6" cy="1.7" rx="4" ry="8" fill="#fff"/>
    <ellipse cx="72.3" cy="4.4" rx="4" ry="8" fill="#fff"/>
    <line x1="30" y1="30" x2="98" y2="30" stroke="#666" stroke-width="1.4"/>
  </g>
  <g transform="translate(896,0)">
    <line x1="64" y1="30" x2="64" y2="4" stroke="#888" stroke-width="2"/>
    <ellipse cx="58.7" cy="-1.7" rx="4" ry="8" fill="#fff"/>
    <ellipse cx="63.7" cy="-3.0" rx="4" ry="8" fill="#fff"/>
    <ellipse cx="69.6" cy="-1.5" rx="4" ry="8" fill="#fff"/>
    <ellipse cx="72.3" cy="1.3" rx="4" ry="8" fill="#fff"/>
    <line x1="30" y1="30" x2="98" y2="30" stroke="#666" stroke-width="1.4"/>
  </g>
</svg>
