<svg xmlns="http://www.w3.org/2000/svg" viewBox="0 0 1024 32" width="1024" height="32">
  <!-- THUNDERHEAD DMD scene: CHARGE — the arc climbs the pylons — 8 frames of 128x32, baked to 4-level dot frames at load.
       Levels by luminance: #fff=3, #888=2, #666=1. -->
  <rect width="1024" height="32" fill="#000"/>
  <g transform="translate(0,0)"><line x1="34" y1="28" x2="34" y2="6" stroke="#888" stroke-width="1.6"/><line x1="94" y1="28" x2="94" y2="6" stroke="#888" stroke-width="1.6"/><line x1="20" y1="28" x2="108" y2="28" stroke="#666" stroke-width="1"/><line x1="34" y1="26.0" x2="44" y2="27.6" stroke="#fff" stroke-width="1.4"/><line x1="44" y1="27.6" x2="54" y2="24.4" stroke="#fff" stroke-width="1.4"/><line x1="54" y1="24.4" x2="64" y2="27.6" stroke="#fff" stroke-width="1.4"/><line x1="64" y1="27.6" x2="74" y2="24.4" stroke="#fff" stroke-width="1.4"/><line x1="74" y1="24.4" x2="84" y2="27.6" stroke="#fff" stroke-width="1.4"/><line x1="84" y1="27.6" x2="94" y2="24.4" stroke="#fff" stroke-width="1.4"/></g>
  <g transform="translate(128,0)"><line x1="34" y1="28" x2="34" y2="6" stroke="#888" stroke-width="1.6"/><line x1="94" y1="28" x2="94" y2="6" stroke="#888" stroke-width="1.6"/><line x1="20" y1="28" x2="108" y2="28" stroke="#666" stroke-width="1"/><line x1="34" y1="23.1" x2="44" y2="25.1" stroke="#fff" stroke-width="1.4"/><line x1="44" y1="25.1" x2="54" y2="21.2" stroke="#fff" stroke-width="1.4"/><line x1="54" y1="21.2" x2="64" y2="25.1" stroke="#fff" stroke-width="1.4"/><line x1="64" y1="25.1" x2="74" y2="21.2" stroke="#fff" stroke-width="1.4"/><line x1="74" y1="21.2" x2="84" y2="25.1" stroke="#fff" stroke-width="1.4"/><line x1="84" y1="25.1" x2="94" y2="21.2" stroke="#fff" stroke-width="1.4"/></g>
  <g transform="translate(256,0)"><line x1="34" y1="28" x2="34" y2="6" stroke="#888" stroke-width="1.6"/><line x1="94" y1="28" x2="94" y2="6" stroke="#888" stroke-width="1.6"/><line x1="20" y1="28" x2="108" y2="28" stroke="#666" stroke-width="1"/><line x1="34" y1="20.3" x2="44" y2="22.6" stroke="#fff" stroke-width="1.4"/><line x1="44" y1="22.6" x2="54" y2="18.0" stroke="#fff" stroke-width="1.4"/><line x1="54" y1="18.0" x2="64" y2="22.6" stroke="#fff" stroke-width="1.4"/><line x1="64" y1="22.6" x2="74" y2="18.0" stroke="#fff" stroke-width="1.4"/><line x1="74" y1="18.0" x2="84" y2="22.6" stroke="#fff" stroke-width="1.4"/><line x1="84" y1="22.6" x2="94" y2="18.0" stroke="#fff" stroke-width="1.4"/></g>
  <g transform="translate(384,0)"><line x1="34" y1="28" x2="34" y2="6" stroke="#888" stroke-width="1.6"/><line x1="94" y1="28" x2="94" y2="6" stroke="#888" stroke-width="1.6"/><line x1="20" y1="28" x2="108" y2="28" stroke="#666" stroke-width="1"/><line x1="34" y1="17.4" x2="44" y2="20.1" stroke="#fff" stroke-width="1.4"/><line x1="44" y1="20.1" x2="54" y2="14.8" stroke="#fff" stroke-width="1.4"/><line x1="54" y1="14.8" x2="64" y2="20.1" stroke="#fff" stroke-width="1.4"/><line x1="64" y1="20.1" x2="74" y2="14.8" stroke="#fff" stroke-width="1.4"/><line x1="74" y1="14.8" x2="84" y2="20.1" stroke="#fff" stroke-width="1.4"/><line x1="84" y1="20.1" x2="94" y2="14.8" stroke="#fff" stroke-width="1.4"/></g>
  <g transform="translate(512,0)"><line x1="34" y1="28" x2="34" y2="6" stroke="#888" stroke-width="1.6"/><line x1="94" y1="28" x2="94" y2="6" stroke="#888" stroke-width="1.6"/><line x1="20" y1="28" x2="108" y2="28" stroke="#666" stroke-width="1"/><line x1="34" y1="14.6" x2="44" y2="17.5" stroke="#fff" stroke-width="1.4"/><line x1="44" y1="17.5" x2="54" y2="11.6" stroke="#fff" stroke-width="1.4"/><line x1="54" y1="11.6" x2="64" y2="17.5" stroke="#fff" stroke-width="1.4"/><line x1="64" y1="17.5" x2="74" y2="11.6" stroke="#fff" stroke-width="1.4"/><line x1="74" y1="11.6" x2="84" y2="17.5" stroke="#fff" stroke-width="1.4"/><line x1="84" y1="17.5" x2="94" y2="11.6" stroke="#fff" stroke-width="1.4"/></g>
  <g transform="translate(640,0)"><line x1="34" y1="28" x2="34" y2="6" stroke="#888" stroke-width="1.6"/><line x1="94" y1="28" x2="94" y2="6" stroke="#888" stroke-width="1.6"/><line x1="20" y1="28" x2="108" y2="28" stroke="#666" stroke-width="1"/><line x1="34" y1="11.7" x2="44" y2="15.0" stroke="#fff" stroke-width="1.4"/><line x1="44" y1="15.0" x2="54" y2="8.4" stroke="#fff" stroke-width="1.4"/><line x1="54" y1="8.4" x2="64" y2="15.0" stroke="#fff" stroke-width="1.4"/><line x1="64" y1="15.0" x2="74" y2="8.4" stroke="#fff" stroke-width="1.4"/><line x1="74" y1="8.4" x2="84" y2="15.0" stroke="#fff" stroke-width="1.4"/><line x1="84" y1="15.0" x2="94" y2="8.4" stroke="#fff" stroke-width="1.4"/></g>
  <g transform="translate(768,0)"><line x1="34" y1="28" x2="34" y2="6" stroke="#888" stroke-width="1.6"/><line x1="94" y1="28" x2="94" y2="6" stroke="#888" stroke-width="1.6"/><line x1="20" y1="28" x2="108" y2="28" stroke="#666" stroke-width="1"/><line x1="34" y1="8.9" x2="44" y2="12.5" stroke="#fff" stroke-width="1.4"/><line x1="44" y1="12.5" x2="54" y2="5.2" stroke="#fff" stroke-width="1.4"/><line x1="54" y1="5.2" x2="64" y2="12.5" stroke="#fff" stroke-width="1.4"/><line x1="64" y1="12.5" x2="74" y2="5.2" stroke="#fff" stroke-width="1.4"/><line x1="74" y1="5.2" x2="84" y2="12.5" stroke="#fff" stroke-width="1.4"/><line x1="84" y1="12.5" x2="94" y2="5.2" stroke="#fff" stroke-width="1.4"/></g>
  <g transform="translate(896,0)"><line x1="34" y1="28" x2="34" y2="6" stroke="#888" stroke-width="1.6"/><line x1="94" y1="28" x2="94" y2="6" stroke="#888" stroke-width="1.6"/><line x1="20" y1="28" x2="108" y2="28" stroke="#666" stroke-width="1"/><line x1="34" y1="6.0" x2="44" y2="10.0" stroke="#fff" stroke-width="1.4"/><line x1="44" y1="10.0" x2="54" y2="2.0" stroke="#fff" stroke-width="1.4"/><line x1="54" y1="2.0" x2="64" y2="10.0" stroke="#fff" stroke-width="1.4"/><line x1="64" y1="10.0" x2="74" y2="2.0" stroke="#fff" stroke-width="1.4"/><line x1="74" y1="2.0" x2="84" y2="10.0" stroke="#fff" stroke-width="1.4"/><line x1="84" y1="10.0" x2="94" y2="2.0" stroke="#fff" stroke-width="1.4"/></g>
</svg>
