<svg xmlns="http://www.w3.org/2000/svg" viewBox="0 0 1024 32" width="1024" height="32">
  <!-- MIDNIGHT MIDWAY DMD scene: CHICKEN EXIT — a hen bolts across, kicking
       up dust, as the ball is ferried the subway back to the queue (the
       right-outlane save). 8 frames of 128x32 (style guide §6): #fff=3,
       #888=2, #666=1, black=0. Art rows 0..22; caption row 24. -->
  <rect width="1024" height="32" fill="#000"/>

  <!-- hen sweeps x: 14..117, legs alternate, dust puffs trail -->
  <g transform="translate(0,0)">
    <circle cx="10" cy="18" r="0.9" fill="#666"/><circle cx="6" cy="16" r="0.9" fill="#666"/>
    <ellipse cx="14" cy="13" rx="4" ry="3" fill="#fff"/>
    <circle cx="17" cy="9.5" r="1.6" fill="#fff"/>
    <polygon points="19,9 22,9.5 19,10.5" fill="#888"/>
    <polygon points="16.5,7.8 17.5,6.5 18.5,7.8" fill="#888"/>
    <polygon points="10,15 8,12 12,13" fill="#888"/>
    <line x1="13" y1="16" x2="12" y2="19" stroke="#888" stroke-width="1"/>
    <line x1="16" y1="16" x2="17" y2="19" stroke="#888" stroke-width="1"/>
  </g>
  <g transform="translate(128,0)">
    <circle cx="24" cy="18" r="0.9" fill="#666"/><circle cx="20" cy="16" r="0.9" fill="#666"/>
    <ellipse cx="28" cy="13" rx="4" ry="3" fill="#fff"/>
    <circle cx="31" cy="9.5" r="1.6" fill="#fff"/>
    <polygon points="33,9 36,9.5 33,10.5" fill="#888"/>
    <polygon points="30.5,7.8 31.5,6.5 32.5,7.8" fill="#888"/>
    <polygon points="24,15 22,12 26,13" fill="#888"/>
    <line x1="27" y1="16" x2="28" y2="19" stroke="#888" stroke-width="1"/>
    <line x1="30" y1="16" x2="29" y2="19" stroke="#888" stroke-width="1"/>
  </g>
  <g transform="translate(256,0)">
    <circle cx="38" cy="18" r="0.9" fill="#666"/><circle cx="34" cy="16" r="0.9" fill="#666"/>
    <ellipse cx="43" cy="13" rx="4" ry="3" fill="#fff"/>
    <circle cx="46" cy="9.5" r="1.6" fill="#fff"/>
    <polygon points="48,9 51,9.5 48,10.5" fill="#888"/>
    <polygon points="45.5,7.8 46.5,6.5 47.5,7.8" fill="#888"/>
    <polygon points="39,15 37,12 41,13" fill="#888"/>
    <line x1="42" y1="16" x2="41" y2="19" stroke="#888" stroke-width="1"/>
    <line x1="45" y1="16" x2="46" y2="19" stroke="#888" stroke-width="1"/>
  </g>
  <g transform="translate(384,0)">
    <circle cx="53" cy="18" r="0.9" fill="#666"/><circle cx="49" cy="16" r="0.9" fill="#666"/>
    <ellipse cx="58" cy="13" rx="4" ry="3" fill="#fff"/>
    <circle cx="61" cy="9.5" r="1.6" fill="#fff"/>
    <polygon points="63,9 66,9.5 63,10.5" fill="#888"/>
    <polygon points="60.5,7.8 61.5,6.5 62.5,7.8" fill="#888"/>
    <polygon points="54,15 52,12 56,13" fill="#888"/>
    <line x1="57" y1="16" x2="58" y2="19" stroke="#888" stroke-width="1"/>
    <line x1="60" y1="16" x2="59" y2="19" stroke="#888" stroke-width="1"/>
  </g>
  <g transform="translate(512,0)">
    <circle cx="68" cy="18" r="0.9" fill="#666"/><circle cx="64" cy="16" r="0.9" fill="#666"/>
    <ellipse cx="73" cy="13" rx="4" ry="3" fill="#fff"/>
    <circle cx="76" cy="9.5" r="1.6" fill="#fff"/>
    <polygon points="78,9 81,9.5 78,10.5" fill="#888"/>
    <polygon points="75.5,7.8 76.5,6.5 77.5,7.8" fill="#888"/>
    <polygon points="69,15 67,12 71,13" fill="#888"/>
    <line x1="72" y1="16" x2="71" y2="19" stroke="#888" stroke-width="1"/>
    <line x1="75" y1="16" x2="76" y2="19" stroke="#888" stroke-width="1"/>
  </g>
  <g transform="translate(640,0)">
    <circle cx="83" cy="18" r="0.9" fill="#666"/><circle cx="79" cy="16" r="0.9" fill="#666"/>
    <ellipse cx="88" cy="13" rx="4" ry="3" fill="#fff"/>
    <circle cx="91" cy="9.5" r="1.6" fill="#fff"/>
    <polygon points="93,9 96,9.5 93,10.5" fill="#888"/>
    <polygon points="90.5,7.8 91.5,6.5 92.5,7.8" fill="#888"/>
    <polygon points="84,15 82,12 86,13" fill="#888"/>
    <line x1="87" y1="16" x2="88" y2="19" stroke="#888" stroke-width="1"/>
    <line x1="90" y1="16" x2="89" y2="19" stroke="#888" stroke-width="1"/>
  </g>
  <g transform="translate(768,0)">
    <circle cx="98" cy="18" r="0.9" fill="#666"/><circle cx="94" cy="16" r="0.9" fill="#666"/>
    <ellipse cx="103" cy="13" rx="4" ry="3" fill="#fff"/>
    <circle cx="106" cy="9.5" r="1.6" fill="#fff"/>
    <polygon points="108,9 111,9.5 108,10.5" fill="#888"/>
    <polygon points="105.5,7.8 106.5,6.5 107.5,7.8" fill="#888"/>
    <polygon points="99,15 97,12 101,13" fill="#888"/>
    <line x1="102" y1="16" x2="101" y2="19" stroke="#888" stroke-width="1"/>
    <line x1="105" y1="16" x2="106" y2="19" stroke="#888" stroke-width="1"/>
  </g>
  <g transform="translate(896,0)">
    <circle cx="112" cy="18" r="0.9" fill="#666"/><circle cx="108" cy="16" r="0.9" fill="#666"/>
    <ellipse cx="117" cy="13" rx="4" ry="3" fill="#fff"/>
    <circle cx="120" cy="9.5" r="1.6" fill="#fff"/>
    <polygon points="122,9 125,9.5 122,10.5" fill="#888"/>
    <polygon points="119.5,7.8 120.5,6.5 121.5,7.8" fill="#888"/>
    <polygon points="113,15 111,12 115,13" fill="#888"/>
    <line x1="116" y1="16" x2="115" y2="19" stroke="#888" stroke-width="1"/>
    <line x1="119" y1="16" x2="120" y2="19" stroke="#888" stroke-width="1"/>
  </g>
</svg>
