<svg xmlns="http://www.w3.org/2000/svg" viewBox="0 0 1024 32" width="1024" height="32">
  <!-- THE NIGHT MAIL DMD scene: CONNECTION — the dawn connection (wizard mode).
       Two locomotive headlamps converge out of the dark onto the centre
       platform, steam bursts on arrival, and the trains stand side by side
       as the guard’s flag shows and dawn breaks overhead. 8 frames of
       128x32 (style guide §6): #fff=3, #888=2, #666=1, black=0.
       Art rows 0..22; caption renders from row 24. -->
  <rect width="1024" height="32" fill="#000"/>
  <g transform="translate(0,0)">
    <line x1="0" y1="22" x2="128" y2="22" stroke="#666" stroke-width="1"/>
    <rect x="50" y="18" width="28" height="4" fill="#666"/>
    <line x1="50" y1="18" x2="78" y2="18" stroke="#888" stroke-width="1"/>
    <line x1="70" y1="8" x2="70" y2="18" stroke="#666" stroke-width="1"/>
    <circle cx="70" cy="7" r="1.2" fill="#888"/>
    <rect x="0" y="12" width="8" height="8" fill="#888"/>
    <circle cx="7" cy="15" r="1.5" fill="#fff"/>
    <line x1="8" y1="14" x2="19" y2="11" stroke="#666" stroke-width="0.8"/>
    <line x1="8" y1="16" x2="19" y2="19" stroke="#666" stroke-width="0.8"/>
    <rect x="120" y="12" width="8" height="8" fill="#888"/>
    <circle cx="121" cy="15" r="1.5" fill="#fff"/>
    <line x1="120" y1="14" x2="109" y2="11" stroke="#666" stroke-width="0.8"/>
    <line x1="120" y1="16" x2="109" y2="19" stroke="#666" stroke-width="0.8"/>
  </g>
  <g transform="translate(128,0)">
    <line x1="0" y1="22" x2="128" y2="22" stroke="#666" stroke-width="1"/>
    <rect x="50" y="18" width="28" height="4" fill="#666"/>
    <line x1="50" y1="18" x2="78" y2="18" stroke="#888" stroke-width="1"/>
    <line x1="70" y1="8" x2="70" y2="18" stroke="#666" stroke-width="1"/>
    <circle cx="70" cy="7" r="1.2" fill="#888"/>
    <rect x="0" y="11" width="10" height="9" fill="#666"/>
    <rect x="10" y="12" width="8" height="8" fill="#888"/>
    <rect x="6" y="8" width="3" height="4" fill="#888"/>
    <circle cx="17" cy="15" r="1.5" fill="#fff"/>
    <line x1="18" y1="14" x2="29" y2="11" stroke="#666" stroke-width="0.8"/>
    <line x1="18" y1="16" x2="29" y2="19" stroke="#666" stroke-width="0.8"/>
    <circle cx="8" cy="20" r="1.8" fill="#888"/>
    <rect x="118" y="11" width="10" height="9" fill="#666"/>
    <rect x="110" y="12" width="8" height="8" fill="#888"/>
    <rect x="120" y="8" width="3" height="4" fill="#888"/>
    <circle cx="111" cy="15" r="1.5" fill="#fff"/>
    <line x1="110" y1="14" x2="99" y2="11" stroke="#666" stroke-width="0.8"/>
    <line x1="110" y1="16" x2="99" y2="19" stroke="#666" stroke-width="0.8"/>
    <circle cx="120" cy="20" r="1.8" fill="#888"/>
  </g>
  <g transform="translate(256,0)">
    <line x1="0" y1="22" x2="128" y2="22" stroke="#666" stroke-width="1"/>
    <rect x="50" y="18" width="28" height="4" fill="#666"/>
    <line x1="50" y1="18" x2="78" y2="18" stroke="#888" stroke-width="1"/>
    <line x1="70" y1="8" x2="70" y2="18" stroke="#666" stroke-width="1"/>
    <circle cx="70" cy="7" r="1.2" fill="#888"/>
    <rect x="0" y="11" width="20" height="9" fill="#666"/>
    <rect x="20" y="12" width="8" height="8" fill="#888"/>
    <rect x="16" y="8" width="3" height="4" fill="#888"/>
    <circle cx="27" cy="15" r="1.5" fill="#fff"/>
    <line x1="28" y1="14" x2="39" y2="11" stroke="#666" stroke-width="0.8"/>
    <line x1="28" y1="16" x2="39" y2="19" stroke="#666" stroke-width="0.8"/>
    <circle cx="18" cy="20" r="1.8" fill="#888"/>
    <circle cx="10" cy="20" r="1.8" fill="#888"/>
    <circle cx="17.5" cy="4.4" r="2.2" fill="#888"/>
    <circle cx="13.5" cy="4.5" r="1" fill="#666"/>
    <rect x="108" y="11" width="20" height="9" fill="#666"/>
    <rect x="100" y="12" width="8" height="8" fill="#888"/>
    <rect x="110" y="8" width="3" height="4" fill="#888"/>
    <circle cx="101" cy="15" r="1.5" fill="#fff"/>
    <line x1="100" y1="14" x2="89" y2="11" stroke="#666" stroke-width="0.8"/>
    <line x1="100" y1="16" x2="89" y2="19" stroke="#666" stroke-width="0.8"/>
    <circle cx="110" cy="20" r="1.8" fill="#888"/>
    <circle cx="118" cy="20" r="1.8" fill="#888"/>
    <circle cx="111.5" cy="4.4" r="2.2" fill="#888"/>
    <circle cx="115.5" cy="4.5" r="1" fill="#666"/>
  </g>
  <g transform="translate(384,0)">
    <line x1="55" y1="1" x2="73" y2="1" stroke="#666" stroke-width="1"/>
    <line x1="0" y1="22" x2="128" y2="22" stroke="#666" stroke-width="1"/>
    <rect x="50" y="18" width="28" height="4" fill="#666"/>
    <line x1="50" y1="18" x2="78" y2="18" stroke="#888" stroke-width="1"/>
    <line x1="70" y1="8" x2="70" y2="18" stroke="#666" stroke-width="1"/>
    <circle cx="70" cy="7" r="1.2" fill="#888"/>
    <rect x="0" y="11" width="28" height="9" fill="#666"/>
    <rect x="0" y="8" width="8" height="3" fill="#666"/>
    <rect x="2" y="9" width="3" height="2" fill="#fff"/>
    <rect x="28" y="12" width="8" height="8" fill="#888"/>
    <rect x="24" y="8" width="3" height="4" fill="#888"/>
    <circle cx="35" cy="15" r="1.5" fill="#fff"/>
    <line x1="36" y1="14" x2="47" y2="11" stroke="#666" stroke-width="0.8"/>
    <line x1="36" y1="16" x2="47" y2="19" stroke="#666" stroke-width="0.8"/>
    <circle cx="26" cy="20" r="1.8" fill="#888"/>
    <circle cx="18" cy="20" r="1.8" fill="#888"/>
    <circle cx="10" cy="20" r="1.8" fill="#888"/>
    <circle cx="25.5" cy="6" r="1.4" fill="#888"/>
    <circle cx="21.5" cy="4.5" r="1" fill="#666"/>
    <rect x="100" y="11" width="28" height="9" fill="#666"/>
    <rect x="120" y="8" width="8" height="3" fill="#666"/>
    <rect x="122" y="9" width="3" height="2" fill="#fff"/>
    <rect x="92" y="12" width="8" height="8" fill="#888"/>
    <rect x="102" y="8" width="3" height="4" fill="#888"/>
    <circle cx="93" cy="15" r="1.5" fill="#fff"/>
    <line x1="92" y1="14" x2="81" y2="11" stroke="#666" stroke-width="0.8"/>
    <line x1="92" y1="16" x2="81" y2="19" stroke="#666" stroke-width="0.8"/>
    <circle cx="102" cy="20" r="1.8" fill="#888"/>
    <circle cx="110" cy="20" r="1.8" fill="#888"/>
    <circle cx="118" cy="20" r="1.8" fill="#888"/>
    <circle cx="103.5" cy="6" r="1.4" fill="#888"/>
    <circle cx="107.5" cy="4.5" r="1" fill="#666"/>
  </g>
  <g transform="translate(512,0)">
    <line x1="46" y1="1" x2="82" y2="1" stroke="#666" stroke-width="1"/>
    <line x1="0" y1="22" x2="128" y2="22" stroke="#666" stroke-width="1"/>
    <rect x="50" y="18" width="28" height="4" fill="#666"/>
    <line x1="50" y1="18" x2="78" y2="18" stroke="#888" stroke-width="1"/>
    <line x1="70" y1="8" x2="70" y2="18" stroke="#666" stroke-width="1"/>
    <circle cx="70" cy="7" r="1.2" fill="#fff"/>
    <rect x="6" y="11" width="28" height="9" fill="#666"/>
    <rect x="6" y="8" width="8" height="3" fill="#666"/>
    <rect x="8" y="9" width="3" height="2" fill="#fff"/>
    <rect x="34" y="12" width="8" height="8" fill="#888"/>
    <rect x="30" y="8" width="3" height="4" fill="#888"/>
    <circle cx="41" cy="15" r="1.5" fill="#fff"/>
    <line x1="42" y1="14" x2="53" y2="11" stroke="#666" stroke-width="0.8"/>
    <line x1="42" y1="16" x2="53" y2="19" stroke="#666" stroke-width="0.8"/>
    <circle cx="32" cy="20" r="1.8" fill="#888"/>
    <circle cx="24" cy="20" r="1.8" fill="#888"/>
    <circle cx="16" cy="20" r="1.8" fill="#888"/>
    <circle cx="31.5" cy="5.2" r="1.8" fill="#888"/>
    <circle cx="27.5" cy="4.5" r="1" fill="#666"/>
    <rect x="94" y="11" width="28" height="9" fill="#666"/>
    <rect x="114" y="8" width="8" height="3" fill="#666"/>
    <rect x="116" y="9" width="3" height="2" fill="#fff"/>
    <rect x="86" y="12" width="8" height="8" fill="#888"/>
    <rect x="96" y="8" width="3" height="4" fill="#888"/>
    <circle cx="87" cy="15" r="1.5" fill="#fff"/>
    <line x1="86" y1="14" x2="75" y2="11" stroke="#666" stroke-width="0.8"/>
    <line x1="86" y1="16" x2="75" y2="19" stroke="#666" stroke-width="0.8"/>
    <circle cx="96" cy="20" r="1.8" fill="#888"/>
    <circle cx="104" cy="20" r="1.8" fill="#888"/>
    <circle cx="112" cy="20" r="1.8" fill="#888"/>
    <circle cx="97.5" cy="5.2" r="1.8" fill="#888"/>
    <circle cx="101.5" cy="4.5" r="1" fill="#666"/>
  </g>
  <g transform="translate(640,0)">
    <line x1="37" y1="1" x2="91" y2="1" stroke="#666" stroke-width="1"/>
    <line x1="0" y1="22" x2="128" y2="22" stroke="#666" stroke-width="1"/>
    <rect x="50" y="18" width="28" height="4" fill="#666"/>
    <line x1="50" y1="18" x2="78" y2="18" stroke="#888" stroke-width="1"/>
    <line x1="70" y1="8" x2="70" y2="18" stroke="#666" stroke-width="1"/>
    <circle cx="70" cy="7" r="1.2" fill="#fff"/>
    <rect x="10" y="11" width="28" height="9" fill="#666"/>
    <rect x="10" y="8" width="8" height="3" fill="#666"/>
    <rect x="12" y="9" width="3" height="2" fill="#fff"/>
    <rect x="38" y="12" width="8" height="8" fill="#888"/>
    <rect x="34" y="8" width="3" height="4" fill="#888"/>
    <circle cx="45" cy="15" r="1.5" fill="#fff"/>
    <circle cx="36" cy="20" r="1.8" fill="#888"/>
    <circle cx="28" cy="20" r="1.8" fill="#888"/>
    <circle cx="20" cy="20" r="1.8" fill="#888"/>
    <circle cx="35.5" cy="4.4" r="2.2" fill="#888"/>
    <circle cx="31.5" cy="4.5" r="1" fill="#666"/>
    <circle cx="35.5" cy="5" r="2.4" fill="#fff"/>
    <circle cx="30.5" cy="4" r="1.6" fill="#888"/>
    <circle cx="38.5" cy="3" r="1.2" fill="#666"/>
    <rect x="90" y="11" width="28" height="9" fill="#666"/>
    <rect x="110" y="8" width="8" height="3" fill="#666"/>
    <rect x="112" y="9" width="3" height="2" fill="#fff"/>
    <rect x="82" y="12" width="8" height="8" fill="#888"/>
    <rect x="92" y="8" width="3" height="4" fill="#888"/>
    <circle cx="83" cy="15" r="1.5" fill="#fff"/>
    <circle cx="92" cy="20" r="1.8" fill="#888"/>
    <circle cx="100" cy="20" r="1.8" fill="#888"/>
    <circle cx="108" cy="20" r="1.8" fill="#888"/>
    <circle cx="93.5" cy="4.4" r="2.2" fill="#888"/>
    <circle cx="97.5" cy="4.5" r="1" fill="#666"/>
    <circle cx="93.5" cy="5" r="2.4" fill="#fff"/>
    <circle cx="98.5" cy="4" r="1.6" fill="#888"/>
    <circle cx="90.5" cy="3" r="1.2" fill="#666"/>
    <rect x="57" y="14" width="2" height="4" fill="#888"/>
    <circle cx="58" cy="13" r="1" fill="#888"/>
    <circle cx="55" cy="12.5" r="0.8" fill="#888"/>
  </g>
  <g transform="translate(768,0)">
    <line x1="28" y1="1" x2="100" y2="1" stroke="#666" stroke-width="1"/>
    <line x1="36" y1="2.5" x2="92" y2="2.5" stroke="#666" stroke-width="0.8"/>
    <line x1="0" y1="22" x2="128" y2="22" stroke="#666" stroke-width="1"/>
    <rect x="50" y="18" width="28" height="4" fill="#666"/>
    <line x1="50" y1="18" x2="78" y2="18" stroke="#888" stroke-width="1"/>
    <line x1="70" y1="8" x2="70" y2="18" stroke="#666" stroke-width="1"/>
    <circle cx="70" cy="7" r="1.2" fill="#fff"/>
    <rect x="10" y="11" width="28" height="9" fill="#666"/>
    <rect x="10" y="8" width="8" height="3" fill="#666"/>
    <rect x="12" y="9" width="3" height="2" fill="#fff"/>
    <rect x="38" y="12" width="8" height="8" fill="#888"/>
    <rect x="34" y="8" width="3" height="4" fill="#888"/>
    <circle cx="45" cy="15" r="1.5" fill="#fff"/>
    <circle cx="36" cy="20" r="1.8" fill="#888"/>
    <circle cx="28" cy="20" r="1.8" fill="#888"/>
    <circle cx="20" cy="20" r="1.8" fill="#888"/>
    <circle cx="35.5" cy="6" r="1.4" fill="#888"/>
    <circle cx="31.5" cy="4.5" r="1" fill="#666"/>
    <rect x="90" y="11" width="28" height="9" fill="#666"/>
    <rect x="110" y="8" width="8" height="3" fill="#666"/>
    <rect x="112" y="9" width="3" height="2" fill="#fff"/>
    <rect x="82" y="12" width="8" height="8" fill="#888"/>
    <rect x="92" y="8" width="3" height="4" fill="#888"/>
    <circle cx="83" cy="15" r="1.5" fill="#fff"/>
    <circle cx="92" cy="20" r="1.8" fill="#888"/>
    <circle cx="100" cy="20" r="1.8" fill="#888"/>
    <circle cx="108" cy="20" r="1.8" fill="#888"/>
    <circle cx="93.5" cy="6" r="1.4" fill="#888"/>
    <circle cx="97.5" cy="4.5" r="1" fill="#666"/>
    <rect x="57" y="14" width="2" height="4" fill="#888"/>
    <circle cx="58" cy="13" r="1" fill="#888"/>
    <line x1="56" y1="14.5" x2="56" y2="11" stroke="#666" stroke-width="0.8"/>
    <rect x="53.5" y="10.5" width="2.5" height="2" fill="#fff"/>
  </g>
  <g transform="translate(896,0)">
    <line x1="19" y1="1" x2="109" y2="1" stroke="#666" stroke-width="1"/>
    <line x1="27" y1="2.5" x2="101" y2="2.5" stroke="#666" stroke-width="0.8"/>
    <circle cx="64" cy="1" r="1.5" fill="#888"/>
    <line x1="0" y1="22" x2="128" y2="22" stroke="#666" stroke-width="1"/>
    <rect x="50" y="18" width="28" height="4" fill="#666"/>
    <line x1="50" y1="18" x2="78" y2="18" stroke="#888" stroke-width="1"/>
    <line x1="70" y1="8" x2="70" y2="18" stroke="#666" stroke-width="1"/>
    <circle cx="70" cy="7" r="1.2" fill="#fff"/>
    <rect x="10" y="11" width="28" height="9" fill="#666"/>
    <rect x="10" y="8" width="8" height="3" fill="#666"/>
    <rect x="12" y="9" width="3" height="2" fill="#fff"/>
    <rect x="38" y="12" width="8" height="8" fill="#888"/>
    <rect x="34" y="8" width="3" height="4" fill="#888"/>
    <circle cx="45" cy="15" r="1.5" fill="#fff"/>
    <circle cx="36" cy="20" r="1.8" fill="#888"/>
    <circle cx="28" cy="20" r="1.8" fill="#888"/>
    <circle cx="20" cy="20" r="1.8" fill="#888"/>
    <circle cx="35.5" cy="5.2" r="1.8" fill="#888"/>
    <circle cx="31.5" cy="4.5" r="1" fill="#666"/>
    <rect x="90" y="11" width="28" height="9" fill="#666"/>
    <rect x="110" y="8" width="8" height="3" fill="#666"/>
    <rect x="112" y="9" width="3" height="2" fill="#fff"/>
    <rect x="82" y="12" width="8" height="8" fill="#888"/>
    <rect x="92" y="8" width="3" height="4" fill="#888"/>
    <circle cx="83" cy="15" r="1.5" fill="#fff"/>
    <circle cx="92" cy="20" r="1.8" fill="#888"/>
    <circle cx="100" cy="20" r="1.8" fill="#888"/>
    <circle cx="108" cy="20" r="1.8" fill="#888"/>
    <circle cx="93.5" cy="5.2" r="1.8" fill="#888"/>
    <circle cx="97.5" cy="4.5" r="1" fill="#666"/>
    <rect x="57" y="14" width="2" height="4" fill="#888"/>
    <circle cx="58" cy="13" r="1" fill="#888"/>
    <line x1="56" y1="14.5" x2="56" y2="11" stroke="#666" stroke-width="0.8"/>
    <rect x="54" y="11" width="2.5" height="2" fill="#fff"/>
  </g>
</svg>
