<svg xmlns="http://www.w3.org/2000/svg" viewBox="0 0 1024 32" width="1024" height="32">
  <!-- TIDEBREAKER DMD scene: THE CURRENT — a fish is swept the length of the
       loop on the flow, undulating past drifting bubbles. The combo twin of
       Moondial's ORBIT comet sweep. 8 frames of 128x32 (style guide §6):
       #fff=3, #888=2, #666=1, black=0. Art rows 0..22; caption from row 24. -->
  <rect width="1024" height="32" fill="#000"/>

  <g transform="translate(0,0)">
    <line x1="6" y1="7" x2="30" y2="7" stroke="#666" stroke-width="0.8"/>
    <line x1="80" y1="21" x2="104" y2="21" stroke="#666" stroke-width="0.8"/>
    <polygon points="10,15 4,12.5 4,17.5" fill="#888"/>
    <ellipse cx="14" cy="15" rx="4" ry="2.4" fill="#fff"/>
    <circle cx="16" cy="14.4" r="0.5" fill="#666"/>
  </g>
  <g transform="translate(128,0)">
    <line x1="20" y1="7" x2="44" y2="7" stroke="#666" stroke-width="0.8"/>
    <line x1="92" y1="21" x2="116" y2="21" stroke="#666" stroke-width="0.8"/>
    <circle cx="18" cy="11" r="0.8" fill="#666"/>
    <polygon points="24,14 18,11.5 18,16.5" fill="#888"/>
    <ellipse cx="28" cy="14" rx="4" ry="2.4" fill="#fff"/>
    <circle cx="30" cy="13.4" r="0.5" fill="#666"/>
  </g>
  <g transform="translate(256,0)">
    <line x1="34" y1="8" x2="58" y2="8" stroke="#666" stroke-width="0.8"/>
    <line x1="6" y1="23" x2="30" y2="23" stroke="#666" stroke-width="0.8"/>
    <circle cx="32" cy="13" r="0.8" fill="#666"/><circle cx="30" cy="18" r="0.8" fill="#666"/>
    <polygon points="39,16 33,13.5 33,18.5" fill="#888"/>
    <ellipse cx="43" cy="16" rx="4" ry="2.4" fill="#fff"/>
    <circle cx="45" cy="15.4" r="0.5" fill="#666"/>
  </g>
  <g transform="translate(384,0)">
    <line x1="50" y1="7" x2="74" y2="7" stroke="#666" stroke-width="0.8"/>
    <line x1="20" y1="22" x2="44" y2="22" stroke="#666" stroke-width="0.8"/>
    <circle cx="47" cy="12" r="0.8" fill="#666"/>
    <polygon points="54,15 48,12.5 48,17.5" fill="#888"/>
    <ellipse cx="58" cy="15" rx="4" ry="2.4" fill="#fff"/>
    <circle cx="60" cy="14.4" r="0.5" fill="#666"/>
  </g>
  <g transform="translate(512,0)">
    <line x1="66" y1="9" x2="90" y2="9" stroke="#666" stroke-width="0.8"/>
    <line x1="34" y1="23" x2="58" y2="23" stroke="#666" stroke-width="0.8"/>
    <circle cx="62" cy="14" r="0.8" fill="#666"/><circle cx="60" cy="19" r="0.8" fill="#666"/>
    <polygon points="69,17 63,14.5 63,19.5" fill="#888"/>
    <ellipse cx="73" cy="17" rx="4" ry="2.4" fill="#fff"/>
    <circle cx="75" cy="16.4" r="0.5" fill="#666"/>
  </g>
  <g transform="translate(640,0)">
    <line x1="82" y1="7" x2="106" y2="7" stroke="#666" stroke-width="0.8"/>
    <line x1="50" y1="22" x2="74" y2="22" stroke="#666" stroke-width="0.8"/>
    <circle cx="77" cy="12" r="0.8" fill="#666"/>
    <polygon points="84,15 78,12.5 78,17.5" fill="#888"/>
    <ellipse cx="88" cy="15" rx="4" ry="2.4" fill="#fff"/>
    <circle cx="90" cy="14.4" r="0.5" fill="#666"/>
  </g>
  <g transform="translate(768,0)">
    <line x1="98" y1="8" x2="122" y2="8" stroke="#666" stroke-width="0.8"/>
    <line x1="66" y1="23" x2="90" y2="23" stroke="#666" stroke-width="0.8"/>
    <circle cx="92" cy="13" r="0.8" fill="#666"/><circle cx="90" cy="18" r="0.8" fill="#666"/>
    <polygon points="99,16 93,13.5 93,18.5" fill="#888"/>
    <ellipse cx="103" cy="16" rx="4" ry="2.4" fill="#fff"/>
    <circle cx="105" cy="15.4" r="0.5" fill="#666"/>
  </g>
  <g transform="translate(896,0)">
    <line x1="90" y1="7" x2="118" y2="7" stroke="#666" stroke-width="0.8"/>
    <line x1="82" y1="22" x2="106" y2="22" stroke="#666" stroke-width="0.8"/>
    <circle cx="107" cy="11" r="0.8" fill="#666"/>
    <polygon points="113,15 107,12.5 107,17.5" fill="#888"/>
    <ellipse cx="117" cy="15" rx="4" ry="2.4" fill="#fff"/>
    <circle cx="119" cy="14.4" r="0.5" fill="#666"/>
  </g>
</svg>
