<svg xmlns="http://www.w3.org/2000/svg" viewBox="0 0 1152 32" width="1152" height="32">
  <!-- SMALL HOURS DMD scene: DAWN — the sun climbs over the skyline, rays
       spread, the windows of the waking city light up. THE DAWN CHORUS +
       the attract closer. 9 frames of 128x32 (style guide §6). Art rows
       0..22; caption renders from row 24. -->
  <rect width="1152" height="32" fill="#000"/>
  <g transform="translate(0,0)">
    <circle cx="64" cy="24.0" r="6" fill="#888"/>
    <rect x="0" y="18" width="128" height="5" fill="#000"/>
    <rect x="2" y="18" width="30" height="5" fill="#666"/>
    <rect x="38" y="16" width="22" height="7" fill="#666"/>
    <rect x="66" y="19" width="28" height="4" fill="#666"/>
    <rect x="100" y="17" width="26" height="6" fill="#666"/>
    <line x1="50" y1="16" x2="50" y2="12" stroke="#888" stroke-width="1"/>
    <circle cx="50" cy="11" r="0.9" fill="#888"/>
  </g>
  <g transform="translate(128,0)">
    <circle cx="64" cy="22.2" r="6" fill="#888"/>
    <rect x="0" y="18" width="128" height="5" fill="#000"/>
    <rect x="2" y="18" width="30" height="5" fill="#666"/>
    <rect x="38" y="16" width="22" height="7" fill="#666"/>
    <rect x="66" y="19" width="28" height="4" fill="#666"/>
    <rect x="100" y="17" width="26" height="6" fill="#666"/>
    <line x1="50" y1="16" x2="50" y2="12" stroke="#888" stroke-width="1"/>
    <circle cx="50" cy="11" r="0.9" fill="#888"/>
    <circle cx="102.26623943553597" cy="20.70031321151197" r="0.6" fill="#fff"/>
    <circle cx="22.77903939167924" cy="18.661127790883707" r="0.6" fill="#888"/>
  </g>
  <g transform="translate(256,0)">
    <circle cx="64" cy="20.4" r="6" fill="#888"/>
    <rect x="0" y="18" width="128" height="5" fill="#000"/>
    <rect x="2" y="18" width="30" height="5" fill="#666"/>
    <rect x="38" y="16" width="22" height="7" fill="#666"/>
    <rect x="66" y="19" width="28" height="4" fill="#666"/>
    <rect x="100" y="17" width="26" height="6" fill="#666"/>
    <line x1="50" y1="16" x2="50" y2="12" stroke="#888" stroke-width="1"/>
    <circle cx="50" cy="11" r="0.9" fill="#888"/>
    <circle cx="102.26623943553597" cy="20.70031321151197" r="0.6" fill="#fff"/>
    <circle cx="22.77903939167924" cy="18.661127790883707" r="0.6" fill="#888"/>
    <circle cx="57.1622910747129" cy="21.788704903465092" r="0.6" fill="#888"/>
    <circle cx="92.80188946090726" cy="19.645799756583664" r="0.6" fill="#fff"/>
  </g>
  <g transform="translate(384,0)">
    <circle cx="64" cy="18.6" r="6" fill="#fff"/>
    <line x1="71.5" y1="21.4" x2="74.3" y2="22.5" stroke="#666" stroke-width="1"/>
    <line x1="67.3" y1="25.9" x2="68.5" y2="28.6" stroke="#666" stroke-width="1"/>
    <line x1="61.2" y1="26.1" x2="60.1" y2="28.9" stroke="#666" stroke-width="1"/>
    <line x1="56.7" y1="21.9" x2="54.0" y2="23.1" stroke="#666" stroke-width="1"/>
    <line x1="56.5" y1="15.8" x2="53.7" y2="14.7" stroke="#666" stroke-width="1"/>
    <line x1="60.7" y1="11.3" x2="59.5" y2="8.6" stroke="#666" stroke-width="1"/>
    <line x1="66.8" y1="11.1" x2="67.9" y2="8.3" stroke="#666" stroke-width="1"/>
    <line x1="71.3" y1="15.3" x2="74.0" y2="14.1" stroke="#666" stroke-width="1"/>
    <rect x="0" y="18" width="128" height="5" fill="#000"/>
    <rect x="2" y="18" width="30" height="5" fill="#666"/>
    <rect x="38" y="16" width="22" height="7" fill="#666"/>
    <rect x="66" y="19" width="28" height="4" fill="#666"/>
    <rect x="100" y="17" width="26" height="6" fill="#666"/>
    <line x1="50" y1="16" x2="50" y2="12" stroke="#888" stroke-width="1"/>
    <circle cx="50" cy="11" r="0.9" fill="#888"/>
    <circle cx="102.26623943553597" cy="20.70031321151197" r="0.6" fill="#fff"/>
    <circle cx="22.77903939167924" cy="18.661127790883707" r="0.6" fill="#888"/>
    <circle cx="57.1622910747129" cy="21.788704903465092" r="0.6" fill="#888"/>
    <circle cx="92.80188946090726" cy="19.645799756583664" r="0.6" fill="#fff"/>
    <circle cx="38.92333413796655" cy="21.11128723742966" r="0.6" fill="#888"/>
    <circle cx="63.510965375001994" cy="19.24089062248398" r="0.6" fill="#888"/>
  </g>
  <g transform="translate(512,0)">
    <circle cx="64" cy="16.8" r="6" fill="#fff"/>
    <line x1="71.8" y1="20.9" x2="75.0" y2="22.5" stroke="#666" stroke-width="1"/>
    <line x1="66.6" y1="25.2" x2="67.7" y2="28.6" stroke="#666" stroke-width="1"/>
    <line x1="59.9" y1="24.6" x2="58.3" y2="27.8" stroke="#666" stroke-width="1"/>
    <line x1="55.6" y1="19.4" x2="52.2" y2="20.5" stroke="#666" stroke-width="1"/>
    <line x1="56.2" y1="12.7" x2="53.0" y2="11.1" stroke="#666" stroke-width="1"/>
    <line x1="61.4" y1="8.4" x2="60.3" y2="5.0" stroke="#666" stroke-width="1"/>
    <line x1="68.1" y1="9.0" x2="69.7" y2="5.8" stroke="#666" stroke-width="1"/>
    <line x1="72.4" y1="14.2" x2="75.8" y2="13.1" stroke="#666" stroke-width="1"/>
    <rect x="0" y="18" width="128" height="5" fill="#000"/>
    <rect x="2" y="18" width="30" height="5" fill="#666"/>
    <rect x="38" y="16" width="22" height="7" fill="#666"/>
    <rect x="66" y="19" width="28" height="4" fill="#666"/>
    <rect x="100" y="17" width="26" height="6" fill="#666"/>
    <line x1="50" y1="16" x2="50" y2="12" stroke="#888" stroke-width="1"/>
    <circle cx="50" cy="11" r="0.9" fill="#888"/>
    <circle cx="102.26623943553597" cy="20.70031321151197" r="0.6" fill="#fff"/>
    <circle cx="22.77903939167924" cy="18.661127790883707" r="0.6" fill="#888"/>
    <circle cx="57.1622910747129" cy="21.788704903465092" r="0.6" fill="#888"/>
    <circle cx="92.80188946090726" cy="19.645799756583664" r="0.6" fill="#fff"/>
    <circle cx="38.92333413796655" cy="21.11128723742966" r="0.6" fill="#888"/>
    <circle cx="63.510965375001994" cy="19.24089062248398" r="0.6" fill="#888"/>
    <circle cx="17.985685116604756" cy="18.813742786791988" r="0.6" fill="#fff"/>
    <circle cx="23.629989871582943" cy="21.77835983190609" r="0.6" fill="#888"/>
  </g>
  <g transform="translate(640,0)">
    <circle cx="64" cy="15.0" r="6" fill="#fff"/>
    <line x1="71.9" y1="20.4" x2="75.4" y2="22.8" stroke="#666" stroke-width="1"/>
    <line x1="65.8" y1="24.4" x2="66.5" y2="28.6" stroke="#666" stroke-width="1"/>
    <line x1="58.6" y1="22.9" x2="56.2" y2="26.4" stroke="#666" stroke-width="1"/>
    <line x1="54.6" y1="16.8" x2="50.4" y2="17.5" stroke="#666" stroke-width="1"/>
    <line x1="56.1" y1="9.6" x2="52.6" y2="7.2" stroke="#666" stroke-width="1"/>
    <line x1="62.2" y1="5.6" x2="61.5" y2="1.4" stroke="#666" stroke-width="1"/>
    <line x1="69.4" y1="7.1" x2="71.8" y2="3.6" stroke="#666" stroke-width="1"/>
    <line x1="73.4" y1="13.2" x2="77.6" y2="12.5" stroke="#666" stroke-width="1"/>
    <rect x="0" y="18" width="128" height="5" fill="#000"/>
    <rect x="2" y="18" width="30" height="5" fill="#666"/>
    <rect x="38" y="16" width="22" height="7" fill="#666"/>
    <rect x="66" y="19" width="28" height="4" fill="#666"/>
    <rect x="100" y="17" width="26" height="6" fill="#666"/>
    <line x1="50" y1="16" x2="50" y2="12" stroke="#888" stroke-width="1"/>
    <circle cx="50" cy="11" r="0.9" fill="#fff"/>
    <circle cx="102.26623943553597" cy="20.70031321151197" r="0.6" fill="#fff"/>
    <circle cx="22.77903939167924" cy="18.661127790883707" r="0.6" fill="#888"/>
    <circle cx="57.1622910747129" cy="21.788704903465092" r="0.6" fill="#888"/>
    <circle cx="92.80188946090726" cy="19.645799756583664" r="0.6" fill="#fff"/>
    <circle cx="38.92333413796655" cy="21.11128723742966" r="0.6" fill="#888"/>
    <circle cx="63.510965375001994" cy="19.24089062248398" r="0.6" fill="#888"/>
    <circle cx="17.985685116604756" cy="18.813742786791988" r="0.6" fill="#fff"/>
    <circle cx="23.629989871582943" cy="21.77835983190609" r="0.6" fill="#888"/>
    <circle cx="52.665041946184374" cy="19.117527902413872" r="0.6" fill="#888"/>
    <circle cx="62.60366704808719" cy="21.135345698630132" r="0.6" fill="#fff"/>
  </g>
  <g transform="translate(768,0)">
    <circle cx="64" cy="13.2" r="6" fill="#fff"/>
    <line x1="71.8" y1="20.1" x2="75.4" y2="23.2" stroke="#888" stroke-width="1"/>
    <line x1="64.7" y1="23.6" x2="65.0" y2="28.4" stroke="#888" stroke-width="1"/>
    <line x1="57.1" y1="21.0" x2="54.0" y2="24.6" stroke="#888" stroke-width="1"/>
    <line x1="53.6" y1="13.9" x2="48.8" y2="14.2" stroke="#888" stroke-width="1"/>
    <line x1="56.2" y1="6.3" x2="52.6" y2="3.2" stroke="#888" stroke-width="1"/>
    <line x1="63.3" y1="2.8" x2="63.0" y2="-2.0" stroke="#888" stroke-width="1"/>
    <line x1="70.9" y1="5.4" x2="74.0" y2="1.8" stroke="#888" stroke-width="1"/>
    <line x1="74.4" y1="12.5" x2="79.2" y2="12.2" stroke="#888" stroke-width="1"/>
    <rect x="0" y="18" width="128" height="5" fill="#000"/>
    <rect x="2" y="18" width="30" height="5" fill="#666"/>
    <rect x="38" y="16" width="22" height="7" fill="#666"/>
    <rect x="66" y="19" width="28" height="4" fill="#666"/>
    <rect x="100" y="17" width="26" height="6" fill="#666"/>
    <line x1="50" y1="16" x2="50" y2="12" stroke="#888" stroke-width="1"/>
    <circle cx="50" cy="11" r="0.9" fill="#fff"/>
    <circle cx="102.26623943553597" cy="20.70031321151197" r="0.6" fill="#fff"/>
    <circle cx="22.77903939167924" cy="18.661127790883707" r="0.6" fill="#888"/>
    <circle cx="57.1622910747129" cy="21.788704903465092" r="0.6" fill="#888"/>
    <circle cx="92.80188946090726" cy="19.645799756583664" r="0.6" fill="#fff"/>
    <circle cx="38.92333413796655" cy="21.11128723742966" r="0.6" fill="#888"/>
    <circle cx="63.510965375001994" cy="19.24089062248398" r="0.6" fill="#888"/>
    <circle cx="17.985685116604756" cy="18.813742786791988" r="0.6" fill="#fff"/>
    <circle cx="23.629989871582943" cy="21.77835983190609" r="0.6" fill="#888"/>
    <circle cx="52.665041946184374" cy="19.117527902413872" r="0.6" fill="#888"/>
    <circle cx="62.60366704808719" cy="21.135345698630132" r="0.6" fill="#fff"/>
    <circle cx="53.00583269493926" cy="19.888427973440116" r="0.6" fill="#888"/>
    <circle cx="91.8461647442757" cy="20.97769188996297" r="0.6" fill="#888"/>
  </g>
  <g transform="translate(896,0)">
    <circle cx="64" cy="11.4" r="6" fill="#fff"/>
    <line x1="71.5" y1="19.7" x2="75.1" y2="23.8" stroke="#888" stroke-width="1"/>
    <line x1="63.4" y1="22.6" x2="63.1" y2="28.0" stroke="#888" stroke-width="1"/>
    <line x1="55.7" y1="18.9" x2="51.6" y2="22.5" stroke="#888" stroke-width="1"/>
    <line x1="52.8" y1="10.8" x2="47.4" y2="10.5" stroke="#888" stroke-width="1"/>
    <line x1="56.5" y1="3.1" x2="52.9" y2="-1.0" stroke="#888" stroke-width="1"/>
    <line x1="64.6" y1="0.2" x2="64.9" y2="-5.2" stroke="#888" stroke-width="1"/>
    <line x1="72.3" y1="3.9" x2="76.4" y2="0.3" stroke="#888" stroke-width="1"/>
    <line x1="75.2" y1="12.0" x2="80.6" y2="12.3" stroke="#888" stroke-width="1"/>
    <rect x="0" y="18" width="128" height="5" fill="#000"/>
    <rect x="2" y="18" width="30" height="5" fill="#666"/>
    <rect x="38" y="16" width="22" height="7" fill="#666"/>
    <rect x="66" y="19" width="28" height="4" fill="#666"/>
    <rect x="100" y="17" width="26" height="6" fill="#666"/>
    <line x1="50" y1="16" x2="50" y2="12" stroke="#888" stroke-width="1"/>
    <circle cx="50" cy="11" r="0.9" fill="#fff"/>
    <circle cx="102.26623943553597" cy="20.70031321151197" r="0.6" fill="#fff"/>
    <circle cx="22.77903939167924" cy="18.661127790883707" r="0.6" fill="#888"/>
    <circle cx="57.1622910747129" cy="21.788704903465092" r="0.6" fill="#888"/>
    <circle cx="92.80188946090726" cy="19.645799756583664" r="0.6" fill="#fff"/>
    <circle cx="38.92333413796655" cy="21.11128723742966" r="0.6" fill="#888"/>
    <circle cx="63.510965375001994" cy="19.24089062248398" r="0.6" fill="#888"/>
    <circle cx="17.985685116604756" cy="18.813742786791988" r="0.6" fill="#fff"/>
    <circle cx="23.629989871582943" cy="21.77835983190609" r="0.6" fill="#888"/>
    <circle cx="52.665041946184374" cy="19.117527902413872" r="0.6" fill="#888"/>
    <circle cx="62.60366704808719" cy="21.135345698630132" r="0.6" fill="#fff"/>
    <circle cx="53.00583269493926" cy="19.888427973440116" r="0.6" fill="#888"/>
    <circle cx="91.8461647442757" cy="20.97769188996297" r="0.6" fill="#888"/>
    <circle cx="11.331027988032917" cy="21.491028176150763" r="0.6" fill="#fff"/>
    <circle cx="74.96971991982764" cy="21.662887395901087" r="0.6" fill="#888"/>
  </g>
  <g transform="translate(1024,0)">
    <circle cx="64" cy="9.6" r="6" fill="#fff"/>
    <line x1="70.9" y1="19.4" x2="74.3" y2="24.3" stroke="#888" stroke-width="1"/>
    <line x1="61.9" y1="21.4" x2="60.9" y2="27.3" stroke="#888" stroke-width="1"/>
    <line x1="54.2" y1="16.5" x2="49.3" y2="19.9" stroke="#888" stroke-width="1"/>
    <line x1="52.2" y1="7.5" x2="46.3" y2="6.5" stroke="#888" stroke-width="1"/>
    <line x1="57.1" y1="-0.2" x2="53.7" y2="-5.1" stroke="#888" stroke-width="1"/>
    <line x1="66.1" y1="-2.2" x2="67.1" y2="-8.1" stroke="#888" stroke-width="1"/>
    <line x1="73.8" y1="2.7" x2="78.7" y2="-0.7" stroke="#888" stroke-width="1"/>
    <line x1="75.8" y1="11.7" x2="81.7" y2="12.7" stroke="#888" stroke-width="1"/>
    <rect x="0" y="18" width="128" height="5" fill="#000"/>
    <rect x="2" y="18" width="30" height="5" fill="#666"/>
    <rect x="38" y="16" width="22" height="7" fill="#666"/>
    <rect x="66" y="19" width="28" height="4" fill="#666"/>
    <rect x="100" y="17" width="26" height="6" fill="#666"/>
    <line x1="50" y1="16" x2="50" y2="12" stroke="#888" stroke-width="1"/>
    <circle cx="50" cy="11" r="0.9" fill="#fff"/>
    <circle cx="102.26623943553597" cy="20.70031321151197" r="0.6" fill="#fff"/>
    <circle cx="22.77903939167924" cy="18.661127790883707" r="0.6" fill="#888"/>
    <circle cx="57.1622910747129" cy="21.788704903465092" r="0.6" fill="#888"/>
    <circle cx="92.80188946090726" cy="19.645799756583664" r="0.6" fill="#fff"/>
    <circle cx="38.92333413796655" cy="21.11128723742966" r="0.6" fill="#888"/>
    <circle cx="63.510965375001994" cy="19.24089062248398" r="0.6" fill="#888"/>
    <circle cx="17.985685116604756" cy="18.813742786791988" r="0.6" fill="#fff"/>
    <circle cx="23.629989871582943" cy="21.77835983190609" r="0.6" fill="#888"/>
    <circle cx="52.665041946184374" cy="19.117527902413872" r="0.6" fill="#888"/>
    <circle cx="62.60366704808719" cy="21.135345698630132" r="0.6" fill="#fff"/>
    <circle cx="53.00583269493926" cy="19.888427973440116" r="0.6" fill="#888"/>
    <circle cx="91.8461647442757" cy="20.97769188996297" r="0.6" fill="#888"/>
    <circle cx="11.331027988032917" cy="21.491028176150763" r="0.6" fill="#fff"/>
    <circle cx="74.96971991982764" cy="21.662887395901087" r="0.6" fill="#888"/>
  </g>
</svg>
