<svg xmlns="http://www.w3.org/2000/svg" viewBox="0 0 1152 32" width="1152" height="32">
  <!-- MOONDIAL DMD scene: LUNAR ECLIPSE — shadow sweep to corona — 9 frames of 128x32, baked to 4-level
       dot frames at load. Levels by luminance: #fff=3, #888=2, #666=1. -->
  <rect width="1152" height="32" fill="#000"/>
  <g transform="translate(0,0)"><circle cx="24" cy="6" r="0.9" fill="#666"/><circle cx="104" cy="8" r="0.9" fill="#666"/><circle cx="40" cy="26" r="0.9" fill="#666"/><circle cx="64" cy="13" r="10" fill="#fff"/><circle cx="38.0" cy="13" r="10.5" fill="#000"/></g>
  <g transform="translate(128,0)"><circle cx="24" cy="6" r="0.9" fill="#666"/><circle cx="104" cy="8" r="0.9" fill="#666"/><circle cx="40" cy="26" r="0.9" fill="#666"/><circle cx="64" cy="13" r="10" fill="#fff"/><circle cx="41.4" cy="13" r="10.5" fill="#000"/></g>
  <g transform="translate(256,0)"><circle cx="24" cy="6" r="0.9" fill="#666"/><circle cx="104" cy="8" r="0.9" fill="#666"/><circle cx="40" cy="26" r="0.9" fill="#666"/><circle cx="64" cy="13" r="10" fill="#fff"/><circle cx="44.8" cy="13" r="10.5" fill="#000"/></g>
  <g transform="translate(384,0)"><circle cx="24" cy="6" r="0.9" fill="#666"/><circle cx="104" cy="8" r="0.9" fill="#666"/><circle cx="40" cy="26" r="0.9" fill="#666"/><circle cx="64" cy="13" r="10" fill="#fff"/><circle cx="48.2" cy="13" r="10.5" fill="#000"/></g>
  <g transform="translate(512,0)"><circle cx="24" cy="6" r="0.9" fill="#666"/><circle cx="104" cy="8" r="0.9" fill="#666"/><circle cx="40" cy="26" r="0.9" fill="#666"/><circle cx="64" cy="13" r="10" fill="#fff"/><circle cx="51.6" cy="13" r="10.5" fill="#000"/></g>
  <g transform="translate(640,0)"><circle cx="24" cy="6" r="0.9" fill="#666"/><circle cx="104" cy="8" r="0.9" fill="#666"/><circle cx="40" cy="26" r="0.9" fill="#666"/><circle cx="64" cy="13" r="10" fill="#fff"/><circle cx="55.0" cy="13" r="10.5" fill="#000"/></g>
  <g transform="translate(768,0)"><circle cx="24" cy="6" r="0.9" fill="#666"/><circle cx="104" cy="8" r="0.9" fill="#666"/><circle cx="40" cy="26" r="0.9" fill="#666"/><circle cx="64" cy="13" r="10" fill="#fff"/><circle cx="58.4" cy="13" r="10.5" fill="#000"/></g>
  <g transform="translate(896,0)"><circle cx="24" cy="6" r="0.9" fill="#666"/><circle cx="104" cy="8" r="0.9" fill="#666"/><circle cx="40" cy="26" r="0.9" fill="#666"/><circle cx="64" cy="13" r="10" fill="#fff"/><circle cx="61.8" cy="13" r="10.5" fill="#000"/></g>
  <g transform="translate(1024,0)"><circle cx="24" cy="6" r="0.9" fill="#666"/><circle cx="104" cy="8" r="0.9" fill="#666"/><circle cx="40" cy="26" r="0.9" fill="#666"/><circle cx="64" cy="13" r="9" fill="#666"/><circle cx="64" cy="13" r="10" fill="none" stroke="#fff" stroke-width="1.6"/><line x1="74.8" y1="9.1" x2="77.6" y2="8.0" stroke="#888" stroke-width="1.4"/><line x1="62.0" y1="1.7" x2="61.5" y2="-1.3" stroke="#888" stroke-width="1.4"/><line x1="53.2" y1="16.9" x2="50.4" y2="18.0" stroke="#888" stroke-width="1.4"/><line x1="69.8" y1="23.0" x2="71.2" y2="25.6" stroke="#888" stroke-width="1.4"/></g>
</svg>
