<svg xmlns="http://www.w3.org/2000/svg" viewBox="0 0 1024 32" width="1024" height="32">
  <!-- MOONDIAL DMD scene: GAME OVER — moonset over the observatory — 8 frames of 128x32, baked to 4-level
       dot frames at load. Levels by luminance: #fff=3, #888=2, #666=1. -->
  <rect width="1024" height="32" fill="#000"/>
  <g transform="translate(0,0)"><g fill="#888" opacity="0.60"><circle cx="22" cy="8" r="1"/><circle cx="46" cy="13" r="0.9"/><circle cx="86" cy="9" r="1"/><circle cx="108" cy="15" r="0.9"/></g><circle cx="64" cy="10.0" r="7.5" fill="#fff"/><circle cx="61" cy="8.0" r="1.6" fill="#888"/><path d="M 0 27 Q 24 23 44 26 Q 64 29 84 25 Q 106 22 128 26 L 128 32 L 0 32 Z" fill="#666"/></g>
  <g transform="translate(128,0)"><g fill="#888" opacity="0.53"><circle cx="22" cy="8" r="1"/><circle cx="46" cy="13" r="0.9"/><circle cx="86" cy="9" r="1"/><circle cx="108" cy="15" r="0.9"/></g><circle cx="64" cy="12.1" r="7.5" fill="#fff"/><circle cx="61" cy="10.1" r="1.6" fill="#888"/><path d="M 0 27 Q 24 23 44 26 Q 64 29 84 25 Q 106 22 128 26 L 128 32 L 0 32 Z" fill="#666"/></g>
  <g transform="translate(256,0)"><g fill="#888" opacity="0.46"><circle cx="22" cy="8" r="1"/><circle cx="46" cy="13" r="0.9"/><circle cx="86" cy="9" r="1"/><circle cx="108" cy="15" r="0.9"/></g><circle cx="64" cy="14.2" r="7.5" fill="#fff"/><circle cx="61" cy="12.2" r="1.6" fill="#888"/><path d="M 0 27 Q 24 23 44 26 Q 64 29 84 25 Q 106 22 128 26 L 128 32 L 0 32 Z" fill="#666"/></g>
  <g transform="translate(384,0)"><g fill="#888" opacity="0.39"><circle cx="22" cy="8" r="1"/><circle cx="46" cy="13" r="0.9"/><circle cx="86" cy="9" r="1"/><circle cx="108" cy="15" r="0.9"/></g><circle cx="64" cy="16.3" r="7.5" fill="#fff"/><circle cx="61" cy="14.3" r="1.6" fill="#888"/><path d="M 0 27 Q 24 23 44 26 Q 64 29 84 25 Q 106 22 128 26 L 128 32 L 0 32 Z" fill="#666"/></g>
  <g transform="translate(512,0)"><g fill="#888" opacity="0.32"><circle cx="22" cy="8" r="1"/><circle cx="46" cy="13" r="0.9"/><circle cx="86" cy="9" r="1"/><circle cx="108" cy="15" r="0.9"/></g><circle cx="64" cy="18.4" r="7.5" fill="#fff"/><circle cx="61" cy="16.4" r="1.6" fill="#888"/><path d="M 0 27 Q 24 23 44 26 Q 64 29 84 25 Q 106 22 128 26 L 128 32 L 0 32 Z" fill="#666"/></g>
  <g transform="translate(640,0)"><g fill="#888" opacity="0.25"><circle cx="22" cy="8" r="1"/><circle cx="46" cy="13" r="0.9"/><circle cx="86" cy="9" r="1"/><circle cx="108" cy="15" r="0.9"/></g><circle cx="64" cy="20.5" r="7.5" fill="#fff"/><circle cx="61" cy="18.5" r="1.6" fill="#888"/><path d="M 0 27 Q 24 23 44 26 Q 64 29 84 25 Q 106 22 128 26 L 128 32 L 0 32 Z" fill="#666"/><path d="M 59 27 A 5 5 0 0 1 69 27 Z" fill="#888"/><rect x="63.2" y="23.5" width="1.6" height="4" fill="#888"/></g>
  <g transform="translate(768,0)"><g fill="#888" opacity="0.18"><circle cx="22" cy="8" r="1"/><circle cx="46" cy="13" r="0.9"/><circle cx="86" cy="9" r="1"/><circle cx="108" cy="15" r="0.9"/></g><circle cx="64" cy="22.6" r="7.5" fill="#fff"/><circle cx="61" cy="20.6" r="1.6" fill="#888"/><path d="M 0 27 Q 24 23 44 26 Q 64 29 84 25 Q 106 22 128 26 L 128 32 L 0 32 Z" fill="#666"/><path d="M 59 27 A 5 5 0 0 1 69 27 Z" fill="#888"/><rect x="63.2" y="23.5" width="1.6" height="4" fill="#888"/></g>
  <g transform="translate(896,0)"><g fill="#888" opacity="0.15"><circle cx="22" cy="8" r="1"/><circle cx="46" cy="13" r="0.9"/><circle cx="86" cy="9" r="1"/><circle cx="108" cy="15" r="0.9"/></g><circle cx="64" cy="24.7" r="7.5" fill="#fff"/><circle cx="61" cy="22.7" r="1.6" fill="#888"/><path d="M 0 27 Q 24 23 44 26 Q 64 29 84 25 Q 106 22 128 26 L 128 32 L 0 32 Z" fill="#666"/><path d="M 59 27 A 5 5 0 0 1 69 27 Z" fill="#888"/><rect x="63.2" y="23.5" width="1.6" height="4" fill="#888"/></g>
</svg>
