<svg xmlns="http://www.w3.org/2000/svg" viewBox="0 0 1024 32" width="1024" height="32">
  <!-- THE SUMP DMD scene: FLOODGATE — the wheel spins, the gate grinds open, water pours through the frame. Gate lit / sump entry.
       8 frames of 128x32 (style guide 6): #fff=3, #888=2, #666=1, black=0.
       Art rows 0..22; caption row 24. -->
  <rect width="1024" height="32" fill="#000"/>

  <g transform="translate(0,0)">
    <circle cx="24" cy="10" r="8" fill="none" stroke="#fff" stroke-width="1.2"/>
    <line x1="17.0" y1="10.0" x2="31.0" y2="10.0" stroke="#888" stroke-width="1.2"/>
    <line x1="27.5" y1="3.9" x2="20.5" y2="16.1" stroke="#888" stroke-width="1.2"/>
    <line x1="27.5" y1="16.1" x2="20.5" y2="3.9" stroke="#888" stroke-width="1.2"/>
    <rect x="46" y="2" width="4" height="20" fill="#888"/>
    <rect x="86" y="2" width="4" height="20" fill="#888"/>
    <rect x="50" y="2.0" width="36" height="14" fill="#fff"/>
  </g>
  <g transform="translate(128,0)">
    <circle cx="24" cy="10" r="8" fill="none" stroke="#fff" stroke-width="1.2"/>
    <line x1="18.5" y1="5.6" x2="29.5" y2="14.4" stroke="#888" stroke-width="1.2"/>
    <line x1="30.5" y1="7.4" x2="17.5" y2="12.6" stroke="#888" stroke-width="1.2"/>
    <line x1="23.0" y1="16.9" x2="25.0" y2="3.1" stroke="#888" stroke-width="1.2"/>
    <rect x="46" y="2" width="4" height="20" fill="#888"/>
    <rect x="86" y="2" width="4" height="20" fill="#888"/>
    <rect x="50" y="0.0" width="36" height="14" fill="#fff"/>
  </g>
  <g transform="translate(256,0)">
    <circle cx="24" cy="10" r="8" fill="none" stroke="#fff" stroke-width="1.2"/>
    <line x1="22.4" y1="3.2" x2="25.6" y2="16.8" stroke="#888" stroke-width="1.2"/>
    <line x1="30.7" y1="12.1" x2="17.3" y2="7.9" stroke="#888" stroke-width="1.2"/>
    <line x1="18.9" y1="14.8" x2="29.1" y2="5.2" stroke="#888" stroke-width="1.2"/>
    <rect x="46" y="2" width="4" height="20" fill="#888"/>
    <rect x="86" y="2" width="4" height="20" fill="#888"/>
    <rect x="50" y="-2.0" width="36" height="14" fill="#fff"/>
  </g>
  <g transform="translate(384,0)">
    <circle cx="24" cy="10" r="8" fill="none" stroke="#fff" stroke-width="1.2"/>
    <line x1="27.0" y1="3.7" x2="21.0" y2="16.3" stroke="#888" stroke-width="1.2"/>
    <line x1="27.9" y1="15.8" x2="20.1" y2="4.2" stroke="#888" stroke-width="1.2"/>
    <line x1="17.0" y1="10.5" x2="31.0" y2="9.5" stroke="#888" stroke-width="1.2"/>
    <rect x="46" y="2" width="4" height="20" fill="#888"/>
    <rect x="86" y="2" width="4" height="20" fill="#888"/>
    <rect x="50" y="-4.0" width="36" height="14" fill="#fff"/>
    <line x1="58" y1="21" x2="58" y2="24" stroke="#666" stroke-width="1"/>
    <line x1="66" y1="16" x2="66" y2="19" stroke="#666" stroke-width="1"/>
    <line x1="74" y1="23" x2="74" y2="26" stroke="#666" stroke-width="1"/>
  </g>
  <g transform="translate(512,0)">
    <circle cx="24" cy="10" r="8" fill="none" stroke="#fff" stroke-width="1.2"/>
    <line x1="30.3" y1="7.0" x2="17.7" y2="13.0" stroke="#888" stroke-width="1.2"/>
    <line x1="23.5" y1="17.0" x2="24.5" y2="3.0" stroke="#888" stroke-width="1.2"/>
    <line x1="18.2" y1="6.1" x2="29.8" y2="13.9" stroke="#888" stroke-width="1.2"/>
    <rect x="46" y="2" width="4" height="20" fill="#888"/>
    <rect x="86" y="2" width="4" height="20" fill="#888"/>
    <rect x="50" y="-6.0" width="36" height="14" fill="#fff"/>
    <line x1="58" y1="14" x2="58" y2="17" stroke="#666" stroke-width="1"/>
    <line x1="66" y1="21" x2="66" y2="24" stroke="#666" stroke-width="1"/>
    <line x1="74" y1="16" x2="74" y2="19" stroke="#666" stroke-width="1"/>
  </g>
  <g transform="translate(640,0)">
    <circle cx="24" cy="10" r="8" fill="none" stroke="#fff" stroke-width="1.2"/>
    <line x1="30.8" y1="11.6" x2="17.2" y2="8.4" stroke="#888" stroke-width="1.2"/>
    <line x1="19.2" y1="15.1" x2="28.8" y2="4.9" stroke="#888" stroke-width="1.2"/>
    <line x1="21.9" y1="3.3" x2="26.1" y2="16.7" stroke="#888" stroke-width="1.2"/>
    <rect x="46" y="2" width="4" height="20" fill="#888"/>
    <rect x="86" y="2" width="4" height="20" fill="#888"/>
    <rect x="50" y="-8.0" width="36" height="14" fill="#fff"/>
    <line x1="58" y1="19" x2="58" y2="22" stroke="#666" stroke-width="1"/>
    <line x1="66" y1="26" x2="66" y2="29" stroke="#666" stroke-width="1"/>
    <line x1="74" y1="21" x2="74" y2="24" stroke="#666" stroke-width="1"/>
  </g>
  <g transform="translate(768,0)">
    <circle cx="24" cy="10" r="8" fill="none" stroke="#fff" stroke-width="1.2"/>
    <line x1="28.4" y1="15.5" x2="19.6" y2="4.5" stroke="#888" stroke-width="1.2"/>
    <line x1="17.1" y1="11.0" x2="30.9" y2="9.0" stroke="#888" stroke-width="1.2"/>
    <line x1="26.6" y1="3.5" x2="21.4" y2="16.5" stroke="#888" stroke-width="1.2"/>
    <rect x="46" y="2" width="4" height="20" fill="#888"/>
    <rect x="86" y="2" width="4" height="20" fill="#888"/>
    <rect x="50" y="-10.0" width="36" height="14" fill="#fff"/>
    <line x1="58" y1="24" x2="58" y2="27" stroke="#666" stroke-width="1"/>
    <line x1="66" y1="19" x2="66" y2="22" stroke="#666" stroke-width="1"/>
    <line x1="74" y1="26" x2="74" y2="29" stroke="#666" stroke-width="1"/>
  </g>
  <g transform="translate(896,0)">
    <circle cx="24" cy="10" r="8" fill="none" stroke="#fff" stroke-width="1.2"/>
    <line x1="24.0" y1="17.0" x2="24.0" y2="3.0" stroke="#888" stroke-width="1.2"/>
    <line x1="17.9" y1="6.5" x2="30.1" y2="13.5" stroke="#888" stroke-width="1.2"/>
    <line x1="30.1" y1="6.5" x2="17.9" y2="13.5" stroke="#888" stroke-width="1.2"/>
    <rect x="46" y="2" width="4" height="20" fill="#888"/>
    <rect x="86" y="2" width="4" height="20" fill="#888"/>
    <rect x="50" y="-12.0" width="36" height="14" fill="#fff"/>
    <line x1="58" y1="29" x2="58" y2="32" stroke="#666" stroke-width="1"/>
    <line x1="66" y1="24" x2="66" y2="27" stroke="#666" stroke-width="1"/>
    <line x1="74" y1="31" x2="74" y2="34" stroke="#666" stroke-width="1"/>
  </g>
</svg>
