<svg xmlns="http://www.w3.org/2000/svg" viewBox="0 0 1024 32" width="1024" height="32">
  <!-- SMALL HOURS DMD scene: MAST — the transmitter on the parapet, signal
       rings radiating out over the skyline, stronger every frame. SIGNAL
       BOOST + jackpots. 8 frames of 128x32 (style guide §6). Art rows
       0..22; caption renders from row 24. -->
  <rect width="1024" height="32" fill="#000"/>
  <g transform="translate(0,0)">
    <rect x="4" y="19" width="26" height="4" fill="#666"/>
    <rect x="36" y="17" width="18" height="6" fill="#666"/>
    <rect x="60" y="20" width="30" height="3" fill="#666"/>
    <rect x="96" y="18" width="26" height="5" fill="#666"/>
    <rect x="42" y="15" width="3" height="2" fill="#888"/>
    <line x1="30" y1="22" x2="34" y2="6" stroke="#888" stroke-width="1"/>
    <line x1="38" y1="22" x2="34" y2="6" stroke="#888" stroke-width="1"/>
    <line x1="31.5" y1="17" x2="36.5" y2="17" stroke="#888" stroke-width="1"/>
    <line x1="32.5" y1="12" x2="35.5" y2="12" stroke="#888" stroke-width="1"/>
    <circle cx="34" cy="5" r="1.2" fill="#fff"/>
    <path d="M 35.02 4.013 A 3 3 0 0 1 36.82 6.05" fill="none" stroke="#fff" stroke-width="1.2"/>
  </g>
  <g transform="translate(128,0)">
    <rect x="4" y="19" width="26" height="4" fill="#666"/>
    <rect x="36" y="17" width="18" height="6" fill="#666"/>
    <rect x="60" y="20" width="30" height="3" fill="#666"/>
    <rect x="96" y="18" width="26" height="5" fill="#666"/>
    <rect x="42" y="15" width="3" height="2" fill="#888"/>
    <line x1="30" y1="22" x2="34" y2="6" stroke="#888" stroke-width="1"/>
    <line x1="38" y1="22" x2="34" y2="6" stroke="#888" stroke-width="1"/>
    <line x1="31.5" y1="17" x2="36.5" y2="17" stroke="#888" stroke-width="1"/>
    <line x1="32.5" y1="12" x2="35.5" y2="12" stroke="#888" stroke-width="1"/>
    <circle cx="34" cy="5" r="1.2" fill="#fff"/>
    <path d="M 35.87 3.1905 A 5.5 5.5 0 0 1 39.17 6.925" fill="none" stroke="#fff" stroke-width="1.2"/>
    <circle cx="74.87027824058677" cy="19.04742676068443" r="0.7" fill="#888"/>
  </g>
  <g transform="translate(256,0)">
    <rect x="4" y="19" width="26" height="4" fill="#666"/>
    <rect x="36" y="17" width="18" height="6" fill="#666"/>
    <rect x="60" y="20" width="30" height="3" fill="#666"/>
    <rect x="96" y="18" width="26" height="5" fill="#666"/>
    <rect x="42" y="15" width="3" height="2" fill="#888"/>
    <line x1="30" y1="22" x2="34" y2="6" stroke="#888" stroke-width="1"/>
    <line x1="38" y1="22" x2="34" y2="6" stroke="#888" stroke-width="1"/>
    <line x1="31.5" y1="17" x2="36.5" y2="17" stroke="#888" stroke-width="1"/>
    <line x1="32.5" y1="12" x2="35.5" y2="12" stroke="#888" stroke-width="1"/>
    <circle cx="34" cy="5" r="1.2" fill="#fff"/>
    <path d="M 36.72 2.3680000000000003 A 8 8 0 0 1 41.519999999999996 7.8" fill="none" stroke="#fff" stroke-width="1.2"/>
    <path d="M 39.1 0.06500000000000039 A 15 15 0 0 1 48.1 10.25" fill="none" stroke="#888" stroke-width="1.2"/>
    <circle cx="74.87027824058677" cy="19.04742676068443" r="0.7" fill="#888"/>
    <circle cx="68.7367039009634" cy="21.454821647822307" r="0.7" fill="#888"/>
  </g>
  <g transform="translate(384,0)">
    <rect x="4" y="19" width="26" height="4" fill="#666"/>
    <rect x="36" y="17" width="18" height="6" fill="#666"/>
    <rect x="60" y="20" width="30" height="3" fill="#666"/>
    <rect x="96" y="18" width="26" height="5" fill="#666"/>
    <rect x="42" y="15" width="3" height="2" fill="#888"/>
    <line x1="30" y1="22" x2="34" y2="6" stroke="#888" stroke-width="1"/>
    <line x1="38" y1="22" x2="34" y2="6" stroke="#888" stroke-width="1"/>
    <line x1="31.5" y1="17" x2="36.5" y2="17" stroke="#888" stroke-width="1"/>
    <line x1="32.5" y1="12" x2="35.5" y2="12" stroke="#888" stroke-width="1"/>
    <circle cx="34" cy="5" r="1.2" fill="#fff"/>
    <path d="M 37.57 1.5455000000000005 A 10.5 10.5 0 0 1 43.87 8.675" fill="none" stroke="#fff" stroke-width="1.2"/>
    <path d="M 39.95 -0.7574999999999994 A 17.5 17.5 0 0 1 50.45 11.125" fill="none" stroke="#888" stroke-width="1.2"/>
    <circle cx="74.87027824058677" cy="19.04742676068443" r="0.7" fill="#888"/>
    <circle cx="68.7367039009634" cy="21.454821647822307" r="0.7" fill="#888"/>
    <circle cx="83.2847671859361" cy="19.852210284141922" r="0.7" fill="#888"/>
  </g>
  <g transform="translate(512,0)">
    <rect x="4" y="19" width="26" height="4" fill="#666"/>
    <rect x="36" y="17" width="18" height="6" fill="#666"/>
    <rect x="60" y="20" width="30" height="3" fill="#666"/>
    <rect x="96" y="18" width="26" height="5" fill="#666"/>
    <rect x="42" y="15" width="3" height="2" fill="#888"/>
    <line x1="30" y1="22" x2="34" y2="6" stroke="#888" stroke-width="1"/>
    <line x1="38" y1="22" x2="34" y2="6" stroke="#888" stroke-width="1"/>
    <line x1="31.5" y1="17" x2="36.5" y2="17" stroke="#888" stroke-width="1"/>
    <line x1="32.5" y1="12" x2="35.5" y2="12" stroke="#888" stroke-width="1"/>
    <circle cx="34" cy="5" r="1.2" fill="#fff"/>
    <path d="M 38.42 0.7230000000000008 A 13 13 0 0 1 46.22 9.55" fill="none" stroke="#fff" stroke-width="1.2"/>
    <path d="M 40.8 -1.5799999999999983 A 20 20 0 0 1 52.8 12" fill="none" stroke="#888" stroke-width="1.2"/>
    <path d="M 35.7 3.3550000000000004 A 5 5 0 0 1 38.7 6.75" fill="none" stroke="#666" stroke-width="1.2"/>
    <circle cx="74.87027824058677" cy="19.04742676068443" r="0.7" fill="#888"/>
    <circle cx="68.7367039009634" cy="21.454821647822307" r="0.7" fill="#888"/>
    <circle cx="83.2847671859361" cy="19.852210284141922" r="0.7" fill="#888"/>
    <circle cx="105.42807774312239" cy="21.2036430850642" r="0.7" fill="#888"/>
  </g>
  <g transform="translate(640,0)">
    <rect x="4" y="19" width="26" height="4" fill="#666"/>
    <rect x="36" y="17" width="18" height="6" fill="#666"/>
    <rect x="60" y="20" width="30" height="3" fill="#666"/>
    <rect x="96" y="18" width="26" height="5" fill="#666"/>
    <rect x="42" y="15" width="3" height="2" fill="#888"/>
    <line x1="30" y1="22" x2="34" y2="6" stroke="#888" stroke-width="1"/>
    <line x1="38" y1="22" x2="34" y2="6" stroke="#888" stroke-width="1"/>
    <line x1="31.5" y1="17" x2="36.5" y2="17" stroke="#888" stroke-width="1"/>
    <line x1="32.5" y1="12" x2="35.5" y2="12" stroke="#888" stroke-width="1"/>
    <circle cx="34" cy="5" r="1.2" fill="#fff"/>
    <path d="M 39.27 -0.09949999999999903 A 15.5 15.5 0 0 1 48.57 10.425" fill="none" stroke="#fff" stroke-width="1.2"/>
    <path d="M 41.65 -2.402499999999999 A 22.5 22.5 0 0 1 55.15 12.875" fill="none" stroke="#888" stroke-width="1.2"/>
    <path d="M 36.55 2.5325 A 7.5 7.5 0 0 1 41.05 7.625" fill="none" stroke="#666" stroke-width="1.2"/>
    <circle cx="74.87027824058677" cy="19.04742676068443" r="0.7" fill="#888"/>
    <circle cx="68.7367039009634" cy="21.454821647822307" r="0.7" fill="#888"/>
    <circle cx="83.2847671859361" cy="19.852210284141922" r="0.7" fill="#888"/>
    <circle cx="105.42807774312239" cy="21.2036430850642" r="0.7" fill="#888"/>
    <circle cx="16.350685123517497" cy="21.49080597026777" r="0.7" fill="#888"/>
  </g>
  <g transform="translate(768,0)">
    <rect x="4" y="19" width="26" height="4" fill="#666"/>
    <rect x="36" y="17" width="18" height="6" fill="#666"/>
    <rect x="60" y="20" width="30" height="3" fill="#666"/>
    <rect x="96" y="18" width="26" height="5" fill="#666"/>
    <rect x="42" y="15" width="3" height="2" fill="#888"/>
    <line x1="30" y1="22" x2="34" y2="6" stroke="#888" stroke-width="1"/>
    <line x1="38" y1="22" x2="34" y2="6" stroke="#888" stroke-width="1"/>
    <line x1="31.5" y1="17" x2="36.5" y2="17" stroke="#888" stroke-width="1"/>
    <line x1="32.5" y1="12" x2="35.5" y2="12" stroke="#888" stroke-width="1"/>
    <circle cx="34" cy="5" r="1.2" fill="#fff"/>
    <path d="M 40.12 -0.9219999999999988 A 18 18 0 0 1 50.92 11.3" fill="none" stroke="#fff" stroke-width="1.2"/>
    <path d="M 35.02 4.013 A 3 3 0 0 1 36.82 6.05" fill="none" stroke="#888" stroke-width="1.2"/>
    <path d="M 37.4 1.7100000000000009 A 10 10 0 0 1 43.4 8.5" fill="none" stroke="#666" stroke-width="1.2"/>
    <circle cx="74.87027824058677" cy="19.04742676068443" r="0.7" fill="#888"/>
    <circle cx="68.7367039009634" cy="21.454821647822307" r="0.7" fill="#888"/>
    <circle cx="83.2847671859361" cy="19.852210284141922" r="0.7" fill="#888"/>
    <circle cx="105.42807774312239" cy="21.2036430850642" r="0.7" fill="#888"/>
    <circle cx="16.350685123517497" cy="21.49080597026777" r="0.7" fill="#888"/>
    <circle cx="31.478988658394194" cy="18.676741227822724" r="0.7" fill="#888"/>
  </g>
  <g transform="translate(896,0)">
    <rect x="4" y="19" width="26" height="4" fill="#666"/>
    <rect x="36" y="17" width="18" height="6" fill="#666"/>
    <rect x="60" y="20" width="30" height="3" fill="#666"/>
    <rect x="96" y="18" width="26" height="5" fill="#666"/>
    <rect x="42" y="15" width="3" height="2" fill="#888"/>
    <line x1="30" y1="22" x2="34" y2="6" stroke="#888" stroke-width="1"/>
    <line x1="38" y1="22" x2="34" y2="6" stroke="#888" stroke-width="1"/>
    <line x1="31.5" y1="17" x2="36.5" y2="17" stroke="#888" stroke-width="1"/>
    <line x1="32.5" y1="12" x2="35.5" y2="12" stroke="#888" stroke-width="1"/>
    <circle cx="34" cy="5" r="1.2" fill="#fff"/>
    <path d="M 40.97 -1.7444999999999995 A 20.5 20.5 0 0 1 53.269999999999996 12.175" fill="none" stroke="#fff" stroke-width="1.2"/>
    <path d="M 35.87 3.1905 A 5.5 5.5 0 0 1 39.17 6.925" fill="none" stroke="#888" stroke-width="1.2"/>
    <path d="M 38.25 0.8875000000000002 A 12.5 12.5 0 0 1 45.75 9.375" fill="none" stroke="#666" stroke-width="1.2"/>
    <circle cx="74.87027824058677" cy="19.04742676068443" r="0.7" fill="#888"/>
    <circle cx="68.7367039009634" cy="21.454821647822307" r="0.7" fill="#888"/>
    <circle cx="83.2847671859361" cy="19.852210284141922" r="0.7" fill="#888"/>
    <circle cx="105.42807774312239" cy="21.2036430850642" r="0.7" fill="#888"/>
    <circle cx="16.350685123517497" cy="21.49080597026777" r="0.7" fill="#888"/>
    <circle cx="31.478988658394194" cy="18.676741227822724" r="0.7" fill="#888"/>
    <circle cx="119.18913369588049" cy="18.206619382000817" r="0.7" fill="#888"/>
  </g>
</svg>
