<svg xmlns="http://www.w3.org/2000/svg" viewBox="0 0 1024 32" width="1024" height="32">
  <!-- GLASSHOUSE DMD scene: MOTH - a moth spirals in to the lamp; the halo blooms. Moth banked; idle personality.
       8 frames of 128x32: #fff=3, #888=2, #666=1, black=0. -->
  <rect width="1024" height="32" fill="#000"/>

  <g transform="translate(0,0)">
    <circle cx="64" cy="14" r="3" fill="#fff"/>
    <circle cx="64" cy="14" r="6.0" fill="none" stroke="#666" stroke-width="1"/>
    <path d="M 87.0 14.0 L 90.0 11.5 L 93.0 14.0 L 90.0 15.5 Z" fill="#888"/>
  </g>
  <g transform="translate(128,0)">
    <circle cx="64" cy="14" r="3" fill="#fff"/>
    <circle cx="64" cy="14" r="8.5" fill="none" stroke="#666" stroke-width="1"/>
    <path d="M 56.0 23.8 L 59.0 21.3 L 62.0 23.8 L 59.0 25.3 Z" fill="#888"/>
  </g>
  <g transform="translate(256,0)">
    <circle cx="64" cy="14" r="3" fill="#fff"/>
    <circle cx="64" cy="14" r="8.7" fill="none" stroke="#666" stroke-width="1"/>
    <path d="M 44.3 10.4 L 47.3 7.9 L 50.3 10.4 L 47.3 11.9 Z" fill="#888"/>
  </g>
  <g transform="translate(384,0)">
    <circle cx="64" cy="14" r="3" fill="#fff"/>
    <circle cx="64" cy="14" r="6.4" fill="none" stroke="#666" stroke-width="1"/>
    <path d="M 70.3 8.8 L 73.3 6.3 L 76.3 8.8 L 73.3 10.3 Z" fill="#888"/>
  </g>
  <g transform="translate(512,0)">
    <circle cx="64" cy="14" r="3" fill="#fff"/>
    <circle cx="64" cy="14" r="3.7" fill="none" stroke="#666" stroke-width="1"/>
    <path d="M 67.9 17.9 L 70.9 15.4 L 73.9 17.9 L 70.9 19.4 Z" fill="#888"/>
  </g>
  <g transform="translate(640,0)">
    <circle cx="64" cy="14" r="3" fill="#fff"/>
    <circle cx="64" cy="14" r="3.1" fill="none" stroke="#666" stroke-width="1"/>
    <path d="M 54.3 15.5 L 57.3 13.0 L 60.3 15.5 L 57.3 17.0 Z" fill="#888"/>
  </g>
  <g transform="translate(768,0)">
    <circle cx="64" cy="14" r="3" fill="#fff"/>
    <circle cx="64" cy="14" r="5.2" fill="none" stroke="#666" stroke-width="1"/>
    <path d="M 60.2 12.4 L 63.2 9.9 L 66.2 12.4 L 63.2 13.9 Z" fill="#888"/>
  </g>
  <g transform="translate(896,0)">
    <circle cx="64" cy="14" r="3" fill="#fff"/>
    <circle cx="64" cy="14" r="8.0" fill="none" stroke="#666" stroke-width="1"/>
    <path d="M 61.0 14.0 L 64.0 11.5 L 67.0 14.0 L 64.0 15.5 Z" fill="#888"/>
  </g>
</svg>
