<svg xmlns="http://www.w3.org/2000/svg" viewBox="0 0 1024 32" width="1024" height="32">
  <!-- SMALL HOURS DMD scene: ON AIR — the studio sign flickers twice and
       blazes. Multiball start. Blocky letterforms drawn as strokes (no
       vector type on the grid, §6). 8 frames of 128x32; caption renders
       from row 24. -->
  <rect width="1024" height="32" fill="#000"/>
  <g transform="translate(0,0)">
    <rect x="24" y="2" width="80" height="20" rx="3" fill="none" stroke="#666" stroke-width="1.4"/>
    <circle cx="24" cy="0.8" r="0.6" fill="#666"/>
    <circle cx="37.33333333333333" cy="0.8" r="0.6" fill="#666"/>
    <circle cx="50.666666666666664" cy="0.8" r="0.6" fill="#666"/>
    <circle cx="64" cy="0.8" r="0.6" fill="#666"/>
    <circle cx="77.33333333333333" cy="0.8" r="0.6" fill="#666"/>
    <circle cx="90.66666666666667" cy="0.8" r="0.6" fill="#666"/>
    <circle cx="104" cy="23.2" r="0.6" fill="#666"/>
    <circle cx="90.66666666666666" cy="23.2" r="0.6" fill="#666"/>
    <circle cx="77.33333333333334" cy="23.2" r="0.6" fill="#666"/>
    <circle cx="64" cy="23.2" r="0.6" fill="#666"/>
    <circle cx="50.66666666666666" cy="23.2" r="0.6" fill="#666"/>
    <circle cx="37.33333333333334" cy="23.2" r="0.6" fill="#666"/>
    <rect x="30" y="6" width="8" height="12" rx="2" fill="none" stroke="#666" stroke-width="1.6"/>
    <line x1="42" y1="18" x2="42" y2="6" stroke="#666" stroke-width="1.6"/>
    <line x1="42" y1="6" x2="50" y2="18" stroke="#666" stroke-width="1.6"/>
    <line x1="50" y1="18" x2="50" y2="6" stroke="#666" stroke-width="1.6"/>
    <line x1="60" y1="18" x2="64" y2="6" stroke="#666" stroke-width="1.6"/>
    <line x1="64" y1="6" x2="68" y2="18" stroke="#666" stroke-width="1.6"/>
    <line x1="61.5" y1="14" x2="66.5" y2="14" stroke="#666" stroke-width="1.4"/>
    <line x1="74" y1="6" x2="74" y2="18" stroke="#666" stroke-width="1.6"/>
    <line x1="80" y1="18" x2="80" y2="6" stroke="#666" stroke-width="1.6"/>
    <path d="M 80 6 h 5 a 3 3 0 0 1 0 6 h -5" fill="none" stroke="#666" stroke-width="1.6"/>
    <line x1="84" y1="12" x2="88" y2="18" stroke="#666" stroke-width="1.6"/>
  </g>
  <g transform="translate(128,0)">
    <rect x="24" y="2" width="80" height="20" rx="3" fill="none" stroke="#666" stroke-width="1.4"/>
    <circle cx="24" cy="0.8" r="0.6" fill="#666"/>
    <circle cx="37.33333333333333" cy="0.8" r="0.6" fill="#666"/>
    <circle cx="50.666666666666664" cy="0.8" r="0.6" fill="#666"/>
    <circle cx="64" cy="0.8" r="0.6" fill="#666"/>
    <circle cx="77.33333333333333" cy="0.8" r="0.6" fill="#666"/>
    <circle cx="90.66666666666667" cy="0.8" r="0.6" fill="#666"/>
    <circle cx="104" cy="23.2" r="0.6" fill="#666"/>
    <circle cx="90.66666666666666" cy="23.2" r="0.6" fill="#666"/>
    <circle cx="77.33333333333334" cy="23.2" r="0.6" fill="#666"/>
    <circle cx="64" cy="23.2" r="0.6" fill="#666"/>
    <circle cx="50.66666666666666" cy="23.2" r="0.6" fill="#666"/>
    <circle cx="37.33333333333334" cy="23.2" r="0.6" fill="#666"/>
    <rect x="30" y="6" width="8" height="12" rx="2" fill="none" stroke="#666" stroke-width="1.6"/>
    <line x1="42" y1="18" x2="42" y2="6" stroke="#666" stroke-width="1.6"/>
    <line x1="42" y1="6" x2="50" y2="18" stroke="#666" stroke-width="1.6"/>
    <line x1="50" y1="18" x2="50" y2="6" stroke="#666" stroke-width="1.6"/>
    <line x1="60" y1="18" x2="64" y2="6" stroke="#666" stroke-width="1.6"/>
    <line x1="64" y1="6" x2="68" y2="18" stroke="#666" stroke-width="1.6"/>
    <line x1="61.5" y1="14" x2="66.5" y2="14" stroke="#666" stroke-width="1.4"/>
    <line x1="74" y1="6" x2="74" y2="18" stroke="#666" stroke-width="1.6"/>
    <line x1="80" y1="18" x2="80" y2="6" stroke="#666" stroke-width="1.6"/>
    <path d="M 80 6 h 5 a 3 3 0 0 1 0 6 h -5" fill="none" stroke="#666" stroke-width="1.6"/>
    <line x1="84" y1="12" x2="88" y2="18" stroke="#666" stroke-width="1.6"/>
  </g>
  <g transform="translate(256,0)">
    <rect x="24" y="2" width="80" height="20" rx="3" fill="none" stroke="#fff" stroke-width="1.4"/>
    <circle cx="24" cy="0.8" r="0.6" fill="#666"/>
    <circle cx="37.33333333333333" cy="0.8" r="0.6" fill="#fff"/>
    <circle cx="50.666666666666664" cy="0.8" r="0.6" fill="#666"/>
    <circle cx="64" cy="0.8" r="0.6" fill="#666"/>
    <circle cx="77.33333333333333" cy="0.8" r="0.6" fill="#fff"/>
    <circle cx="90.66666666666667" cy="0.8" r="0.6" fill="#666"/>
    <circle cx="104" cy="23.2" r="0.6" fill="#666"/>
    <circle cx="90.66666666666666" cy="23.2" r="0.6" fill="#fff"/>
    <circle cx="77.33333333333334" cy="23.2" r="0.6" fill="#666"/>
    <circle cx="64" cy="23.2" r="0.6" fill="#666"/>
    <circle cx="50.66666666666666" cy="23.2" r="0.6" fill="#fff"/>
    <circle cx="37.33333333333334" cy="23.2" r="0.6" fill="#666"/>
    <rect x="30" y="6" width="8" height="12" rx="2" fill="none" stroke="#fff" stroke-width="1.6"/>
    <line x1="42" y1="18" x2="42" y2="6" stroke="#fff" stroke-width="1.6"/>
    <line x1="42" y1="6" x2="50" y2="18" stroke="#fff" stroke-width="1.6"/>
    <line x1="50" y1="18" x2="50" y2="6" stroke="#fff" stroke-width="1.6"/>
    <line x1="60" y1="18" x2="64" y2="6" stroke="#fff" stroke-width="1.6"/>
    <line x1="64" y1="6" x2="68" y2="18" stroke="#fff" stroke-width="1.6"/>
    <line x1="61.5" y1="14" x2="66.5" y2="14" stroke="#fff" stroke-width="1.4"/>
    <line x1="74" y1="6" x2="74" y2="18" stroke="#fff" stroke-width="1.6"/>
    <line x1="80" y1="18" x2="80" y2="6" stroke="#fff" stroke-width="1.6"/>
    <path d="M 80 6 h 5 a 3 3 0 0 1 0 6 h -5" fill="none" stroke="#fff" stroke-width="1.6"/>
    <line x1="84" y1="12" x2="88" y2="18" stroke="#fff" stroke-width="1.6"/>
  </g>
  <g transform="translate(384,0)">
    <rect x="24" y="2" width="80" height="20" rx="3" fill="none" stroke="#666" stroke-width="1.4"/>
    <circle cx="24" cy="0.8" r="0.6" fill="#666"/>
    <circle cx="37.33333333333333" cy="0.8" r="0.6" fill="#666"/>
    <circle cx="50.666666666666664" cy="0.8" r="0.6" fill="#666"/>
    <circle cx="64" cy="0.8" r="0.6" fill="#666"/>
    <circle cx="77.33333333333333" cy="0.8" r="0.6" fill="#666"/>
    <circle cx="90.66666666666667" cy="0.8" r="0.6" fill="#666"/>
    <circle cx="104" cy="23.2" r="0.6" fill="#666"/>
    <circle cx="90.66666666666666" cy="23.2" r="0.6" fill="#666"/>
    <circle cx="77.33333333333334" cy="23.2" r="0.6" fill="#666"/>
    <circle cx="64" cy="23.2" r="0.6" fill="#666"/>
    <circle cx="50.66666666666666" cy="23.2" r="0.6" fill="#666"/>
    <circle cx="37.33333333333334" cy="23.2" r="0.6" fill="#666"/>
    <rect x="30" y="6" width="8" height="12" rx="2" fill="none" stroke="#666" stroke-width="1.6"/>
    <line x1="42" y1="18" x2="42" y2="6" stroke="#666" stroke-width="1.6"/>
    <line x1="42" y1="6" x2="50" y2="18" stroke="#666" stroke-width="1.6"/>
    <line x1="50" y1="18" x2="50" y2="6" stroke="#666" stroke-width="1.6"/>
    <line x1="60" y1="18" x2="64" y2="6" stroke="#666" stroke-width="1.6"/>
    <line x1="64" y1="6" x2="68" y2="18" stroke="#666" stroke-width="1.6"/>
    <line x1="61.5" y1="14" x2="66.5" y2="14" stroke="#666" stroke-width="1.4"/>
    <line x1="74" y1="6" x2="74" y2="18" stroke="#666" stroke-width="1.6"/>
    <line x1="80" y1="18" x2="80" y2="6" stroke="#666" stroke-width="1.6"/>
    <path d="M 80 6 h 5 a 3 3 0 0 1 0 6 h -5" fill="none" stroke="#666" stroke-width="1.6"/>
    <line x1="84" y1="12" x2="88" y2="18" stroke="#666" stroke-width="1.6"/>
  </g>
  <g transform="translate(512,0)">
    <rect x="24" y="2" width="80" height="20" rx="3" fill="none" stroke="#fff" stroke-width="1.4"/>
    <circle cx="24" cy="0.8" r="0.6" fill="#666"/>
    <circle cx="37.33333333333333" cy="0.8" r="0.6" fill="#666"/>
    <circle cx="50.666666666666664" cy="0.8" r="0.6" fill="#fff"/>
    <circle cx="64" cy="0.8" r="0.6" fill="#666"/>
    <circle cx="77.33333333333333" cy="0.8" r="0.6" fill="#666"/>
    <circle cx="90.66666666666667" cy="0.8" r="0.6" fill="#fff"/>
    <circle cx="104" cy="23.2" r="0.6" fill="#666"/>
    <circle cx="90.66666666666666" cy="23.2" r="0.6" fill="#666"/>
    <circle cx="77.33333333333334" cy="23.2" r="0.6" fill="#fff"/>
    <circle cx="64" cy="23.2" r="0.6" fill="#666"/>
    <circle cx="50.66666666666666" cy="23.2" r="0.6" fill="#666"/>
    <circle cx="37.33333333333334" cy="23.2" r="0.6" fill="#fff"/>
    <rect x="30" y="6" width="8" height="12" rx="2" fill="none" stroke="#fff" stroke-width="1.6"/>
    <line x1="42" y1="18" x2="42" y2="6" stroke="#fff" stroke-width="1.6"/>
    <line x1="42" y1="6" x2="50" y2="18" stroke="#fff" stroke-width="1.6"/>
    <line x1="50" y1="18" x2="50" y2="6" stroke="#fff" stroke-width="1.6"/>
    <line x1="60" y1="18" x2="64" y2="6" stroke="#fff" stroke-width="1.6"/>
    <line x1="64" y1="6" x2="68" y2="18" stroke="#fff" stroke-width="1.6"/>
    <line x1="61.5" y1="14" x2="66.5" y2="14" stroke="#fff" stroke-width="1.4"/>
    <line x1="74" y1="6" x2="74" y2="18" stroke="#fff" stroke-width="1.6"/>
    <line x1="80" y1="18" x2="80" y2="6" stroke="#fff" stroke-width="1.6"/>
    <path d="M 80 6 h 5 a 3 3 0 0 1 0 6 h -5" fill="none" stroke="#fff" stroke-width="1.6"/>
    <line x1="84" y1="12" x2="88" y2="18" stroke="#fff" stroke-width="1.6"/>
  </g>
  <g transform="translate(640,0)">
    <rect x="24" y="2" width="80" height="20" rx="3" fill="none" stroke="#fff" stroke-width="1.4"/>
    <circle cx="24" cy="0.8" r="0.6" fill="#666"/>
    <circle cx="37.33333333333333" cy="0.8" r="0.6" fill="#fff"/>
    <circle cx="50.666666666666664" cy="0.8" r="0.6" fill="#666"/>
    <circle cx="64" cy="0.8" r="0.6" fill="#666"/>
    <circle cx="77.33333333333333" cy="0.8" r="0.6" fill="#fff"/>
    <circle cx="90.66666666666667" cy="0.8" r="0.6" fill="#666"/>
    <circle cx="104" cy="23.2" r="0.6" fill="#666"/>
    <circle cx="90.66666666666666" cy="23.2" r="0.6" fill="#fff"/>
    <circle cx="77.33333333333334" cy="23.2" r="0.6" fill="#666"/>
    <circle cx="64" cy="23.2" r="0.6" fill="#666"/>
    <circle cx="50.66666666666666" cy="23.2" r="0.6" fill="#fff"/>
    <circle cx="37.33333333333334" cy="23.2" r="0.6" fill="#666"/>
    <rect x="30" y="6" width="8" height="12" rx="2" fill="none" stroke="#fff" stroke-width="1.6"/>
    <line x1="42" y1="18" x2="42" y2="6" stroke="#fff" stroke-width="1.6"/>
    <line x1="42" y1="6" x2="50" y2="18" stroke="#fff" stroke-width="1.6"/>
    <line x1="50" y1="18" x2="50" y2="6" stroke="#fff" stroke-width="1.6"/>
    <line x1="60" y1="18" x2="64" y2="6" stroke="#fff" stroke-width="1.6"/>
    <line x1="64" y1="6" x2="68" y2="18" stroke="#fff" stroke-width="1.6"/>
    <line x1="61.5" y1="14" x2="66.5" y2="14" stroke="#fff" stroke-width="1.4"/>
    <line x1="74" y1="6" x2="74" y2="18" stroke="#fff" stroke-width="1.6"/>
    <line x1="80" y1="18" x2="80" y2="6" stroke="#fff" stroke-width="1.6"/>
    <path d="M 80 6 h 5 a 3 3 0 0 1 0 6 h -5" fill="none" stroke="#fff" stroke-width="1.6"/>
    <line x1="84" y1="12" x2="88" y2="18" stroke="#fff" stroke-width="1.6"/>
  </g>
  <g transform="translate(768,0)">
    <rect x="24" y="2" width="80" height="20" rx="3" fill="none" stroke="#fff" stroke-width="1.4"/>
    <circle cx="24" cy="0.8" r="0.6" fill="#fff"/>
    <circle cx="37.33333333333333" cy="0.8" r="0.6" fill="#666"/>
    <circle cx="50.666666666666664" cy="0.8" r="0.6" fill="#666"/>
    <circle cx="64" cy="0.8" r="0.6" fill="#fff"/>
    <circle cx="77.33333333333333" cy="0.8" r="0.6" fill="#666"/>
    <circle cx="90.66666666666667" cy="0.8" r="0.6" fill="#666"/>
    <circle cx="104" cy="23.2" r="0.6" fill="#fff"/>
    <circle cx="90.66666666666666" cy="23.2" r="0.6" fill="#666"/>
    <circle cx="77.33333333333334" cy="23.2" r="0.6" fill="#666"/>
    <circle cx="64" cy="23.2" r="0.6" fill="#fff"/>
    <circle cx="50.66666666666666" cy="23.2" r="0.6" fill="#666"/>
    <circle cx="37.33333333333334" cy="23.2" r="0.6" fill="#666"/>
    <rect x="30" y="6" width="8" height="12" rx="2" fill="none" stroke="#fff" stroke-width="1.6"/>
    <line x1="42" y1="18" x2="42" y2="6" stroke="#fff" stroke-width="1.6"/>
    <line x1="42" y1="6" x2="50" y2="18" stroke="#fff" stroke-width="1.6"/>
    <line x1="50" y1="18" x2="50" y2="6" stroke="#fff" stroke-width="1.6"/>
    <line x1="60" y1="18" x2="64" y2="6" stroke="#fff" stroke-width="1.6"/>
    <line x1="64" y1="6" x2="68" y2="18" stroke="#fff" stroke-width="1.6"/>
    <line x1="61.5" y1="14" x2="66.5" y2="14" stroke="#fff" stroke-width="1.4"/>
    <line x1="74" y1="6" x2="74" y2="18" stroke="#fff" stroke-width="1.6"/>
    <line x1="80" y1="18" x2="80" y2="6" stroke="#fff" stroke-width="1.6"/>
    <path d="M 80 6 h 5 a 3 3 0 0 1 0 6 h -5" fill="none" stroke="#fff" stroke-width="1.6"/>
    <line x1="84" y1="12" x2="88" y2="18" stroke="#fff" stroke-width="1.6"/>
  </g>
  <g transform="translate(896,0)">
    <rect x="24" y="2" width="80" height="20" rx="3" fill="none" stroke="#fff" stroke-width="1.4"/>
    <circle cx="24" cy="0.8" r="0.6" fill="#666"/>
    <circle cx="37.33333333333333" cy="0.8" r="0.6" fill="#666"/>
    <circle cx="50.666666666666664" cy="0.8" r="0.6" fill="#fff"/>
    <circle cx="64" cy="0.8" r="0.6" fill="#666"/>
    <circle cx="77.33333333333333" cy="0.8" r="0.6" fill="#666"/>
    <circle cx="90.66666666666667" cy="0.8" r="0.6" fill="#fff"/>
    <circle cx="104" cy="23.2" r="0.6" fill="#666"/>
    <circle cx="90.66666666666666" cy="23.2" r="0.6" fill="#666"/>
    <circle cx="77.33333333333334" cy="23.2" r="0.6" fill="#fff"/>
    <circle cx="64" cy="23.2" r="0.6" fill="#666"/>
    <circle cx="50.66666666666666" cy="23.2" r="0.6" fill="#666"/>
    <circle cx="37.33333333333334" cy="23.2" r="0.6" fill="#fff"/>
    <rect x="30" y="6" width="8" height="12" rx="2" fill="none" stroke="#fff" stroke-width="1.6"/>
    <line x1="42" y1="18" x2="42" y2="6" stroke="#fff" stroke-width="1.6"/>
    <line x1="42" y1="6" x2="50" y2="18" stroke="#fff" stroke-width="1.6"/>
    <line x1="50" y1="18" x2="50" y2="6" stroke="#fff" stroke-width="1.6"/>
    <line x1="60" y1="18" x2="64" y2="6" stroke="#fff" stroke-width="1.6"/>
    <line x1="64" y1="6" x2="68" y2="18" stroke="#fff" stroke-width="1.6"/>
    <line x1="61.5" y1="14" x2="66.5" y2="14" stroke="#fff" stroke-width="1.4"/>
    <line x1="74" y1="6" x2="74" y2="18" stroke="#fff" stroke-width="1.6"/>
    <line x1="80" y1="18" x2="80" y2="6" stroke="#fff" stroke-width="1.6"/>
    <path d="M 80 6 h 5 a 3 3 0 0 1 0 6 h -5" fill="none" stroke="#fff" stroke-width="1.6"/>
    <line x1="84" y1="12" x2="88" y2="18" stroke="#fff" stroke-width="1.6"/>
    <line x1="20" y1="0.5" x2="24" y2="3" stroke="#888" stroke-width="1"/>
    <line x1="108" y1="0.5" x2="104" y2="3" stroke="#888" stroke-width="1"/>
    <line x1="20" y1="23.5" x2="24" y2="21" stroke="#888" stroke-width="1"/>
    <line x1="108" y1="23.5" x2="104" y2="21" stroke="#888" stroke-width="1"/>
  </g>
</svg>
