<svg xmlns="http://www.w3.org/2000/svg" viewBox="0 0 1024 32" width="1024" height="32">
  <!-- MOONDIAL DMD scene: ORBIT — comet sweep. 8 frames of 128x32, baked to
       4-level dot frames at load (style guide 6: never live SVG on the grid).
       Bake levels by luminance: #fff=3, #888=2, #666=1, black=0. -->
  <rect width="1024" height="32" fill="#000"/>
  <g transform="translate(0,0)">
    <circle cx="24" cy="6" r="0.9" fill="#666"/><circle cx="70" cy="25" r="0.9" fill="#666"/>
    <circle cx="104" cy="8" r="0.9" fill="#666"/><circle cx="48" cy="27" r="0.9" fill="#666"/>
    
    <circle cx="10.0" cy="16.0" r="2.6" fill="#fff"/>
  </g>
  <g transform="translate(128,0)">
    <circle cx="24" cy="6" r="0.9" fill="#666"/><circle cx="70" cy="25" r="0.9" fill="#666"/>
    <circle cx="104" cy="8" r="0.9" fill="#666"/><circle cx="48" cy="27" r="0.9" fill="#666"/>
    <polygon points="22.5,13.0 5.5,9.0 9.5,16.0" fill="#888"/>
    <circle cx="25.5" cy="13.0" r="2.6" fill="#fff"/>
  </g>
  <g transform="translate(256,0)">
    <circle cx="24" cy="6" r="0.9" fill="#666"/><circle cx="70" cy="25" r="0.9" fill="#666"/>
    <circle cx="104" cy="8" r="0.9" fill="#666"/><circle cx="48" cy="27" r="0.9" fill="#666"/>
    <polygon points="27.0,9.5 11.0,4.5 14.0,11.5" fill="#666"/><polygon points="38.0,10.5 21.0,6.5 25.0,13.5" fill="#888"/>
    <circle cx="41.0" cy="10.5" r="2.6" fill="#fff"/>
  </g>
  <g transform="translate(384,0)">
    <circle cx="24" cy="6" r="0.9" fill="#666"/><circle cx="70" cy="25" r="0.9" fill="#666"/>
    <circle cx="104" cy="8" r="0.9" fill="#666"/><circle cx="48" cy="27" r="0.9" fill="#666"/>
    <polygon points="42.5,8.2 26.5,3.2 29.5,10.2" fill="#666"/><polygon points="53.5,9.2 36.5,5.2 40.5,12.2" fill="#888"/>
    <circle cx="56.5" cy="9.2" r="2.6" fill="#fff"/>
  </g>
  <g transform="translate(512,0)">
    <circle cx="24" cy="6" r="0.9" fill="#666"/><circle cx="70" cy="25" r="0.9" fill="#666"/>
    <circle cx="104" cy="8" r="0.9" fill="#666"/><circle cx="48" cy="27" r="0.9" fill="#666"/>
    <polygon points="58.0,8.2 42.0,3.2 45.0,10.2" fill="#666"/><polygon points="69.0,9.2 52.0,5.2 56.0,12.2" fill="#888"/>
    <circle cx="72.0" cy="9.2" r="2.6" fill="#fff"/>
  </g>
  <g transform="translate(640,0)">
    <circle cx="24" cy="6" r="0.9" fill="#666"/><circle cx="70" cy="25" r="0.9" fill="#666"/>
    <circle cx="104" cy="8" r="0.9" fill="#666"/><circle cx="48" cy="27" r="0.9" fill="#666"/>
    <polygon points="73.5,9.5 57.5,4.5 60.5,11.5" fill="#666"/><polygon points="84.5,10.5 67.5,6.5 71.5,13.5" fill="#888"/>
    <circle cx="87.5" cy="10.5" r="2.6" fill="#fff"/>
  </g>
  <g transform="translate(768,0)">
    <circle cx="24" cy="6" r="0.9" fill="#666"/><circle cx="70" cy="25" r="0.9" fill="#666"/>
    <circle cx="104" cy="8" r="0.9" fill="#666"/><circle cx="48" cy="27" r="0.9" fill="#666"/>
    <polygon points="89.0,12.0 73.0,7.0 76.0,14.0" fill="#666"/><polygon points="100.0,13.0 83.0,9.0 87.0,16.0" fill="#888"/>
    <circle cx="103.0" cy="13.0" r="2.6" fill="#fff"/>
  </g>
  <g transform="translate(896,0)">
    <circle cx="24" cy="6" r="0.9" fill="#666"/><circle cx="70" cy="25" r="0.9" fill="#666"/>
    <circle cx="104" cy="8" r="0.9" fill="#666"/><circle cx="48" cy="27" r="0.9" fill="#666"/>
    <polygon points="104.5,15.0 88.5,10.0 91.5,17.0" fill="#666"/><polygon points="115.5,16.0 98.5,12.0 102.5,19.0" fill="#888"/>
    <circle cx="118.5" cy="16.0" r="2.6" fill="#fff"/>
  </g>
</svg>
