<svg xmlns="http://www.w3.org/2000/svg" viewBox="0 0 1024 32" width="1024" height="32">
  <!-- THE SUMP DMD scene: OUTFLOW — the ball silhouette rides the pipe up and out, arcing back into the field. The outflow award.
       8 frames of 128x32 (style guide 6): #fff=3, #888=2, #666=1, black=0.
       Art rows 0..22; caption row 24. -->
  <rect width="1024" height="32" fill="#000"/>

  <g transform="translate(0,0)">
    <path d="M 8 28 Q 40 6 74 8" fill="none" stroke="#666" stroke-width="1.2"/>
    <path d="M 8 24 Q 40 2 74 4" fill="none" stroke="#666" stroke-width="1.2"/>
    <circle cx="14.0" cy="26.0" r="2.6" fill="#fff"/>
    <circle cx="9.0" cy="28.0" r="1.2" fill="#888"/>
  </g>
  <g transform="translate(128,0)">
    <path d="M 8 28 Q 40 6 74 8" fill="none" stroke="#666" stroke-width="1.2"/>
    <path d="M 8 24 Q 40 2 74 4" fill="none" stroke="#666" stroke-width="1.2"/>
    <circle cx="28.3" cy="14.3" r="2.6" fill="#fff"/>
    <circle cx="23.3" cy="16.3" r="1.2" fill="#888"/>
  </g>
  <g transform="translate(256,0)">
    <path d="M 8 28 Q 40 6 74 8" fill="none" stroke="#666" stroke-width="1.2"/>
    <path d="M 8 24 Q 40 2 74 4" fill="none" stroke="#666" stroke-width="1.2"/>
    <circle cx="42.6" cy="6.2" r="2.6" fill="#fff"/>
    <circle cx="37.6" cy="8.2" r="1.2" fill="#888"/>
  </g>
  <g transform="translate(384,0)">
    <path d="M 8 28 Q 40 6 74 8" fill="none" stroke="#666" stroke-width="1.2"/>
    <path d="M 8 24 Q 40 2 74 4" fill="none" stroke="#666" stroke-width="1.2"/>
    <circle cx="56.9" cy="3.0" r="2.6" fill="#fff"/>
    <circle cx="51.9" cy="3.8" r="1.2" fill="#888"/>
  </g>
  <g transform="translate(512,0)">
    <path d="M 8 28 Q 40 6 74 8" fill="none" stroke="#666" stroke-width="1.2"/>
    <path d="M 8 24 Q 40 2 74 4" fill="none" stroke="#666" stroke-width="1.2"/>
    <circle cx="71.1" cy="3.0" r="2.6" fill="#fff"/>
    <circle cx="66.1" cy="3.0" r="1.2" fill="#888"/>
  </g>
  <g transform="translate(640,0)">
    <path d="M 8 28 Q 40 6 74 8" fill="none" stroke="#666" stroke-width="1.2"/>
    <path d="M 8 24 Q 40 2 74 4" fill="none" stroke="#666" stroke-width="1.2"/>
    <circle cx="85.4" cy="3.7" r="2.6" fill="#fff"/>
    <circle cx="80.4" cy="5.7" r="1.2" fill="#888"/>
  </g>
  <g transform="translate(768,0)">
    <path d="M 8 28 Q 40 6 74 8" fill="none" stroke="#666" stroke-width="1.2"/>
    <path d="M 8 24 Q 40 2 74 4" fill="none" stroke="#666" stroke-width="1.2"/>
    <circle cx="99.7" cy="10.0" r="2.6" fill="#fff"/>
    <circle cx="94.7" cy="12.0" r="1.2" fill="#888"/>
  </g>
  <g transform="translate(896,0)">
    <path d="M 8 28 Q 40 6 74 8" fill="none" stroke="#666" stroke-width="1.2"/>
    <path d="M 8 24 Q 40 2 74 4" fill="none" stroke="#666" stroke-width="1.2"/>
    <circle cx="114.0" cy="20.0" r="2.6" fill="#fff"/>
    <circle cx="109.0" cy="22.0" r="1.2" fill="#888"/>
  </g>
</svg>
