<svg xmlns="http://www.w3.org/2000/svg" viewBox="0 0 1024 32" width="1024" height="32">
  <!-- SUMP DMD scene: PRESSURE TEST — the needle sweeps toward the bright arc — 8 frames of 128x32, baked to 4-level dot frames at load.
       Levels by luminance: #fff=3, #888=2, #666=1. -->
  <rect width="1024" height="32" fill="#000"/>
  <g transform="translate(0,0)"><path d="M 42 28 A 22 22 0 0 1 86 28" fill="none" stroke="#666" stroke-width="1.4"/><path d="M 74.6 8.7 A 22 22 0 0 1 84.9 21.2" fill="none" stroke="#fff" stroke-width="2.2"/><line x1="46.2" y1="15.1" x2="48.6" y2="16.8" stroke="#666" stroke-width="0.8"/><line x1="57.2" y1="7.1" x2="58.1" y2="9.9" stroke="#666" stroke-width="0.8"/><line x1="70.8" y1="7.1" x2="69.9" y2="9.9" stroke="#666" stroke-width="0.8"/><line x1="81.8" y1="15.1" x2="79.4" y2="16.8" stroke="#666" stroke-width="0.8"/><line x1="64" y1="28" x2="42.0" y2="28.0" stroke="#888" stroke-width="1.6"/><circle cx="64" cy="28" r="2" fill="#888"/><line x1="8" y1="30" x2="30" y2="30" stroke="#666" stroke-width="1.6"/><line x1="98" y1="30" x2="120" y2="30" stroke="#666" stroke-width="1.6"/></g>
  <g transform="translate(128,0)"><path d="M 42 28 A 22 22 0 0 1 86 28" fill="none" stroke="#666" stroke-width="1.4"/><path d="M 74.6 8.7 A 22 22 0 0 1 84.9 21.2" fill="none" stroke="#fff" stroke-width="2.2"/><line x1="46.2" y1="15.1" x2="48.6" y2="16.8" stroke="#666" stroke-width="0.8"/><line x1="57.2" y1="7.1" x2="58.1" y2="9.9" stroke="#666" stroke-width="0.8"/><line x1="70.8" y1="7.1" x2="69.9" y2="9.9" stroke="#666" stroke-width="0.8"/><line x1="81.8" y1="15.1" x2="79.4" y2="16.8" stroke="#666" stroke-width="0.8"/><line x1="64" y1="28" x2="43.6" y2="19.7" stroke="#888" stroke-width="1.6"/><circle cx="64" cy="28" r="2" fill="#888"/><line x1="8" y1="30" x2="30" y2="30" stroke="#666" stroke-width="1.6"/><line x1="98" y1="30" x2="120" y2="30" stroke="#666" stroke-width="1.6"/></g>
  <g transform="translate(256,0)"><path d="M 42 28 A 22 22 0 0 1 86 28" fill="none" stroke="#666" stroke-width="1.4"/><path d="M 74.6 8.7 A 22 22 0 0 1 84.9 21.2" fill="none" stroke="#fff" stroke-width="2.2"/><line x1="46.2" y1="15.1" x2="48.6" y2="16.8" stroke="#666" stroke-width="0.8"/><line x1="57.2" y1="7.1" x2="58.1" y2="9.9" stroke="#666" stroke-width="0.8"/><line x1="70.8" y1="7.1" x2="69.9" y2="9.9" stroke="#666" stroke-width="0.8"/><line x1="81.8" y1="15.1" x2="79.4" y2="16.8" stroke="#666" stroke-width="0.8"/><line x1="64" y1="28" x2="48.2" y2="12.6" stroke="#888" stroke-width="1.6"/><circle cx="64" cy="28" r="2" fill="#888"/><line x1="8" y1="30" x2="30" y2="30" stroke="#666" stroke-width="1.6"/><line x1="98" y1="30" x2="120" y2="30" stroke="#666" stroke-width="1.6"/></g>
  <g transform="translate(384,0)"><path d="M 42 28 A 22 22 0 0 1 86 28" fill="none" stroke="#666" stroke-width="1.4"/><path d="M 74.6 8.7 A 22 22 0 0 1 84.9 21.2" fill="none" stroke="#fff" stroke-width="2.2"/><line x1="46.2" y1="15.1" x2="48.6" y2="16.8" stroke="#666" stroke-width="0.8"/><line x1="57.2" y1="7.1" x2="58.1" y2="9.9" stroke="#666" stroke-width="0.8"/><line x1="70.8" y1="7.1" x2="69.9" y2="9.9" stroke="#666" stroke-width="0.8"/><line x1="81.8" y1="15.1" x2="79.4" y2="16.8" stroke="#666" stroke-width="0.8"/><line x1="64" y1="28" x2="55.2" y2="7.8" stroke="#888" stroke-width="1.6"/><circle cx="64" cy="28" r="2" fill="#888"/><line x1="8" y1="30" x2="30" y2="30" stroke="#666" stroke-width="1.6"/><line x1="98" y1="30" x2="120" y2="30" stroke="#666" stroke-width="1.6"/></g>
  <g transform="translate(512,0)"><path d="M 42 28 A 22 22 0 0 1 86 28" fill="none" stroke="#666" stroke-width="1.4"/><path d="M 74.6 8.7 A 22 22 0 0 1 84.9 21.2" fill="none" stroke="#fff" stroke-width="2.2"/><line x1="46.2" y1="15.1" x2="48.6" y2="16.8" stroke="#666" stroke-width="0.8"/><line x1="57.2" y1="7.1" x2="58.1" y2="9.9" stroke="#666" stroke-width="0.8"/><line x1="70.8" y1="7.1" x2="69.9" y2="9.9" stroke="#666" stroke-width="0.8"/><line x1="81.8" y1="15.1" x2="79.4" y2="16.8" stroke="#666" stroke-width="0.8"/><line x1="64" y1="28" x2="63.4" y2="6.0" stroke="#888" stroke-width="1.6"/><circle cx="64" cy="28" r="2" fill="#888"/><line x1="8" y1="30" x2="30" y2="30" stroke="#666" stroke-width="1.6"/><line x1="98" y1="30" x2="120" y2="30" stroke="#666" stroke-width="1.6"/></g>
  <g transform="translate(640,0)"><path d="M 42 28 A 22 22 0 0 1 86 28" fill="none" stroke="#666" stroke-width="1.4"/><path d="M 74.6 8.7 A 22 22 0 0 1 84.9 21.2" fill="none" stroke="#fff" stroke-width="2.2"/><line x1="46.2" y1="15.1" x2="48.6" y2="16.8" stroke="#666" stroke-width="0.8"/><line x1="57.2" y1="7.1" x2="58.1" y2="9.9" stroke="#666" stroke-width="0.8"/><line x1="70.8" y1="7.1" x2="69.9" y2="9.9" stroke="#666" stroke-width="0.8"/><line x1="81.8" y1="15.1" x2="79.4" y2="16.8" stroke="#666" stroke-width="0.8"/><line x1="64" y1="28" x2="71.8" y2="7.4" stroke="#888" stroke-width="1.6"/><circle cx="64" cy="28" r="2" fill="#888"/><line x1="8" y1="30" x2="30" y2="30" stroke="#666" stroke-width="1.6"/><line x1="98" y1="30" x2="120" y2="30" stroke="#666" stroke-width="1.6"/></g>
  <g transform="translate(768,0)"><path d="M 42 28 A 22 22 0 0 1 86 28" fill="none" stroke="#666" stroke-width="1.4"/><path d="M 74.6 8.7 A 22 22 0 0 1 84.9 21.2" fill="none" stroke="#fff" stroke-width="2.2"/><line x1="46.2" y1="15.1" x2="48.6" y2="16.8" stroke="#666" stroke-width="0.8"/><line x1="57.2" y1="7.1" x2="58.1" y2="9.9" stroke="#666" stroke-width="0.8"/><line x1="70.8" y1="7.1" x2="69.9" y2="9.9" stroke="#666" stroke-width="0.8"/><line x1="81.8" y1="15.1" x2="79.4" y2="16.8" stroke="#666" stroke-width="0.8"/><line x1="64" y1="28" x2="79.0" y2="11.9" stroke="#fff" stroke-width="1.6"/><circle cx="64" cy="28" r="2" fill="#888"/><line x1="8" y1="30" x2="30" y2="30" stroke="#666" stroke-width="1.6"/><line x1="98" y1="30" x2="120" y2="30" stroke="#666" stroke-width="1.6"/></g>
  <g transform="translate(896,0)"><path d="M 42 28 A 22 22 0 0 1 86 28" fill="none" stroke="#666" stroke-width="1.4"/><path d="M 74.6 8.7 A 22 22 0 0 1 84.9 21.2" fill="none" stroke="#fff" stroke-width="2.2"/><line x1="46.2" y1="15.1" x2="48.6" y2="16.8" stroke="#666" stroke-width="0.8"/><line x1="57.2" y1="7.1" x2="58.1" y2="9.9" stroke="#666" stroke-width="0.8"/><line x1="70.8" y1="7.1" x2="69.9" y2="9.9" stroke="#666" stroke-width="0.8"/><line x1="81.8" y1="15.1" x2="79.4" y2="16.8" stroke="#666" stroke-width="0.8"/><line x1="64" y1="28" x2="82.6" y2="16.2" stroke="#fff" stroke-width="1.6"/><circle cx="64" cy="28" r="2" fill="#888"/><line x1="8" y1="30" x2="30" y2="30" stroke="#666" stroke-width="1.6"/><line x1="98" y1="30" x2="120" y2="30" stroke="#666" stroke-width="1.6"/></g>
</svg>
