<svg xmlns="http://www.w3.org/2000/svg" viewBox="0 0 1024 32" width="1024" height="32">
  <!-- THE SUMP DMD scene: THE PUMPS — pistons hammering while the water rises from the bottom of the frame. The chamber flood warning.
       8 frames of 128x32 (style guide 6): #fff=3, #888=2, #666=1, black=0.
       Art rows 0..22; caption row 24. -->
  <rect width="1024" height="32" fill="#000"/>

  <g transform="translate(0,0)">
    <rect x="30" y="6" width="10" height="8" fill="#fff"/>
    <line x1="35" y1="2" x2="35" y2="6" stroke="#888" stroke-width="1.4"/>
    <rect x="56" y="12" width="10" height="8" fill="#fff"/>
    <line x1="61" y1="2" x2="61" y2="12" stroke="#888" stroke-width="1.4"/>
    <rect x="82" y="6" width="10" height="8" fill="#fff"/>
    <line x1="87" y1="2" x2="87" y2="6" stroke="#888" stroke-width="1.4"/>
    <line x1="4" y1="26" x2="124" y2="26" stroke="#888" stroke-width="1"/>
    <line x1="4" y1="29" x2="124" y2="29" stroke="#666" stroke-width="1"/>
  </g>
  <g transform="translate(128,0)">
    <rect x="30" y="12" width="10" height="8" fill="#fff"/>
    <line x1="35" y1="2" x2="35" y2="12" stroke="#888" stroke-width="1.4"/>
    <rect x="56" y="6" width="10" height="8" fill="#fff"/>
    <line x1="61" y1="2" x2="61" y2="6" stroke="#888" stroke-width="1.4"/>
    <rect x="82" y="12" width="10" height="8" fill="#fff"/>
    <line x1="87" y1="2" x2="87" y2="12" stroke="#888" stroke-width="1.4"/>
    <line x1="4" y1="25" x2="124" y2="25" stroke="#888" stroke-width="1"/>
    <line x1="4" y1="28" x2="124" y2="28" stroke="#666" stroke-width="1"/>
  </g>
  <g transform="translate(256,0)">
    <rect x="30" y="6" width="10" height="8" fill="#fff"/>
    <line x1="35" y1="2" x2="35" y2="6" stroke="#888" stroke-width="1.4"/>
    <rect x="56" y="12" width="10" height="8" fill="#fff"/>
    <line x1="61" y1="2" x2="61" y2="12" stroke="#888" stroke-width="1.4"/>
    <rect x="82" y="6" width="10" height="8" fill="#fff"/>
    <line x1="87" y1="2" x2="87" y2="6" stroke="#888" stroke-width="1.4"/>
    <line x1="4" y1="23" x2="124" y2="23" stroke="#888" stroke-width="1"/>
    <line x1="4" y1="28" x2="124" y2="28" stroke="#666" stroke-width="1"/>
  </g>
  <g transform="translate(384,0)">
    <rect x="30" y="12" width="10" height="8" fill="#fff"/>
    <line x1="35" y1="2" x2="35" y2="12" stroke="#888" stroke-width="1.4"/>
    <rect x="56" y="6" width="10" height="8" fill="#fff"/>
    <line x1="61" y1="2" x2="61" y2="6" stroke="#888" stroke-width="1.4"/>
    <rect x="82" y="12" width="10" height="8" fill="#fff"/>
    <line x1="87" y1="2" x2="87" y2="12" stroke="#888" stroke-width="1.4"/>
    <line x1="4" y1="22" x2="124" y2="22" stroke="#888" stroke-width="1"/>
    <line x1="4" y1="27" x2="124" y2="27" stroke="#666" stroke-width="1"/>
  </g>
  <g transform="translate(512,0)">
    <rect x="30" y="6" width="10" height="8" fill="#fff"/>
    <line x1="35" y1="2" x2="35" y2="6" stroke="#888" stroke-width="1.4"/>
    <rect x="56" y="12" width="10" height="8" fill="#fff"/>
    <line x1="61" y1="2" x2="61" y2="12" stroke="#888" stroke-width="1.4"/>
    <rect x="82" y="6" width="10" height="8" fill="#fff"/>
    <line x1="87" y1="2" x2="87" y2="6" stroke="#888" stroke-width="1.4"/>
    <line x1="4" y1="20" x2="124" y2="20" stroke="#888" stroke-width="1"/>
    <line x1="4" y1="26" x2="124" y2="26" stroke="#666" stroke-width="1"/>
  </g>
  <g transform="translate(640,0)">
    <rect x="30" y="12" width="10" height="8" fill="#fff"/>
    <line x1="35" y1="2" x2="35" y2="12" stroke="#888" stroke-width="1.4"/>
    <rect x="56" y="6" width="10" height="8" fill="#fff"/>
    <line x1="61" y1="2" x2="61" y2="6" stroke="#888" stroke-width="1.4"/>
    <rect x="82" y="12" width="10" height="8" fill="#fff"/>
    <line x1="87" y1="2" x2="87" y2="12" stroke="#888" stroke-width="1.4"/>
    <line x1="4" y1="19" x2="124" y2="19" stroke="#888" stroke-width="1"/>
    <line x1="4" y1="25" x2="124" y2="25" stroke="#666" stroke-width="1"/>
  </g>
  <g transform="translate(768,0)">
    <rect x="30" y="6" width="10" height="8" fill="#fff"/>
    <line x1="35" y1="2" x2="35" y2="6" stroke="#888" stroke-width="1.4"/>
    <rect x="56" y="12" width="10" height="8" fill="#fff"/>
    <line x1="61" y1="2" x2="61" y2="12" stroke="#888" stroke-width="1.4"/>
    <rect x="82" y="6" width="10" height="8" fill="#fff"/>
    <line x1="87" y1="2" x2="87" y2="6" stroke="#888" stroke-width="1.4"/>
    <line x1="4" y1="17" x2="124" y2="17" stroke="#888" stroke-width="1"/>
    <line x1="4" y1="25" x2="124" y2="25" stroke="#666" stroke-width="1"/>
  </g>
  <g transform="translate(896,0)">
    <rect x="30" y="12" width="10" height="8" fill="#fff"/>
    <line x1="35" y1="2" x2="35" y2="12" stroke="#888" stroke-width="1.4"/>
    <rect x="56" y="6" width="10" height="8" fill="#fff"/>
    <line x1="61" y1="2" x2="61" y2="6" stroke="#888" stroke-width="1.4"/>
    <rect x="82" y="12" width="10" height="8" fill="#fff"/>
    <line x1="87" y1="2" x2="87" y2="12" stroke="#888" stroke-width="1.4"/>
    <line x1="4" y1="16" x2="124" y2="16" stroke="#888" stroke-width="1"/>
    <line x1="4" y1="24" x2="124" y2="24" stroke="#666" stroke-width="1"/>
  </g>
</svg>
