<svg xmlns="http://www.w3.org/2000/svg" viewBox="0 0 1024 32" width="1024" height="32">
  <!-- SUMMIT DMD scene: FORECAST - three instrument needles sweep and settle in turn. Reads / the forecast.
       8 frames of 128x32: #fff=3, #888=2, #666=1, black=0. -->
  <rect width="1024" height="32" fill="#000"/>

  <g transform="translate(0,0)">
    <path d="M 16 16 A 10 10 0 0 1 36 16" fill="none" stroke="#666" stroke-width="1"/>
    <line x1="26" y1="16" x2="21.3" y2="11.1" stroke="#888" stroke-width="1.3"/>
    <path d="M 54 16 A 10 10 0 0 1 74 16" fill="none" stroke="#666" stroke-width="1"/>
    <line x1="64" y1="16" x2="59.3" y2="11.1" stroke="#888" stroke-width="1.3"/>
    <path d="M 92 16 A 10 10 0 0 1 112 16" fill="none" stroke="#666" stroke-width="1"/>
    <line x1="102" y1="16" x2="97.3" y2="11.1" stroke="#888" stroke-width="1.3"/>
  </g>
  <g transform="translate(128,0)">
    <path d="M 16 16 A 10 10 0 0 1 36 16" fill="none" stroke="#666" stroke-width="1"/>
    <line x1="26" y1="16" x2="32.5" y2="12.5" stroke="#fff" stroke-width="1.3"/>
    <path d="M 54 16 A 10 10 0 0 1 74 16" fill="none" stroke="#666" stroke-width="1"/>
    <line x1="64" y1="16" x2="59.3" y2="11.1" stroke="#888" stroke-width="1.3"/>
    <path d="M 92 16 A 10 10 0 0 1 112 16" fill="none" stroke="#666" stroke-width="1"/>
    <line x1="102" y1="16" x2="97.3" y2="11.1" stroke="#888" stroke-width="1.3"/>
  </g>
  <g transform="translate(256,0)">
    <path d="M 16 16 A 10 10 0 0 1 36 16" fill="none" stroke="#666" stroke-width="1"/>
    <line x1="26" y1="16" x2="32.5" y2="12.5" stroke="#fff" stroke-width="1.3"/>
    <path d="M 54 16 A 10 10 0 0 1 74 16" fill="none" stroke="#666" stroke-width="1"/>
    <line x1="64" y1="16" x2="59.3" y2="11.1" stroke="#888" stroke-width="1.3"/>
    <path d="M 92 16 A 10 10 0 0 1 112 16" fill="none" stroke="#666" stroke-width="1"/>
    <line x1="102" y1="16" x2="97.3" y2="11.1" stroke="#888" stroke-width="1.3"/>
  </g>
  <g transform="translate(384,0)">
    <path d="M 16 16 A 10 10 0 0 1 36 16" fill="none" stroke="#666" stroke-width="1"/>
    <line x1="26" y1="16" x2="32.5" y2="12.5" stroke="#fff" stroke-width="1.3"/>
    <path d="M 54 16 A 10 10 0 0 1 74 16" fill="none" stroke="#666" stroke-width="1"/>
    <line x1="64" y1="16" x2="70.5" y2="12.5" stroke="#fff" stroke-width="1.3"/>
    <path d="M 92 16 A 10 10 0 0 1 112 16" fill="none" stroke="#666" stroke-width="1"/>
    <line x1="102" y1="16" x2="97.3" y2="11.1" stroke="#888" stroke-width="1.3"/>
  </g>
  <g transform="translate(512,0)">
    <path d="M 16 16 A 10 10 0 0 1 36 16" fill="none" stroke="#666" stroke-width="1"/>
    <line x1="26" y1="16" x2="32.5" y2="12.5" stroke="#fff" stroke-width="1.3"/>
    <path d="M 54 16 A 10 10 0 0 1 74 16" fill="none" stroke="#666" stroke-width="1"/>
    <line x1="64" y1="16" x2="70.5" y2="12.5" stroke="#fff" stroke-width="1.3"/>
    <path d="M 92 16 A 10 10 0 0 1 112 16" fill="none" stroke="#666" stroke-width="1"/>
    <line x1="102" y1="16" x2="97.3" y2="11.1" stroke="#888" stroke-width="1.3"/>
  </g>
  <g transform="translate(640,0)">
    <path d="M 16 16 A 10 10 0 0 1 36 16" fill="none" stroke="#666" stroke-width="1"/>
    <line x1="26" y1="16" x2="32.5" y2="12.5" stroke="#fff" stroke-width="1.3"/>
    <path d="M 54 16 A 10 10 0 0 1 74 16" fill="none" stroke="#666" stroke-width="1"/>
    <line x1="64" y1="16" x2="70.5" y2="12.5" stroke="#fff" stroke-width="1.3"/>
    <path d="M 92 16 A 10 10 0 0 1 112 16" fill="none" stroke="#666" stroke-width="1"/>
    <line x1="102" y1="16" x2="108.5" y2="12.5" stroke="#fff" stroke-width="1.3"/>
  </g>
  <g transform="translate(768,0)">
    <path d="M 16 16 A 10 10 0 0 1 36 16" fill="none" stroke="#666" stroke-width="1"/>
    <line x1="26" y1="16" x2="32.5" y2="12.5" stroke="#fff" stroke-width="1.3"/>
    <path d="M 54 16 A 10 10 0 0 1 74 16" fill="none" stroke="#666" stroke-width="1"/>
    <line x1="64" y1="16" x2="70.5" y2="12.5" stroke="#fff" stroke-width="1.3"/>
    <path d="M 92 16 A 10 10 0 0 1 112 16" fill="none" stroke="#666" stroke-width="1"/>
    <line x1="102" y1="16" x2="108.5" y2="12.5" stroke="#fff" stroke-width="1.3"/>
  </g>
  <g transform="translate(896,0)">
    <path d="M 16 16 A 10 10 0 0 1 36 16" fill="none" stroke="#666" stroke-width="1"/>
    <line x1="26" y1="16" x2="32.5" y2="12.5" stroke="#fff" stroke-width="1.3"/>
    <path d="M 54 16 A 10 10 0 0 1 74 16" fill="none" stroke="#666" stroke-width="1"/>
    <line x1="64" y1="16" x2="70.5" y2="12.5" stroke="#fff" stroke-width="1.3"/>
    <path d="M 92 16 A 10 10 0 0 1 112 16" fill="none" stroke="#666" stroke-width="1"/>
    <line x1="102" y1="16" x2="108.5" y2="12.5" stroke="#fff" stroke-width="1.3"/>
  </g>
</svg>
