<svg xmlns="http://www.w3.org/2000/svg" viewBox="0 0 896 32" width="896" height="32">
  <!-- MOONDIAL DMD scene: BALL SAVED — drop, bounce, rise — 7 frames of 128x32, baked to 4-level
       dot frames at load. Levels by luminance: #fff=3, #888=2, #666=1. -->
  <rect width="896" height="32" fill="#000"/>
  <g transform="translate(0,0)"><circle cx="30" cy="6" r="0.9" fill="#666"/><circle cx="98" cy="9" r="0.9" fill="#666"/><circle cx="64" cy="3" r="3.4" fill="#fff"/><circle cx="62.8" cy="1.8" r="1" fill="#888"/></g>
  <g transform="translate(128,0)"><circle cx="30" cy="6" r="0.9" fill="#666"/><circle cx="98" cy="9" r="0.9" fill="#666"/><circle cx="64" cy="3" r="2.2" fill="#666"/><circle cx="64" cy="10" r="3.4" fill="#fff"/><circle cx="62.8" cy="8.8" r="1" fill="#888"/></g>
  <g transform="translate(256,0)"><circle cx="30" cy="6" r="0.9" fill="#666"/><circle cx="98" cy="9" r="0.9" fill="#666"/><circle cx="64" cy="10" r="2.2" fill="#666"/><circle cx="64" cy="18" r="3.4" fill="#fff"/><circle cx="62.8" cy="16.8" r="1" fill="#888"/></g>
  <g transform="translate(384,0)"><circle cx="30" cy="6" r="0.9" fill="#666"/><circle cx="98" cy="9" r="0.9" fill="#666"/><circle cx="64" cy="18" r="2.2" fill="#666"/><ellipse cx="64" cy="21.5" rx="5" ry="2.8" fill="#fff"/><line x1="71.3" y1="19.5" x2="75.8" y2="17.8" stroke="#888" stroke-width="1.6"/><line x1="67.4" y1="16.6" x2="69.5" y2="12.9" stroke="#888" stroke-width="1.6"/><line x1="60.6" y1="16.6" x2="58.5" y2="12.9" stroke="#888" stroke-width="1.6"/><line x1="56.7" y1="19.5" x2="52.2" y2="17.8" stroke="#888" stroke-width="1.6"/></g>
  <g transform="translate(512,0)"><circle cx="30" cy="6" r="0.9" fill="#666"/><circle cx="98" cy="9" r="0.9" fill="#666"/><circle cx="64" cy="21" r="2.2" fill="#666"/><circle cx="64" cy="16" r="3.4" fill="#fff"/><circle cx="62.8" cy="14.8" r="1" fill="#888"/><line x1="71.4" y1="17.0" x2="73.8" y2="15.3" stroke="#666" stroke-width="1.4"/><line x1="64.0" y1="14.0" x2="64.0" y2="11.0" stroke="#666" stroke-width="1.4"/><line x1="56.6" y1="17.0" x2="54.2" y2="15.3" stroke="#666" stroke-width="1.4"/></g>
  <g transform="translate(640,0)"><circle cx="30" cy="6" r="0.9" fill="#666"/><circle cx="98" cy="9" r="0.9" fill="#666"/><circle cx="64" cy="16" r="2.2" fill="#666"/><circle cx="64" cy="9" r="3.4" fill="#fff"/><circle cx="62.8" cy="7.8" r="1" fill="#888"/></g>
  <g transform="translate(768,0)"><circle cx="30" cy="6" r="0.9" fill="#666"/><circle cx="98" cy="9" r="0.9" fill="#666"/><circle cx="64" cy="9" r="2.2" fill="#666"/><circle cx="64" cy="4" r="3.4" fill="#fff"/><circle cx="62.8" cy="2.8" r="1" fill="#888"/></g>
</svg>
