<svg xmlns="http://www.w3.org/2000/svg" viewBox="0 0 1024 32" width="1024" height="32">
  <!-- MIDNIGHT MIDWAY DMD scene: SKY RIDE — a lit gondola glides the cable
       across the night park, swaying as it goes. The combo twin of Moondial's
       ORBIT sweep. 8 frames of 128x32 (style guide §6): #fff=3, #888=2,
       #666=1, black=0. Art rows 0..22; caption from row 24. -->
  <rect width="1024" height="32" fill="#000"/>

  <!-- gondola x per frame: 12,28,44,60,76,92,108,120; cable slopes 5->9;
       sway offsets the car; two stars sit under the caption clear-zone -->
  <g transform="translate(0,0)">
    <line x1="0" y1="5" x2="128" y2="9" stroke="#888" stroke-width="1.2"/>
    <circle cx="26" cy="20" r="0.9" fill="#666"/><circle cx="98" cy="21" r="0.9" fill="#666"/>
    <line x1="12" y1="5.4" x2="11" y2="11" stroke="#888" stroke-width="1"/>
    <rect x="7" y="11" width="8" height="5" rx="1" fill="#fff"/>
    <line x1="7" y1="13.5" x2="15" y2="13.5" stroke="#666" stroke-width="0.8"/>
    <circle cx="11" cy="17" r="0.7" fill="#888"/>
  </g>
  <g transform="translate(128,0)">
    <line x1="0" y1="5" x2="128" y2="9" stroke="#888" stroke-width="1.2"/>
    <circle cx="26" cy="20" r="0.9" fill="#666"/><circle cx="98" cy="21" r="0.9" fill="#666"/>
    <line x1="28" y1="5.9" x2="28" y2="11" stroke="#888" stroke-width="1"/>
    <rect x="24" y="11" width="8" height="5" rx="1" fill="#fff"/>
    <line x1="24" y1="13.5" x2="32" y2="13.5" stroke="#666" stroke-width="0.8"/>
    <circle cx="28" cy="17" r="0.7" fill="#888"/>
  </g>
  <g transform="translate(256,0)">
    <line x1="0" y1="5" x2="128" y2="9" stroke="#888" stroke-width="1.2"/>
    <circle cx="26" cy="20" r="0.9" fill="#666"/><circle cx="98" cy="21" r="0.9" fill="#666"/>
    <line x1="44" y1="6.4" x2="45" y2="12" stroke="#888" stroke-width="1"/>
    <rect x="41" y="12" width="8" height="5" rx="1" fill="#fff"/>
    <line x1="41" y1="14.5" x2="49" y2="14.5" stroke="#666" stroke-width="0.8"/>
    <circle cx="45" cy="18" r="0.7" fill="#888"/>
  </g>
  <g transform="translate(384,0)">
    <line x1="0" y1="5" x2="128" y2="9" stroke="#888" stroke-width="1.2"/>
    <circle cx="26" cy="20" r="0.9" fill="#666"/><circle cx="98" cy="21" r="0.9" fill="#666"/>
    <line x1="60" y1="6.9" x2="60" y2="12" stroke="#888" stroke-width="1"/>
    <rect x="56" y="12" width="8" height="5" rx="1" fill="#fff"/>
    <line x1="56" y1="14.5" x2="64" y2="14.5" stroke="#666" stroke-width="0.8"/>
    <circle cx="60" cy="18" r="0.7" fill="#888"/>
  </g>
  <g transform="translate(512,0)">
    <line x1="0" y1="5" x2="128" y2="9" stroke="#888" stroke-width="1.2"/>
    <circle cx="26" cy="20" r="0.9" fill="#666"/><circle cx="98" cy="21" r="0.9" fill="#666"/>
    <line x1="76" y1="7.4" x2="75" y2="13" stroke="#888" stroke-width="1"/>
    <rect x="71" y="13" width="8" height="5" rx="1" fill="#fff"/>
    <line x1="71" y1="15.5" x2="79" y2="15.5" stroke="#666" stroke-width="0.8"/>
    <circle cx="75" cy="19" r="0.7" fill="#888"/>
  </g>
  <g transform="translate(640,0)">
    <line x1="0" y1="5" x2="128" y2="9" stroke="#888" stroke-width="1.2"/>
    <circle cx="26" cy="20" r="0.9" fill="#666"/><circle cx="98" cy="21" r="0.9" fill="#666"/>
    <line x1="92" y1="7.9" x2="92" y2="13" stroke="#888" stroke-width="1"/>
    <rect x="88" y="13" width="8" height="5" rx="1" fill="#fff"/>
    <line x1="88" y1="15.5" x2="96" y2="15.5" stroke="#666" stroke-width="0.8"/>
    <circle cx="92" cy="19" r="0.7" fill="#888"/>
  </g>
  <g transform="translate(768,0)">
    <line x1="0" y1="5" x2="128" y2="9" stroke="#888" stroke-width="1.2"/>
    <circle cx="26" cy="20" r="0.9" fill="#666"/><circle cx="98" cy="21" r="0.9" fill="#666"/>
    <line x1="108" y1="8.4" x2="109" y2="14" stroke="#888" stroke-width="1"/>
    <rect x="105" y="14" width="8" height="5" rx="1" fill="#fff"/>
    <line x1="105" y1="16.5" x2="113" y2="16.5" stroke="#666" stroke-width="0.8"/>
    <circle cx="109" cy="20" r="0.7" fill="#888"/>
  </g>
  <g transform="translate(896,0)">
    <line x1="0" y1="5" x2="128" y2="9" stroke="#888" stroke-width="1.2"/>
    <circle cx="26" cy="20" r="0.9" fill="#666"/><circle cx="98" cy="21" r="0.9" fill="#666"/>
    <line x1="120" y1="8.7" x2="120" y2="14" stroke="#888" stroke-width="1"/>
    <rect x="116" y="14" width="8" height="5" rx="1" fill="#fff"/>
    <line x1="116" y1="16.5" x2="124" y2="16.5" stroke="#666" stroke-width="0.8"/>
    <circle cx="120" cy="20" r="0.7" fill="#888"/>
  </g>
</svg>
