<svg xmlns="http://www.w3.org/2000/svg" viewBox="0 0 1024 32" width="1024" height="32">
  <!-- TIDEBREAKER DMD scene: SONAR SWEEP — the arm sweeps, contacts flare as it passes — 8 frames of 128x32, baked to 4-level dot frames at load.
       Levels by luminance: #fff=3, #888=2, #666=1. -->
  <rect width="1024" height="32" fill="#000"/>
  <g transform="translate(0,0)"><path d="M 38 30 A 26 26 0 0 1 90 30" fill="none" stroke="#666" stroke-width="1"/><path d="M 48 30 A 16 16 0 0 1 80 30" fill="none" stroke="#666" stroke-width="1"/><line x1="64" y1="30" x2="38.0" y2="30.0" stroke="#fff" stroke-width="1.6"/><circle cx="48" cy="14" r="1.6" fill="#888"/><circle cx="78" cy="10" r="1.2" fill="#666"/><circle cx="88" cy="22" r="1.2" fill="#666"/></g>
  <g transform="translate(128,0)"><path d="M 38 30 A 26 26 0 0 1 90 30" fill="none" stroke="#666" stroke-width="1"/><path d="M 48 30 A 16 16 0 0 1 80 30" fill="none" stroke="#666" stroke-width="1"/><line x1="64" y1="30" x2="47.8" y2="9.7" stroke="#fff" stroke-width="1.6"/><circle cx="48" cy="14" r="2.2" fill="#fff"/><circle cx="78" cy="10" r="1.2" fill="#666"/><circle cx="88" cy="22" r="1.2" fill="#666"/></g>
  <g transform="translate(256,0)"><path d="M 38 30 A 26 26 0 0 1 90 30" fill="none" stroke="#666" stroke-width="1"/><path d="M 48 30 A 16 16 0 0 1 80 30" fill="none" stroke="#666" stroke-width="1"/><line x1="64" y1="30" x2="69.8" y2="4.7" stroke="#fff" stroke-width="1.6"/><circle cx="48" cy="14" r="2.2" fill="#fff"/><circle cx="78" cy="10" r="1.6" fill="#888"/><circle cx="88" cy="22" r="1.2" fill="#666"/></g>
  <g transform="translate(384,0)"><path d="M 38 30 A 26 26 0 0 1 90 30" fill="none" stroke="#666" stroke-width="1"/><path d="M 48 30 A 16 16 0 0 1 80 30" fill="none" stroke="#666" stroke-width="1"/><line x1="64" y1="30" x2="87.4" y2="18.7" stroke="#fff" stroke-width="1.6"/><circle cx="48" cy="14" r="1.6" fill="#888"/><circle cx="78" cy="10" r="1.6" fill="#888"/><circle cx="88" cy="22" r="1.2" fill="#666"/></g>
  <g transform="translate(512,0)"><path d="M 38 30 A 26 26 0 0 1 90 30" fill="none" stroke="#666" stroke-width="1"/><path d="M 48 30 A 16 16 0 0 1 80 30" fill="none" stroke="#666" stroke-width="1"/><line x1="64" y1="30" x2="87.4" y2="41.3" stroke="#fff" stroke-width="1.6"/><circle cx="48" cy="14" r="1.2" fill="#666"/><circle cx="78" cy="10" r="2.2" fill="#fff"/><circle cx="88" cy="22" r="1.6" fill="#888"/></g>
  <g transform="translate(640,0)"><path d="M 38 30 A 26 26 0 0 1 90 30" fill="none" stroke="#666" stroke-width="1"/><path d="M 48 30 A 16 16 0 0 1 80 30" fill="none" stroke="#666" stroke-width="1"/><line x1="64" y1="30" x2="69.8" y2="55.3" stroke="#fff" stroke-width="1.6"/><circle cx="48" cy="14" r="1.2" fill="#666"/><circle cx="78" cy="10" r="1.6" fill="#888"/><circle cx="88" cy="22" r="2.2" fill="#fff"/></g>
  <g transform="translate(768,0)"><path d="M 38 30 A 26 26 0 0 1 90 30" fill="none" stroke="#666" stroke-width="1"/><path d="M 48 30 A 16 16 0 0 1 80 30" fill="none" stroke="#666" stroke-width="1"/><line x1="64" y1="30" x2="47.8" y2="50.3" stroke="#fff" stroke-width="1.6"/><circle cx="48" cy="14" r="1.2" fill="#666"/><circle cx="78" cy="10" r="1.2" fill="#666"/><circle cx="88" cy="22" r="2.2" fill="#fff"/></g>
  <g transform="translate(896,0)"><path d="M 38 30 A 26 26 0 0 1 90 30" fill="none" stroke="#666" stroke-width="1"/><path d="M 48 30 A 16 16 0 0 1 80 30" fill="none" stroke="#666" stroke-width="1"/><line x1="64" y1="30" x2="38.0" y2="30.0" stroke="#fff" stroke-width="1.6"/><circle cx="48" cy="14" r="1.2" fill="#666"/><circle cx="78" cy="10" r="1.2" fill="#666"/><circle cx="88" cy="22" r="1.6" fill="#888"/></g>
</svg>
