<svg xmlns="http://www.w3.org/2000/svg" viewBox="0 0 1024 32" width="1024" height="32">
  <!-- THUNDERHEAD DMD scene: SQUALL — rain bands cross the ship (loops) — 8 frames of 128x32, baked to 4-level dot frames at load.
       Levels by luminance: #fff=3, #888=2, #666=1. -->
  <rect width="1024" height="32" fill="#000"/>
  <g transform="translate(0,0)"><line x1="-15.0" y1="0" x2="-19.0" y2="5" stroke="#666" stroke-width="1"/><line x1="-12.8" y1="5" x2="-16.8" y2="10" stroke="#666" stroke-width="1"/><line x1="-10.6" y1="10" x2="-14.6" y2="15" stroke="#666" stroke-width="1"/><line x1="-8.4" y1="15" x2="-12.4" y2="20" stroke="#666" stroke-width="1"/><line x1="-6.2" y1="20" x2="-10.2" y2="25" stroke="#666" stroke-width="1"/><line x1="-4.0" y1="25" x2="-8.0" y2="30" stroke="#666" stroke-width="1"/><line x1="15.0" y1="0" x2="11.0" y2="5" stroke="#888" stroke-width="1"/><line x1="17.2" y1="5" x2="13.2" y2="10" stroke="#888" stroke-width="1"/><line x1="19.4" y1="10" x2="15.4" y2="15" stroke="#888" stroke-width="1"/><line x1="21.6" y1="15" x2="17.6" y2="20" stroke="#888" stroke-width="1"/><line x1="23.8" y1="20" x2="19.8" y2="25" stroke="#888" stroke-width="1"/><line x1="26.0" y1="25" x2="22.0" y2="30" stroke="#888" stroke-width="1"/><line x1="45.0" y1="0" x2="41.0" y2="5" stroke="#666" stroke-width="1"/><line x1="47.2" y1="5" x2="43.2" y2="10" stroke="#666" stroke-width="1"/><line x1="49.4" y1="10" x2="45.4" y2="15" stroke="#666" stroke-width="1"/><line x1="51.6" y1="15" x2="47.6" y2="20" stroke="#666" stroke-width="1"/><line x1="53.8" y1="20" x2="49.8" y2="25" stroke="#666" stroke-width="1"/><line x1="56.0" y1="25" x2="52.0" y2="30" stroke="#666" stroke-width="1"/><line x1="75.0" y1="0" x2="71.0" y2="5" stroke="#888" stroke-width="1"/><line x1="77.2" y1="5" x2="73.2" y2="10" stroke="#888" stroke-width="1"/><line x1="79.4" y1="10" x2="75.4" y2="15" stroke="#888" stroke-width="1"/><line x1="81.6" y1="15" x2="77.6" y2="20" stroke="#888" stroke-width="1"/><line x1="83.8" y1="20" x2="79.8" y2="25" stroke="#888" stroke-width="1"/><line x1="86.0" y1="25" x2="82.0" y2="30" stroke="#888" stroke-width="1"/><line x1="105.0" y1="0" x2="101.0" y2="5" stroke="#666" stroke-width="1"/><line x1="107.2" y1="5" x2="103.2" y2="10" stroke="#666" stroke-width="1"/><line x1="109.4" y1="10" x2="105.4" y2="15" stroke="#666" stroke-width="1"/><line x1="111.6" y1="15" x2="107.6" y2="20" stroke="#666" stroke-width="1"/><line x1="113.8" y1="20" x2="109.8" y2="25" stroke="#666" stroke-width="1"/><line x1="116.0" y1="25" x2="112.0" y2="30" stroke="#666" stroke-width="1"/><ellipse cx="64" cy="22" rx="22" ry="6" fill="none" stroke="#fff" stroke-width="1.4"/><rect x="58" y="27" width="12" height="4" fill="#fff"/></g>
  <g transform="translate(128,0)"><line x1="1.0" y1="0" x2="-3.0" y2="5" stroke="#666" stroke-width="1"/><line x1="3.2" y1="5" x2="-0.8" y2="10" stroke="#666" stroke-width="1"/><line x1="5.4" y1="10" x2="1.4" y2="15" stroke="#666" stroke-width="1"/><line x1="7.6" y1="15" x2="3.6" y2="20" stroke="#666" stroke-width="1"/><line x1="9.8" y1="20" x2="5.8" y2="25" stroke="#666" stroke-width="1"/><line x1="12.0" y1="25" x2="8.0" y2="30" stroke="#666" stroke-width="1"/><line x1="31.0" y1="0" x2="27.0" y2="5" stroke="#888" stroke-width="1"/><line x1="33.2" y1="5" x2="29.2" y2="10" stroke="#888" stroke-width="1"/><line x1="35.4" y1="10" x2="31.4" y2="15" stroke="#888" stroke-width="1"/><line x1="37.6" y1="15" x2="33.6" y2="20" stroke="#888" stroke-width="1"/><line x1="39.8" y1="20" x2="35.8" y2="25" stroke="#888" stroke-width="1"/><line x1="42.0" y1="25" x2="38.0" y2="30" stroke="#888" stroke-width="1"/><line x1="61.0" y1="0" x2="57.0" y2="5" stroke="#666" stroke-width="1"/><line x1="63.2" y1="5" x2="59.2" y2="10" stroke="#666" stroke-width="1"/><line x1="65.4" y1="10" x2="61.4" y2="15" stroke="#666" stroke-width="1"/><line x1="67.6" y1="15" x2="63.6" y2="20" stroke="#666" stroke-width="1"/><line x1="69.8" y1="20" x2="65.8" y2="25" stroke="#666" stroke-width="1"/><line x1="72.0" y1="25" x2="68.0" y2="30" stroke="#666" stroke-width="1"/><line x1="91.0" y1="0" x2="87.0" y2="5" stroke="#888" stroke-width="1"/><line x1="93.2" y1="5" x2="89.2" y2="10" stroke="#888" stroke-width="1"/><line x1="95.4" y1="10" x2="91.4" y2="15" stroke="#888" stroke-width="1"/><line x1="97.6" y1="15" x2="93.6" y2="20" stroke="#888" stroke-width="1"/><line x1="99.8" y1="20" x2="95.8" y2="25" stroke="#888" stroke-width="1"/><line x1="102.0" y1="25" x2="98.0" y2="30" stroke="#888" stroke-width="1"/><line x1="121.0" y1="0" x2="117.0" y2="5" stroke="#666" stroke-width="1"/><line x1="123.2" y1="5" x2="119.2" y2="10" stroke="#666" stroke-width="1"/><line x1="125.4" y1="10" x2="121.4" y2="15" stroke="#666" stroke-width="1"/><line x1="127.6" y1="15" x2="123.6" y2="20" stroke="#666" stroke-width="1"/><line x1="129.8" y1="20" x2="125.8" y2="25" stroke="#666" stroke-width="1"/><line x1="132.0" y1="25" x2="128.0" y2="30" stroke="#666" stroke-width="1"/><ellipse cx="64" cy="22" rx="22" ry="6" fill="none" stroke="#fff" stroke-width="1.4"/><rect x="58" y="27" width="12" height="4" fill="#fff"/></g>
  <g transform="translate(256,0)"><line x1="17.0" y1="0" x2="13.0" y2="5" stroke="#666" stroke-width="1"/><line x1="19.2" y1="5" x2="15.2" y2="10" stroke="#666" stroke-width="1"/><line x1="21.4" y1="10" x2="17.4" y2="15" stroke="#666" stroke-width="1"/><line x1="23.6" y1="15" x2="19.6" y2="20" stroke="#666" stroke-width="1"/><line x1="25.8" y1="20" x2="21.8" y2="25" stroke="#666" stroke-width="1"/><line x1="28.0" y1="25" x2="24.0" y2="30" stroke="#666" stroke-width="1"/><line x1="47.0" y1="0" x2="43.0" y2="5" stroke="#888" stroke-width="1"/><line x1="49.2" y1="5" x2="45.2" y2="10" stroke="#888" stroke-width="1"/><line x1="51.4" y1="10" x2="47.4" y2="15" stroke="#888" stroke-width="1"/><line x1="53.6" y1="15" x2="49.6" y2="20" stroke="#888" stroke-width="1"/><line x1="55.8" y1="20" x2="51.8" y2="25" stroke="#888" stroke-width="1"/><line x1="58.0" y1="25" x2="54.0" y2="30" stroke="#888" stroke-width="1"/><line x1="77.0" y1="0" x2="73.0" y2="5" stroke="#666" stroke-width="1"/><line x1="79.2" y1="5" x2="75.2" y2="10" stroke="#666" stroke-width="1"/><line x1="81.4" y1="10" x2="77.4" y2="15" stroke="#666" stroke-width="1"/><line x1="83.6" y1="15" x2="79.6" y2="20" stroke="#666" stroke-width="1"/><line x1="85.8" y1="20" x2="81.8" y2="25" stroke="#666" stroke-width="1"/><line x1="88.0" y1="25" x2="84.0" y2="30" stroke="#666" stroke-width="1"/><line x1="107.0" y1="0" x2="103.0" y2="5" stroke="#888" stroke-width="1"/><line x1="109.2" y1="5" x2="105.2" y2="10" stroke="#888" stroke-width="1"/><line x1="111.4" y1="10" x2="107.4" y2="15" stroke="#888" stroke-width="1"/><line x1="113.6" y1="15" x2="109.6" y2="20" stroke="#888" stroke-width="1"/><line x1="115.8" y1="20" x2="111.8" y2="25" stroke="#888" stroke-width="1"/><line x1="118.0" y1="25" x2="114.0" y2="30" stroke="#888" stroke-width="1"/><line x1="137.0" y1="0" x2="133.0" y2="5" stroke="#666" stroke-width="1"/><line x1="139.2" y1="5" x2="135.2" y2="10" stroke="#666" stroke-width="1"/><line x1="141.4" y1="10" x2="137.4" y2="15" stroke="#666" stroke-width="1"/><line x1="143.6" y1="15" x2="139.6" y2="20" stroke="#666" stroke-width="1"/><line x1="145.8" y1="20" x2="141.8" y2="25" stroke="#666" stroke-width="1"/><line x1="148.0" y1="25" x2="144.0" y2="30" stroke="#666" stroke-width="1"/><ellipse cx="64" cy="22" rx="22" ry="6" fill="none" stroke="#fff" stroke-width="1.4"/><rect x="58" y="27" width="12" height="4" fill="#fff"/></g>
  <g transform="translate(384,0)"><line x1="33.0" y1="0" x2="29.0" y2="5" stroke="#666" stroke-width="1"/><line x1="35.2" y1="5" x2="31.2" y2="10" stroke="#666" stroke-width="1"/><line x1="37.4" y1="10" x2="33.4" y2="15" stroke="#666" stroke-width="1"/><line x1="39.6" y1="15" x2="35.6" y2="20" stroke="#666" stroke-width="1"/><line x1="41.8" y1="20" x2="37.8" y2="25" stroke="#666" stroke-width="1"/><line x1="44.0" y1="25" x2="40.0" y2="30" stroke="#666" stroke-width="1"/><line x1="63.0" y1="0" x2="59.0" y2="5" stroke="#888" stroke-width="1"/><line x1="65.2" y1="5" x2="61.2" y2="10" stroke="#888" stroke-width="1"/><line x1="67.4" y1="10" x2="63.4" y2="15" stroke="#888" stroke-width="1"/><line x1="69.6" y1="15" x2="65.6" y2="20" stroke="#888" stroke-width="1"/><line x1="71.8" y1="20" x2="67.8" y2="25" stroke="#888" stroke-width="1"/><line x1="74.0" y1="25" x2="70.0" y2="30" stroke="#888" stroke-width="1"/><line x1="93.0" y1="0" x2="89.0" y2="5" stroke="#666" stroke-width="1"/><line x1="95.2" y1="5" x2="91.2" y2="10" stroke="#666" stroke-width="1"/><line x1="97.4" y1="10" x2="93.4" y2="15" stroke="#666" stroke-width="1"/><line x1="99.6" y1="15" x2="95.6" y2="20" stroke="#666" stroke-width="1"/><line x1="101.8" y1="20" x2="97.8" y2="25" stroke="#666" stroke-width="1"/><line x1="104.0" y1="25" x2="100.0" y2="30" stroke="#666" stroke-width="1"/><line x1="123.0" y1="0" x2="119.0" y2="5" stroke="#888" stroke-width="1"/><line x1="125.2" y1="5" x2="121.2" y2="10" stroke="#888" stroke-width="1"/><line x1="127.4" y1="10" x2="123.4" y2="15" stroke="#888" stroke-width="1"/><line x1="129.6" y1="15" x2="125.6" y2="20" stroke="#888" stroke-width="1"/><line x1="131.8" y1="20" x2="127.8" y2="25" stroke="#888" stroke-width="1"/><line x1="134.0" y1="25" x2="130.0" y2="30" stroke="#888" stroke-width="1"/><line x1="-5.0" y1="0" x2="-9.0" y2="5" stroke="#666" stroke-width="1"/><line x1="-2.8" y1="5" x2="-6.8" y2="10" stroke="#666" stroke-width="1"/><line x1="-0.6" y1="10" x2="-4.6" y2="15" stroke="#666" stroke-width="1"/><line x1="1.6" y1="15" x2="-2.4" y2="20" stroke="#666" stroke-width="1"/><line x1="3.8" y1="20" x2="-0.2" y2="25" stroke="#666" stroke-width="1"/><line x1="6.0" y1="25" x2="2.0" y2="30" stroke="#666" stroke-width="1"/><ellipse cx="64" cy="22" rx="22" ry="6" fill="none" stroke="#fff" stroke-width="1.4"/><rect x="58" y="27" width="12" height="4" fill="#fff"/></g>
  <g transform="translate(512,0)"><line x1="49.0" y1="0" x2="45.0" y2="5" stroke="#666" stroke-width="1"/><line x1="51.2" y1="5" x2="47.2" y2="10" stroke="#666" stroke-width="1"/><line x1="53.4" y1="10" x2="49.4" y2="15" stroke="#666" stroke-width="1"/><line x1="55.6" y1="15" x2="51.6" y2="20" stroke="#666" stroke-width="1"/><line x1="57.8" y1="20" x2="53.8" y2="25" stroke="#666" stroke-width="1"/><line x1="60.0" y1="25" x2="56.0" y2="30" stroke="#666" stroke-width="1"/><line x1="79.0" y1="0" x2="75.0" y2="5" stroke="#888" stroke-width="1"/><line x1="81.2" y1="5" x2="77.2" y2="10" stroke="#888" stroke-width="1"/><line x1="83.4" y1="10" x2="79.4" y2="15" stroke="#888" stroke-width="1"/><line x1="85.6" y1="15" x2="81.6" y2="20" stroke="#888" stroke-width="1"/><line x1="87.8" y1="20" x2="83.8" y2="25" stroke="#888" stroke-width="1"/><line x1="90.0" y1="25" x2="86.0" y2="30" stroke="#888" stroke-width="1"/><line x1="109.0" y1="0" x2="105.0" y2="5" stroke="#666" stroke-width="1"/><line x1="111.2" y1="5" x2="107.2" y2="10" stroke="#666" stroke-width="1"/><line x1="113.4" y1="10" x2="109.4" y2="15" stroke="#666" stroke-width="1"/><line x1="115.6" y1="15" x2="111.6" y2="20" stroke="#666" stroke-width="1"/><line x1="117.8" y1="20" x2="113.8" y2="25" stroke="#666" stroke-width="1"/><line x1="120.0" y1="25" x2="116.0" y2="30" stroke="#666" stroke-width="1"/><line x1="139.0" y1="0" x2="135.0" y2="5" stroke="#888" stroke-width="1"/><line x1="141.2" y1="5" x2="137.2" y2="10" stroke="#888" stroke-width="1"/><line x1="143.4" y1="10" x2="139.4" y2="15" stroke="#888" stroke-width="1"/><line x1="145.6" y1="15" x2="141.6" y2="20" stroke="#888" stroke-width="1"/><line x1="147.8" y1="20" x2="143.8" y2="25" stroke="#888" stroke-width="1"/><line x1="150.0" y1="25" x2="146.0" y2="30" stroke="#888" stroke-width="1"/><line x1="11.0" y1="0" x2="7.0" y2="5" stroke="#666" stroke-width="1"/><line x1="13.2" y1="5" x2="9.2" y2="10" stroke="#666" stroke-width="1"/><line x1="15.4" y1="10" x2="11.4" y2="15" stroke="#666" stroke-width="1"/><line x1="17.6" y1="15" x2="13.6" y2="20" stroke="#666" stroke-width="1"/><line x1="19.8" y1="20" x2="15.8" y2="25" stroke="#666" stroke-width="1"/><line x1="22.0" y1="25" x2="18.0" y2="30" stroke="#666" stroke-width="1"/><ellipse cx="64" cy="22" rx="22" ry="6" fill="none" stroke="#fff" stroke-width="1.4"/><rect x="58" y="27" width="12" height="4" fill="#fff"/></g>
  <g transform="translate(640,0)"><line x1="65.0" y1="0" x2="61.0" y2="5" stroke="#666" stroke-width="1"/><line x1="67.2" y1="5" x2="63.2" y2="10" stroke="#666" stroke-width="1"/><line x1="69.4" y1="10" x2="65.4" y2="15" stroke="#666" stroke-width="1"/><line x1="71.6" y1="15" x2="67.6" y2="20" stroke="#666" stroke-width="1"/><line x1="73.8" y1="20" x2="69.8" y2="25" stroke="#666" stroke-width="1"/><line x1="76.0" y1="25" x2="72.0" y2="30" stroke="#666" stroke-width="1"/><line x1="95.0" y1="0" x2="91.0" y2="5" stroke="#888" stroke-width="1"/><line x1="97.2" y1="5" x2="93.2" y2="10" stroke="#888" stroke-width="1"/><line x1="99.4" y1="10" x2="95.4" y2="15" stroke="#888" stroke-width="1"/><line x1="101.6" y1="15" x2="97.6" y2="20" stroke="#888" stroke-width="1"/><line x1="103.8" y1="20" x2="99.8" y2="25" stroke="#888" stroke-width="1"/><line x1="106.0" y1="25" x2="102.0" y2="30" stroke="#888" stroke-width="1"/><line x1="125.0" y1="0" x2="121.0" y2="5" stroke="#666" stroke-width="1"/><line x1="127.2" y1="5" x2="123.2" y2="10" stroke="#666" stroke-width="1"/><line x1="129.4" y1="10" x2="125.4" y2="15" stroke="#666" stroke-width="1"/><line x1="131.6" y1="15" x2="127.6" y2="20" stroke="#666" stroke-width="1"/><line x1="133.8" y1="20" x2="129.8" y2="25" stroke="#666" stroke-width="1"/><line x1="136.0" y1="25" x2="132.0" y2="30" stroke="#666" stroke-width="1"/><line x1="-3.0" y1="0" x2="-7.0" y2="5" stroke="#888" stroke-width="1"/><line x1="-0.8" y1="5" x2="-4.8" y2="10" stroke="#888" stroke-width="1"/><line x1="1.4" y1="10" x2="-2.6" y2="15" stroke="#888" stroke-width="1"/><line x1="3.6" y1="15" x2="-0.4" y2="20" stroke="#888" stroke-width="1"/><line x1="5.8" y1="20" x2="1.8" y2="25" stroke="#888" stroke-width="1"/><line x1="8.0" y1="25" x2="4.0" y2="30" stroke="#888" stroke-width="1"/><line x1="27.0" y1="0" x2="23.0" y2="5" stroke="#666" stroke-width="1"/><line x1="29.2" y1="5" x2="25.2" y2="10" stroke="#666" stroke-width="1"/><line x1="31.4" y1="10" x2="27.4" y2="15" stroke="#666" stroke-width="1"/><line x1="33.6" y1="15" x2="29.6" y2="20" stroke="#666" stroke-width="1"/><line x1="35.8" y1="20" x2="31.8" y2="25" stroke="#666" stroke-width="1"/><line x1="38.0" y1="25" x2="34.0" y2="30" stroke="#666" stroke-width="1"/><ellipse cx="64" cy="22" rx="22" ry="6" fill="none" stroke="#fff" stroke-width="1.4"/><rect x="58" y="27" width="12" height="4" fill="#fff"/></g>
  <g transform="translate(768,0)"><line x1="81.0" y1="0" x2="77.0" y2="5" stroke="#666" stroke-width="1"/><line x1="83.2" y1="5" x2="79.2" y2="10" stroke="#666" stroke-width="1"/><line x1="85.4" y1="10" x2="81.4" y2="15" stroke="#666" stroke-width="1"/><line x1="87.6" y1="15" x2="83.6" y2="20" stroke="#666" stroke-width="1"/><line x1="89.8" y1="20" x2="85.8" y2="25" stroke="#666" stroke-width="1"/><line x1="92.0" y1="25" x2="88.0" y2="30" stroke="#666" stroke-width="1"/><line x1="111.0" y1="0" x2="107.0" y2="5" stroke="#888" stroke-width="1"/><line x1="113.2" y1="5" x2="109.2" y2="10" stroke="#888" stroke-width="1"/><line x1="115.4" y1="10" x2="111.4" y2="15" stroke="#888" stroke-width="1"/><line x1="117.6" y1="15" x2="113.6" y2="20" stroke="#888" stroke-width="1"/><line x1="119.8" y1="20" x2="115.8" y2="25" stroke="#888" stroke-width="1"/><line x1="122.0" y1="25" x2="118.0" y2="30" stroke="#888" stroke-width="1"/><line x1="141.0" y1="0" x2="137.0" y2="5" stroke="#666" stroke-width="1"/><line x1="143.2" y1="5" x2="139.2" y2="10" stroke="#666" stroke-width="1"/><line x1="145.4" y1="10" x2="141.4" y2="15" stroke="#666" stroke-width="1"/><line x1="147.6" y1="15" x2="143.6" y2="20" stroke="#666" stroke-width="1"/><line x1="149.8" y1="20" x2="145.8" y2="25" stroke="#666" stroke-width="1"/><line x1="152.0" y1="25" x2="148.0" y2="30" stroke="#666" stroke-width="1"/><line x1="13.0" y1="0" x2="9.0" y2="5" stroke="#888" stroke-width="1"/><line x1="15.2" y1="5" x2="11.2" y2="10" stroke="#888" stroke-width="1"/><line x1="17.4" y1="10" x2="13.4" y2="15" stroke="#888" stroke-width="1"/><line x1="19.6" y1="15" x2="15.6" y2="20" stroke="#888" stroke-width="1"/><line x1="21.8" y1="20" x2="17.8" y2="25" stroke="#888" stroke-width="1"/><line x1="24.0" y1="25" x2="20.0" y2="30" stroke="#888" stroke-width="1"/><line x1="43.0" y1="0" x2="39.0" y2="5" stroke="#666" stroke-width="1"/><line x1="45.2" y1="5" x2="41.2" y2="10" stroke="#666" stroke-width="1"/><line x1="47.4" y1="10" x2="43.4" y2="15" stroke="#666" stroke-width="1"/><line x1="49.6" y1="15" x2="45.6" y2="20" stroke="#666" stroke-width="1"/><line x1="51.8" y1="20" x2="47.8" y2="25" stroke="#666" stroke-width="1"/><line x1="54.0" y1="25" x2="50.0" y2="30" stroke="#666" stroke-width="1"/><ellipse cx="64" cy="22" rx="22" ry="6" fill="none" stroke="#fff" stroke-width="1.4"/><rect x="58" y="27" width="12" height="4" fill="#fff"/></g>
  <g transform="translate(896,0)"><line x1="97.0" y1="0" x2="93.0" y2="5" stroke="#666" stroke-width="1"/><line x1="99.2" y1="5" x2="95.2" y2="10" stroke="#666" stroke-width="1"/><line x1="101.4" y1="10" x2="97.4" y2="15" stroke="#666" stroke-width="1"/><line x1="103.6" y1="15" x2="99.6" y2="20" stroke="#666" stroke-width="1"/><line x1="105.8" y1="20" x2="101.8" y2="25" stroke="#666" stroke-width="1"/><line x1="108.0" y1="25" x2="104.0" y2="30" stroke="#666" stroke-width="1"/><line x1="127.0" y1="0" x2="123.0" y2="5" stroke="#888" stroke-width="1"/><line x1="129.2" y1="5" x2="125.2" y2="10" stroke="#888" stroke-width="1"/><line x1="131.4" y1="10" x2="127.4" y2="15" stroke="#888" stroke-width="1"/><line x1="133.6" y1="15" x2="129.6" y2="20" stroke="#888" stroke-width="1"/><line x1="135.8" y1="20" x2="131.8" y2="25" stroke="#888" stroke-width="1"/><line x1="138.0" y1="25" x2="134.0" y2="30" stroke="#888" stroke-width="1"/><line x1="-1.0" y1="0" x2="-5.0" y2="5" stroke="#666" stroke-width="1"/><line x1="1.2" y1="5" x2="-2.8" y2="10" stroke="#666" stroke-width="1"/><line x1="3.4" y1="10" x2="-0.6" y2="15" stroke="#666" stroke-width="1"/><line x1="5.6" y1="15" x2="1.6" y2="20" stroke="#666" stroke-width="1"/><line x1="7.8" y1="20" x2="3.8" y2="25" stroke="#666" stroke-width="1"/><line x1="10.0" y1="25" x2="6.0" y2="30" stroke="#666" stroke-width="1"/><line x1="29.0" y1="0" x2="25.0" y2="5" stroke="#888" stroke-width="1"/><line x1="31.2" y1="5" x2="27.2" y2="10" stroke="#888" stroke-width="1"/><line x1="33.4" y1="10" x2="29.4" y2="15" stroke="#888" stroke-width="1"/><line x1="35.6" y1="15" x2="31.6" y2="20" stroke="#888" stroke-width="1"/><line x1="37.8" y1="20" x2="33.8" y2="25" stroke="#888" stroke-width="1"/><line x1="40.0" y1="25" x2="36.0" y2="30" stroke="#888" stroke-width="1"/><line x1="59.0" y1="0" x2="55.0" y2="5" stroke="#666" stroke-width="1"/><line x1="61.2" y1="5" x2="57.2" y2="10" stroke="#666" stroke-width="1"/><line x1="63.4" y1="10" x2="59.4" y2="15" stroke="#666" stroke-width="1"/><line x1="65.6" y1="15" x2="61.6" y2="20" stroke="#666" stroke-width="1"/><line x1="67.8" y1="20" x2="63.8" y2="25" stroke="#666" stroke-width="1"/><line x1="70.0" y1="25" x2="66.0" y2="30" stroke="#666" stroke-width="1"/><ellipse cx="64" cy="22" rx="22" ry="6" fill="none" stroke="#fff" stroke-width="1.4"/><rect x="58" y="27" width="12" height="4" fill="#fff"/></g>
</svg>
