<svg xmlns="http://www.w3.org/2000/svg" viewBox="0 0 768 32" width="768" height="32">
  <!-- SMALL HOURS DMD scene: STATIC — dead air; the picture dissolves into
       white noise with a rolling dropout band. 6 frames of 128x32 (style
       guide §6). Art rows 0..22; caption renders from row 24. -->
  <rect width="768" height="32" fill="#000"/>
  <g transform="translate(0,0)">
    <circle cx="107.450560136908" cy="3.8465900436726352" r="0.55" fill="#666"/>
    <circle cx="87.80409542788011" cy="14.554804331648539" r="0.55" fill="#666"/>
    <circle cx="16.464706845332266" cy="16.09799588452931" r="0.55" fill="#fff"/>
    <circle cx="12.535464292175819" cy="11.78673524190054" r="0.55" fill="#fff"/>
    <circle cx="102.3707380766844" cy="11.051817898895507" r="0.55" fill="#fff"/>
    <circle cx="50.896288894999905" cy="21.961768160323505" r="0.55" fill="#888"/>
    <circle cx="76.23192886041102" cy="11.248702054260626" r="0.55" fill="#888"/>
    <circle cx="20.162447938305533" cy="18.23842591873297" r="0.55" fill="#888"/>
    <circle cx="4.323512317297753" cy="21.692676412497033" r="0.55" fill="#888"/>
    <circle cx="45.56229998756307" cy="10.215078596824352" r="0.55" fill="#666"/>
    <circle cx="73.45254448449823" cy="7.5634682211389155" r="0.55" fill="#666"/>
    <circle cx="54.085823262615975" cy="8.25136423471913" r="0.55" fill="#666"/>
    <circle cx="66.95934346409484" cy="10.439518456319123" r="0.55" fill="#666"/>
    <circle cx="97.30349592878646" cy="9.356760505985823" r="0.55" fill="#888"/>
    <circle cx="53.83923008518258" cy="3.2779622090877787" r="0.55" fill="#fff"/>
    <circle cx="90.7985189379186" cy="20.45205284094068" r="0.55" fill="#888"/>
    <circle cx="79.42154959515742" cy="6.520746949138467" r="0.55" fill="#888"/>
    <circle cx="6.5973260428744025" cy="7.252233925625791" r="0.55" fill="#666"/>
    <circle cx="108.33454989424652" cy="6.499278309754692" r="0.55" fill="#666"/>
    <circle cx="9.052349273139773" cy="20.55096043089915" r="0.55" fill="#666"/>
    <circle cx="90.54274033454374" cy="4.73121547896006" r="0.55" fill="#888"/>
    <circle cx="76.25684765505459" cy="16.44548440722073" r="0.55" fill="#666"/>
    <circle cx="104.73012660803745" cy="20.133597859942167" r="0.55" fill="#888"/>
    <circle cx="49.421018146174504" cy="21.075952062651492" r="0.55" fill="#888"/>
    <circle cx="121.40860706214262" cy="14.8901095457329" r="0.55" fill="#666"/>
    <circle cx="35.964929120133135" cy="13.149098879028623" r="0.55" fill="#888"/>
    <circle cx="57.95415070324864" cy="11.28984022642944" r="0.55" fill="#666"/>
    <circle cx="84.38411478110781" cy="11.488633637776893" r="0.55" fill="#fff"/>
    <circle cx="29.143157495252396" cy="10.6245386051594" r="0.55" fill="#fff"/>
    <circle cx="120.0775468903955" cy="3.5668656840300494" r="0.55" fill="#888"/>
    <circle cx="100.65919690004513" cy="10.355642323314978" r="0.55" fill="#888"/>
    <circle cx="106.74112515605107" cy="18.103403099627887" r="0.55" fill="#666"/>
    <circle cx="70.86310771380695" cy="4.928571703112019" r="0.55" fill="#666"/>
    <circle cx="2.771247149338595" cy="8.714813094686164" r="0.55" fill="#666"/>
    <circle cx="42.93433972165656" cy="7.887325767142384" r="0.55" fill="#888"/>
    <circle cx="70.81621411713596" cy="8.980196479931566" r="0.55" fill="#666"/>
    <circle cx="41.24278690304737" cy="11.346436028762923" r="0.55" fill="#888"/>
    <circle cx="68.92316678349076" cy="22.38774729794252" r="0.55" fill="#666"/>
    <circle cx="50.26919218211863" cy="20.48957706428579" r="0.55" fill="#888"/>
    <circle cx="77.53168658005619" cy="7.715951684497274" r="0.55" fill="#888"/>
    <circle cx="47.39247205033548" cy="13.585266834630291" r="0.55" fill="#fff"/>
    <circle cx="64.76593378175326" cy="8.018222573920257" r="0.55" fill="#666"/>
    <circle cx="45.765829762800514" cy="20.63563252433" r="0.55" fill="#fff"/>
    <circle cx="121.67479806797337" cy="17.83729267927692" r="0.55" fill="#666"/>
    <circle cx="124.10497760544763" cy="20.358758935639056" r="0.55" fill="#888"/>
    <circle cx="116.45678144109286" cy="3.913602830569075" r="0.55" fill="#666"/>
    <circle cx="44.554320474879034" cy="20.625523695780675" r="0.55" fill="#666"/>
    <circle cx="116.93940847550492" cy="10.875877862039896" r="0.55" fill="#888"/>
    <circle cx="70.67706540491295" cy="21.693281660412104" r="0.55" fill="#fff"/>
    <circle cx="12.857651239194745" cy="7.528134528094965" r="0.55" fill="#888"/>
    <circle cx="76.36868933372605" cy="13.194876438330336" r="0.55" fill="#666"/>
    <circle cx="24.721028525252372" cy="15.604430920958722" r="0.55" fill="#666"/>
    <circle cx="38.489961827867646" cy="5.084378006208864" r="0.55" fill="#888"/>
    <circle cx="61.25301459257166" cy="2.795880318757091" r="0.55" fill="#888"/>
    <circle cx="109.97036962815113" cy="12.714273696865083" r="0.55" fill="#666"/>
    <circle cx="103.13736276614358" cy="13.429499870599017" r="0.55" fill="#888"/>
    <circle cx="13.221519714324511" cy="8.103211346828942" r="0.55" fill="#888"/>
    <circle cx="119.24291371844845" cy="18.79272056477737" r="0.55" fill="#666"/>
  </g>
  <g transform="translate(128,0)">
    <circle cx="67.16033192172662" cy="20.734544048195026" r="0.55" fill="#888"/>
    <circle cx="92.4936278292414" cy="1.3572218422113087" r="0.55" fill="#666"/>
    <circle cx="52.27014210227418" cy="8.32758760816771" r="0.55" fill="#666"/>
    <circle cx="77.17523816794866" cy="14.589464671020147" r="0.55" fill="#666"/>
    <circle cx="58.092762437226604" cy="1.0771853926485337" r="0.55" fill="#888"/>
    <circle cx="29.713676227588987" cy="7.551231804793343" r="0.55" fill="#666"/>
    <circle cx="58.72010323112835" cy="17.41281629396268" r="0.55" fill="#666"/>
    <circle cx="11.874613051710005" cy="8.26121801499334" r="0.55" fill="#fff"/>
    <circle cx="77.9487872482039" cy="21.646903524709355" r="0.55" fill="#888"/>
    <circle cx="57.7805152203797" cy="21.359277258095926" r="0.55" fill="#666"/>
    <circle cx="4.3525767341966635" cy="18.04697047246013" r="0.55" fill="#fff"/>
    <circle cx="19.33834029097964" cy="14.760029024565606" r="0.55" fill="#666"/>
    <circle cx="124.6634462455583" cy="8.473441127675326" r="0.55" fill="#666"/>
    <circle cx="18.506602295444626" cy="10.658385937175893" r="0.55" fill="#888"/>
    <circle cx="116.57638865130787" cy="22.041377316015485" r="0.55" fill="#888"/>
    <circle cx="85.10324505907636" cy="18.56177926904605" r="0.55" fill="#fff"/>
    <circle cx="104.8421147353212" cy="8.201054815063745" r="0.55" fill="#fff"/>
    <circle cx="82.20936039891531" cy="13.27614045738063" r="0.55" fill="#888"/>
    <circle cx="119.84951138070296" cy="1.2568888667770144" r="0.55" fill="#fff"/>
    <circle cx="15.581610447997978" cy="15.607505268933021" r="0.55" fill="#888"/>
    <circle cx="71.94217112983678" cy="14.593938834077651" r="0.55" fill="#666"/>
    <circle cx="12.94383812506862" cy="0.9694468381206723" r="0.55" fill="#fff"/>
    <circle cx="104.56836848313378" cy="21.050145635637524" r="0.55" fill="#fff"/>
    <circle cx="106.50479464675523" cy="13.95742750794507" r="0.55" fill="#888"/>
    <circle cx="90.44128946654558" cy="14.962556368886752" r="0.55" fill="#666"/>
    <circle cx="94.93438921772614" cy="13.989074474894013" r="0.55" fill="#fff"/>
    <circle cx="110.51083259913644" cy="7.749006989993624" r="0.55" fill="#888"/>
    <circle cx="89.01926593110863" cy="17.516519316014147" r="0.55" fill="#888"/>
    <circle cx="120.40120583372247" cy="17.530859716716623" r="0.55" fill="#666"/>
    <circle cx="122.55963635889798" cy="9.620528940633186" r="0.55" fill="#666"/>
    <circle cx="74.79359695771412" cy="22.203866015050497" r="0.55" fill="#888"/>
    <circle cx="122.82956415127477" cy="12.378960614967607" r="0.55" fill="#888"/>
    <circle cx="107.44966607282389" cy="20.02420903161364" r="0.55" fill="#888"/>
    <circle cx="110.9939928567009" cy="14.68987370198121" r="0.55" fill="#888"/>
    <circle cx="4.836262704728293" cy="7.9244782363178565" r="0.55" fill="#666"/>
    <circle cx="74.26640823914968" cy="19.819318065102827" r="0.55" fill="#666"/>
    <circle cx="66.90492841690077" cy="7.976200584078301" r="0.55" fill="#666"/>
    <circle cx="34.51137782703684" cy="17.588507183403014" r="0.55" fill="#666"/>
    <circle cx="32.15726520081854" cy="1.4780163769507857" r="0.55" fill="#666"/>
    <circle cx="110.50741546484987" cy="19.66084195075596" r="0.55" fill="#666"/>
    <circle cx="108.80810837997501" cy="16.304495818821945" r="0.55" fill="#fff"/>
    <circle cx="97.3181257696441" cy="9.079283718289474" r="0.55" fill="#888"/>
    <circle cx="26.248461735084867" cy="12.80808228827458" r="0.55" fill="#666"/>
    <circle cx="118.56388782968926" cy="1.743329525572867" r="0.55" fill="#666"/>
    <circle cx="34.26851345657767" cy="14.944279439022896" r="0.55" fill="#666"/>
    <circle cx="12.700523143494745" cy="9.808098260922403" r="0.55" fill="#888"/>
    <circle cx="68.30814269339113" cy="14.853419310577875" r="0.55" fill="#fff"/>
    <circle cx="33.726683631877734" cy="20.274279603629502" r="0.55" fill="#888"/>
    <circle cx="103.52165894514027" cy="14.114054686210144" r="0.55" fill="#666"/>
    <circle cx="100.48249726159614" cy="19.30865765493766" r="0.55" fill="#666"/>
    <circle cx="103.12079529749266" cy="16.88335705566376" r="0.55" fill="#666"/>
    <circle cx="76.16055205984067" cy="8.53676128761692" r="0.55" fill="#fff"/>
    <circle cx="21.270590791604757" cy="14.341991132983003" r="0.55" fill="#666"/>
    <circle cx="66.34982058468732" cy="1.1350400450802596" r="0.55" fill="#666"/>
    <circle cx="110.24803619703653" cy="7.764134172007504" r="0.55" fill="#fff"/>
    <circle cx="1.4628827574024363" cy="18.170555468495262" r="0.55" fill="#888"/>
    <circle cx="96.24649743700704" cy="18.946410426146542" r="0.55" fill="#888"/>
    <circle cx="61.65848949395981" cy="13.785114532935022" r="0.55" fill="#666"/>
    <circle cx="80.71904299395115" cy="1.8394637114086485" r="0.55" fill="#666"/>
    <circle cx="94.91020266614399" cy="9.382614139878477" r="0.55" fill="#666"/>
    <circle cx="51.867870294893095" cy="16.73088670532726" r="0.55" fill="#888"/>
    <circle cx="81.62865034520098" cy="12.42056561071452" r="0.55" fill="#666"/>
    <circle cx="60.794592885204864" cy="10.044947628651256" r="0.55" fill="#888"/>
    <circle cx="95.85093973523514" cy="16.854810007081745" r="0.55" fill="#888"/>
    <circle cx="123.95445471767079" cy="18.035519608080165" r="0.55" fill="#666"/>
    <circle cx="19.36613173147949" cy="15.503456718755633" r="0.55" fill="#fff"/>
    <circle cx="96.64590035362444" cy="12.517441993587392" r="0.55" fill="#888"/>
    <circle cx="59.1210081847948" cy="9.37425065453828" r="0.55" fill="#888"/>
    <circle cx="50.70221444298616" cy="17.35879851172622" r="0.55" fill="#666"/>
    <circle cx="120.7634558639319" cy="8.565276864946483" r="0.55" fill="#666"/>
    <circle cx="67.4257860493035" cy="9.995202068935708" r="0.55" fill="#666"/>
    <circle cx="98.33458428146997" cy="11.03266239656725" r="0.55" fill="#666"/>
    <circle cx="108.46769045827337" cy="22.224581966979702" r="0.55" fill="#666"/>
    <circle cx="73.11382386466201" cy="14.964709527075623" r="0.55" fill="#666"/>
    <circle cx="3.499378384323501" cy="13.567447467272844" r="0.55" fill="#666"/>
    <circle cx="89.49841574975217" cy="10.055010561624082" r="0.55" fill="#666"/>
    <circle cx="62.881297855582694" cy="12.412029033485815" r="0.55" fill="#666"/>
    <circle cx="67.38891103974959" cy="22.010813484671907" r="0.55" fill="#888"/>
    <circle cx="79.65380958405035" cy="13.928730970913884" r="0.55" fill="#888"/>
    <circle cx="114.97018908801032" cy="19.285125025913644" r="0.55" fill="#888"/>
    <circle cx="10.396007780635733" cy="8.748707715537728" r="0.55" fill="#fff"/>
    <circle cx="113.63178020000075" cy="19.41183615611486" r="0.55" fill="#888"/>
    <circle cx="26.86174721730023" cy="2.130519033237602" r="0.55" fill="#666"/>
    <circle cx="18.044110067674943" cy="21.16946167716266" r="0.55" fill="#888"/>
    <circle cx="77.68752292389401" cy="22.220241556745137" r="0.55" fill="#666"/>
    <circle cx="121.46551924593074" cy="18.802471407830005" r="0.55" fill="#888"/>
    <circle cx="37.94498946002917" cy="19.797581920073174" r="0.55" fill="#888"/>
  </g>
  <g transform="translate(256,0)">
    <circle cx="26.870103706545244" cy="15.622500665077244" r="0.55" fill="#666"/>
    <circle cx="117.04760771433246" cy="14.27854180977612" r="0.55" fill="#888"/>
    <circle cx="9.806908850002525" cy="2.0327319509967845" r="0.55" fill="#666"/>
    <circle cx="4.017960430596936" cy="21.874988066672806" r="0.55" fill="#666"/>
    <circle cx="89.9976210487064" cy="3.686233521991518" r="0.55" fill="#888"/>
    <circle cx="24.901780378027716" cy="18.22464937797033" r="0.55" fill="#666"/>
    <circle cx="120.06236129582969" cy="18.739893444925496" r="0.55" fill="#666"/>
    <circle cx="98.86573462275123" cy="16.04689837226034" r="0.55" fill="#888"/>
    <circle cx="89.40326170269552" cy="18.522993572998324" r="0.55" fill="#888"/>
    <circle cx="102.67417960133133" cy="18.08099032267043" r="0.55" fill="#666"/>
    <circle cx="32.82164622834961" cy="6.720980170285785" r="0.55" fill="#888"/>
    <circle cx="3.663502217579401" cy="12.865784747696381" r="0.55" fill="#fff"/>
    <circle cx="22.400032530259356" cy="7.421467963103888" r="0.55" fill="#fff"/>
    <circle cx="56.76626470301592" cy="13.73979068418955" r="0.55" fill="#888"/>
    <circle cx="98.68998126764316" cy="16.28586745997233" r="0.55" fill="#888"/>
    <circle cx="71.45005873146005" cy="21.646271477055862" r="0.55" fill="#666"/>
    <circle cx="38.720371025484226" cy="5.091312172166683" r="0.55" fill="#666"/>
    <circle cx="32.47717656170818" cy="3.50795543333886" r="0.55" fill="#666"/>
    <circle cx="106.97252898382607" cy="18.728857525730906" r="0.55" fill="#666"/>
    <circle cx="25.906872224484978" cy="22.183654914462778" r="0.55" fill="#666"/>
    <circle cx="112.85255341970014" cy="20.63867474540075" r="0.55" fill="#666"/>
    <circle cx="70.16346261145708" cy="4.199925662809948" r="0.55" fill="#666"/>
    <circle cx="52.924609685281574" cy="2.19389295656881" r="0.55" fill="#888"/>
    <circle cx="106.1701107514883" cy="18.407876976722793" r="0.55" fill="#666"/>
    <circle cx="79.72825429529335" cy="15.278068787780624" r="0.55" fill="#fff"/>
    <circle cx="114.46892552891231" cy="17.718929298789675" r="0.55" fill="#888"/>
    <circle cx="15.796146399712258" cy="20.008736321473837" r="0.55" fill="#fff"/>
    <circle cx="11.850505357072924" cy="17.595253177497188" r="0.55" fill="#666"/>
    <circle cx="10.9021492050505" cy="2.062737167609267" r="0.55" fill="#888"/>
    <circle cx="68.27596905980072" cy="3.130991460117973" r="0.55" fill="#fff"/>
    <circle cx="2.8463189610495787" cy="14.06714473551472" r="0.55" fill="#666"/>
    <circle cx="123.85973626135836" cy="2.9367141734979647" r="0.55" fill="#666"/>
    <circle cx="123.6954509591197" cy="22.236412535298808" r="0.55" fill="#666"/>
    <circle cx="108.33325814238435" cy="1.2835319045854416" r="0.55" fill="#fff"/>
    <circle cx="60.41980460072858" cy="2.4716424951197777" r="0.55" fill="#666"/>
    <circle cx="68.1788924053213" cy="4.8592588921819155" r="0.55" fill="#888"/>
    <circle cx="35.21709491415746" cy="13.735355860197616" r="0.55" fill="#fff"/>
    <circle cx="81.01901105792216" cy="13.965830332350839" r="0.55" fill="#888"/>
    <circle cx="110.65996985773555" cy="0.8321003915425857" r="0.55" fill="#fff"/>
    <circle cx="45.44560672922321" cy="4.364685537230542" r="0.55" fill="#666"/>
    <circle cx="102.74801223247685" cy="5.511240961501022" r="0.55" fill="#666"/>
    <circle cx="48.34947993576037" cy="15.446502930925464" r="0.55" fill="#666"/>
    <circle cx="17.45360297730826" cy="20.087483295978735" r="0.55" fill="#666"/>
    <circle cx="119.93512373740559" cy="21.98887277650129" r="0.55" fill="#666"/>
    <circle cx="11.276216511743243" cy="1.6086489563382458" r="0.55" fill="#666"/>
    <circle cx="38.282407062725355" cy="14.61766553582515" r="0.55" fill="#888"/>
    <circle cx="106.29290228024726" cy="2.3233053692725045" r="0.55" fill="#666"/>
    <circle cx="125.6692928656327" cy="20.148625382989938" r="0.55" fill="#fff"/>
    <circle cx="53.49000647128094" cy="14.509312636223301" r="0.55" fill="#888"/>
    <circle cx="68.45366004270207" cy="21.715641985282137" r="0.55" fill="#666"/>
    <circle cx="34.7447042622346" cy="2.9536771785717817" r="0.55" fill="#fff"/>
    <circle cx="65.88221767585829" cy="19.59777093822964" r="0.55" fill="#666"/>
    <circle cx="65.98069497988593" cy="17.19355345549693" r="0.55" fill="#fff"/>
    <circle cx="95.6550853693183" cy="21.30921436325145" r="0.55" fill="#666"/>
    <circle cx="71.47667482796902" cy="6.324208977550366" r="0.55" fill="#666"/>
    <circle cx="123.57987671838137" cy="3.636868239909815" r="0.55" fill="#888"/>
    <circle cx="80.64827827347828" cy="13.04661274540546" r="0.55" fill="#666"/>
    <circle cx="27.961148214974045" cy="5.401939990418935" r="0.55" fill="#666"/>
    <circle cx="21.975631962053306" cy="16.713158555428105" r="0.55" fill="#888"/>
    <circle cx="120.94609981400245" cy="13.317281252153814" r="0.55" fill="#666"/>
    <circle cx="81.32729242757303" cy="13.09295416464701" r="0.55" fill="#888"/>
    <circle cx="10.163417343592" cy="21.49483508849276" r="0.55" fill="#888"/>
    <circle cx="82.5609872720954" cy="21.469434509505255" r="0.55" fill="#666"/>
    <circle cx="1.1294906139976768" cy="5.836751332197688" r="0.55" fill="#666"/>
    <circle cx="117.57185995046602" cy="19.259853610191428" r="0.55" fill="#fff"/>
    <circle cx="14.240201240982953" cy="16.47438616304397" r="0.55" fill="#fff"/>
    <circle cx="47.586069605586154" cy="3.0242829334569548" r="0.55" fill="#666"/>
    <circle cx="68.24405077250864" cy="20.834932098321122" r="0.55" fill="#666"/>
    <circle cx="99.26189689443535" cy="15.015635258758271" r="0.55" fill="#fff"/>
    <circle cx="92.43802241768597" cy="14.744510418849305" r="0.55" fill="#888"/>
    <circle cx="122.69511681501527" cy="1.354006529252048" r="0.55" fill="#fff"/>
    <circle cx="123.65712648381346" cy="1.1552839282226208" r="0.55" fill="#666"/>
    <circle cx="76.61008170787714" cy="19.616509446462853" r="0.55" fill="#888"/>
    <circle cx="10.473347668290765" cy="12.770547574511983" r="0.55" fill="#fff"/>
    <circle cx="110.20378618557183" cy="4.582867862695301" r="0.55" fill="#666"/>
    <circle cx="123.4972797010547" cy="16.248618610086208" r="0.55" fill="#666"/>
    <circle cx="121.90139537719143" cy="1.6134581571041877" r="0.55" fill="#666"/>
    <circle cx="21.752579460270972" cy="2.7383436571053896" r="0.55" fill="#666"/>
    <circle cx="33.01295652147986" cy="18.75050187960756" r="0.55" fill="#666"/>
    <circle cx="37.638694064989075" cy="4.826644184219951" r="0.55" fill="#666"/>
    <circle cx="46.088666340843155" cy="5.505881669468192" r="0.55" fill="#666"/>
    <circle cx="56.65071299283333" cy="2.266103745329242" r="0.55" fill="#666"/>
    <circle cx="52.23108913899916" cy="6.177114966175107" r="0.55" fill="#888"/>
    <circle cx="72.69063619137306" cy="15.531651027049707" r="0.55" fill="#666"/>
    <circle cx="22.32372904816816" cy="1.1890060308803831" r="0.55" fill="#888"/>
    <circle cx="4.100264550699045" cy="4.627109149530115" r="0.55" fill="#888"/>
    <circle cx="14.982823378398466" cy="2.773431480989527" r="0.55" fill="#888"/>
    <circle cx="13.06967878903713" cy="17.91739291763743" r="0.55" fill="#888"/>
    <circle cx="6.89508986747595" cy="0.5656837821312639" r="0.55" fill="#666"/>
    <circle cx="72.63271013257686" cy="20.955768594730536" r="0.55" fill="#fff"/>
    <circle cx="61.731563596395574" cy="17.978210457357676" r="0.55" fill="#666"/>
    <circle cx="93.82973484547331" cy="2.87221908679801" r="0.55" fill="#888"/>
    <circle cx="106.93583421871804" cy="21.751317272545453" r="0.55" fill="#888"/>
    <circle cx="49.70383670213811" cy="2.9048941146605154" r="0.55" fill="#fff"/>
    <circle cx="123.50154548627397" cy="16.077362544637808" r="0.55" fill="#666"/>
    <circle cx="95.58226661318088" cy="2.542486907002743" r="0.55" fill="#888"/>
    <circle cx="20.22733593882403" cy="14.703826612887823" r="0.55" fill="#888"/>
    <circle cx="83.49792794254513" cy="5.234889271079977" r="0.55" fill="#666"/>
    <circle cx="13.62103152862798" cy="17.782546468676323" r="0.55" fill="#666"/>
    <circle cx="15.835203118079901" cy="19.680184969296764" r="0.55" fill="#666"/>
    <circle cx="12.361325626895448" cy="2.045387328390678" r="0.55" fill="#666"/>
    <circle cx="5.564540388325481" cy="4.095176877265413" r="0.55" fill="#666"/>
    <circle cx="25.01816947386515" cy="4.875985862862312" r="0.55" fill="#fff"/>
    <circle cx="61.779748944928755" cy="19.14233208570738" r="0.55" fill="#888"/>
    <circle cx="3.9907360090830997" cy="20.798937427019204" r="0.55" fill="#888"/>
    <circle cx="3.9560089125093114" cy="0.8128248231079545" r="0.55" fill="#888"/>
    <circle cx="15.90019250609921" cy="15.211937851604047" r="0.55" fill="#888"/>
    <circle cx="76.54155877769998" cy="2.8463339816529" r="0.55" fill="#666"/>
    <circle cx="99.57480125249123" cy="0.9043452741598456" r="0.55" fill="#888"/>
    <circle cx="56.31331041050763" cy="19.529924163143118" r="0.55" fill="#888"/>
    <circle cx="113.358574681151" cy="5.28147196992369" r="0.55" fill="#666"/>
    <circle cx="87.10271171764597" cy="17.6142664035383" r="0.55" fill="#666"/>
    <circle cx="70.76727775007825" cy="19.62087346013676" r="0.55" fill="#888"/>
    <circle cx="116.45708184850267" cy="3.591683389196025" r="0.55" fill="#888"/>
    <circle cx="126.00419455627176" cy="3.91478824774492" r="0.55" fill="#666"/>
    <circle cx="68.79989460287611" cy="3.7873899951984127" r="0.55" fill="#888"/>
    <circle cx="47.21224262482126" cy="20.820835599825177" r="0.55" fill="#666"/>
    <circle cx="80.60949943196471" cy="5.92738795533189" r="0.55" fill="#888"/>
  </g>
  <g transform="translate(384,0)">
    <circle cx="112.57987555003719" cy="10.510454659355085" r="0.55" fill="#fff"/>
    <circle cx="107.53909735872368" cy="5.588791372761499" r="0.55" fill="#666"/>
    <circle cx="32.18542839548803" cy="20.79806877127759" r="0.55" fill="#fff"/>
    <circle cx="106.13185386784927" cy="18.704317816628294" r="0.55" fill="#888"/>
    <circle cx="83.18583468449575" cy="11.876996760897804" r="0.55" fill="#666"/>
    <circle cx="54.918518806769754" cy="18.20188976158476" r="0.55" fill="#666"/>
    <circle cx="67.55852434903315" cy="2.5359513769093676" r="0.55" fill="#fff"/>
    <circle cx="31.75246621610246" cy="6.264463427366905" r="0.55" fill="#666"/>
    <circle cx="53.9900646456471" cy="19.842210778660238" r="0.55" fill="#888"/>
    <circle cx="38.38209726167009" cy="3.4886989607423073" r="0.55" fill="#888"/>
    <circle cx="50.138045572274386" cy="8.402533773287448" r="0.55" fill="#fff"/>
    <circle cx="4.958393337185678" cy="10.148129408083916" r="0.55" fill="#888"/>
    <circle cx="36.99688865430508" cy="11.691434388603751" r="0.55" fill="#888"/>
    <circle cx="109.38726382534358" cy="9.476005081541839" r="0.55" fill="#888"/>
    <circle cx="15.144773013025882" cy="7.4266607197591386" r="0.55" fill="#666"/>
    <circle cx="20.94202018712741" cy="8.941379968282478" r="0.55" fill="#888"/>
    <circle cx="62.53863814358536" cy="2.3094396599612383" r="0.55" fill="#666"/>
    <circle cx="91.28347412975667" cy="8.419452194086952" r="0.55" fill="#666"/>
    <circle cx="124.08283757934478" cy="6.684221747417106" r="0.55" fill="#666"/>
    <circle cx="123.80051469560736" cy="5.624112608434685" r="0.55" fill="#888"/>
    <circle cx="19.803776511365445" cy="18.694142767318592" r="0.55" fill="#666"/>
    <circle cx="22.93743134566463" cy="1.3397795561886299" r="0.55" fill="#666"/>
    <circle cx="90.6632863179144" cy="19.102990397532935" r="0.55" fill="#666"/>
    <circle cx="88.57487700487249" cy="0.652924060892744" r="0.55" fill="#888"/>
    <circle cx="64.60751393419109" cy="5.082439901578445" r="0.55" fill="#fff"/>
    <circle cx="89.07273845005443" cy="4.214858772100349" r="0.55" fill="#666"/>
    <circle cx="90.74395697272567" cy="2.230549097867007" r="0.55" fill="#888"/>
    <circle cx="89.51501325914404" cy="8.768961433446483" r="0.55" fill="#666"/>
    <circle cx="36.03012128315406" cy="6.813555481989661" r="0.55" fill="#666"/>
    <circle cx="83.50595257547961" cy="9.56061554376996" r="0.55" fill="#666"/>
    <circle cx="93.2044105363099" cy="19.300703295879394" r="0.55" fill="#666"/>
    <circle cx="111.58794336700251" cy="8.506850484761806" r="0.55" fill="#888"/>
    <circle cx="122.56957655845656" cy="6.084141018606788" r="0.55" fill="#666"/>
    <circle cx="107.34967546646935" cy="9.475095037824984" r="0.55" fill="#666"/>
    <circle cx="39.46066876056635" cy="7.906208518616021" r="0.55" fill="#666"/>
    <circle cx="124.7458329776981" cy="2.687036992137803" r="0.55" fill="#888"/>
    <circle cx="42.501058359398066" cy="6.0707604911042194" r="0.55" fill="#666"/>
    <circle cx="74.5245520814902" cy="11.314917569428179" r="0.55" fill="#888"/>
    <circle cx="79.91564468243888" cy="10.543745999244855" r="0.55" fill="#666"/>
    <circle cx="64.79001143564936" cy="18.516379364773808" r="0.55" fill="#888"/>
    <circle cx="3.073832512867559" cy="8.961455922788687" r="0.55" fill="#666"/>
    <circle cx="58.385776069660565" cy="6.3559870747178735" r="0.55" fill="#888"/>
    <circle cx="82.77393106453769" cy="20.97683859824987" r="0.55" fill="#888"/>
    <circle cx="1.2047126294135642" cy="22.028123257461992" r="0.55" fill="#666"/>
    <circle cx="78.989879167634" cy="19.202888020641584" r="0.55" fill="#666"/>
    <circle cx="66.36319997970165" cy="12.372553592488428" r="0.55" fill="#888"/>
    <circle cx="52.7860467675077" cy="2.1792352207373993" r="0.55" fill="#888"/>
    <circle cx="36.83127404927801" cy="6.56562233253644" r="0.55" fill="#666"/>
    <circle cx="16.347078568929376" cy="11.52457708633718" r="0.55" fill="#888"/>
    <circle cx="79.78535798880522" cy="2.7602076540981457" r="0.55" fill="#666"/>
    <circle cx="93.97833137073476" cy="0.9347674848673714" r="0.55" fill="#666"/>
    <circle cx="106.24450852407352" cy="17.745016344471377" r="0.55" fill="#666"/>
    <circle cx="21.3864166235488" cy="20.846926579413434" r="0.55" fill="#666"/>
    <circle cx="102.68959425654708" cy="5.687498333485563" r="0.55" fill="#666"/>
    <circle cx="118.13002818316689" cy="7.696457866205115" r="0.55" fill="#fff"/>
    <circle cx="120.90263086180325" cy="22.49902440141841" r="0.55" fill="#888"/>
    <circle cx="101.7294283382266" cy="20.685441026550457" r="0.55" fill="#888"/>
    <circle cx="26.489148151822924" cy="1.286225974925899" r="0.55" fill="#fff"/>
    <circle cx="54.61289932840173" cy="19.006633290325585" r="0.55" fill="#666"/>
    <circle cx="75.12524298304936" cy="21.28382755293689" r="0.55" fill="#666"/>
    <circle cx="88.57129840160316" cy="9.16279006407726" r="0.55" fill="#666"/>
    <circle cx="1.9997145538216992" cy="12.42148999679903" r="0.55" fill="#666"/>
    <circle cx="98.14471177810091" cy="4.401845218568036" r="0.55" fill="#888"/>
    <circle cx="28.172000420825555" cy="21.725708196510425" r="0.55" fill="#fff"/>
    <circle cx="123.70044523230774" cy="3.134500504766824" r="0.55" fill="#888"/>
    <circle cx="92.45823983636603" cy="21.679332027760957" r="0.55" fill="#666"/>
    <circle cx="22.472145328983732" cy="8.244706097871394" r="0.55" fill="#888"/>
    <circle cx="72.51033166400639" cy="6.347699644904444" r="0.55" fill="#666"/>
    <circle cx="48.113750241284144" cy="10.656688456496545" r="0.55" fill="#888"/>
    <circle cx="73.93154409943686" cy="11.262919192557652" r="0.55" fill="#666"/>
    <circle cx="82.92196057081314" cy="19.372009286131714" r="0.55" fill="#666"/>
    <circle cx="46.50756194326448" cy="22.46336484978132" r="0.55" fill="#666"/>
    <circle cx="65.2009687722665" cy="18.13058377133244" r="0.55" fill="#fff"/>
    <circle cx="42.5117979242987" cy="22.06214047482337" r="0.55" fill="#666"/>
    <circle cx="119.85781389049153" cy="20.134840974414182" r="0.55" fill="#666"/>
    <circle cx="67.04138801341941" cy="7.804173472944727" r="0.55" fill="#888"/>
    <circle cx="31.501145377057206" cy="20.38226861687483" r="0.55" fill="#666"/>
    <circle cx="82.83282969232316" cy="11.485507493366258" r="0.55" fill="#666"/>
    <circle cx="124.65481328761895" cy="9.74960565997735" r="0.55" fill="#888"/>
    <circle cx="98.37498907808913" cy="0.7344975472588546" r="0.55" fill="#666"/>
    <circle cx="10.303467278044423" cy="7.815991583893071" r="0.55" fill="#666"/>
    <circle cx="103.29576759333526" cy="4.281378509374978" r="0.55" fill="#888"/>
    <circle cx="69.74601271969546" cy="0.8182058335832347" r="0.55" fill="#888"/>
    <circle cx="88.86646370210985" cy="1.9608430869229339" r="0.55" fill="#666"/>
    <circle cx="63.08278110534082" cy="9.90065980395333" r="0.55" fill="#888"/>
    <circle cx="49.62446906446687" cy="17.55601049263776" r="0.55" fill="#666"/>
    <circle cx="63.84088924473193" cy="2.704757929874937" r="0.55" fill="#666"/>
    <circle cx="108.94245057364108" cy="8.742121700310205" r="0.55" fill="#fff"/>
    <circle cx="82.5051565549826" cy="7.598162654367352" r="0.55" fill="#666"/>
    <circle cx="58.80469420263762" cy="8.439326290012955" r="0.55" fill="#888"/>
    <circle cx="75.63375762600161" cy="9.85469341713688" r="0.55" fill="#888"/>
    <circle cx="56.69299533576378" cy="6.455942395122695" r="0.55" fill="#666"/>
    <circle cx="2.4638740427158186" cy="1.2237613577040665" r="0.55" fill="#666"/>
    <circle cx="101.45963244347816" cy="21.601291189483035" r="0.55" fill="#888"/>
    <circle cx="94.95052485072544" cy="9.622975830511644" r="0.55" fill="#888"/>
    <circle cx="122.64340167941684" cy="20.47243834471909" r="0.55" fill="#666"/>
    <circle cx="58.616353777058585" cy="2.366719962035641" r="0.55" fill="#888"/>
    <circle cx="20.13246727880671" cy="10.765986149323165" r="0.55" fill="#666"/>
    <circle cx="82.22003988233396" cy="2.93190431708093" r="0.55" fill="#fff"/>
    <circle cx="80.46527007942333" cy="6.759936335617647" r="0.55" fill="#666"/>
    <circle cx="77.89330199961239" cy="21.7054243186514" r="0.55" fill="#666"/>
    <circle cx="96.18739603421994" cy="8.305035833178572" r="0.55" fill="#666"/>
    <circle cx="57.68946173446694" cy="6.73305988602017" r="0.55" fill="#888"/>
    <circle cx="25.49347783275576" cy="3.4560219659265234" r="0.55" fill="#888"/>
    <circle cx="39.52547790413978" cy="12.431113725496044" r="0.55" fill="#666"/>
    <circle cx="98.13027720205964" cy="7.770074370908586" r="0.55" fill="#fff"/>
    <circle cx="39.066936033809064" cy="11.008948807841609" r="0.55" fill="#888"/>
    <circle cx="59.43107369282799" cy="21.40509940167195" r="0.55" fill="#666"/>
    <circle cx="46.18178888279096" cy="18.18987823356403" r="0.55" fill="#666"/>
    <circle cx="49.35329129563332" cy="6.752690079739638" r="0.55" fill="#888"/>
    <circle cx="85.23281077492648" cy="18.317924269390257" r="0.55" fill="#888"/>
    <circle cx="42.376028795436035" cy="3.65363192705141" r="0.55" fill="#888"/>
    <circle cx="82.75725845329336" cy="5.843367579087321" r="0.55" fill="#888"/>
    <circle cx="112.11155348229761" cy="19.401264437893996" r="0.55" fill="#888"/>
    <circle cx="87.71312455400505" cy="11.390057807271395" r="0.55" fill="#888"/>
    <circle cx="8.323076489997597" cy="21.321619937578973" r="0.55" fill="#666"/>
  </g>
  <g transform="translate(512,0)">
    <circle cx="72.28964733485581" cy="5.398408653632928" r="0.55" fill="#666"/>
    <circle cx="83.83254424614485" cy="1.4068703655651167" r="0.55" fill="#888"/>
    <circle cx="21.27258850087998" cy="15.501226849388903" r="0.55" fill="#666"/>
    <circle cx="13.715329414566666" cy="2.5320338616296807" r="0.55" fill="#666"/>
    <circle cx="115.1569260890395" cy="5.900975706708141" r="0.55" fill="#fff"/>
    <circle cx="28.969882501275222" cy="2.7076722989825868" r="0.55" fill="#666"/>
    <circle cx="84.18977371751787" cy="6.896369460223415" r="0.55" fill="#666"/>
    <circle cx="12.759778505079344" cy="6.809488478260808" r="0.55" fill="#666"/>
    <circle cx="100.79728292105594" cy="17.20634651962032" r="0.55" fill="#666"/>
    <circle cx="32.206685974824566" cy="1.0432436468746715" r="0.55" fill="#fff"/>
    <circle cx="66.96518638821561" cy="3.0781853211010737" r="0.55" fill="#666"/>
    <circle cx="98.6056418873396" cy="13.16475058191677" r="0.55" fill="#888"/>
    <circle cx="41.48605682350977" cy="10.256072525752742" r="0.55" fill="#666"/>
    <circle cx="28.237252195941867" cy="17.285659321018336" r="0.55" fill="#666"/>
    <circle cx="100.03606556497331" cy="9.034114603201912" r="0.55" fill="#888"/>
    <circle cx="23.97931934473073" cy="1.3426775340189587" r="0.55" fill="#fff"/>
    <circle cx="55.71497395202284" cy="17.21297121826232" r="0.55" fill="#888"/>
    <circle cx="16.05699015364842" cy="11.086085503262508" r="0.55" fill="#888"/>
    <circle cx="69.29029467901694" cy="5.16999817111995" r="0.55" fill="#888"/>
    <circle cx="41.906086463903115" cy="4.548309804894174" r="0.55" fill="#888"/>
    <circle cx="94.06358699363824" cy="15.174030072369629" r="0.55" fill="#666"/>
    <circle cx="91.0941799106515" cy="16.0189387870575" r="0.55" fill="#fff"/>
    <circle cx="81.19495967784661" cy="16.81761360928305" r="0.55" fill="#666"/>
    <circle cx="99.65559582535904" cy="12.224111562466302" r="0.55" fill="#888"/>
    <circle cx="7.776830676373481" cy="15.983835883198228" r="0.55" fill="#fff"/>
    <circle cx="18.967952975057045" cy="5.770604076455629" r="0.55" fill="#666"/>
    <circle cx="88.33589540018508" cy="8.69788885498321" r="0.55" fill="#fff"/>
    <circle cx="18.54502440315905" cy="11.284889405027446" r="0.55" fill="#666"/>
    <circle cx="116.51819973602808" cy="2.9971730720704297" r="0.55" fill="#888"/>
    <circle cx="8.282596591525989" cy="15.200264639547218" r="0.55" fill="#888"/>
    <circle cx="55.972017552224926" cy="9.062601331883391" r="0.55" fill="#fff"/>
    <circle cx="74.74814156151757" cy="0.7893021108067139" r="0.55" fill="#666"/>
    <circle cx="8.00505018560451" cy="6.8216363817088475" r="0.55" fill="#666"/>
    <circle cx="37.81727124974936" cy="10.361632351699114" r="0.55" fill="#666"/>
    <circle cx="37.468802409464864" cy="7.30915952045897" r="0.55" fill="#888"/>
    <circle cx="46.533697387917755" cy="16.456373460570525" r="0.55" fill="#888"/>
    <circle cx="34.189536348539185" cy="13.77690053604399" r="0.55" fill="#fff"/>
    <circle cx="6.926662686246756" cy="12.931950515337267" r="0.55" fill="#888"/>
    <circle cx="30.039693369082965" cy="4.688158216042518" r="0.55" fill="#888"/>
    <circle cx="101.97377972536431" cy="9.636167530499478" r="0.55" fill="#666"/>
    <circle cx="77.42280391437131" cy="15.495653159448715" r="0.55" fill="#666"/>
    <circle cx="66.58290622457066" cy="10.717624669064593" r="0.55" fill="#888"/>
    <circle cx="109.89191823307979" cy="16.483535774044476" r="0.55" fill="#666"/>
    <circle cx="19.400794991478694" cy="11.63297719281771" r="0.55" fill="#666"/>
    <circle cx="60.69382121958482" cy="9.132824186530348" r="0.55" fill="#666"/>
    <circle cx="17.986405559343478" cy="12.331162338997778" r="0.55" fill="#888"/>
    <circle cx="25.267271053170447" cy="3.8613612071431063" r="0.55" fill="#888"/>
    <circle cx="69.76466801984454" cy="5.027008535585836" r="0.55" fill="#888"/>
    <circle cx="38.22157456223926" cy="2.8063523780118453" r="0.55" fill="#888"/>
    <circle cx="8.122659686544285" cy="1.7901751405048068" r="0.55" fill="#666"/>
    <circle cx="60.33765819451663" cy="3.6005136981143213" r="0.55" fill="#fff"/>
    <circle cx="28.40878154123611" cy="14.388804621011394" r="0.55" fill="#888"/>
    <circle cx="37.297100799296565" cy="16.681240804577826" r="0.55" fill="#666"/>
    <circle cx="66.22639773098119" cy="13.255521541813167" r="0.55" fill="#666"/>
    <circle cx="59.7449844157067" cy="2.9153792869371267" r="0.55" fill="#fff"/>
    <circle cx="99.33746437837252" cy="1.1367998126134276" r="0.55" fill="#fff"/>
    <circle cx="34.17897702808444" cy="10.792368893647739" r="0.55" fill="#fff"/>
    <circle cx="112.2671194594666" cy="14.395281798157507" r="0.55" fill="#666"/>
    <circle cx="75.4342871058892" cy="3.6092023863965657" r="0.55" fill="#888"/>
    <circle cx="107.43889646718227" cy="1.8650209910073414" r="0.55" fill="#888"/>
    <circle cx="23.877436171694395" cy="8.2216560280517" r="0.55" fill="#666"/>
    <circle cx="73.2837455609272" cy="14.650002247723753" r="0.55" fill="#666"/>
    <circle cx="62.56851366049075" cy="13.19455123538829" r="0.55" fill="#fff"/>
    <circle cx="84.97223738765915" cy="2.7508475790968387" r="0.55" fill="#666"/>
    <circle cx="8.920947316997195" cy="1.0375480058312174" r="0.55" fill="#888"/>
    <circle cx="110.20760135967639" cy="15.894490964428751" r="0.55" fill="#666"/>
    <circle cx="75.9088294258848" cy="1.910132408798734" r="0.55" fill="#888"/>
    <circle cx="32.77179361869199" cy="6.243511441044282" r="0.55" fill="#666"/>
    <circle cx="88.75565842900224" cy="3.0008289825640753" r="0.55" fill="#666"/>
    <circle cx="56.08126070680156" cy="5.296596529333199" r="0.55" fill="#666"/>
    <circle cx="113.89952581417725" cy="8.043087485964916" r="0.55" fill="#888"/>
    <circle cx="54.23564770316502" cy="9.67306757400421" r="0.55" fill="#888"/>
    <circle cx="24.076275836246218" cy="12.943177884650964" r="0.55" fill="#fff"/>
    <circle cx="69.56036094043421" cy="1.7644205099271706" r="0.55" fill="#666"/>
    <circle cx="40.814901608887546" cy="11.172392134867792" r="0.55" fill="#888"/>
    <circle cx="19.884375819416892" cy="4.923156680736298" r="0.55" fill="#fff"/>
    <circle cx="11.744551663633693" cy="5.736240091377981" r="0.55" fill="#666"/>
    <circle cx="59.52647933109034" cy="0.842509508292428" r="0.55" fill="#fff"/>
    <circle cx="115.96337729085394" cy="5.750189068378037" r="0.55" fill="#888"/>
    <circle cx="58.50873282249492" cy="13.194359785269182" r="0.55" fill="#888"/>
    <circle cx="118.41045099003728" cy="9.142708782405922" r="0.55" fill="#666"/>
    <circle cx="5.512059213832048" cy="0.9345032574769591" r="0.55" fill="#666"/>
    <circle cx="107.94861273977375" cy="11.14820909995968" r="0.55" fill="#888"/>
  </g>
  <g transform="translate(640,0)">
    <circle cx="31.99941911967444" cy="22.286363969457504" r="0.55" fill="#666"/>
    <circle cx="70.94941476264475" cy="7.041116240686326" r="0.55" fill="#888"/>
    <circle cx="69.72026780467493" cy="13.006701952082432" r="0.55" fill="#666"/>
    <circle cx="28.984902871765616" cy="8.611700240574637" r="0.55" fill="#888"/>
    <circle cx="27.079944384321543" cy="9.483356897245793" r="0.55" fill="#666"/>
    <circle cx="38.51854606229744" cy="13.193864113043" r="0.55" fill="#666"/>
    <circle cx="106.59980177581302" cy="11.731258635982527" r="0.55" fill="#666"/>
    <circle cx="118.30132799842457" cy="21.579945812504715" r="0.55" fill="#666"/>
    <circle cx="60.34258487603748" cy="7.121034863694121" r="0.55" fill="#888"/>
    <circle cx="67.9848893000674" cy="19.154834040745552" r="0.55" fill="#666"/>
    <circle cx="91.88164160907345" cy="12.292482858427094" r="0.55" fill="#666"/>
    <circle cx="94.8969960053903" cy="16.109995610830374" r="0.55" fill="#888"/>
    <circle cx="94.85558108885567" cy="11.265615229851386" r="0.55" fill="#888"/>
    <circle cx="71.16190794397235" cy="18.031399496612792" r="0.55" fill="#666"/>
    <circle cx="57.19398852819297" cy="10.511865620506864" r="0.55" fill="#666"/>
    <circle cx="37.1588382889325" cy="16.344663627373365" r="0.55" fill="#888"/>
    <circle cx="32.41840936216452" cy="14.233446127610954" r="0.55" fill="#666"/>
    <circle cx="79.28749654362328" cy="21.19827295313509" r="0.55" fill="#666"/>
    <circle cx="96.0151874865476" cy="22.345355520884205" r="0.55" fill="#888"/>
    <circle cx="84.17719415723215" cy="17.62674475513713" r="0.55" fill="#888"/>
    <circle cx="97.26474337292125" cy="6.88436842262017" r="0.55" fill="#666"/>
    <circle cx="22.967177311874543" cy="20.75121922243909" r="0.55" fill="#888"/>
    <circle cx="122.02014642628848" cy="12.958703046878195" r="0.55" fill="#888"/>
    <circle cx="65.28880789889433" cy="20.801339158928645" r="0.55" fill="#fff"/>
    <circle cx="120.05716424764002" cy="17.709099777605896" r="0.55" fill="#fff"/>
    <circle cx="98.45763491161989" cy="21.895434627959244" r="0.55" fill="#666"/>
    <circle cx="121.66667580263069" cy="11.966188912962652" r="0.55" fill="#666"/>
    <circle cx="60.1131787575377" cy="7.654816153997004" r="0.55" fill="#888"/>
    <circle cx="68.68284085564447" cy="15.923300273447904" r="0.55" fill="#888"/>
    <circle cx="32.363945498766356" cy="21.99744082498245" r="0.55" fill="#fff"/>
    <circle cx="119.98281669941862" cy="15.46501589518274" r="0.55" fill="#666"/>
    <circle cx="56.57209637368661" cy="5.112421514751586" r="0.55" fill="#666"/>
    <circle cx="25.46099628157029" cy="19.01356155542357" r="0.55" fill="#888"/>
    <circle cx="115.65710395698301" cy="17.464985140117346" r="0.55" fill="#666"/>
    <circle cx="80.93016556647149" cy="15.673505074891033" r="0.55" fill="#888"/>
    <circle cx="56.35750034049037" cy="18.37557435868102" r="0.55" fill="#fff"/>
    <circle cx="112.03615122243583" cy="12.203044181551341" r="0.55" fill="#666"/>
    <circle cx="55.792854573015525" cy="16.255356080716176" r="0.55" fill="#666"/>
    <circle cx="58.43878295712116" cy="14.453301674664628" r="0.55" fill="#fff"/>
    <circle cx="53.998584950807775" cy="4.936769964376823" r="0.55" fill="#666"/>
    <circle cx="112.10622876095876" cy="14.657285220062958" r="0.55" fill="#666"/>
    <circle cx="116.85251140773879" cy="21.5299773314176" r="0.55" fill="#666"/>
    <circle cx="81.67049334229459" cy="20.65620947822752" r="0.55" fill="#666"/>
    <circle cx="19.992629507087464" cy="5.379973711855698" r="0.55" fill="#888"/>
    <circle cx="13.403769379669694" cy="9.152734343266458" r="0.55" fill="#666"/>
    <circle cx="14.198519712872114" cy="11.640708630504417" r="0.55" fill="#888"/>
    <circle cx="54.915004040075004" cy="6.5683472184782605" r="0.55" fill="#888"/>
    <circle cx="84.79490689364957" cy="10.179893736578475" r="0.55" fill="#666"/>
    <circle cx="93.083688063586" cy="11.443055396407402" r="0.55" fill="#666"/>
    <circle cx="5.125543775095392" cy="13.353128320003453" r="0.55" fill="#666"/>
    <circle cx="59.87102409958421" cy="20.475053081277316" r="0.55" fill="#888"/>
    <circle cx="61.46082141830624" cy="5.608106853956406" r="0.55" fill="#888"/>
    <circle cx="36.42593433122427" cy="16.33152437947296" r="0.55" fill="#888"/>
    <circle cx="109.34238295831828" cy="4.770769598088585" r="0.55" fill="#fff"/>
    <circle cx="70.02859470482385" cy="6.825658801163388" r="0.55" fill="#666"/>
    <circle cx="33.89834018093456" cy="18.6504862393022" r="0.55" fill="#666"/>
    <circle cx="90.5114796578472" cy="9.046078924343957" r="0.55" fill="#888"/>
    <circle cx="59.059725073194" cy="9.045816663906825" r="0.55" fill="#888"/>
    <circle cx="67.1436321447341" cy="7.379012587889569" r="0.55" fill="#666"/>
    <circle cx="100.9608359802332" cy="19.3163313953282" r="0.55" fill="#666"/>
    <circle cx="126.09039974822215" cy="4.520856382335004" r="0.55" fill="#fff"/>
    <circle cx="107.91592841358666" cy="6.573044302907327" r="0.55" fill="#666"/>
    <circle cx="106.71489958917485" cy="17.606970318177236" r="0.55" fill="#666"/>
    <circle cx="54.08844807235918" cy="13.413593775086847" r="0.55" fill="#666"/>
    <circle cx="64.21830609404404" cy="12.961267953953366" r="0.55" fill="#fff"/>
    <circle cx="114.40424781358067" cy="14.428184992600318" r="0.55" fill="#888"/>
    <circle cx="31.43664790617146" cy="8.098372641763824" r="0.55" fill="#666"/>
    <circle cx="71.74325636343252" cy="15.452896840382786" r="0.55" fill="#666"/>
    <circle cx="27.80476738270594" cy="20.3561291191057" r="0.55" fill="#888"/>
    <circle cx="25.99275494785642" cy="18.42591066003121" r="0.55" fill="#888"/>
    <circle cx="36.867852406514736" cy="14.392905718597074" r="0.55" fill="#888"/>
    <circle cx="81.05248019846738" cy="6.4249799279146735" r="0.55" fill="#666"/>
    <circle cx="52.704275870558" cy="19.405707129699042" r="0.55" fill="#fff"/>
    <circle cx="81.57155040678175" cy="22.45940209457623" r="0.55" fill="#666"/>
    <circle cx="106.81370687196669" cy="14.608520514382292" r="0.55" fill="#666"/>
    <circle cx="22.3894882301751" cy="16.52084035427349" r="0.55" fill="#666"/>
    <circle cx="108.47542594907593" cy="19.4351563541848" r="0.55" fill="#888"/>
    <circle cx="61.16411277473164" cy="19.688914307946764" r="0.55" fill="#888"/>
    <circle cx="69.70347503046666" cy="11.201998715615831" r="0.55" fill="#666"/>
    <circle cx="125.33652782269591" cy="11.81781769325855" r="0.55" fill="#666"/>
    <circle cx="52.79120250967853" cy="8.479292158027782" r="0.55" fill="#888"/>
    <circle cx="15.737675383099203" cy="8.451209638245036" r="0.55" fill="#888"/>
    <circle cx="24.796445805484634" cy="12.886555200622675" r="0.55" fill="#666"/>
    <circle cx="68.18272259979635" cy="6.254786017236666" r="0.55" fill="#888"/>
    <circle cx="48.002438030672465" cy="16.36491275572447" r="0.55" fill="#666"/>
    <circle cx="44.45926969286951" cy="15.920347220925777" r="0.55" fill="#666"/>
    <circle cx="107.99995236610991" cy="19.932176599014632" r="0.55" fill="#888"/>
    <circle cx="120.04677015126067" cy="15.647512442966697" r="0.55" fill="#fff"/>
    <circle cx="92.85406368032753" cy="21.320106039205616" r="0.55" fill="#666"/>
    <circle cx="34.99857856426322" cy="19.09955740841085" r="0.55" fill="#666"/>
    <circle cx="51.778243744176926" cy="6.075551989290655" r="0.55" fill="#888"/>
    <circle cx="62.694189100383866" cy="7.21955299690345" r="0.55" fill="#888"/>
    <circle cx="95.43018536196564" cy="17.01420403295858" r="0.55" fill="#888"/>
    <circle cx="33.922849670482265" cy="8.060884479228818" r="0.55" fill="#666"/>
    <circle cx="118.29431724049817" cy="7.917740110036796" r="0.55" fill="#888"/>
    <circle cx="83.51535157231399" cy="8.563561681687627" r="0.55" fill="#fff"/>
    <circle cx="93.85819844755261" cy="21.87035203975176" r="0.55" fill="#fff"/>
    <circle cx="58.01016166480731" cy="16.167960412645694" r="0.55" fill="#888"/>
    <circle cx="94.01453046361662" cy="17.143474825026225" r="0.55" fill="#888"/>
    <circle cx="58.12852218427161" cy="21.331700573131304" r="0.55" fill="#888"/>
    <circle cx="55.26786258363531" cy="15.641771561997837" r="0.55" fill="#888"/>
    <circle cx="46.22577979286471" cy="16.423800714278503" r="0.55" fill="#888"/>
    <circle cx="77.55617353904815" cy="12.000492578139758" r="0.55" fill="#888"/>
    <circle cx="69.98733374708674" cy="10.341294054799384" r="0.55" fill="#666"/>
    <circle cx="104.85710506507061" cy="11.937274699768647" r="0.55" fill="#888"/>
    <circle cx="1.1584498883031542" cy="5.60371719817804" r="0.55" fill="#666"/>
    <circle cx="106.94043796227335" cy="18.467903145573988" r="0.55" fill="#888"/>
    <circle cx="8.314492348262338" cy="12.37046796636212" r="0.55" fill="#666"/>
    <circle cx="8.892648938993293" cy="4.962359370879065" r="0.55" fill="#666"/>
    <circle cx="11.848440056130494" cy="17.058449335656338" r="0.55" fill="#666"/>
    <circle cx="76.86861607985041" cy="17.293613680076607" r="0.55" fill="#666"/>
    <circle cx="91.56891749546348" cy="17.41062117410387" r="0.55" fill="#888"/>
    <circle cx="76.84869906858015" cy="10.036872629791905" r="0.55" fill="#888"/>
    <circle cx="21.241766700633693" cy="13.33016151787255" r="0.55" fill="#666"/>
    <circle cx="88.43045238751473" cy="20.39472008677885" r="0.55" fill="#666"/>
    <circle cx="99.32274817038456" cy="14.43182779007211" r="0.55" fill="#666"/>
    <circle cx="94.23557023575324" cy="17.87514997337719" r="0.55" fill="#fff"/>
  </g>
</svg>
