<svg xmlns="http://www.w3.org/2000/svg" viewBox="0 0 1024 32" width="1024" height="32">
  <!-- GLASSHOUSE DMD scene: SWARM - the moths converge on one lamp; the frame fills. Multiball, looped.
       8 frames of 128x32: #fff=3, #888=2, #666=1, black=0. -->
  <rect width="1024" height="32" fill="#000"/>

  <g transform="translate(0,0)">
    <circle cx="64" cy="15" r="3" fill="#fff"/>
    <circle cx="82.4" cy="15.0" r="1.4" fill="#fff"/>
    <circle cx="36.2" cy="25.2" r="1.4" fill="#888"/>
    <circle cx="66.6" cy="3.3" r="1.4" fill="#888"/>
    <circle cx="76.9" cy="21.7" r="1.4" fill="#fff"/>
    <circle cx="24.1" cy="12.2" r="1.4" fill="#888"/>
    <circle cx="91.2" cy="8.1" r="1.4" fill="#888"/>
    <circle cx="57.8" cy="24.2" r="1.4" fill="#fff"/>
    <circle cx="44.1" cy="3.0" r="1.4" fill="#888"/>
    <circle cx="96.8" cy="19.8" r="1.4" fill="#888"/>
    <circle cx="39.3" cy="19.1" r="1.4" fill="#fff"/>
    <circle cx="71.8" cy="8.3" r="1.4" fill="#888"/>
    <circle cx="75.3" cy="27.0" r="1.4" fill="#888"/>
    <circle cx="38.5" cy="9.1" r="1.4" fill="#fff"/>
    <circle cx="84.7" cy="13.2" r="1.4" fill="#888"/>
  </g>
  <g transform="translate(128,0)">
    <circle cx="64" cy="15" r="3" fill="#fff"/>
    <circle cx="79.1" cy="16.8" r="1.4" fill="#fff"/>
    <circle cx="35.0" cy="20.7" r="1.4" fill="#888"/>
    <circle cx="73.2" cy="5.6" r="1.4" fill="#888"/>
    <circle cx="70.5" cy="21.8" r="1.4" fill="#fff"/>
    <circle cx="32.9" cy="8.8" r="1.4" fill="#888"/>
    <circle cx="90.5" cy="11.9" r="1.4" fill="#888"/>
    <circle cx="53.3" cy="22.0" r="1.4" fill="#fff"/>
    <circle cx="56.9" cy="3.0" r="1.4" fill="#888"/>
    <circle cx="88.1" cy="22.1" r="1.4" fill="#888"/>
    <circle cx="41.3" cy="16.0" r="1.4" fill="#fff"/>
    <circle cx="74.4" cy="10.3" r="1.4" fill="#888"/>
    <circle cx="64.6" cy="27.0" r="1.4" fill="#888"/>
    <circle cx="46.6" cy="7.7" r="1.4" fill="#fff"/>
    <circle cx="82.1" cy="15.5" r="1.4" fill="#888"/>
  </g>
  <g transform="translate(256,0)">
    <circle cx="64" cy="15" r="3" fill="#fff"/>
    <circle cx="75.1" cy="17.8" r="1.4" fill="#fff"/>
    <circle cx="37.4" cy="16.8" r="1.4" fill="#888"/>
    <circle cx="76.9" cy="8.3" r="1.4" fill="#888"/>
    <circle cx="65.2" cy="21.0" r="1.4" fill="#fff"/>
    <circle cx="42.8" cy="7.1" r="1.4" fill="#888"/>
    <circle cx="87.0" cy="15.0" r="1.4" fill="#888"/>
    <circle cx="51.3" cy="19.6" r="1.4" fill="#fff"/>
    <circle cx="66.8" cy="3.0" r="1.4" fill="#888"/>
    <circle cx="79.1" cy="23.0" r="1.4" fill="#888"/>
    <circle cx="45.3" cy="13.6" r="1.4" fill="#fff"/>
    <circle cx="75.1" cy="12.2" r="1.4" fill="#888"/>
    <circle cx="56.9" cy="25.4" r="1.4" fill="#888"/>
    <circle cx="54.4" cy="7.5" r="1.4" fill="#fff"/>
    <circle cx="78.2" cy="17.1" r="1.4" fill="#888"/>
  </g>
  <g transform="translate(384,0)">
    <circle cx="64" cy="15" r="3" fill="#fff"/>
    <circle cx="70.9" cy="18.2" r="1.4" fill="#fff"/>
    <circle cx="42.6" cy="14.0" r="1.4" fill="#888"/>
    <circle cx="77.6" cy="11.1" r="1.4" fill="#888"/>
    <circle cx="61.6" cy="19.7" r="1.4" fill="#fff"/>
    <circle cx="52.1" cy="7.1" r="1.4" fill="#888"/>
    <circle cx="81.6" cy="17.1" r="1.4" fill="#888"/>
    <circle cx="51.7" cy="17.4" r="1.4" fill="#fff"/>
    <circle cx="73.1" cy="5.8" r="1.4" fill="#888"/>
    <circle cx="71.1" cy="22.5" r="1.4" fill="#888"/>
    <circle cx="50.4" cy="12.3" r="1.4" fill="#fff"/>
    <circle cx="74.1" cy="13.9" r="1.4" fill="#888"/>
    <circle cx="52.7" cy="22.3" r="1.4" fill="#888"/>
    <circle cx="60.8" cy="8.4" r="1.4" fill="#fff"/>
    <circle cx="73.7" cy="17.9" r="1.4" fill="#888"/>
  </g>
  <g transform="translate(512,0)">
    <circle cx="64" cy="15" r="3" fill="#fff"/>
    <circle cx="67.3" cy="17.9" r="1.4" fill="#fff"/>
    <circle cx="49.1" cy="12.5" r="1.4" fill="#888"/>
    <circle cx="75.9" cy="13.3" r="1.4" fill="#888"/>
    <circle cx="59.7" cy="18.2" r="1.4" fill="#fff"/>
    <circle cx="59.7" cy="8.3" r="1.4" fill="#888"/>
    <circle cx="75.6" cy="18.0" r="1.4" fill="#888"/>
    <circle cx="53.9" cy="15.7" r="1.4" fill="#fff"/>
    <circle cx="75.4" cy="9.2" r="1.4" fill="#888"/>
    <circle cx="65.2" cy="21.0" r="1.4" fill="#888"/>
    <circle cx="55.6" cy="11.9" r="1.4" fill="#fff"/>
    <circle cx="71.9" cy="15.0" r="1.4" fill="#888"/>
    <circle cx="52.0" cy="19.3" r="1.4" fill="#888"/>
    <circle cx="65.2" cy="10.0" r="1.4" fill="#fff"/>
    <circle cx="69.4" cy="17.9" r="1.4" fill="#888"/>
  </g>
  <g transform="translate(640,0)">
    <circle cx="64" cy="15" r="3" fill="#fff"/>
    <circle cx="64.7" cy="17.1" r="1.4" fill="#fff"/>
    <circle cx="55.7" cy="12.3" r="1.4" fill="#888"/>
    <circle cx="72.4" cy="14.8" r="1.4" fill="#888"/>
    <circle cx="59.8" cy="16.7" r="1.4" fill="#fff"/>
    <circle cx="64.4" cy="10.4" r="1.4" fill="#888"/>
    <circle cx="70.0" cy="17.8" r="1.4" fill="#888"/>
    <circle cx="57.2" cy="14.7" r="1.4" fill="#fff"/>
    <circle cx="74.0" cy="12.1" r="1.4" fill="#888"/>
    <circle cx="61.9" cy="18.9" r="1.4" fill="#888"/>
    <circle cx="60.1" cy="12.4" r="1.4" fill="#fff"/>
    <circle cx="69.0" cy="15.6" r="1.4" fill="#888"/>
    <circle cx="54.3" cy="16.9" r="1.4" fill="#888"/>
    <circle cx="67.1" cy="11.9" r="1.4" fill="#fff"/>
    <circle cx="66.1" cy="17.3" r="1.4" fill="#888"/>
  </g>
  <g transform="translate(768,0)">
    <circle cx="64" cy="15" r="3" fill="#fff"/>
    <circle cx="63.6" cy="16.0" r="1.4" fill="#fff"/>
    <circle cx="61.0" cy="13.2" r="1.4" fill="#888"/>
    <circle cx="68.1" cy="15.4" r="1.4" fill="#888"/>
    <circle cx="61.4" cy="15.6" r="1.4" fill="#fff"/>
    <circle cx="65.8" cy="12.8" r="1.4" fill="#888"/>
    <circle cx="65.9" cy="16.7" r="1.4" fill="#888"/>
    <circle cx="60.9" cy="14.5" r="1.4" fill="#fff"/>
    <circle cx="69.8" cy="14.2" r="1.4" fill="#888"/>
    <circle cx="61.6" cy="16.8" r="1.4" fill="#888"/>
    <circle cx="63.1" cy="13.5" r="1.4" fill="#fff"/>
    <circle cx="66.2" cy="15.6" r="1.4" fill="#888"/>
    <circle cx="58.7" cy="15.3" r="1.4" fill="#888"/>
    <circle cx="66.6" cy="13.7" r="1.4" fill="#fff"/>
    <circle cx="64.2" cy="16.2" r="1.4" fill="#888"/>
  </g>
  <g transform="translate(896,0)">
    <circle cx="64" cy="15" r="3" fill="#fff"/>
    <circle cx="64.0" cy="15.0" r="1.4" fill="#fff"/>
    <circle cx="64.0" cy="15.0" r="1.4" fill="#888"/>
    <circle cx="64.0" cy="15.0" r="1.4" fill="#888"/>
    <circle cx="64.0" cy="15.0" r="1.4" fill="#fff"/>
    <circle cx="64.0" cy="15.0" r="1.4" fill="#888"/>
    <circle cx="64.0" cy="15.0" r="1.4" fill="#888"/>
    <circle cx="64.0" cy="15.0" r="1.4" fill="#fff"/>
    <circle cx="64.0" cy="15.0" r="1.4" fill="#888"/>
    <circle cx="64.0" cy="15.0" r="1.4" fill="#888"/>
    <circle cx="64.0" cy="15.0" r="1.4" fill="#fff"/>
    <circle cx="64.0" cy="15.0" r="1.4" fill="#888"/>
    <circle cx="64.0" cy="15.0" r="1.4" fill="#888"/>
    <circle cx="64.0" cy="15.0" r="1.4" fill="#fff"/>
    <circle cx="64.0" cy="15.0" r="1.4" fill="#888"/>
  </g>
</svg>
