<svg xmlns="http://www.w3.org/2000/svg" viewBox="0 0 1024 32" width="1024" height="32">
  <!-- THE NIGHT MAIL DMD scene: TUNNEL — rails-POV rush. Twin rails converge on
       the vanishing point while the tunnel mouth grows frame over frame
       until it swallows the view; a lamp flashes inside the bore. 8 frames
       of 128x32 (style guide §6): #fff=3, #888=2, #666=1, black=0.
       Art rows 0..22; caption renders from row 24. -->
  <rect width="1024" height="32" fill="#000"/>
  <g transform="translate(0,0)">
    <line x1="14" y1="22" x2="60" y2="11" stroke="#888" stroke-width="1"/>
    <line x1="114" y1="22" x2="68" y2="11" stroke="#888" stroke-width="1"/>
    <line x1="60" y1="11" x2="68" y2="11" stroke="#666" stroke-width="0.8"/>
    <line x1="54" y1="12.3" x2="74" y2="12.3" stroke="#666" stroke-width="0.8"/>
    <line x1="44" y1="14.6" x2="84" y2="14.6" stroke="#888" stroke-width="0.8"/>
    <line x1="30" y1="17.9" x2="98" y2="17.9" stroke="#888" stroke-width="1"/>
    <path d="M 60 12 A 4 4 0 0 1 68 12" fill="none" stroke="#666" stroke-width="1"/>
    <line x1="60" y1="12" x2="60" y2="22" stroke="#666" stroke-width="1"/>
    <line x1="68" y1="12" x2="68" y2="22" stroke="#666" stroke-width="1"/>
  </g>
  <g transform="translate(128,0)">
    <line x1="14" y1="22" x2="60" y2="11" stroke="#888" stroke-width="1"/>
    <line x1="114" y1="22" x2="68" y2="11" stroke="#888" stroke-width="1"/>
    <line x1="57.8" y1="11.5" x2="70.2" y2="11.5" stroke="#666" stroke-width="0.8"/>
    <line x1="50" y1="13.3" x2="78" y2="13.3" stroke="#666" stroke-width="0.8"/>
    <line x1="38.2" y1="16" x2="89.8" y2="16" stroke="#888" stroke-width="0.8"/>
    <line x1="22.4" y1="19.6" x2="105.6" y2="19.6" stroke="#888" stroke-width="1"/>
    <path d="M 58 12 A 6 6 0 0 1 70 12" fill="none" stroke="#666" stroke-width="1"/>
    <line x1="58" y1="12" x2="58" y2="22" stroke="#666" stroke-width="1"/>
    <line x1="70" y1="12" x2="70" y2="22" stroke="#666" stroke-width="1"/>
  </g>
  <g transform="translate(256,0)">
    <line x1="14" y1="22" x2="60" y2="11" stroke="#888" stroke-width="1"/>
    <line x1="114" y1="22" x2="68" y2="11" stroke="#888" stroke-width="1"/>
    <line x1="60.4" y1="10.9" x2="67.6" y2="10.9" stroke="#666" stroke-width="0.8"/>
    <line x1="54.8" y1="12.2" x2="73.2" y2="12.2" stroke="#666" stroke-width="0.8"/>
    <line x1="45.2" y1="14.4" x2="82.8" y2="14.4" stroke="#666" stroke-width="0.8"/>
    <line x1="31.6" y1="17.5" x2="96.4" y2="17.5" stroke="#888" stroke-width="1"/>
    <line x1="14" y1="21.5" x2="114" y2="21.5" stroke="#888" stroke-width="1"/>
    <path d="M 56 12 A 8 8 0 0 1 72 12" fill="none" stroke="#666" stroke-width="1"/>
    <line x1="56" y1="12" x2="56" y2="22" stroke="#666" stroke-width="1"/>
    <line x1="72" y1="12" x2="72" y2="22" stroke="#666" stroke-width="1"/>
  </g>
  <g transform="translate(384,0)">
    <line x1="14" y1="22" x2="60" y2="11" stroke="#888" stroke-width="1"/>
    <line x1="114" y1="22" x2="68" y2="11" stroke="#888" stroke-width="1"/>
    <line x1="58.4" y1="11.3" x2="69.6" y2="11.3" stroke="#666" stroke-width="0.8"/>
    <line x1="51" y1="13" x2="77" y2="13" stroke="#666" stroke-width="0.8"/>
    <line x1="39.6" y1="15.7" x2="88.4" y2="15.7" stroke="#888" stroke-width="0.8"/>
    <line x1="24.2" y1="19.2" x2="103.8" y2="19.2" stroke="#888" stroke-width="1"/>
    <path d="M 53 12 A 11 11 0 0 1 75 12" fill="none" stroke="#888" stroke-width="1.2"/>
    <line x1="53" y1="12" x2="53" y2="22" stroke="#888" stroke-width="1.2"/>
    <line x1="75" y1="12" x2="75" y2="22" stroke="#888" stroke-width="1.2"/>
  </g>
  <g transform="translate(512,0)">
    <line x1="14" y1="22" x2="60" y2="11" stroke="#888" stroke-width="1"/>
    <line x1="114" y1="22" x2="68" y2="11" stroke="#888" stroke-width="1"/>
    <line x1="55.5" y1="12" x2="72.5" y2="12" stroke="#666" stroke-width="0.8"/>
    <line x1="46.3" y1="14.1" x2="81.7" y2="14.1" stroke="#666" stroke-width="0.8"/>
    <line x1="33.1" y1="17.1" x2="94.9" y2="17.1" stroke="#888" stroke-width="1"/>
    <line x1="15.9" y1="21.1" x2="112.1" y2="21.1" stroke="#888" stroke-width="1"/>
    <line x1="60.7" y1="10.8" x2="67.3" y2="10.8" stroke="#666" stroke-width="0.8"/>
    <path d="M 49 12 A 15 15 0 0 1 79 12" fill="none" stroke="#888" stroke-width="1.2"/>
    <line x1="49" y1="12" x2="49" y2="22" stroke="#888" stroke-width="1.2"/>
    <line x1="79" y1="12" x2="79" y2="22" stroke="#888" stroke-width="1.2"/>
  </g>
  <g transform="translate(640,0)">
    <line x1="14" y1="22" x2="60" y2="11" stroke="#888" stroke-width="1"/>
    <line x1="114" y1="22" x2="68" y2="11" stroke="#888" stroke-width="1"/>
    <line x1="51.9" y1="12.8" x2="76.1" y2="12.8" stroke="#666" stroke-width="0.8"/>
    <line x1="40.9" y1="15.4" x2="87.1" y2="15.4" stroke="#888" stroke-width="0.8"/>
    <line x1="25.9" y1="18.8" x2="102.1" y2="18.8" stroke="#888" stroke-width="1"/>
    <line x1="58.9" y1="11.2" x2="69.1" y2="11.2" stroke="#666" stroke-width="0.8"/>
    <path d="M 43 12 A 21 21 0 0 1 85 12" fill="none" stroke="#888" stroke-width="1.6"/>
    <line x1="43" y1="12" x2="43" y2="22" stroke="#888" stroke-width="1.6"/>
    <line x1="85" y1="12" x2="85" y2="22" stroke="#888" stroke-width="1.6"/>
    <circle cx="64" cy="7" r="1" fill="#666"/>
  </g>
  <g transform="translate(768,0)">
    <line x1="14" y1="22" x2="60" y2="11" stroke="#888" stroke-width="1"/>
    <line x1="114" y1="22" x2="68" y2="11" stroke="#888" stroke-width="1"/>
    <line x1="47.4" y1="13.9" x2="80.6" y2="13.9" stroke="#666" stroke-width="0.8"/>
    <line x1="34.6" y1="16.8" x2="93.4" y2="16.8" stroke="#888" stroke-width="0.8"/>
    <line x1="17.8" y1="20.7" x2="110.2" y2="20.7" stroke="#888" stroke-width="1"/>
    <line x1="61" y1="10.7" x2="67" y2="10.7" stroke="#666" stroke-width="0.8"/>
    <line x1="56.2" y1="11.8" x2="71.8" y2="11.8" stroke="#666" stroke-width="0.8"/>
    <path d="M 32 12 A 32 32 0 0 1 96 12" fill="none" stroke="#fff" stroke-width="1.6"/>
    <line x1="32" y1="12" x2="32" y2="22" stroke="#fff" stroke-width="1.6"/>
    <line x1="96" y1="12" x2="96" y2="22" stroke="#fff" stroke-width="1.6"/>
    <circle cx="64" cy="7" r="2" fill="#fff"/>
    <line x1="59" y1="7" x2="61.5" y2="7" stroke="#888" stroke-width="1"/>
    <line x1="66.5" y1="7" x2="69" y2="7" stroke="#888" stroke-width="1"/>
    <line x1="64" y1="2.5" x2="64" y2="4.5" stroke="#888" stroke-width="1"/>
    <line x1="64" y1="9.5" x2="64" y2="11.5" stroke="#888" stroke-width="1"/>
  </g>
  <g transform="translate(896,0)">
    <line x1="14" y1="22" x2="60" y2="11" stroke="#888" stroke-width="1"/>
    <line x1="114" y1="22" x2="68" y2="11" stroke="#888" stroke-width="1"/>
    <line x1="42.2" y1="15.1" x2="85.8" y2="15.1" stroke="#888" stroke-width="0.8"/>
    <line x1="27.6" y1="18.4" x2="100.4" y2="18.4" stroke="#888" stroke-width="1"/>
    <line x1="59.4" y1="11.1" x2="68.6" y2="11.1" stroke="#666" stroke-width="0.8"/>
    <line x1="52.8" y1="12.6" x2="75.2" y2="12.6" stroke="#666" stroke-width="0.8"/>
    <path d="M 4 12 A 60 60 0 0 1 124 12" fill="none" stroke="#fff" stroke-width="2"/>
    <line x1="4" y1="12" x2="4" y2="22" stroke="#fff" stroke-width="2"/>
    <line x1="124" y1="12" x2="124" y2="22" stroke="#fff" stroke-width="2"/>
    <circle cx="64" cy="8" r="1.4" fill="#888"/>
    <circle cx="48" cy="5" r="0.8" fill="#666"/>
    <circle cx="80" cy="5" r="0.8" fill="#666"/>
  </g>
</svg>
