<svg xmlns="http://www.w3.org/2000/svg" viewBox="0 0 575 1050" width="575" height="1050">
  <!--
    NIGHT WAVES — table 5 of Pinball Reverie. A pirate radio station on a
    rooftop above the sleeping city, midnight until dawn: the transmitter
    mast on the parapet at the top, the neighbours' aerials mid-field, the
    studio at the flippers. Master units: 1 SVG unit = 1 mm (style guide
    §3). Design truth: design/tables/nightwaves/BRIEF.md; layout
    clearance-solved against the STYLE-GUIDE §4 ball-gap rules.

    This file is the single source of truth for table shape (§5e):
    collision-/sensor-/anchor-/height-profile- prefixed elements are parsed
    into physics by src/table/SvgCollision.ts. The collision strokes ARE the
    drawn walls. The AERIAL RUN is an M11 climbing surface (data-surface
    "aerial", amber glass per the table 5 style amendment): mouth at
    centre-left above the left flipper, climbing the left side, straddling
    the sweep channel at h34, releasing the ball AIRBORNE at the mast — it
    drops into the sweep channel and runs on. The switchboard capture is
    sensor-only (the Night Mail siding pattern), z-banded so riders
    overhead never trip it. Art may use any SVG features; collision paths
    are polylines only.
  -->
  <defs>
    <linearGradient id="rooftopGrad" x1="0" y1="0" x2="0" y2="1">
      <stop offset="0" stop-color="#3a2f1e"/>
      <stop offset="0.45" stop-color="#262015"/>
      <stop offset="1" stop-color="#171310"/>
    </linearGradient>
    <radialGradient id="vignette" cx="0.5" cy="0.45" r="0.8">
      <stop offset="0.6" stop-color="#07080d" stop-opacity="0"/>
      <stop offset="1" stop-color="#07080d" stop-opacity="0.34"/>
    </radialGradient>
    <linearGradient id="chromeText" x1="0" y1="0" x2="0" y2="1">
      <stop offset="0" stop-color="#ffffff"/>
      <stop offset="0.46" stop-color="#d7dce8"/>
      <stop offset="0.52" stop-color="#565d6e"/>
      <stop offset="0.60" stop-color="#aeb6c8"/>
      <stop offset="1" stop-color="#ffffff"/>
    </linearGradient>
    <radialGradient id="amberGlow" cx="0.5" cy="0.5" r="0.5">
      <stop offset="0" stop-color="#ffa028" stop-opacity="0.3"/>
      <stop offset="1" stop-color="#ffa028" stop-opacity="0"/>
    </radialGradient>
    <radialGradient id="lampGlow" cx="0.5" cy="0.5" r="0.5">
      <stop offset="0" stop-color="#ffdf9e" stop-opacity="0.32"/>
      <stop offset="1" stop-color="#ffdf9e" stop-opacity="0"/>
    </radialGradient>
    <filter id="glowSoft" x="-60%" y="-60%" width="220%" height="220%">
      <feGaussianBlur stdDeviation="6" result="b"/>
      <feMerge><feMergeNode in="b"/><feMergeNode in="SourceGraphic"/></feMerge>
    </filter>
  </defs>

  <!-- ═══════════════ art: the city below ═══════════════ -->
  <g id="art-field">
    <rect x="0" y="0" width="575" height="1050" fill="url(#rooftopGrad)"/>

    <!-- the same moon the whole lineup shares, over the parapet -->
    <g opacity="0.85">
      <circle cx="453" cy="40" r="15" fill="#aeb6c8" stroke="#07080d" stroke-width="1.5"/>
      <path d="M 453 25 a 15 15 0 0 0 0 30 a 11 15 0 0 1 0 -30 Z" fill="#d7dce8" opacity="0.8"/>
    </g>
    <!-- a clear night: a scatter of stars high up -->
    <g fill="#7f8fc9">
      <circle cx="200" cy="34" r="1" opacity="0.35"/><circle cx="320" cy="26" r="1.1" opacity="0.35"/>
      <circle cx="392" cy="52" r="1" opacity="0.3"/><circle cx="262" cy="48" r="1" opacity="0.3"/>
      <circle cx="500" cy="70" r="1" opacity="0.3"/><circle cx="160" cy="52" r="1" opacity="0.3"/>
    </g>

    <!-- rooflines receding: ridge rows with chimney stacks, darker with distance -->
    <g stroke="#07080d" stroke-width="1.5">
      <path d="M 60 262 L 130 262 L 130 246 L 142 246 L 142 262 L 240 262 L 240 252 L 280 252 L 280 262 L 470 262 L 470 300 L 60 300 Z" fill="#171310" opacity="0.55"/>
      <path d="M 60 336 L 180 336 L 180 322 L 192 322 L 192 336 L 330 336 L 330 328 L 372 328 L 372 336 L 500 336 L 500 430 L 60 430 Z" fill="#141009" opacity="0.5"/>
    </g>
    <!-- neighbours' TV aerials on the ridgelines -->
    <g stroke="#565d6e" stroke-width="1.6" fill="none" opacity="0.7">
      <path d="M 226 252 L 226 232 M 218 236 L 234 236 M 220 241 L 232 241"/>
      <path d="M 452 262 L 452 240 M 443 244 L 461 244 M 446 250 L 458 250"/>
      <path d="M 352 328 L 352 306 M 343 310 L 361 310 M 346 316 L 358 316"/>
    </g>

    <!-- lit windows across the sleeping city (bulb tokens, tiny points) -->
    <g fill="#ffdf9e">
      <rect x="98" y="276" width="5" height="6" rx="1" opacity="0.5"/>
      <rect x="206" y="274" width="5" height="6" rx="1" opacity="0.45"/>
      <rect x="330" y="278" width="5" height="6" rx="1" opacity="0.5"/>
      <rect x="440" y="348" width="5" height="6" rx="1" opacity="0.45"/>
      <rect x="120" y="404" width="5" height="6" rx="1" opacity="0.4"/>
      <rect x="300" y="352" width="5" height="6" rx="1" opacity="0.45"/>
      <rect x="212" y="560" width="5" height="6" rx="1" opacity="0.4"/>
      <rect x="430" y="600" width="5" height="6" rx="1" opacity="0.45"/>
      <rect x="80" y="640" width="5" height="6" rx="1" opacity="0.4"/>
      <rect x="452" y="760" width="5" height="6" rx="1" opacity="0.4"/>
      <rect x="230" y="836" width="5" height="6" rx="1" opacity="0.45"/>
    </g>
    <!-- sodium points along the streets below (the ≤10% amber neon) -->
    <g fill="#ffa028">
      <circle cx="90" cy="480" r="1.5" opacity="0.5"/><circle cx="248" cy="545" r="1.3" opacity="0.45"/>
      <circle cx="428" cy="660" r="1.5" opacity="0.5"/><circle cx="330" cy="790" r="1.4" opacity="0.45"/>
      <circle cx="150" cy="860" r="1.5" opacity="0.5"/><circle cx="480" cy="710" r="1.3" opacity="0.4"/>
    </g>
    <!-- tar-paper seams down the open field -->
    <g stroke="#141009" stroke-width="3" opacity="0.5">
      <line x1="236" y1="560" x2="236" y2="800"/>
      <line x1="284" y1="560" x2="284" y2="800"/>
      <line x1="420" y1="580" x2="420" y2="700"/>
    </g>
  </g>

  <!-- ═══════════════ art: features ═══════════════ -->
  <g id="art-motifs">
    <!-- W·A·V·E lane inserts (rollovers light these) -->
    <g stroke="#07080d" stroke-width="1.5">
      <circle cx="162" cy="88" r="11" fill="#262015"/>
      <circle cx="225" cy="88" r="11" fill="#262015"/>
      <circle cx="295" cy="88" r="11" fill="#262015"/>
      <circle cx="358" cy="88" r="11" fill="#262015"/>
    </g>
    <g font-family="ui-monospace, monospace" font-size="13" font-weight="700"
       fill="#ffa028" text-anchor="middle" opacity="0.85">
      <text x="162" y="93">W</text><text x="225" y="93">A</text>
      <text x="295" y="93">V</text><text x="358" y="93">E</text>
    </g>

    <!-- THE MAST on the parapet, top-left: lattice tower, beacon, radiating
         rings. The aerial-run drop-off releases the ball just under it. -->
    <g id="art-mast">
      <circle cx="86" cy="46" r="20" fill="url(#amberGlow)" stroke="none"/>
      <g stroke="#565d6e" stroke-width="2" fill="none">
        <path d="M 78 96 L 86 44 L 94 96"/>
        <path d="M 80 84 L 92 84 M 81.5 72 L 90.5 72 M 83 60 L 89 60"/>
        <path d="M 80 84 L 90.5 72 M 92 84 L 81.5 72 M 81.5 72 L 89 60 M 90.5 72 L 83 60"/>
      </g>
      <circle cx="86" cy="42" r="3" fill="#ffa028" stroke="#07080d" stroke-width="1.2"/>
      <g fill="none" stroke="#ffa028" opacity="0.35" stroke-width="1.5">
        <circle cx="86" cy="42" r="12" stroke-dasharray="3 5"/>
        <circle cx="86" cy="42" r="21" stroke-dasharray="2 7" opacity="0.7"/>
      </g>
      <!-- the ON AIR sign bolted to the mast foot (lamp: lit during multiball) -->
      <rect x="62" y="100" width="48" height="15" rx="3" fill="#171310" stroke="#07080d" stroke-width="1.5"/>
      <rect x="62" y="100" width="48" height="15" rx="3" fill="none" stroke="#ffa028" stroke-width="1.2" opacity="0.6"/>
      <text x="86" y="111" text-anchor="middle" font-family="ui-monospace, monospace"
            font-size="9" letter-spacing="1" font-weight="700" fill="#ffa028" opacity="0.85">ON AIR</text>
    </g>

    <!-- rooftop aerials: signal rings around the bumpers -->
    <g fill="none" stroke="#ffa028" opacity="0.22" stroke-width="1.5">
      <circle cx="285" cy="240" r="40" stroke-dasharray="4 6"/>
      <circle cx="390" cy="275" r="40" stroke-dasharray="4 6"/>
      <circle cx="315" cy="345" r="40" stroke-dasharray="4 6"/>
    </g>
    <text x="330" y="196" text-anchor="middle" font-family="ui-monospace, monospace"
          font-size="10" letter-spacing="3" fill="#46381f">THE AERIALS</text>

    <!-- THE SWITCHBOARD: caller patch bay under the aerial run; the two
         hold-line berths sit above it (locked balls park here as ghosts) -->
    <g id="art-switchboard">
      <rect x="112" y="350" width="40" height="38" rx="4" fill="#262015" stroke="#07080d" stroke-width="1.5"/>
      <g fill="#565d6e">
        <circle cx="122" cy="360" r="2.2"/><circle cx="132" cy="360" r="2.2"/><circle cx="142" cy="360" r="2.2"/>
        <circle cx="122" cy="370" r="2.2"/><circle cx="132" cy="370" r="2.2"/><circle cx="142" cy="370" r="2.2"/>
        <circle cx="122" cy="380" r="2.2"/><circle cx="142" cy="380" r="2.2"/>
      </g>
      <circle cx="132" cy="380" r="2.2" fill="#ffa028"/>
      <!-- the hold line: two berths, lamps lit while a caller waits -->
      <circle cx="132" cy="335" r="10" fill="none" stroke="#46381f" stroke-width="2" stroke-dasharray="4 4"/>
      <circle cx="132" cy="305" r="10" fill="none" stroke="#46381f" stroke-width="2" stroke-dasharray="4 4"/>
      <text x="98" y="392" text-anchor="middle" font-family="ui-monospace, monospace"
            font-size="9" letter-spacing="1" fill="#a68d5c" transform="rotate(-90 98 392)">SWITCHBOARD</text>
    </g>

    <!-- THE PHONE: studio scoop drawn as a rotary dial, mouth down-left.
         The kicker holds the ball here while the caller talks. -->
    <g id="art-phone">
      <circle cx="272" cy="446" r="40" fill="#07080d"/>
      <circle cx="272" cy="446" r="34" fill="#262015"/>
      <circle cx="272" cy="446" r="34" fill="none" stroke="#46381f" stroke-width="3"/>
      <circle cx="272" cy="446" r="38" fill="none" stroke="#9c7c2c" stroke-width="4"/>
      <circle cx="272" cy="446" r="38" fill="none" stroke="#e0b64e" stroke-width="1.5" stroke-dasharray="5 6"/>
      <!-- rotary finger holes -->
      <g fill="#171310" stroke="#565d6e" stroke-width="1">
        <circle cx="272" cy="422" r="4"/><circle cx="289" cy="428" r="4"/>
        <circle cx="296" cy="444" r="4"/><circle cx="291" cy="461" r="4"/>
        <circle cx="255" cy="428" r="4"/><circle cx="248" cy="444" r="4"/>
      </g>
      <circle cx="272" cy="446" r="7" fill="#ffa028" opacity="0.5"/>
      <path d="M 254 430 a 24 24 0 0 1 11 -7" stroke="#a68d5c" stroke-width="2.5" fill="none" stroke-linecap="round"/>
      <g stroke="#ffa028" stroke-width="2.5" fill="none" stroke-linecap="round" stroke-linejoin="round" opacity="0.75">
        <path d="M 252 499.5 L 259 490.5 L 266 499.5" transform="rotate(11 259 495)"/>
        <path d="M 245 536.5 L 252 527.5 L 259 536.5" transform="rotate(11 252 532)"/>
      </g>
      <text x="318" y="512" text-anchor="middle" font-family="ui-monospace, monospace"
            font-size="11" letter-spacing="2" fill="#9c7c2c" transform="rotate(-70 318 512)">THE PHONE</text>
    </g>

    <!-- THE FADER BANK recess in the lane wall (targets render live) -->
    <g id="art-faders">
      <path d="M 520 415 L 503 423 L 503 547 L 520 555" fill="none" stroke="#3a2f1e" stroke-width="18"/>
      <g fill="#ffa028" opacity="0.7">
        <circle cx="508" cy="432" r="1.6"/><circle cx="508" cy="485" r="1.6"/><circle cx="508" cy="538" r="1.6"/>
      </g>
      <text x="512" y="487" text-anchor="middle" font-family="ui-monospace, monospace"
            font-size="10" letter-spacing="2" fill="#9c7c2c" transform="rotate(-90 512 487)">FADERS</text>
      <!-- approach chevrons from the left flipper, pointing up-right -->
      <g stroke="#e0b64e" stroke-width="2.5" fill="none" stroke-linecap="round" stroke-linejoin="round" opacity="0.7">
        <path d="M 425 624.5 L 432 615.5 L 439 624.5" transform="rotate(29 432 620)"/>
        <path d="M 403 664.5 L 410 655.5 L 417 664.5" transform="rotate(29 410 660)"/>
      </g>
    </g>

    <!-- THE RECORD DECK (disc renders live; art carries the platter) -->
    <g id="art-deck">
      <circle cx="320" cy="640" r="38" fill="#171310" stroke="#07080d" stroke-width="2"/>
      <circle cx="320" cy="640" r="34" fill="#141009" stroke="#46381f" stroke-width="2"/>
      <g fill="none" stroke="#565d6e" stroke-width="0.8" opacity="0.6">
        <circle cx="320" cy="640" r="28"/><circle cx="320" cy="640" r="22"/><circle cx="320" cy="640" r="16"/>
      </g>
      <circle cx="320" cy="640" r="9" fill="#ffa028" opacity="0.55" stroke="#07080d" stroke-width="1"/>
      <circle cx="320" cy="640" r="1.6" fill="#07080d"/>
      <!-- tonearm from the northeast -->
      <line x1="352" y1="606" x2="332" y2="628" stroke="#07080d" stroke-width="4"/>
      <line x1="352" y1="606" x2="332" y2="628" stroke="#aeb6c8" stroke-width="2"/>
      <circle cx="352" cy="606" r="4.5" fill="#565d6e" stroke="#07080d" stroke-width="1.5"/>
      <text x="368" y="682" text-anchor="middle" font-family="ui-monospace, monospace"
            font-size="9" letter-spacing="1" fill="#46381f" transform="rotate(-90 368 682)">THE DECK</text>
    </g>

    <!-- the aerial run mouth: shot chevrons up from the left flipper -->
    <g id="art-aerial-mouth">
      <g stroke="#ffa028" stroke-width="2.5" fill="none" stroke-linecap="round" stroke-linejoin="round" opacity="0.75">
        <path d="M 161 777.5 L 168 768.5 L 175 777.5"/>
        <path d="M 161 745.5 L 168 736.5 L 175 745.5"/>
      </g>
      <text x="212" y="726" text-anchor="middle" font-family="ui-monospace, monospace"
            font-size="10" letter-spacing="2" fill="#46381f" transform="rotate(-84 212 726)">AERIAL RUN</text>
    </g>

    <!-- THE CLOCK inserts down the centreline (lamps light these) -->
    <g id="art-clock">
      <line x1="255" y1="612" x2="255" y2="778" stroke="#2c3352" stroke-width="2"/>
      <g stroke="#07080d" stroke-width="1.5" fill="#262015">
        <circle cx="255" cy="625" r="9"/><circle cx="255" cy="660" r="9"/>
        <circle cx="255" cy="695" r="9"/><circle cx="255" cy="730" r="9"/>
        <circle cx="255" cy="765" r="9"/>
      </g>
      <g font-family="ui-monospace, monospace" font-size="8" fill="#a68d5c">
        <text x="228" y="628" text-anchor="end">01:00</text><text x="228" y="663" text-anchor="end">02:00</text>
        <text x="228" y="698" text-anchor="end">03:00</text><text x="228" y="733" text-anchor="end">04:00</text>
        <text x="228" y="768" text-anchor="end">05:00</text>
      </g>
    </g>

    <!-- outlanes: the generator kickback + the side door. Save inserts are
         lit while armed so the player reads the outlane before the drop -->
    <g id="art-outlanes">
      <rect x="12" y="948" width="28" height="20" rx="4" fill="#3a2f1e" stroke="#07080d" stroke-width="1.5"/>
      <path d="M 26 944 L 20 934 L 32 934 Z" fill="#ffa028" opacity="0.8"/>
      <circle cx="26" cy="868" r="7" fill="#171310" stroke="#07080d" stroke-width="1.5"/>
      <circle cx="26" cy="868" r="7" fill="none" stroke="#ffa028" stroke-width="1.8" opacity="0.9"/>
      <text x="30" y="908" text-anchor="middle" font-family="ui-monospace, monospace"
            font-size="9" letter-spacing="1" fill="#46381f" transform="rotate(-90 30 908)">GENERATOR</text>
      <circle cx="494" cy="838" r="7" fill="#171310" stroke="#07080d" stroke-width="1.5"/>
      <circle cx="494" cy="838" r="7" fill="none" stroke="#ffa028" stroke-width="1.8" opacity="0.9"/>
      <text x="492" y="884" text-anchor="middle" font-family="ui-monospace, monospace"
            font-size="9" letter-spacing="1" fill="#46381f" transform="rotate(-90 492 884)">SIDE DOOR</text>
      <!-- the back stairs, glimpsed: down through the building to the left inlane -->
      <path d="M 496 920 L 490 950 L 478 980 L 460 1000 L 430 1013 L 390 1021 L 340 1026 L 290 1028 L 240 1026 L 195 1018 L 150 1004 L 110 982 L 80 950 L 60 905 L 50 850 L 48 800 L 52 755 L 60 715 L 68 685 L 78 700"
            fill="none" stroke="#ffa028" stroke-width="4" stroke-dasharray="3 9" opacity="0.16"/>
    </g>

    <!-- the studio behind the flippers: mixing desk, VU meters, one warm window -->
    <g id="art-studio" opacity="0.9">
      <path d="M 150 900 Q 200 872 262 868 L 356 872 Q 408 882 440 902 L 430 918 Q 380 900 300 896 L 200 900 Q 168 906 158 914 Z"
            fill="#171310" stroke="#07080d" stroke-width="2"/>
      <!-- fader strips on the desk -->
      <g stroke="#46381f" stroke-width="2">
        <line x1="222" y1="878" x2="222" y2="892"/><line x1="240" y1="877" x2="240" y2="891"/>
        <line x1="258" y1="876" x2="258" y2="890"/><line x1="276" y1="876" x2="276" y2="890"/>
        <line x1="294" y1="877" x2="294" y2="891"/><line x1="312" y1="878" x2="312" y2="892"/>
      </g>
      <g fill="#a68d5c">
        <rect x="220" y="881" width="5" height="3"/><rect x="238" y="885" width="5" height="3"/>
        <rect x="256" y="879" width="5" height="3"/><rect x="274" y="883" width="5" height="3"/>
        <rect x="292" y="880" width="5" height="3"/><rect x="310" y="884" width="5" height="3"/>
      </g>
      <!-- twin VU meters, needles leaning into the red -->
      <g>
        <path d="M 342 890 a 11 11 0 0 1 22 0 Z" fill="#262015" stroke="#07080d" stroke-width="1.5"/>
        <line x1="353" y1="890" x2="359" y2="881" stroke="#ffa028" stroke-width="1.5"/>
        <path d="M 370 892 a 11 11 0 0 1 22 0 Z" fill="#262015" stroke="#07080d" stroke-width="1.5"/>
        <line x1="381" y1="892" x2="385" y2="882" stroke="#ffa028" stroke-width="1.5"/>
      </g>
      <!-- the shack window, lamp on -->
      <rect x="176" y="882" width="14" height="11" rx="1.5" fill="#ffdf9e" opacity="0.65" stroke="#07080d" stroke-width="1.5"/>
      <circle cx="183" cy="887" r="9" fill="url(#lampGlow)"/>
    </g>

    <!-- wordmark: centred in the clear field EAST of the aerial run (the
         house centreline sits under the ribbon on this table — the
         asymmetric layout moves the mark, not the run) -->
    <g id="art-wordmark">
      <path d="M 215 548 L 218 557 L 227 560 L 218 563 L 215 572 L 212 563 L 203 560 L 212 557 Z" fill="#ffa028" opacity="0.7"/>
      <path d="M 445 548 L 448 557 L 457 560 L 448 563 L 445 572 L 442 563 L 433 560 L 442 557 Z" fill="#ffa028" opacity="0.7"/>
      <text x="330" y="570" text-anchor="middle" font-family="ui-monospace, monospace"
            font-size="26" font-weight="800" letter-spacing="2"
            fill="#4e37a8" opacity="0.5" filter="url(#glowSoft)">NIGHT WAVES</text>
      <text x="330" y="566" text-anchor="middle" font-family="ui-monospace, monospace"
            font-size="26" font-weight="800" letter-spacing="2"
            fill="url(#chromeText)" stroke="#07080d" stroke-width="2" paint-order="stroke">NIGHT WAVES</text>
      <text x="330" y="566" text-anchor="middle" font-family="ui-monospace, monospace"
            font-size="26" font-weight="800" letter-spacing="2"
            fill="none" stroke="#ffa028" stroke-width="0.8" opacity="0.9">NIGHT WAVES</text>
      <text x="330" y="588" text-anchor="middle" font-family="ui-monospace, monospace"
            font-size="9" letter-spacing="4" fill="#a68d5c">ON · AIR · TILL · DAWN</text>
    </g>

    <!-- apron band along the drain -->
    <rect x="0" y="1036" width="575" height="14" fill="#3a2f1e" stroke="#07080d" stroke-width="1.5"/>
    <line x1="0" y1="1039" x2="575" y2="1039" stroke="#9c7c2c" stroke-width="1.5"/>
  </g>

  <!-- ═══════════════ art: plunger lane (the FM band) ═══════════════ -->
  <g id="art-lane">
    <!-- the dial climbs with the ball: tick marks + megahertz up the lane -->
    <g stroke="#46381f" stroke-width="1.5">
      <line x1="540" y1="440" x2="546" y2="440"/><line x1="540" y1="500" x2="546" y2="500"/>
      <line x1="540" y1="560" x2="546" y2="560"/><line x1="540" y1="620" x2="546" y2="620"/>
      <line x1="540" y1="920" x2="546" y2="920"/>
    </g>
    <g font-family="ui-monospace, monospace" font-size="11" font-weight="700" fill="#9c7c2c" text-anchor="middle">
      <text x="551" y="924">88</text>
      <text x="551" y="864">92</text>
      <text x="551" y="804">96</text>
      <text x="551" y="744">100</text>
      <text x="551" y="564">104</text>
      <text x="551" y="444">108</text>
    </g>
    <text x="547" y="988" text-anchor="middle" font-family="ui-monospace, monospace"
          font-size="8" letter-spacing="1" fill="#a68d5c">MHZ</text>
    <g stroke="#e0b64e" stroke-width="2.5" fill="none" stroke-linecap="round" stroke-linejoin="round" opacity="0.7">
      <path d="M 540.5 704.5 L 547.5 695.5 L 554.5 704.5"/>
      <path d="M 540.5 668.5 L 547.5 659.5 L 554.5 668.5"/>
    </g>
    <!-- the tuning capacitor brackets beside the spinner -->
    <g fill="#3a2f1e" stroke="#07080d" stroke-width="1.5">
      <rect x="432" y="158" width="8" height="18" rx="2" transform="rotate(-34 436 167)"/>
      <rect x="530" y="182" width="8" height="18" rx="2" transform="rotate(-34 534 191)"/>
    </g>
    <text x="470" y="230" text-anchor="middle" font-family="ui-monospace, monospace"
          font-size="9" letter-spacing="2" fill="#a68d5c" transform="rotate(-34 470 230)">THE DIAL</text>
  </g>

  <g id="art-vignette">
    <rect x="0" y="0" width="575" height="1050" fill="url(#vignette)"/>
  </g>

  <!-- ═══════════════ collision (rendered as layered asphalt rails) ═══════════════
       One set of paths = both physics and art. data-width feeds the physics
       radius (width/2). The full sweep arc is Tidebreaker's proven orbit;
       the aerial-run rails carry data-surface and follow the LOCAL surface
       height (ground-solid near the mouth, overhead at the crest). -->
  <defs>
    <g id="collision-paths" fill="none">
      <!-- outer shell: identical envelope to Moondial (centred per §3) -->
      <path data-width="12" data-z="all" id="collision-loop-shell" d="M 0 1050 L 0 260 L 1.3 234.5 L 5 209.3 L 11.2 184.5 L 19.8 160.5 L 30.7 137.4 L 43.8 115.6 L 59 95.1 L 76.2 76.2 L 95.1 59 L 115.6 43.8 L 137.4 30.7 L 160.5 19.8 L 184.5 11.2 L 209.3 5 L 234.5 1.3 L 260 0 L 290.9 1.5 L 321.5 6.1 L 351.4 13.6 L 380.5 24 L 408.5 37.2 L 435 53.1 L 459.8 71.5 L 482.7 92.3 L 503.5 115.2 L 521.9 140 L 537.8 166.5 L 551 194.5 L 561.4 223.6 L 568.9 253.5 L 573.5 284.1 L 575 315 L 575 1050 Z"/>
      <!-- plunger lane inner wall -->
      <path data-width="12" data-z="all" id="collision-wall-lane" d="M 520 300 L 520 1050"/>
      <!-- the City Sweep: full orbit inner wall, launch rides it around -->
      <path data-width="12" id="collision-wall-orbit" d="M 65 550 L 65 260 L 66.5 236.2 L 70.8 212.8 L 78 190.1 L 87.8 168.5 L 100.3 148.2 L 115.1 129.5 L 132.1 112.8 L 151 98.3 L 171.5 86.3 L 193.3 76.8 L 216.1 70 L 239.6 66.1 L 263.4 65 L 287.1 66.9 L 310.5 71.6 L 333 79.2 L 354.5 89.4 L 374.6 102.2 L 393 117.4 L 409.4 134.7 L 520 300"/>
      <!-- W-A-V-E lane dividers, starting 4 mm below the orbit arc line -->
      <path data-width="12" id="collision-wall-divider-1" d="M 190 82 L 190 150"/>
      <path data-width="12" id="collision-wall-divider-2" d="M 260 69 L 260 150"/>
      <path data-width="12" id="collision-wall-divider-3" d="M 330 82 L 330 150"/>
      <!-- deflector chevron above the left outlane (both faces per table 2) -->
      <path data-width="12" id="collision-wall-deflector" d="M 0 598 L 34 619 L 0 670"/>
      <!-- inlane guides: outlane channel outside, inlane inside, each ending
           tangent to its flipper base circle past the apex -->
      <path data-width="12" id="collision-wall-guide-left" d="M 52 690 L 52 905 L 174.2 938.4"/>
      <path data-width="12" id="collision-wall-guide-right" d="M 470 690 L 470 905 L 345.9 938.4"/>
      <!-- phone hood: mouth opens down-left, never traps -->
      <path data-width="12" id="collision-wall-phone-hood" d="M 316 460 L 314.3 453.7 L 311.8 444.9 L 308 437 L 302.6 431.3 L 296 426.6 L 289 423 L 281.9 420.5 L 274.4 419.1 L 267 419 L 259.3 420.5 L 251.7 423.3 L 245 427 L 239.5 432.3 L 235 438.6 L 232 443"/>
      <!-- fader bank housing: recess brackets off the lane wall (mirror of
           table 2's airlock — the left-flipper cross shot) -->
      <path data-width="12" id="collision-wall-bank-housing" d="M 520 415 L 503 423 L 503 547 L 520 555"/>
      <!-- plunger saddle: the ball rests here, above the animated spring -->
      <path data-width="12" id="collision-wall-plunger-saddle" d="M 526 1000 L 569 1000"/>
    </g>
    <g id="collision-paths-elevated" fill="none">
      <!-- THE AERIAL RUN (data-surface): mouth above the left flipper,
           climbing the left side, straddling the sweep channel at h34,
           open-ended at the mast (the ball flies off, M11 ballistics) -->
      <path data-width="12" data-surface="aerial" id="collision-wall-aerial-west" d="M 139 700.7 L 138 661.3 L 135.1 610.5 L 130.2 569.4 L 125.2 527.4 L 121.7 496.3 L 118.7 468.3 L 111.7 450.8 L 105.2 431 L 91.6 401.9 L 78.2 371.2 L 65.9 340.4 L 54.6 309.5 L 46.1 282.8 L 39.7 256.2 L 34.3 229.3 L 33 209.2 L 35.6 184.3 L 42.8 159.9 L 51.1 142 L 60.1 125.2 L 69 111.7 L 78 98.7 L 85.7 87.2 L 92.5 76.4"/>
      <path data-width="12" data-surface="aerial" id="collision-wall-aerial-east" d="M 197 699.3 L 196 658.7 L 192.9 605.5 L 187.8 562.6 L 182.8 520.6 L 179.3 489.7 L 175.3 455.7 L 166.3 431.2 L 158.8 409 L 144.4 378.1 L 131.8 348.8 L 120.1 319.6 L 109.4 290.5 L 101.9 267.2 L 96.3 243.8 L 91.7 220.7 L 91 210.8 L 92.4 195.7 L 97.2 180.1 L 102.9 168 L 109.9 154.8 L 117 144.3 L 126 131.3 L 134.3 118.8 L 141.5 107.6"/>
    </g>
    <g id="collision-backs" fill="none">
      <!-- the run's solid underside at h≈28 (STYLE-GUIDE §4 back rule;
           z-max 10 per the Midway caution — this is a moderate hill and a
           fast climber's CCD must not snag before its height clears) -->
      <path data-width="12" data-z-max="10" id="collision-wall-aerial-back" d="M 121.2 491.8 L 178.8 485.3"/>
    </g>
  </defs>
  <!-- ramp back: shadowed understructure so it doesn't read as a gate -->
  <g id="art-ramp-backs" fill="none" stroke-linecap="round">
    <g stroke="#07080d" stroke-width="12" opacity="0.85"><use href="#collision-backs"/></g>
    <g stroke="#46381f" stroke-width="6.5"><use href="#collision-backs"/></g>
    <g stroke="#aeb6c8" stroke-width="2" opacity="0.85"><use href="#collision-backs"/></g>
  </g>
  <!-- field walls: layered ASPHALT rails (rooftop-500/300 per STYLE-GUIDE
       §2), kept dark so the lit ball and lamps pop -->
  <g id="art-rails" fill="none" stroke-linecap="round" stroke-linejoin="round">
    <g stroke="#07080d" stroke-width="16"><use href="#collision-paths"/></g>
    <g stroke="#46381f" stroke-width="12"><use href="#collision-paths"/></g>
    <g stroke="#a68d5c" stroke-width="6.5"><use href="#collision-paths"/></g>
    <g stroke="#d7dce8" stroke-width="2.2" opacity="0.55"><use href="#collision-paths"/></g>
  </g>
  <!-- the aerial run: SEMI-TRANSPARENT amber glass between opaque chrome
       wires (per-table glass tint, STYLE-GUIDE §2 — matches
       TableSpec.theme.rampGlass3d). The 2D renderer strips this group from
       the base raster and composites it over/under the ball by layer. -->
  <g id="art-rails-elevated" fill="none" stroke-linecap="round" stroke-linejoin="round">
    <!-- the glass bed: transmitter-amber wash spanning the channel -->
    <g stroke="#ffa028" stroke-width="46" opacity="0.12">
      <path d="M 168 700 L 167 660 L 164 608 L 159 566 L 154 524 L 150.5 493 L 147 462 L 139 441 L 132 420 L 118 390 L 105 360 L 93 330 L 82 300 L 74 275 L 68 250 L 63 225 L 62 210 L 64 190 L 70 170 L 77 155 L 85 140 L 93 128 L 102 115 L 110 103 L 117 92"/>
    </g>
    <g stroke="#ffffff" stroke-width="46" opacity="0.04">
      <path d="M 168 700 L 167 660 L 164 608 L 159 566 L 154 524 L 150.5 493 L 147 462 L 139 441 L 132 420 L 118 390 L 105 360 L 93 330 L 82 300 L 74 275 L 68 250 L 63 225 L 62 210 L 64 190 L 70 170 L 77 155 L 85 140 L 93 128 L 102 115 L 110 103 L 117 92"/>
    </g>
    <!-- rail edges: OPAQUE bright chrome wire — only the bed is glass -->
    <g stroke="#07080d" stroke-width="15"><use href="#collision-paths-elevated"/></g>
    <g stroke="#aeb6c8" stroke-width="11"><use href="#collision-paths-elevated"/></g>
    <g stroke="#d7dce8" stroke-width="5.5"><use href="#collision-paths-elevated"/></g>
    <g stroke="#ffffff" stroke-width="2"><use href="#collision-paths-elevated"/></g>
    <!-- cross-ties -->
    <g stroke="#565d6e" stroke-width="2.5">
      <line x1="137" y1="650" x2="196" y2="649"/><line x1="132" y1="570" x2="188" y2="563"/>
      <line x1="124" y1="500" x2="180" y2="493"/><line x1="99" y1="416" x2="162" y2="422"/>
      <line x1="72" y1="357" x2="129" y2="342"/><line x1="45" y1="279" x2="102" y2="264"/>
      <line x1="33" y1="212" x2="91" y2="211"/><line x1="48" y1="151" x2="106" y2="161"/>
      <line x1="74" y1="103" x2="130" y2="124"/>
    </g>
  </g>

  <!-- ═══════════════ height profiles (aerial surface + subway guide) ═══════════════ -->
  <g fill="none" stroke="none">
    <path id="height-profile-aerial-a" data-layer="1" data-surface="aerial" data-surface-width="58" data-height-from="0" data-height-to="14"
          d="M 168 700 L 167 660 L 164 608"/>
    <path id="height-profile-aerial-b" data-layer="1" data-surface="aerial" data-surface-width="58" data-height-from="14" data-height-to="24"
          d="M 164 608 L 159 566 L 154 524"/>
    <path id="height-profile-aerial-c" data-layer="1" data-surface="aerial" data-surface-width="58" data-height-from="24" data-height-to="31"
          d="M 154 524 L 150.5 493 L 147 462"/>
    <path id="height-profile-aerial-d" data-layer="1" data-surface="aerial" data-surface-width="58" data-height-from="31" data-height-to="34"
          d="M 147 462 L 139 441 L 132 420"/>
    <path id="height-profile-aerial-e" data-layer="1" data-surface="aerial" data-surface-width="58" data-height-from="34" data-height-to="34"
          d="M 132 420 L 118 390 L 105 360 L 93 330 L 82 300 L 74 275 L 68 250 L 63 225 L 62 210 L 64 190 L 70 170 L 77 155 L 85 140 L 93 128 L 102 115 L 110 103 L 117 92"/>
    <path id="height-profile-sidedoor" data-layer="-1" data-height-from="-8" data-height-to="-8"
          d="M 496 920 L 490 950 L 478 980 L 460 1000 L 430 1013 L 390 1021 L 340 1026 L 290 1028 L 240 1026 L 195 1018 L 150 1004 L 110 982 L 80 950 L 60 905 L 50 850 L 48 800 L 52 755 L 60 715 L 68 685 L 78 700"/>
  </g>

  <!-- ═══════════════ sensors (invisible; zones only) ═══════════════ -->
  <g fill="none" stroke="none">
    <rect id="sensor-drain" x="0" y="1005" width="520" height="30"/>
    <rect id="sensor-rollover-1" x="147" y="105" width="30" height="20"/>
    <rect id="sensor-rollover-2" x="210" y="105" width="30" height="20"/>
    <rect id="sensor-rollover-3" x="280" y="105" width="30" height="20"/>
    <rect id="sensor-rollover-4" x="343" y="105" width="30" height="20"/>
    <!-- sweep pair: a full City Sweep is entry+exit inside the pairing window -->
    <rect id="sensor-ramp-entry" x="2.5" y="492" width="60" height="16"/>
    <rect id="sensor-ramp-exit" x="442" y="117" width="36" height="36"/>
    <!-- THE DIAL: spinner spanning the top-right launch channel -->
    <rect id="sensor-spinner" x="436" y="168" width="102" height="18"/>
    <rect id="sensor-kicker-phone" x="252" y="430" width="40" height="40"/>
    <rect id="sensor-kicker-generator" x="8" y="940" width="36" height="35"/>
    <!-- switchboard: sensor-only capture (lit-gated), z-banded so aerial
         riders crossing overhead at h34 never trip it -->
    <rect id="sensor-kicker-switchboard" data-z-max="8" x="110" y="350" width="44" height="38"/>
    <rect id="sensor-subway-sidedoor" x="478" y="900" width="36" height="35"/>
  </g>

  <!-- ═══════════════ anchors (invisible placement points) ═══════════════ -->
  <g fill="none" stroke="none">
    <circle id="anchor-flipper-left" cx="171" cy="950" r="5"/>
    <circle id="anchor-flipper-right" cx="349" cy="950" r="5"/>
    <circle id="anchor-spawn" cx="547.5" cy="980" r="5"/>
    <circle id="anchor-bumper-1" cx="285" cy="240" r="5"/>
    <circle id="anchor-bumper-2" cx="390" cy="275" r="5"/>
    <circle id="anchor-bumper-3" cx="315" cy="345" r="5"/>
    <circle id="anchor-kicker-phone" cx="272" cy="450" r="5"/>
    <circle id="anchor-kicker-generator" cx="44" cy="680" r="5"/>
    <circle id="anchor-kicker-switchboard" cx="132" cy="369" r="5"/>
    <circle id="anchor-disc-deck" cx="320" cy="640" r="5"/>
  </g>
</svg>
